<svg xmlns="http://www.w3.org/2000/svg" viewBox="0 -200 1000 1000"><path fill="currentColor" d="M132 220Q262 62 469 62q182 0 310.5 128.5T908 501 779.5 811.5 469 940 158.5 811 30 501q0-161 102-281zm38 22Q75 350 75 498q0 62 16 113h64l1 58-1 17v52q16 20 26 30V604q0-75 35-139.5T310 360V257h-62q27-33 58-57 32-24 49-30l18-6v93h-33v85q64-33 136-33 122 0 208.5 86.5T771 604v136h12q4-5 7-8t6-8l8-13v-97h45q17-57 17-116 0-164-116-279.5T470 103q-182 0-300 139zm309 90q-43 0-73.5 5T375 350t30 13.5 74 5.5q43 0 73-5.5t30-13.5q0-7-30-12.5t-73-5.5zm-88 75v189h230V407H391zm100 47q19 0 33 14t14 34-13.5 34-33.5 14-34-14-14-34 14-34 34-14zM198 623v71h552v-71H198zm98 98v127q35 17 68 28t49 13l15 2V721H296z"/></svg>