<?xml version="1.0" encoding="utf-8"?>
<!-- Generator: Adobe Illustrator 21.0.2, SVG Export Plug-In . SVG Version: 6.00 Build 0)  -->
<svg version="1.1" id="Layer_1" xmlns="http://www.w3.org/2000/svg" xmlns:xlink="http://www.w3.org/1999/xlink" x="0px" y="0px"
	 width="24px" height="24px" viewBox="0 0 24 24" style="enable-background:new 0 0 24 24;" xml:space="preserve">
<path d="M3.3,4.7C5.5,2,8.4,0.6,12,0.6c3.1,0,5.8,1.1,8.1,3.3s3.3,4.9,3.3,8.1s-1.1,5.8-3.3,8.1s-4.9,3.3-8.1,3.3S6.2,22.3,3.9,20
	s-3.3-4.9-3.3-8C0.6,9.2,1.5,6.8,3.3,4.7z M4.2,5.3c-1.6,1.9-2.5,4.1-2.5,6.6c0,1.1,0.1,2.1,0.4,2.9h1.7l0,1.5l0,0.4v1.3
	c0.3,0.3,0.5,0.6,0.7,0.8v-4.3c0-1.3,0.3-2.5,0.9-3.6s1.4-2,2.4-2.7V5.7H6.3c0.5-0.6,1-1.1,1.5-1.5c0.6-0.4,1-0.7,1.3-0.8l0.5-0.2
	v2.4H8.7v2.2C9.8,7.3,10.9,7,12.2,7c2.1,0,3.9,0.7,5.4,2.2c1.5,1.5,2.2,3.3,2.2,5.4v3.5h0.3c0.1-0.1,0.1-0.2,0.2-0.2
	c0.1-0.1,0.1-0.1,0.2-0.2l0.2-0.3v-2.5h1.2c0.3-1,0.4-2,0.4-3c0-2.8-1-5.3-3-7.3s-4.4-3-7.3-3C8.9,1.7,6.3,2.9,4.2,5.3z M12.3,7.6
	c-0.7,0-1.4,0-1.9,0.1C9.8,7.8,9.6,7.9,9.6,8.1c0,0.1,0.3,0.3,0.8,0.4c0.5,0.1,1.2,0.1,1.9,0.1c0.7,0,1.4,0,1.9-0.1
	c0.5-0.1,0.8-0.2,0.8-0.4c0-0.1-0.3-0.2-0.8-0.3S13,7.6,12.3,7.6z M10,9.6v4.9h6V9.6H10z M12.6,10.8c0.3,0,0.6,0.1,0.9,0.4
	c0.2,0.2,0.4,0.5,0.4,0.9s-0.1,0.6-0.4,0.9s-0.5,0.4-0.9,0.4s-0.6-0.1-0.9-0.4c-0.2-0.2-0.4-0.5-0.4-0.9s0.1-0.6,0.4-0.9
	C11.9,10.9,12.2,10.8,12.6,10.8z M5,15.2V17h14.3v-1.8H5z M7.5,17.7V21c0.6,0.3,1.2,0.5,1.8,0.7c0.6,0.2,1,0.3,1.3,0.3l0.4,0.1v-4.4
	H7.5z"/>
</svg>
