<?xml version="1.0" encoding="utf-8"?>
<!-- Generator: Adobe Illustrator 21.0.2, SVG Export Plug-In . SVG Version: 6.00 Build 0)  -->
<svg version="1.1" id="Layer_1" xmlns="http://www.w3.org/2000/svg" xmlns:xlink="http://www.w3.org/1999/xlink" x="0px" y="0px"
	 width="24px" height="24px" viewBox="0 0 24 24" style="enable-background:new 0 0 24 24;" xml:space="preserve">
<path d="M18.6,17.8c0,0.3,0,0.5-0.1,0.5c-0.1,0.1-0.2,0.1-0.5,0.1c-0.2,0-0.4-0.1-0.6-0.1c-0.2-0.1-0.4-0.2-0.8-0.4
	c-0.5-0.3-0.8-0.5-1.1-0.7c-0.5-0.4-1-0.8-1.5-1.2c-0.6-0.5-1.2-1.1-1.9-1.8c-1.7-1.7-3.2-3.4-4.6-5S4.9,6.2,3.9,5
	C2.7,3.6,1.6,2.3,0.7,1C2,1.9,3.3,3,4.8,4.1C6,5.1,7.4,6.2,9,7.6s3.3,2.9,5,4.5c1,1.1,1.6,1.7,1.9,2c0.8,1,1.3,1.5,1.3,1.5
	c0.2,0.3,0.5,0.7,0.9,1.3C18.4,17.3,18.6,17.6,18.6,17.8z M6.2,12.6C6.5,12.8,6.8,13,7,13.1c0.2,0.1,0.4,0.2,0.5,0.2
	c0.1,0,0.2,0,0.2,0c0,0,0-0.1,0-0.2c-0.1-0.2-0.2-0.4-0.5-0.8L0.7,5.5C2.2,6.8,3.6,8.1,5,9.4c0.6,0.6,1.2,1.1,1.9,1.7s1.3,1.2,2,1.8
	c0.7,0.6,1.3,1.2,1.9,1.7c0.8,0.7,1.4,1.2,1.8,1.6c2.1,1.9,3.9,3.1,5.2,3.8c0.6,0.3,1.1,0.5,1.5,0.5c0.4,0,0.7-0.1,0.9-0.4l0-0.2
	v-0.1c0-0.1-0.1-0.4-0.2-0.8c-0.2-0.5-0.6-1.2-1-1.9c-0.5-0.8-1-1.6-1.5-2.4c-0.7-1-1.3-1.8-1.8-2.6c-1.5-2-3.2-4.3-5.1-6.9
	c0.8,0.7,1.6,1.4,2.4,2c0.3,0.3,0.6,0.5,1,0.8c0.3,0.3,0.6,0.6,0.9,0.8c0.3,0.3,0.5,0.5,0.8,0.7c0.2,0.2,0.4,0.4,0.6,0.6
	c0.1,0.1,0.3,0.1,0.4-0.1c0.1-0.2,0.2-0.5,0.2-0.8c0.1-0.3,0.1-0.8,0.2-1.3c0.6,1.2,1.2,2.3,1.7,3.2c0.2,0.4,0.4,0.8,0.6,1.2
	c0.2,0.4,0.4,0.7,0.6,1c0.2,0.3,0.3,0.5,0.5,0.7s0.2,0.3,0.3,0.3c0.1,0,0.3-0.2,0.4-0.5s0.2-0.7,0.3-1.1c0.1-0.5,0.1-1,0.2-1.5
	c0.6,1.3,1,2.5,1.3,3.6c0.2,0.8,0.4,1.8,0.5,3.1c0,0.2,0,0.3,0,0.5c0,0.7-0.1,1.4-0.2,1.9c-0.2,0.7-0.5,1.3-0.9,1.7
	c-0.2,0.2-0.4,0.4-0.7,0.4c-0.3,0.1-0.6,0.2-0.9,0.2h-0.3c-0.2,0-0.4,0-0.8,0c-0.5-0.1-0.8-0.1-1.1-0.2c-0.7-0.1-1.6-0.4-2.8-0.8
	c0,0-0.2-0.1-0.5-0.2s-0.7-0.3-1.2-0.5c-0.5-0.2-1-0.5-1.7-0.8s-1.3-0.6-1.9-0.9c-1.5-0.7-3.2-1.5-5.2-2.4c0.3,0,0.6,0.1,1,0.1
	c0.3,0,0.6,0.1,1,0.1s0.7,0,1.1,0c0.1,0,0.2,0,0.5,0c0.4,0,0.6-0.1,0.6-0.2c0,0,0-0.1-0.1-0.1c-0.3-0.4-0.9-0.9-1.7-1.5
	c-0.5-0.3-1-0.8-1.7-1.3c-0.6-0.6-1.2-1.1-1.7-1.7c-0.6-0.6-1.3-1.3-2-2c0.2,0.2,0.5,0.4,0.8,0.6c0.3,0.2,0.7,0.4,1.2,0.7
	C4.8,12,5.4,12.3,6.2,12.6z"/>
</svg>
