<svg xmlns="http://www.w3.org/2000/svg" viewBox="0 -200 1006 1000"><path fill="currentColor" d="M681 646q-8 9-29 2-18-6-53-30.5T505 535q-71-73-128.5-138.5T277 281q-49-58-87-109 52 37 112 84 51 40 117 96t139 124q59 60 85.5 94.5T679 621q9 20 2 25zM341 491q29 17 37.5 18t7.5-6q-2-7-15-21L190 295q59 54 119 107 25 23 52.5 47.5t55 48.5 53.5 47.5 50 42.5q90 77 143 105 25 13 43 13 15 0 24-11 3-7-6.5-28T696 616t-42.5-65.5T604 478q-60-86-140-190 34 30 64 57 26 24 51.5 46t37.5 37q5 7 10-2t7-21q3-14 5-36 26 49 47 88 9 16 17.5 32t16.5 28.5 13 20 7 7.5q5 0 9.5-12.5T756 503q3-18 5-43 23 50 50 184 1 5 1 11-4 77-30 103-8 8-19 12-11 5-25 5.5t-29.5-1T678 770q-36-7-76-22-2 0-15-5.5t-33.5-15T507 706t-53-24q-63-30-141-68 12 2 27 3 11 2 26.5 2.5t30.5.5q10 1 13 1 19-2 19-7 0-1-1-2-9-14-46-41-20-13-45.5-36.5T287 488q-27-27-54-55 8 6 23 15 12 8 33 18.5t52 24.5zm655-95q4 24 7 50.5t3 50.5q0 101-38 190.5T862.5 844 706 949.5 516 988q-100 0-188.5-38.5T173 844 68.5 688 30 497q0-90 28-167t80-142l52 70q-36 52-58.5 112T109 497q0 84 32 158t87 128.5T357.5 870 516 902t157.5-32T802 783.5 888.5 655 920 497q0-25-6-56.5t-9-54.5zM516 91q-68 0-130.5 23.5T269 178q-15-12-33-27t-29-26q65-52 142-82.5T516 12q93 0 174 30.5T835 129l97-79 48 298-299-85 90-75q-52-45-115-71T516 91z"/></svg>