<svg xmlns="http://www.w3.org/2000/svg" viewBox="0 -267 1000 1000"><path fill="currentColor" d="M507 664q-6 9-27 2-10-3-22-10-10-5-30-20-9-6-19-14t-22-18q-23-19-51-48-35-35-65.5-68.5T212 422t-52.5-60.5T115 309q-23-29-44.5-55T30 203q52 37 109 82 49 38 114 93 64 54 135 120 14 15 26.5 28t23.5 25q11 11 19 21t15 18 12 15.5 10 13.5q4 6 7 11t5 9q9 19 1 25zm57 126q-7 1-14 .5t-15-1.5-15-2-15-3q-29-7-36-8-9-1-39-12-1 0-14-6-12-4-33-15-10-5-21-10t-23-10l-51-24q-62-28-138-66 6 1 12 1.5t14 1.5q6 1 12 1.5t14 1.5h29q9 1 16 1 16 0 16-6 0-1-1-3-6-12-46-40-18-12-44-35-12-11-24-22.5T125 511q-13-14-25.5-27.5T73 456q8 7 22 16 6 4 14 8.5t18 9.5l22 11 27 13q8 4 13.5 6.5T200 525q10 5 14 5 4 1 6-1 1-1 1-4-3-5-5-8-4-7-9-12L30 323l58 52 58 52q2 2 24 23 13 11 27 23 14 11 27 23t27 24 26.5 23.5T303 566q26 22 48 42 86 77 139 103 26 13 42 13 16-1 23-11 4-6-5-28-5-11-11.5-23T523 635q-17-30-41-64-12-17-24-35t-25-35q-29-42-63.5-87.5T296 317q34 29 63 54 7 6 13 11.5t13 11.5q6 6 12 11.5t12 11.5q6 5 11 10l10 10 16 16q6 6 9-3 5-9 6-20 2-8 3-16.5t2-18.5q12 24 23.5 45.5T512 481q7 15 17 32 5 8 9 14.5t7 12.5q4 6 7 11t6 8q7 7 7 8 1 6 9-13 3-9 7-29 3-16 3-19 1-11 2-23 12 26 20 50 7 19 15 47 14 48 14 82v29q0 7-3 26-9 56-68 73zm17-672v77L358 74 136 195v-77L358-3zm-124 50v61l-99-54-99 54v-61l99-54zm-99 899L136 945v-77l222 122 223-122v77zm0-117l-99-54v-62l99 54 99-54v62z"/></svg>