<?xml version="1.0" encoding="utf-8"?>
<!-- Generator: Adobe Illustrator 21.0.2, SVG Export Plug-In . SVG Version: 6.00 Build 0)  -->
<svg version="1.1" id="Layer_1" xmlns="http://www.w3.org/2000/svg" xmlns:xlink="http://www.w3.org/1999/xlink" x="0px" y="0px"
	 width="24px" height="24px" viewBox="0 0 24 24" style="enable-background:new 0 0 24 24;" xml:space="preserve">
<path d="M8.8,16.8l-3.9-0.1l-0.2,1.7l-4.5-4l5.4-1.9l-0.2,1.6c1.4,0.1,2.2,0.2,2.6,0.2c2.9,0,4.9-0.7,6-2c0.4-0.7,0.6-1.4,0.6-1.9v0
	c0-0.6-0.2-1.1-0.6-1.8c-0.6-0.7-1.3-1-1.9-1c-0.6,0.1-0.9,0.2-1,0.2C11,8,10.9,8.1,10.8,8.1c-0.1,0.1-0.2,0.2-0.3,0.2
	c-0.2,0.3-0.4,0.5-0.5,0.7C10,9.2,9.9,9.4,9.9,9.4c0,0.1-0.1,0.2-0.1,0.3l0,0.2v0.5c0,0,0,0,0,0.1c0,0.3,0.2,0.7,0.5,1.2
	c0.3,0.6,0.7,1,1.2,1.2c0,0-0.1,0-0.1,0c0,0-0.1,0.1-0.2,0.1c-0.1,0.1-0.3,0.1-0.4,0.2c-0.5,0.1-1.2,0.2-2.1,0.3
	c-0.8-1.2-1.2-2.3-1.2-3.4s0.5-2.2,1.5-3.5c1.3-1,2.4-1.5,3.4-1.5h0.1c1.1,0,2.2,0.5,3.3,1.4c1,1.3,1.5,2.6,1.5,3.9v0
	c0,1.2-0.5,2.6-1.6,4c-1,0.9-2.1,1.5-3.1,1.8C11.3,16.6,10.1,16.8,8.8,16.8z M19.2,12.9l4.6,3.8L18,18.8l0.3-2.1l-3.9-0.3
	c0.4-0.1,0.8-0.4,1.1-0.7c0.4-0.3,0.8-0.8,1.3-1.4l2.1,0.1L19.2,12.9z"/>
</svg>
