<svg xmlns="http://www.w3.org/2000/svg" viewBox="0 -200 1257 1000"><path fill="currentColor" d="M475 737l-202-6-10 90L30 614l281-97-10 84q107 8 137 8 224 0 315-102 31-56 31-100v-1q-1-44-31-92-50-53-99-53-44 7-54.5 13T580 287t-15 10q-19 24-24.5 37.5t-8 19.5-4.5 15l-2 12v24q-1 1-1 4 0 20 25 64 26 45 63 65-2 0-5.5 2.5T595 547t-23 8q-38 11-109 14-62-94-62-178.5T477 210q98-76 180-77h3q83 2 171 72 76 104 77 201v1q0 96-81 209-79 71-164 96t-188 25zm544-201l238 197-298 110 14-110-204-15q32-11 60-34.5t69-71.5l109 7z"/></svg>