<svg xmlns="http://www.w3.org/2000/svg" viewBox="0 -200 1000 1000"><path fill="currentColor" d="M460 60h8q108 0 201 48 108 54 173.5 160.5T908 496q0 17-1 26-5 130-87 239.5T614 913q-68 25-144 25-90 0-174.5-35.5T150 802Q30 679 30 497q0-91 34-169 48-118 158.5-192.5T460 60zm2 41q-120 1-222.5 73.5T97 360q-24 66-24 134 0 91 40 175.5T225 808q102 84 245 84 129 0 229-73 78-53 122-141t44-184q0-58-15-106-33-123-140.5-205T474 101h-12zm171 106q24 1 54 9 31 6 46 30.5t15 56.5q0 2-.5 6t-.5 5q6 13 6 31 0 27-19 51-1 6-3.5 24.5t-4.5 30-9 26-18 22.5q-13 0-19 7.5t-7 16.5-6.5 20-15.5 17q-3 15-13.5 28t-20 20.5T593 625t-18 11q-17 0-25 10.5T535 674t-17 25q-12 18-48.5 28T424 745q-24 31-59 31-10 0-21-3-21 8-40 8-44 0-78-32.5T192 666q2-15 2.5-35t2.5-31.5 11-23.5q32-15 32-53v-9l8-16 9-18 10-15 13-15 14-8 17-4h6q10-5 15-23.5t14-25.5q34-46 111-75 1-3 6-16t8.5-21 12.5-17 20-12q25-2 66-20t53-21h10zm26 18q-11 4-25 18 4 2 16.5 9t18 11 15.5 12 18.5 18.5T720 318q4-3 12-26-21-49-73-67zm-126 26q-8 3-14 7t-8 6.5-5.5 7.5-4.5 6h14q43 0 75 11.5t53.5 35.5 33.5 47 26 60q4 0 15-24-22-73-64-114.5T533 251zm-21 83q-15 0-26 3l38 57q11-1 24 2l23-45q-25-17-59-17zm-41 5q-5 1-10 2.5t-8 3.5-6 5.5-5 5.5-4 6.5-2.5 6.5-2.5 7.5-2 6.5l65 22q4-9 16-10zm112 19l-24 45q14 11 20 21l56 2q-9-40-52-68zm-198 16q-12 6-20 17.5t-10 19-7 25.5q16 1 32 10-5-25-5-35 0-8 1.5-14.5t4.5-13 4-9.5zm44 20v8q0 23 18 50l46-17q-2-15-1-21zm153 43q1 7-1 21l50 46q12-26 12-45 0-5-2-21zm-84 8l-44 19q11 24 38 40l25-40q-14-7-19-19zm-192 8q-6 0-11 2.5t-11 7-9 6.5q-14 14-14 22v3q4 0 16-7.5t31-10.5q79 14 133.5 85T496 674v7q0 7-2 12.5t-6.5 12-5.5 9.5q13-2 26-19 0-2 3.5-13t3.5-17q0-7-4-18 0-12-22-52.5T437 528q-46-42-73.5-58T309 453h-3zm269 13q-3 5-18 7l10 57q33 0 53-17zm-49 2l-25 45q24 17 52 17h3l-8-57q-8 1-22-5zm-261 66q-7 0-10 1-9 17-13 32 20 3 32 6t31 14.5 38 31.5q22-20 28-30-49-55-104-55h-2zm331 53q-19 4-36 4-19 0-28-4v15q0 14 5 18 48-15 59-33zm-207 24q-12 6-35 29 36 34 47 99 13-6 31-18v-7q0-63-43-103zm-174 8q-4 0-6 1-6 4-5 20l16-1q4-8 4-19-6-2-9-1zm26 8q-3 4-5 7.5t-3 6-2 3.5q1 1 11.5 7t15.5 9.5 14 10 16.5 14.5 13.5 17q10-3 18-13-39-47-79-62zm-28 59q-7-1-10 3-2 4-2 7 0 19 27.5 48t47.5 29q4 0 6-1 3-6 3-11 0-21-27-47.5T213 686zm2 12q13 1 36 22t23 33q0 3-1 4-3 1-7 1-18 0-37-22.5T210 702q0-2 2-2 2-2 3-2zm120 10l-18 15 2 1q2 1 2.5 2t2 3.5 2.5 6 2 10 1 14.5q1 0 18-4 0-1 .5-3.5t.5-4.5q0-18-13-40z"/></svg>