<?xml version="1.0" encoding="utf-8"?>
<!-- Generator: Adobe Illustrator 21.0.2, SVG Export Plug-In . SVG Version: 6.00 Build 0)  -->
<svg version="1.1" id="Layer_1" xmlns="http://www.w3.org/2000/svg" xmlns:xlink="http://www.w3.org/1999/xlink" x="0px" y="0px"
	 width="24px" height="24px" viewBox="0 0 24 24" style="enable-background:new 0 0 24 24;" xml:space="preserve">
<path d="M11.8,0.6H12c1.9,0,3.6,0.4,5.2,1.2c1.9,0.9,3.4,2.3,4.5,4.2s1.7,3.8,1.7,5.9c0,0.3,0,0.5,0,0.7c-0.1,2.2-0.8,4.3-2.3,6.2
	c-1.4,1.9-3.2,3.2-5.3,3.9c-1.2,0.4-2.4,0.6-3.7,0.6c-1.6,0-3.1-0.3-4.5-0.9C6,21.9,4.8,21,3.7,19.9c-2.1-2.1-3.1-4.8-3.1-7.9
	c0-1.6,0.3-3,0.9-4.4c0.8-2,2.2-3.7,4.1-5S9.6,0.6,11.8,0.6z M11.8,1.7c-2.1,0-4,0.7-5.8,1.9S3,6.4,2.3,8.4
	c-0.4,1.1-0.6,2.3-0.6,3.5c0,1.6,0.3,3.1,1,4.6s1.7,2.7,2.9,3.6c1.8,1.5,3.9,2.2,6.4,2.2c2.2,0,4.2-0.6,5.9-1.9
	c1.3-0.9,2.4-2.1,3.2-3.7c0.8-1.5,1.1-3.1,1.1-4.8c0-1-0.1-1.9-0.4-2.8c-0.6-2.1-1.8-3.9-3.6-5.3s-3.9-2.1-6.1-2.1H11.8z M16.3,4.4
	c0.4,0,0.9,0.1,1.4,0.2c0.5,0.1,0.9,0.4,1.2,0.8c0.3,0.4,0.4,0.9,0.4,1.5c0,0,0,0.1,0,0.2c0,0.1,0,0.1,0,0.1
	c0.1,0.2,0.2,0.5,0.2,0.8c0,0.5-0.2,0.9-0.5,1.3c0,0.1,0,0.3-0.1,0.6c0,0.3-0.1,0.6-0.1,0.8c0,0.2-0.1,0.4-0.2,0.7
	c-0.1,0.3-0.3,0.4-0.5,0.6c-0.2,0-0.4,0.1-0.5,0.2c-0.1,0.1-0.2,0.3-0.2,0.4c0,0.2-0.1,0.3-0.2,0.5c-0.1,0.2-0.2,0.3-0.4,0.4
	c-0.1,0.3-0.2,0.5-0.4,0.7c-0.2,0.2-0.4,0.4-0.5,0.5c-0.2,0.1-0.4,0.3-0.6,0.4c-0.3,0.2-0.4,0.3-0.5,0.3c-0.3,0-0.5,0.1-0.6,0.3
	c-0.1,0.2-0.3,0.4-0.4,0.7c-0.1,0.3-0.3,0.5-0.4,0.6c-0.2,0.3-0.6,0.6-1.3,0.7c-0.6,0.2-1,0.3-1.2,0.5c-0.4,0.5-0.9,0.8-1.5,0.8
	c-0.2,0-0.4,0-0.5-0.1c-0.4,0.1-0.7,0.2-1,0.2c-0.8,0-1.4-0.3-2-0.8c-0.6-0.6-0.9-1.3-0.9-2.1c0-0.3,0.1-0.6,0.1-0.9
	c0-0.3,0-0.6,0.1-0.8c0-0.2,0.1-0.4,0.3-0.6c0.6-0.3,0.8-0.7,0.8-1.4v-0.2L6.3,12l0.2-0.5l0.3-0.4l0.3-0.4l0.4-0.2l0.4-0.1h0.2
	c0.2-0.1,0.3-0.3,0.4-0.6c0.1-0.3,0.2-0.5,0.4-0.7c0.6-0.8,1.5-1.4,2.9-1.9c0-0.1,0.1-0.2,0.2-0.4c0.1-0.2,0.2-0.4,0.2-0.5
	s0.2-0.3,0.3-0.4c0.2-0.2,0.3-0.3,0.5-0.3c0.4,0,1-0.2,1.7-0.5c0.7-0.3,1.2-0.5,1.4-0.5H16.3z M16.9,4.9c-0.2,0.1-0.4,0.2-0.6,0.5
	c0.1,0,0.2,0.1,0.4,0.2c0.2,0.1,0.4,0.2,0.5,0.3c0.1,0.1,0.2,0.2,0.4,0.3s0.3,0.3,0.5,0.5c0.1,0.2,0.3,0.4,0.5,0.6
	c0.1-0.1,0.2-0.3,0.3-0.7C18.5,5.8,17.8,5.2,16.9,4.9z M13.7,5.6c-0.1,0.1-0.3,0.1-0.4,0.2c-0.1,0.1-0.2,0.1-0.2,0.2
	c0,0-0.1,0.1-0.1,0.2c-0.1,0.1-0.1,0.1-0.1,0.2h0.4c0.7,0,1.4,0.1,1.9,0.3c0.6,0.2,1,0.5,1.4,0.9s0.7,0.8,0.9,1.2s0.4,0.9,0.7,1.6
	c0.1,0,0.2-0.2,0.4-0.6c-0.4-1.3-0.9-2.3-1.7-3S15,5.6,13.7,5.6z M13.1,7.7c-0.3,0-0.5,0-0.7,0.1l1,1.5c0.2,0,0.4,0,0.6,0.1l0.6-1.2
	C14.2,7.9,13.7,7.7,13.1,7.7z M12.1,7.8c-0.1,0-0.2,0-0.3,0.1c-0.1,0-0.2,0.1-0.2,0.1c-0.1,0-0.1,0.1-0.2,0.1
	c-0.1,0.1-0.1,0.1-0.1,0.1c0,0-0.1,0.1-0.1,0.2c0,0.1-0.1,0.1-0.1,0.2c0,0,0,0.1-0.1,0.2C11,8.9,11,9,11,9l1.7,0.6
	c0.1-0.2,0.2-0.2,0.4-0.3L12.1,7.8z M15,8.3l-0.6,1.2c0.2,0.2,0.4,0.4,0.5,0.5l1.5,0.1C16.2,9.4,15.7,8.8,15,8.3z M9.8,8.8
	C9.6,8.9,9.4,9,9.3,9.2C9.2,9.4,9.1,9.6,9,9.7c0,0.1-0.1,0.4-0.2,0.7c0.3,0,0.6,0.1,0.8,0.3c-0.1-0.4-0.1-0.7-0.1-0.9
	c0-0.1,0-0.3,0-0.4S9.7,9.1,9.7,9C9.8,8.9,9.8,8.8,9.8,8.8z M11,9.3v0.2c0,0.4,0.2,0.8,0.5,1.3l1.2-0.4c0-0.3,0-0.4,0-0.5L11,9.3z
	 M14.9,10.4c0,0.1,0,0.3,0,0.5l1.3,1.2c0.2-0.4,0.3-0.8,0.3-1.2c0-0.1,0-0.3-0.1-0.5L14.9,10.4z M12.8,10.6l-1.1,0.5
	c0.2,0.4,0.5,0.8,1,1l0.6-1C13,11,12.8,10.8,12.8,10.6z M7.8,10.8c-0.1,0-0.2,0-0.3,0.1c-0.1,0-0.2,0.1-0.3,0.2S7,11.2,7,11.2
	c-0.2,0.2-0.4,0.4-0.4,0.6v0.1c0.1,0,0.2-0.1,0.4-0.2c0.2-0.1,0.5-0.2,0.8-0.3c1.4,0.2,2.5,1,3.5,2.2c0.9,1.2,1.4,2.2,1.4,2.9v0.2
	c0,0.1,0,0.2-0.1,0.3c0,0.1-0.1,0.2-0.2,0.3c-0.1,0.1-0.1,0.2-0.1,0.2c0.2,0,0.4-0.2,0.7-0.5c0,0,0-0.1,0.1-0.3
	c0.1-0.2,0.1-0.3,0.1-0.4c0-0.1,0-0.3-0.1-0.5c0-0.2-0.2-0.7-0.6-1.4c-0.4-0.7-0.8-1.3-1.3-1.8c-0.8-0.7-1.4-1.2-1.9-1.5
	C8.8,11,8.3,10.8,7.8,10.8L7.8,10.8z M14.8,11.1c-0.1,0.1-0.2,0.1-0.5,0.2l0.3,1.5c0.6,0,1-0.1,1.4-0.4L14.8,11.1z M13.5,11.2
	l-0.6,1.2c0.4,0.3,0.9,0.4,1.3,0.4h0.1l-0.2-1.5C13.9,11.3,13.7,11.3,13.5,11.2z M6.7,12.9c-0.1,0-0.2,0-0.3,0
	c-0.2,0.3-0.3,0.6-0.3,0.8c0.3,0.1,0.6,0.1,0.8,0.2c0.2,0.1,0.5,0.2,0.8,0.4c0.3,0.2,0.7,0.5,1,0.8c0.4-0.3,0.6-0.6,0.7-0.8
	C8.6,13.4,7.7,12.9,6.7,12.9L6.7,12.9z M15.3,14.3c-0.3,0.1-0.6,0.1-0.9,0.1c-0.3,0-0.6,0-0.7-0.1v0.4c0,0.2,0,0.4,0.1,0.5
	C14.6,14.9,15.1,14.6,15.3,14.3z M9.9,14.9C9.7,15,9.4,15.3,9,15.7c0.6,0.6,1,1.4,1.2,2.6c0.2-0.1,0.5-0.3,0.8-0.5v-0.2
	C11,16.5,10.7,15.6,9.9,14.9z M5.4,15.1c-0.1,0-0.1,0-0.2,0c-0.1,0.1-0.1,0.2-0.1,0.5l0.4,0c0.1-0.1,0.1-0.3,0.1-0.5
	C5.5,15.1,5.5,15.1,5.4,15.1z M6.1,15.3C6,15.4,6,15.5,6,15.5c0,0.1-0.1,0.1-0.1,0.2c0,0,0,0.1-0.1,0.1c0,0,0.1,0.1,0.3,0.2
	s0.3,0.2,0.4,0.2c0.1,0.1,0.2,0.1,0.4,0.3c0.2,0.1,0.3,0.2,0.4,0.4c0.1,0.1,0.2,0.3,0.4,0.4c0.2-0.1,0.3-0.2,0.5-0.3
	C7.5,16.1,6.8,15.6,6.1,15.3z M5.4,16.9c-0.1,0-0.2,0-0.3,0.1C5.1,17,5,17.1,5,17.1c0,0.3,0.2,0.7,0.7,1.2s0.9,0.8,1.2,0.8
	c0.1,0,0.1,0,0.2,0c0.1-0.1,0.1-0.2,0.1-0.3c0-0.4-0.2-0.8-0.7-1.2S5.7,16.9,5.4,16.9z M5.4,17.2c0.2,0,0.5,0.2,0.9,0.6
	s0.6,0.6,0.6,0.9c0,0.1,0,0.1,0,0.1c-0.1,0-0.1,0-0.2,0c-0.3,0-0.6-0.2-1-0.6c-0.3-0.4-0.5-0.7-0.5-0.9C5.3,17.2,5.3,17.2,5.4,17.2
	C5.4,17.2,5.4,17.2,5.4,17.2z M8.5,17.4l-0.5,0.4l0.1,0c0,0,0.1,0,0.1,0.1c0,0,0,0,0.1,0.1s0,0.1,0.1,0.2c0,0.1,0,0.1,0.1,0.3
	c0,0.1,0,0.2,0,0.4c0,0,0.2,0,0.5-0.1c0,0,0,0,0-0.1c0,0,0-0.1,0-0.1C8.9,18.2,8.7,17.8,8.5,17.4z"/>
</svg>
