<?xml version="1.0" encoding="utf-8"?>
<!-- Generator: Adobe Illustrator 21.0.2, SVG Export Plug-In . SVG Version: 6.00 Build 0)  -->
<svg version="1.1" id="Layer_1" xmlns="http://www.w3.org/2000/svg" xmlns:xlink="http://www.w3.org/1999/xlink" x="0px" y="0px"
	 width="24px" height="24px" viewBox="0 0 24 24" style="enable-background:new 0 0 24 24;" xml:space="preserve">
<path d="M12,0.8l3.7,5.6h-2.1V17h-3.1V6.4H8.4L12,0.8z M6.2,7.3v2.3c1.6,0.2,2.6,0.8,3,1.8v4.3c-0.8-1.7-1.8-2.6-3-2.8v2.5L1.1,11
	L6.2,7.3z M17.8,7.3l5.1,3.7l-5.1,4.4v-2.5c-1.2,0.2-2.2,1.1-3,2.8v-4.3c0.4-1,1.5-1.6,3-1.8V7.3z M10.4,18h3.1v3.1h-3.1V18z
	 M10.4,21.9h3.1v1.2h-3.1V21.9z"/>
</svg>
