<svg xmlns="http://www.w3.org/2000/svg" viewBox="0 -200 1000 1000"><path fill="currentColor" d="M756 835Q635 941 469 941q-182 0-310.5-128.5T30 502t129-310.5T469 63t310 128.5T908 502q0 199-152 333zM226 188Q84 301 75 473l37 17 134-39 20 71-93 23 16 18 85-21 15 56-42 12q5 10 10 11l192-44 14 51-256 102-19 47q116 118 282 118 164 0 279.5-116T865 499q0-163-115.5-279T470 104q-139 0-244 84zm394 80q2 0 5 .5t4 .5q6 8 0 14-78 44-78 125 0 34 16 64 18 37 51.5 58.5T686 552q12 0 18-1 9 7 4 20-20 16-64 16-12 0-36-2-17-3-35-16-17-13-28-18.5t-22-7.5-13-3l-15-45q12-13 12-27 0-12-8-22t-20-12l-11-36q23-27 44-69 4-7 12.5-15.5T537 300q2-1 12.5-8t14.5-9.5 14-6.5 20-6 22-2zm160 109q-65 39-183 103-29-17-29-65 0-3 .5-8.5t.5-8.5q47-4 211-21zm-328 28l9 34q-16 3-17 23l-163 42-14-47zm5 90q5 7 21 7l11 36-184 55-13-51zm-320 22l-61 16q0 8 2 24l82-20q1-6-2-9-1-1-1-2-6 1-9 0t-4-1zm-41 90q-1 0-3.5.5t-3.5.5q5 17 17 49l4-2q13-13 13-26 0-10-7.5-16T97 607h-1zm110 79l-74 19q7 14 14 21 41-10 46-12 12-21 14-28z"/></svg>