<?xml version="1.0" encoding="utf-8"?>
<!-- Generator: Adobe Illustrator 21.0.2, SVG Export Plug-In . SVG Version: 6.00 Build 0)  -->
<svg version="1.1" id="Layer_1" xmlns="http://www.w3.org/2000/svg" xmlns:xlink="http://www.w3.org/1999/xlink" x="0px" y="0px"
	 width="24px" height="24px" viewBox="0 0 24 24" style="enable-background:new 0 0 24 24;" xml:space="preserve">
<path d="M19.4,20.6c-2.1,1.8-4.6,2.8-7.4,2.8c-3.1,0-5.8-1.1-8.1-3.3S0.6,15.1,0.6,12S1.7,6.2,4,3.9s4.9-3.3,8-3.3s5.8,1.1,8,3.3
	s3.3,4.9,3.3,8.1C23.4,15.4,22.1,18.3,19.4,20.6z M5.7,3.9c-2.5,2-3.8,4.4-3.9,7.4l1,0.4l3.5-1l0.5,1.8l-2.4,0.6l0.4,0.5L6.9,13
	l0.4,1.5l-1.1,0.3c0.1,0.2,0.2,0.3,0.3,0.3l5-1.1l0.4,1.3l-6.6,2.6l-0.5,1.2c2,2,4.4,3.1,7.3,3.1c2.8,0,5.3-1,7.3-3s3-4.4,3-7.3
	c0-2.8-1-5.2-3-7.2s-4.4-3-7.3-3C9.6,1.7,7.5,2.4,5.7,3.9z M15.9,5.9c0,0,0.1,0,0.1,0c0.1,0,0.1,0,0.1,0c0.1,0.1,0.1,0.3,0,0.4
	c-1.3,0.8-2,1.8-2,3.2c0,0.6,0.1,1.1,0.4,1.7c0.3,0.6,0.8,1.1,1.3,1.5s1.2,0.6,1.8,0.6c0.2,0,0.4,0,0.5,0c0.2,0.1,0.2,0.3,0.1,0.5
	c-0.3,0.3-0.9,0.4-1.7,0.4c-0.2,0-0.5,0-0.9-0.1c-0.3-0.1-0.6-0.2-0.9-0.4c-0.3-0.2-0.5-0.4-0.7-0.5c-0.2-0.1-0.4-0.2-0.6-0.2
	c-0.2,0-0.3-0.1-0.3-0.1l-0.4-1.2c0.2-0.2,0.3-0.5,0.3-0.7c0-0.2-0.1-0.4-0.2-0.6c-0.1-0.2-0.3-0.3-0.5-0.3L12,9.3
	c0.4-0.5,0.8-1.1,1.1-1.8c0.1-0.1,0.2-0.3,0.3-0.4s0.3-0.3,0.3-0.4c0,0,0.1-0.1,0.3-0.2c0.2-0.1,0.3-0.2,0.4-0.2s0.2-0.1,0.4-0.2
	S15.2,6,15.3,6S15.7,5.9,15.9,5.9z M20.1,8.8c-1.1,0.7-2.7,1.6-4.7,2.7c-0.5-0.3-0.8-0.9-0.8-1.7c0-0.1,0-0.1,0-0.2
	c0-0.1,0-0.2,0-0.2C15.4,9.2,17.2,9.1,20.1,8.8z M11.6,9.5l0.2,0.9c-0.3,0.1-0.4,0.3-0.4,0.6l-4.2,1.1l-0.4-1.2L11.6,9.5z
	 M11.7,11.8c0.1,0.1,0.3,0.2,0.5,0.2l0.3,0.9l-4.8,1.4L7.4,13L11.7,11.8z M3.4,12.4l-1.6,0.4c0,0.1,0,0.3,0.1,0.6L4,12.9
	c0-0.1,0-0.2-0.1-0.2c0,0,0,0,0-0.1c-0.1,0-0.2,0-0.2,0c-0.1,0-0.1,0-0.1,0L3.4,12.4z M2.3,14.7C2.3,14.7,2.3,14.7,2.3,14.7
	c-0.1,0-0.2,0-0.2,0C2.2,15,2.4,15.5,2.6,16L2.7,16C2.9,15.7,3,15.5,3,15.3C3,15.1,3,15,2.8,14.9C2.7,14.8,2.5,14.7,2.3,14.7
	L2.3,14.7z M5.2,16.8l-1.9,0.5c0.1,0.2,0.2,0.4,0.4,0.5c0.7-0.2,1.1-0.3,1.2-0.3C5,17.1,5.1,16.9,5.2,16.8z"/>
</svg>
