<svg xmlns="http://www.w3.org/2000/svg" viewBox="0 -200 1000 1000"><path fill="currentColor" d="M461 64q4-1 8 0h6q101 0 194 48 108 53 174 160t66 228q0 17-1 26-5 131-87 240.5T615 918q-68 25-143 25-91 0-175.5-36T151 806q-58-59-89.5-139.5T30 501q0-91 34-169 48-118 158.5-192.5T461 64zm1 41q-120 1-222 73.5T98 364q-24 64-24 134 0 92 40 176t111 138q105 85 245 85 129 0 229-73 78-54 122.5-142T866 498q0-55-15-106-33-123-140-205t-235-82h-14zM227 362l75 42 1 88q-3-1-7-1-12 0-25 22l-63-35-4-104q11-2 23-12zm9-26v-10l112-47 62 34q-15 11-15 25 0 9 8 17l-84 30zm138-67l94-36h50l79 42-70 29q-34-6-51-6-23 0-39 5zm50 70q-1-1-1-4 0-8 17.5-13.5T479 316q28 0 41 10 4 4 4 11 0 20-46 21-50-5-54-19zm119-17l81-31 85 42-3 20-102 44-64-36q11-9 11-20 0-8-8-19zm-117 46q23 10 47 10 14 0 42-6l61 34-95 41q-18-5-36-5-3 0-9 .5t-9 .5l-83-43zm6 98l38 3-20 26zm-107-48l86 51q14 30 24 38l2 106-66-39q-17-62-45-76zm-25 96q2-1 7-1 24 0 43 66-1 20-12 20-7 0-16-6-32-25-32-53 0-15 10-26zm-92-12l63 36v6q0 39 39 68l4 75-77-51-23-39zm124 121q8 3 13 3 18 0 28-25l63 39 5 110q-12 4-18 8l-85-57zm131 23l86-38q0 10 7.5 16.5t13 8T590 638l3 79-101 48q-12-12-26-14zm2-30l-4-105q26-33 31-40l101-41-2 84q-39 19-48 73zm139-81q14-7 20-7 16 0 16 23 0 1-.5 5t-.5 5q-18 48-50 48-10 0-18-4-2-12-2-17 0-33 35-53zm11-31l-2-85 109-41 18 12-1 112-78 29q-7-28-35-28-2 0-5.5.5t-5.5.5zm123 23v99q-21 32-27 40l-95 39v-74q14-10 21.5-15.5t16-21T664 558z"/></svg>