<?xml version="1.0" encoding="utf-8"?>
<!-- Generator: Adobe Illustrator 21.0.2, SVG Export Plug-In . SVG Version: 6.00 Build 0)  -->
<svg version="1.1" id="Layer_1" xmlns="http://www.w3.org/2000/svg" xmlns:xlink="http://www.w3.org/1999/xlink" x="0px" y="0px"
	 width="24px" height="24px" viewBox="0 0 24 24" style="enable-background:new 0 0 24 24;" xml:space="preserve">
<path d="M11.8,0.6c0.1,0,0.1,0,0.2,0h0.2c1.7,0,3.4,0.4,5,1.2C19,2.8,20.5,4.2,21.7,6s1.7,3.8,1.7,5.9c0,0.3,0,0.5,0,0.7
	c-0.1,2.3-0.8,4.3-2.3,6.2c-1.4,1.9-3.2,3.2-5.3,3.9c-1.2,0.4-2.4,0.6-3.7,0.6c-1.6,0-3.1-0.3-4.5-0.9S4.8,21,3.7,19.8
	c-1-1-1.8-2.2-2.3-3.6c-0.5-1.4-0.8-2.8-0.8-4.3c0-1.6,0.3-3,0.9-4.4c0.8-2,2.2-3.7,4.1-5S9.6,0.6,11.8,0.6z M11.8,1.7
	c-2.1,0-4,0.7-5.8,1.9s-3,2.9-3.7,4.8C2,9.5,1.8,10.7,1.8,11.9c0,1.6,0.3,3.1,1,4.6s1.6,2.6,2.9,3.6c1.8,1.5,3.9,2.2,6.3,2.2
	c2.2,0,4.2-0.6,5.9-1.9c1.3-0.9,2.4-2.2,3.2-3.7s1.2-3.1,1.2-4.8c0-0.9-0.1-1.9-0.4-2.7c-0.6-2.1-1.8-3.9-3.6-5.3
	c-1.8-1.4-3.9-2.1-6.1-2.1H11.8z M5.7,8.3l1.9,1.1l0,2.3c-0.1,0-0.1,0-0.2,0c-0.2,0-0.4,0.2-0.6,0.6l-1.6-0.9L5.1,8.7
	C5.3,8.6,5.5,8.5,5.7,8.3z M6,7.7V7.4l2.9-1.2l1.6,0.9c-0.3,0.2-0.4,0.4-0.4,0.6c0,0.2,0.1,0.3,0.2,0.4L8.1,8.9L6,7.7z M9.5,5.9
	L12,5h1.3l2,1.1l-1.8,0.8c-0.6-0.1-1-0.2-1.3-0.2c-0.4,0-0.7,0-1,0.1L9.5,5.9z M10.8,7.7c0,0,0-0.1,0-0.1c0-0.1,0.2-0.3,0.5-0.3
	s0.6-0.1,1-0.1c0.5,0,0.8,0.1,1.1,0.3c0.1,0.1,0.1,0.2,0.1,0.3c0,0.3-0.4,0.5-1.2,0.5C11.4,8.2,10.9,8,10.8,7.7z M13.9,7.3L16,6.5
	l2.2,1.1l-0.1,0.5l-2.6,1.1l-1.7-0.9C14,8.2,14.1,8,14.1,7.8C14.1,7.7,14,7.5,13.9,7.3z M10.9,8.5c0.4,0.2,0.8,0.3,1.2,0.3
	c0.2,0,0.6-0.1,1.1-0.2l1.6,0.9l-2.5,1.1c-0.3-0.1-0.6-0.1-0.9-0.1c-0.1,0-0.1,0-0.2,0c-0.1,0-0.2,0-0.2,0L8.7,9.3L10.9,8.5z M11,11
	l1,0.1l-0.5,0.7L11,11z M8.3,9.8l2.2,1.3c0.2,0.5,0.4,0.8,0.6,1l0.1,2.7l-1.7-1c-0.3-1.1-0.7-1.7-1.2-2L8.3,9.8z M7.6,12.3
	c0,0,0.1,0,0.2,0c0.4,0,0.8,0.6,1.1,1.7c0,0.3-0.1,0.5-0.3,0.5c-0.1,0-0.3-0.1-0.4-0.2c-0.6-0.4-0.8-0.9-0.8-1.4
	C7.3,12.7,7.4,12.5,7.6,12.3z M5.2,12l1.6,0.9v0.2c0,0.7,0.3,1.3,1,1.8L8,16.8l-2-1.3l-0.6-1L5.2,12z M8.4,15.1
	c0.1,0.1,0.3,0.1,0.3,0.1c0.3,0,0.6-0.2,0.7-0.6l1.6,1l0.1,2.8c-0.2,0.1-0.4,0.1-0.5,0.2l-2.2-1.5L8.4,15.1z M11.8,15.7l2.2-1
	c0,0.2,0.1,0.3,0.2,0.4c0.1,0.1,0.2,0.2,0.3,0.2s0.3,0.1,0.5,0.1l0.1,2l-2.6,1.2c-0.2-0.2-0.4-0.3-0.7-0.4L11.8,15.7z M11.9,14.9
	l-0.1-2.7c0.4-0.6,0.7-0.9,0.8-1l2.6-1.1l-0.1,2.2c-0.7,0.3-1.1,1-1.2,1.9L11.9,14.9z M15.5,12.8c0.2-0.1,0.4-0.2,0.5-0.2
	c0.3,0,0.4,0.2,0.4,0.6c0,0,0,0.1,0,0.1c0,0.1,0,0.1,0,0.1c-0.3,0.8-0.7,1.2-1.3,1.2c-0.2,0-0.3,0-0.5-0.1c0-0.2-0.1-0.4-0.1-0.4
	C14.6,13.6,14.9,13.2,15.5,12.8z M15.8,12l-0.1-2.2l2.8-1.1L19,9.1l0,2.9l-2,0.8c-0.1-0.5-0.4-0.7-0.9-0.7c0,0-0.1,0-0.1,0
	C15.9,12,15.8,12,15.8,12z M19,12.6v2.6c-0.4,0.6-0.6,0.9-0.7,1l-2.5,1v-1.9c0.2-0.2,0.4-0.3,0.6-0.4s0.3-0.3,0.4-0.5
	s0.2-0.6,0.3-0.9L19,12.6z"/>
</svg>
