<svg xmlns="http://www.w3.org/2000/svg" viewBox="0 -314 1203 1000"><path fill="currentColor" d="M1190 357q13 61 12.5 122.5t-15 121-42 114.5-67.5 103q-11 27-21 54.5t-20 54.5q-148 47-293.5 93.5T451 1114q-35-71-71-141t-71-141l-1-2-3-1q-71-36-141-71.5T23 687q48-148 94-293.5T211 101q26-10 53-20t53-20q48-40 104-68t115.5-42.5 121.5-15T781-52l29 29 2 2h3L965 1l150 22q11 75 21.5 150t21.5 150l1 2 2 2zM864 252l31 32 38-73zM745 540l39-62-103-116-61 36zM572 426l-75 45 174 203 43-81zm249-12l27-48-61-67-47 28zM489 249q-77 75-87 210l54-31q21-95 79-149 59-53 137-50h9q43 2 85 16l52-34q-70-30-138-33h-4q-110-4-187 71zm160 465L459 491l-160 87 228 47 32 251zm270-89q31-62 34-139 3-75-24-150l-33 58q9 39 8 79-3 97-65 171-60 75-143 78l-16 39-9 19-1 3v2q88-6 152-51 65-43 97-109z"/></svg>