<?xml version="1.0" encoding="utf-8"?>
<!-- Generator: Adobe Illustrator 21.0.2, SVG Export Plug-In . SVG Version: 6.00 Build 0)  -->
<svg version="1.1" id="Layer_1" xmlns="http://www.w3.org/2000/svg" xmlns:xlink="http://www.w3.org/1999/xlink" x="0px" y="0px"
	 width="24px" height="24px" viewBox="0 0 24 24" style="enable-background:new 0 0 24 24;" xml:space="preserve">
<path d="M13.4,2.6h-0.3c-1.7,0-3.1,0.6-4.3,1.7S6.9,7,6.5,9.1l-1.7,1C5,7.3,5.8,5,7.3,3.4S10.8,1,13.2,1h0.1c1.4,0,2.9,0.3,4.4,0.9
	L16.1,3C15.2,2.7,14.3,2.6,13.4,2.6z M21.3,1.7L20.2,4l-1-1L21.3,1.7z M16.8,4.6l2,2L18,8.2l-2.6-2.7L16.8,4.6z M13.5,6.7l3.4,3.5
	l-1.1,2l-4.1-4.3L13.5,6.7z M20.4,7.5l1-1.9c0.6,1.5,0.9,3.1,0.9,4.7s-0.3,3.1-0.9,4.4c-0.6,1.4-1.6,2.5-2.9,3.5
	c-1.3,1-2.9,1.6-4.7,1.8V20l0-0.1l0.3-0.6l0.5-1.2c1.7-0.1,3.2-1,4.4-2.6s1.8-3.4,1.8-5.5C20.7,9.1,20.6,8.3,20.4,7.5z M10.2,8.9
	l4.7,5.1l-1.3,2.6l-5.7-6.2L10.2,8.9z M6.7,11l6.2,6.8L10.3,23L9,15.2L1.7,14L6.7,11z"/>
</svg>
