<svg xmlns="http://www.w3.org/2000/svg" viewBox="0 -315 1205 1000"><path fill="currentColor" d="M1192 357q13 61 12.5 123t-15 121.5-42 114.5-67.5 103q-11 27-21 54l-20 54q-148 48-293.5 94T453 1115q-35-71-71-141t-71-141l-1-2-3-2q-71-35-141-70.5T25 687q48-147 94-292.5T213 102q26-11 53-20.5T319 62q75-62 164.5-94T668-64q58 0 115 12l29 30 2 2h3Q892-9 967 1.5T1117 23q11 75 21.5 150t21.5 150l1 3 2 2zm-150 430q70-85 97.5-191t6.5-214l-18-19-2-2-12-12-2-16-1-3-19-136-19-127-263-38h-3l-16-3-12-12-2-2-18-18q-45-9-91-9-88 0-169 29.5T351 100l-7 5-8 3-52 20-31 11q-42 132-84 262T85 662q62 31 122.5 61.5T329 785l3 2 14 7 8 14 1 3 57 112 66 132 523-167 33-87 3-8zM935 211l-38 73-31-32zM622 398l61-36 103 117-39 62zm94 195l-43 82-174-204 75-45zm26-265l47-28 61 67-27 48zm-251-78q77-75 187-71h4q68 2 138 33l-52 33q-44-14-85-15h-9q-80-3-137 50-58 52-79 148l-54 31q11-136 87-209zm70 627l-32-251-228-47 160-88 190 223zm360-251q-31 64-97 109-64 43-152 51v-3l1-2 9-20 16-38q83-5 143-78 62-76 65-172 1-40-8-78l33-58q27 74 24 149-3 77-34 140z"/></svg>