<?xml version="1.0" encoding="utf-8"?>
<!-- Generator: Adobe Illustrator 21.0.2, SVG Export Plug-In . SVG Version: 6.00 Build 0)  -->
<svg version="1.1" id="Layer_1" xmlns="http://www.w3.org/2000/svg" xmlns:xlink="http://www.w3.org/1999/xlink" x="0px" y="0px"
	 width="24px" height="24px" viewBox="0 0 24 24" style="enable-background:new 0 0 24 24;" xml:space="preserve">
<path d="M12,0.6c3.1,0,5.8,1.1,8,3.3s3.3,4.9,3.3,8.1s-1.1,5.8-3.3,8.1s-4.9,3.3-8,3.3c-3.1,0-5.8-1.1-8.1-3.3S0.6,15.1,0.6,12
	s1.1-5.8,3.3-8.1S8.9,0.6,12,0.6z M12,1.7c-2.8,0-5.3,1-7.3,3s-3,4.4-3,7.2c0,2.8,1,5.3,3,7.3s4.4,3,7.3,3s5.3-1,7.3-3s3-4.4,3-7.3
	c0-2.8-1-5.2-3-7.2S14.8,1.7,12,1.7z M11.8,3.1L11.8,3.1c0.5,0,1,0.1,1.4,0.2c0.4,0.2,0.7,0.3,0.9,0.4c0.2,0.1,0.4,0.4,0.8,0.7
	c0.5,0.4,0.8,1,0.8,1.6c0,0.2,0,0.4-0.1,0.8C15.7,6.8,15.8,7,16,7.4c0.1,0.2,0.1,0.5,0.1,0.8c0,0.3-0.1,0.8-0.3,1.6
	c-0.2,0.2-0.3,0.4-0.4,0.4c-0.1,0.1-0.3,0.2-0.4,0.2c-0.2,0.1-0.3,0.1-0.3,0.1c0,0-0.1,0-0.1,0s-0.1,0-0.1,0c-0.2,0-0.5-0.1-0.9-0.2
	c-0.3-0.2-0.6-0.4-0.7-0.7c-0.1-0.2-0.2-0.4-0.2-0.6c0-0.2,0-0.3,0.1-0.5C13,8.2,13.2,8,13.3,7.9c-1.2-0.7-2.3-1-3.2-1.1
	c-0.1,0-0.3,0-0.6,0c-0.7,0-1.2,0.1-1.6,0.4C7.6,7,7.5,6.7,7.5,6.5c0-0.1,0-0.2,0.1-0.3c0,0,0.1-0.1,0.2-0.2s0.1-0.2,0.2-0.2
	C8,5.8,8.1,5.7,8.2,5.6c0.1-0.1,0.3-0.2,0.6-0.3c0.2-1.2,1.1-2,2.5-2.2C11.5,3.1,11.7,3.1,11.8,3.1z M9.1,5.1C9,5.2,9,5.3,8.9,5.6
	c1.2,0.1,2.3,0.4,3.1,0.8c0.6,0.3,1,0.7,1.2,0.9c0.2-0.2,0.4-0.4,0.8-0.5c0.1,0,0.2-0.1,0.4-0.1s0.3-0.1,0.5-0.1c-0.1,0-0.2,0-0.3,0
	c-0.1,0-0.2,0-0.2,0c-0.3,0-0.5,0-0.6,0.1c0,0-0.2,0.1-0.5,0.3C13,6.5,12.5,6.2,12,6C11.4,5.6,10.4,5.3,9.1,5.1z M9.3,6.9L9.3,6.9
	c0.5,0,0.8,0,1.2,0.1c0.4,0.1,0.7,0.1,0.9,0.2c0.2,0.1,0.5,0.2,0.9,0.4c0.4,0.1,0.6,0.2,0.8,0.3C13,8,12.9,8.1,12.7,8.2
	c0,0.1,0,0.1,0,0.2s0,0.1,0,0.2c0,0,0,0.1,0,0.1c-0.2,0.1-0.3,0.2-0.5,0.3c-0.2,0.1-0.3,0.1-0.6,0.2s-0.4,0.1-0.4,0.1H11
	c-0.3,0-0.5-0.1-0.8-0.3C9.9,8.8,9.6,8.6,9.4,8.6C9.2,8.6,9.1,8.7,9,8.8C8.9,8.9,8.9,8.9,8.8,9C8.7,9.1,8.7,9.1,8.6,9.1
	C8.4,9.2,8.2,9.2,8.1,9C7.8,8.6,7.7,8.3,7.7,8c0-0.2,0.1-0.5,0.2-0.6C8.1,7.1,8.5,7,9.1,6.9H9.3z M14.9,7.6c-0.2,0-0.3,0.1-0.5,0.2
	c0,0-0.1,0.2-0.2,0.4c-0.1,0.1-0.1,0.3-0.1,0.4c0,0.3,0.1,0.7,0.2,1.2c0.1,0.1,0.2,0.2,0.3,0.2c0.4-0.1,0.7-0.4,0.9-1.1
	c0,0,0-0.1,0.1-0.3c0-0.2,0.1-0.3,0.1-0.4c0-0.3-0.1-0.5-0.4-0.6C15,7.6,14.9,7.6,14.9,7.6z M12.8,9.8c0.1,0.3,0.5,0.5,1.1,0.7
	l0,0.1c0,0,0,0-0.1,0c0,0,0,0-0.1,0c0,0-0.3,0-0.7,0.1c-0.1,0.1-0.3,0.3-0.6,0.5c-0.3,0.2-0.4,0.3-0.5,0.4c-0.8,0.2-1.2,0.4-1.2,0.4
	c-0.3,0-0.5,0.1-0.7,0.1c-0.3,0-0.5,0-0.7-0.1c-0.2,0-0.3,0-0.5-0.2c-0.1-0.3-0.1-0.5,0-0.7l0.3,0.2l0.3-0.2l0.5,0.1l0.2,0.3h0.2
	c0.3,0,0.8-0.1,1.5-0.4C12.3,10.4,12.7,10,12.8,9.8z M14.5,10.6c0.1,0.1,0.1,0.3,0.2,0.5c-0.1,0.3-0.1,0.4-0.1,0.4
	c0.1,0.2,0.4,0.3,0.9,0.3h0.7c0.2,0,0.4,0,0.5,0l0,0.3c-0.8,0.3-1.6,0.9-2.2,1.7c-0.7,0.8-1,1.5-1,2.2v0.2c-0.9-0.1-1.8-0.2-2.6-0.2
	c-1.6,0-3,0.3-4.2,0.9l0.2-1l-0.2-0.4L7.1,15c0.1-0.3,0.1-0.7,0.1-1v-0.2c0.2-0.2,0.5-0.3,0.6-0.4c0.8-0.3,1.3-0.5,1.4-0.6
	c0.1-0.3,0.2-0.6,0.2-0.8V12l0.3,0.1c0,0.1,0,0.2,0,0.3c0.1,0.1,0.1,0.1,0.2,0.2c0.1,0.1,0.1,0.1,0.1,0.1c-0.1,0.3-0.2,0.6-0.2,0.7
	c0.2,0.2,0.4,0.6,0.6,1.2l0.6-1.7c0.1-0.1,0.2-0.3,0.4-0.5c0.1-0.2,0.3-0.4,0.5-0.6c0.2-0.2,0.4-0.3,0.6-0.5
	C13,10.9,13.7,10.7,14.5,10.6z M17.7,12.1c0.5,0,1,0.3,1.6,0.8c0.3,0.3,0.6,0.7,1,1.3c0.2,0.3,0.4,0.9,0.6,1.6
	c-0.2,0.4-0.3,0.7-0.5,0.8l-0.3-0.1c-0.1,0-0.3-0.1-0.6-0.1h-0.7c-0.3,0.3-0.8,0.4-1.5,0.4c-0.1,0-0.3-0.1-0.7-0.3s-0.7-0.2-0.8-0.3
	c-0.1-0.1-0.3-0.2-0.6-0.3c-0.3-0.1-0.5-0.3-0.6-0.5s-0.3-0.4-0.4-0.6c0.4-0.7,1-1.3,1.6-1.8c0.4-0.4,1-0.7,1.9-1
	C17.6,12.1,17.6,12.1,17.7,12.1z M7,14.3c0,0.2,0,0.3-0.1,0.5c-0.1,0.1-0.1,0.3-0.2,0.5c-0.1,0.1,0,0.3,0.1,0.5
	c0,0.2-0.1,0.4-0.2,0.6c0,0,0,0.1,0,0.2v0.6c-0.2,0.2-0.4,0.3-0.5,0.4l-0.3,0.1l0-0.2C5.9,17.2,6,17,6.2,16.8l0-0.3
	C6.1,16.4,6,16.3,6,16.3c-0.1-0.1-0.1-0.1-0.1-0.2C5.8,16,5.8,16,5.8,16C5.9,15.1,6.4,14.5,7,14.3z M10.1,16.3c0.2,0,0.5,0,0.8,0
	c0.4,0,0.6,0,0.8,0h0.2c2,0.2,3.6,0.6,4.8,1.3l0.9,2.2c-1.4,1.1-2.9,1.6-4.5,1.7c-0.2,0-0.4,0-0.7,0c-1.1,0-2.2-0.2-3.3-0.5
	s-2-0.8-2.6-1.4l-0.2-1.9c0.4-0.5,0.9-0.8,1.6-1C8.5,16.4,9.3,16.3,10.1,16.3z M19.4,16.7h0.2c0.3,0,0.6,0.1,0.7,0.2
	c-0.1,0.3-0.3,0.6-0.5,0.9c-0.2,0.3-0.5,0.6-0.7,0.8c-0.2,0.2-0.5,0.5-0.9,0.8c-0.1,0.1-0.3,0.1-0.5,0.1l-0.6-2.3
	C18,16.9,18.8,16.7,19.4,16.7z"/>
</svg>
