<svg xmlns="http://www.w3.org/2000/svg" viewBox="0 -200 1000 1000"><path fill="currentColor" d="M469 63q181 0 310 128.5T908 502 779 812.5 469 941q-182 0-310.5-128.5T30 502t128.5-310.5T469 63zm1 41q-164 0-280 116T74 499q0 164 116 280t280 116 279.5-116T865 499q0-163-116-279T470 104zm-8 55h2q27 0 50.5 9t33 16.5T577 210q30 26 30 60 0 10-4 30 11 4 20 23 3 12 3 31 0 17-12 60-9 12-15.5 17t-17 8-12.5 4q-1 0-4.5.5t-5.5.5q-14 0-33-8-20-11-26-28-7-13-7-23 0-9 5-21 14-14 20-19-70-39-125-43-8-1-23-1-42 0-60 16-14-13-14-27 0-4 2-10 2-2 6-7t7.5-8 12-8 21.5-11q13-72 97-85 14-2 20-2zm-105 76q-4 6-6 19 72 8 120 31 37 20 47 36 10-12 30-21 5-2 16-4t18-4q-4 0-10.5-.5t-9.5-.5q-16 0-24 5-2 1-18 13-21-27-50-39-36-21-113-35zm7 71h3q22 0 43.5 4t34.5 9 34 13.5 30 11.5q-3 7-14 13-1 3-1.5 7.5t-1.5 7-1 3.5q-10 7-19 10.5t-21.5 7T434 397h-4q-15 0-31-10-19-13-32-17-8 4-13 8t-9 8-7 6q-14 5-21-5-13-24-13-39 0-14 8-25 12-13 44-17h8zm215 27q-9 0-19 7-1 2-9 17-3 7-3 16 0 16 9 45 7 7 11 9 24-3 33-43 0-2 2-11t2-15q0-19-15-23-8-2-11-2zm-79 86q7 17 42 26l-1 5q-1 0-2.5-.5t-2.5-.5q-2 0-27 5-7 8-23.5 20T467 488q-46 14-47 15-18 2-27 2-15 0-26-4-9 2-19-8-8-15 0-26l10 8 10-6 18 2 8 11h7q20 0 56-15 37-40 43-48zm64 29q3 6 9 21-3 15-5 17 5 11 36 11h27q13 0 20 1l1 11q-47 18-85.5 64.5T528 657v8q-51-8-102-8-95 0-160 33l6-40-6-15 14-16q4-19 4-39v-7q14-12 25-16 45-17 55-22 6-20 6-29v-3l13 4q-1 6 1 12 4 4 7 7.5t4 5.5q-6 18-6 28 10 12 25 46l23-67q6-7 14.5-20.5T469 495t23-20q26-22 72-27zm124 58q27 0 63 30 18 15 39 51 13 19 24 62-9 22-19 32l-12-5q-4-2-25-2h-27q-15 15-59 15-5-2-27.5-10T614 667.5t-23.5-12-25-18.5-16.5-23q25-40 60-70 21-21 74-37 1-1 5-1zm-411 86q2 9-5 19-4 5-8 21-3 7 2 18 0 14-7 23-1 1-1 6v23q-13 12-18 14l-13 2 1-7q8-13 18-23l-1-13q-5-5-8-8.5t-4.5-6.5-3.5-5q10-52 48-63zm117 75q11 0 31.5 1t30.5 1h8q113 12 186 51l34 84q-82 61-175 65-9 1-27 1-61 0-127.5-19.5T255 796l-8-75q22-28 60-38 41-16 87-16zm360 16h6q19 0 28 9-6 17-19.5 35T743 756.5 707 789q-7 4-19 4l-22-89q52-18 88-21z"/></svg>