<svg xmlns="http://www.w3.org/2000/svg" viewBox="0 -200 1000 1000"><path fill="currentColor" d="M458-29q108 65 214 129t214 129v257l-1 257q-108 65-214 128.5T457 1000q-108-65-214.5-129T29 742V227q108-64 214.5-127.5T458-29zm379 286L458 29 79 256q-1 115-1 229v229l379 228 189-113 190-114v-36zM546 522l105 131-152-79-7 133-50-117-101 107 47-145-132 9 105-72-153-109 175 48-57-163 111 126 55-105 9 119 153-82-109 133 168 32zm-42-12l88-20-86-19 53-68-77 41-3-69-30 63-63-67 36 89-95-28 83 58-61 39 75-5-33 79 58-67 30 63-1-74 88 57z"/></svg>