<?xml version="1.0" encoding="utf-8"?>
<!-- Generator: Adobe Illustrator 21.0.2, SVG Export Plug-In . SVG Version: 6.00 Build 0)  -->
<svg version="1.1" id="Layer_1" xmlns="http://www.w3.org/2000/svg" xmlns:xlink="http://www.w3.org/1999/xlink" x="0px" y="0px"
	 width="24px" height="24px" viewBox="0 0 24 24" style="enable-background:new 0 0 24 24;" xml:space="preserve">
<path d="M15.4,18.3l0.4,1.4l-1.4-0.4c-0.1,0.1-0.2,0.2-0.4,0.3c0.2,0.3,0.5,0.6,0.8,0.9l-0.5-0.1c-0.2-0.2-0.3-0.4-0.4-0.5
	c-0.1-0.2-0.2-0.4-0.3-0.6c-0.1-0.2-0.2-0.3-0.2-0.4L13.3,19c0.4,1,0.7,1.7,1.1,2h-4.1c0.3-0.3,0.7-0.9,1.1-2L11.2,19
	c0,0.1-0.1,0.2-0.2,0.4s-0.2,0.4-0.3,0.5s-0.2,0.3-0.4,0.5l-0.6,0c0.4-0.4,0.7-0.7,0.8-0.9c-0.3-0.1-0.4-0.2-0.5-0.3l-1.4,0.4
	c0.3-0.7,0.5-1.2,0.6-1.2c-0.1,0-0.2-0.1-0.3-0.2c-0.1-0.2-0.1-0.3-0.1-0.4c-0.4,0.3-0.7,0.6-0.9,0.8l0-0.6c0.2-0.2,0.4-0.3,0.5-0.4
	s0.3-0.2,0.5-0.3c0.2-0.1,0.3-0.1,0.4-0.2l0-0.1c-1,0.4-1.7,0.7-2,1.1v-4.1c0.3,0.4,1,0.7,2,1.1l0-0.1c-0.1,0-0.2-0.1-0.4-0.2
	c-0.2-0.1-0.4-0.2-0.5-0.3c-0.2-0.1-0.3-0.2-0.5-0.4l0-0.6c0.2,0.2,0.5,0.5,0.9,0.8l0.3-0.4c-0.3-0.9-0.4-1.4-0.4-1.4l1.4,0.4
	c0-0.1,0.2-0.2,0.4-0.3c-0.3-0.4-0.6-0.7-0.8-0.9l0.6,0.1c0.2,0.2,0.4,0.7,0.8,1.5l0.1-0.1c-0.4-1.1-0.8-1.7-1.1-2h4.1
	c-0.4,0.3-0.7,1-1.1,2l0.1,0.1c0.4-0.8,0.6-1.3,0.8-1.5l0.5-0.1c-0.3,0.3-0.6,0.6-0.8,0.9c0.2,0.1,0.4,0.2,0.4,0.3l1.4-0.4l-0.4,1.4
	c0.1,0.1,0.2,0.2,0.3,0.4c0.5-0.3,0.8-0.6,0.9-0.8l0,0.6c-0.2,0.2-0.7,0.4-1.5,0.8l0.1,0.1c1-0.4,1.7-0.7,2-1.1v4.1
	c-0.3-0.3-1-0.7-2-1.1L15,17.3c0.8,0.4,1.3,0.6,1.5,0.8l0,0.6c-0.1-0.2-0.4-0.4-0.9-0.8C15.6,18.1,15.5,18.3,15.4,18.3z M12,0.6
	c3.1,0,5.8,1.1,8,3.3s3.3,4.9,3.3,8.1s-1.1,5.8-3.3,8.1s-4.9,3.3-8,3.3c-3.1,0-5.8-1.1-8.1-3.3S0.6,15.1,0.6,12s1.1-5.8,3.3-8.1
	S8.9,0.6,12,0.6z M12,1.7c-2.8,0-5.3,1-7.3,3s-3,4.4-3,7.2c0,2.8,1,5.3,3,7.3s4.4,3,7.3,3s5.3-1,7.3-3s3-4.4,3-7.3
	c0-2.8-1-5.2-3-7.2S14.8,1.7,12,1.7z M8.1,3.7h8.5v1h-0.5v3.7l-3.7,2.8L8.5,8.3V4.7H8L8.1,3.7z M11.1,4.6v5.1l1.2,0.8l1.1-0.8V4.6
	H11.1z M12.3,13.4c-0.6,0-1.2,0.2-1.7,0.6l1.3,1.3c0.2-0.1,0.3-0.1,0.5-0.1c0.2,0,0.3,0,0.4,0.1l1.3-1.3
	C13.5,13.6,12.9,13.4,12.3,13.4z M10.2,14.4c-0.4,0.5-0.6,1.1-0.6,1.7c0,0.6,0.2,1.2,0.6,1.8l1.3-1.3c-0.1-0.1-0.1-0.3-0.1-0.4
	c0-0.2,0-0.3,0.1-0.4L10.2,14.4z M14.5,14.5l-1.3,1.3c0.1,0.1,0.1,0.2,0.1,0.4c0,0.2,0,0.3-0.1,0.5l1.3,1.3c0.4-0.5,0.6-1.1,0.6-1.7
	S14.8,15,14.5,14.5z M11.9,17l-1.3,1.3c0.5,0.4,1.1,0.6,1.7,0.6c0.6,0,1.2-0.2,1.7-0.6L12.7,17c-0.1,0.1-0.3,0.1-0.4,0.1
	C12.2,17.1,12.1,17.1,11.9,17z"/>
</svg>
