<svg xmlns="http://www.w3.org/2000/svg" viewBox="0 -200 1000 1000"><path fill="currentColor" d="M600 742l17 54-55-16q-3 5-17 10 13 19 30 36l-21-2q-9-11-14-20.5T529.5 782t-7.5-16l-4 2q21 59 42 76H401q19-15 42-76l-5-2q-2 5-7 16.5t-10 21-14 20.5l-23 1q24-24 32-35-16-5-19-11l-53 16q19-43 22-47-6 0-12-9t-4-14q-24 17-35 30l1-22q11-9 20.5-14t21-10 16.5-7l-1-5q-58 21-77 42V581q19 21 77 42l1-5q-5-2-16.5-7t-21-10-20.5-14l-1-22q11 13 35 30l11-17q-17-53-17-54l55 16q2-5 17-10-16-22-32-36l23 2q9 11 31 58l5-2q-23-61-42-76h159q-21 17-42 76l4 2q21-44 32-58l21-2q-17 17-30 36 14 5 17 10l55-16-17 54q5 3 10 17 27-19 35-30l-1 22q-11 9-58 31l2 5q59-22 76-42v158q-17-20-76-42l-2 5q47 22 58 31l1 22q-8-11-35-30-5 14-10 17zM469 59q181 0 310 128.5T908 498 779 808.5 469 937q-182 0-310.5-128.5T30 498t128.5-310.5T469 59zm1 41q-164 0-280 116T74 495q0 164 116 280t280 116 279.5-116T865 495q0-163-116-279T470 100zm-153 78h327v38h-18v142L482 465 334 357V215h-18zm118 33v198l47 31 42-29V211h-89zm45 342q-37 0-67 23l51 52q10-5 18-5 9 0 17 5l49-50q-30-25-68-25zm-82 39q-24 29-24 67 0 37 25 69l51-52q-4-7-4-17 0-9 4-14zm166 2l-49 50q3 6 3 15 0 11-4 18l49 49q23-30 23-67t-22-65zm-98 98l-51 51q30 22 65 22 37 0 66-24l-49-49q-7 3-15 3t-16-3z"/></svg>