<svg xmlns="http://www.w3.org/2000/svg" viewBox="0 -200 1000 1000"><path fill="currentColor" d="M507 179q-24-5-49.5-8.5T405 167q-58 0-112 15t-102 41q51-78 133-124.5T506 52q49 0 94.5 12t86 34 74 53 59.5 69q-48-25-100.5-39T610 167q-27 0-52.5 3.5T507 179zm375 250q0 44-10 84.5T844 592q-2-57-17.5-110t-43-99-65.5-84.5-84-66.5q69 4 129 31.5T870 336q12 44 12 93zM381 232q-47 29-85 67.5T230.5 385t-43 101T171 598q-20-39-30.5-81T130 429q0-23 3-45t8-45q48-47 109.5-75T381 232zM189 730q23 81 73 145t119 106q-70-5-132-33.5T139 871q-43-54-71-120T30 610v-4q0-45 10-85t28-78q2 85 34 158t87 129zm317 75q-77 0-143-28.5T246 699q-13-43-13-93 0-64 20.5-122.5t57.5-106 87-82T507 244q59 17 109.5 51.5t87 82 57.5 106T782 606q0 23-3 45t-8 45q-51 51-119 80t-146 29zm478-216q-8 88-40.5 163.5T857 888q-45 41-102 64.5T634 981q70-43 120.5-108.5T828 726q54-58 84.5-131.5T945 437q17 35 27 73t12 79zM721 811q-37 57-92 97.5T507 968q-66-19-119.5-58.5T296 813q47 26 100 40t110 14q59 0 113-14.5T721 811z"/></svg>