<svg xmlns="http://www.w3.org/2000/svg" viewBox="0 -200 1003 1000"><path fill="currentColor" d="M304 522q-8-17-13-37t-5-39v-2q4-34 18-66 13-29 33-56 22-22 51-36 30-14 62-15-33 21-56 49-21 28-34 68-25 25-40 60-14 33-16 74zm30 27q-1-5-1-10v-11q0-11 1-21t4-20q2-10 5.5-19t8.5-19q0 26 8 53 4 13 8.5 24.5T380 549q6 11 14 21t16 19q17 18 40 31-33-2-61-15-28-12-51-35-2-5-2.5-10.5T334 549zm618-323q41 72 47.5 136T997 474q-11 56-38 105l-88-4-90 157q13 20 24 37l24 38q-32 48-78 86-20 16-45 31.5T651 952t-65.5 19-76.5 7h-1q-42 0-77-7.5T366.5 951t-53-27.5T271 892q-44-38-72-85l46-74-90-157-44 2q-8 1-16.5 1H80q-8 0-14 1l-1-1q-25-51-35-110-8-51-1-116.5T78 215q38-66 86-102.5t92-54T333.5 37t43.5-4h4l41 79h181q11-21 20-39 8-15 14-27.5t7-12.5q58 4 113 25 48 18 100.5 57T952 226zm-23 302q7-17 15-45.5t9-64.5-8-78.5-36-89.5q-26-46-59-76.5t-66-49T721.5 97 672 85l-25 50-14 26H392l-14-26-27-51q-19 2-47.5 9.5t-60.5 25-64 46.5-59 75q-27 47-36.5 91t-9 82 8 68T97 529q9 0 19-.5t18-.5q10 0 19-1l30-2 15 26 90 157 15 26-16 25-30 48q11 15 32 36t51.5 40 72.5 32.5 95 13.5h1q53 0 95.5-13.5t75-33T734 842t35-37q-5-8-12-19t-18-27l-16-26 15-26 91-156 14-26 30 1zM509 277q31 9 57 27 25 19 43 46-11-6-23-11t-25-8q-24-7-53-7-26 0-51 6-12 4-24 8.5T410 349q18-28 43-45 26-18 56-27zm123 127q2 5 2.5 10.5T636 425t1 10.5V446q0 31-10 57-9 28-26 49-19 24-41 39-24 15-51 24-27-9-51-24-22-15-41-39-17-21-26-49-10-26-10-57 0-23 6-44 24-23 55-36 29-13 66-13t69 13q30 13 55 38zm-5 254q-8 8-16.5 14T593 683q-18 10-40 16-11 3-22 4t-23 1q-46 0-85-21-39-23-62-58 20 11 48 19 13 3 25.5 5t26.5 2q7 0 13-.5t12-1.5 11.5-1.5T509 645q6 2 12 2.5t11 1.5q6 1 12.5 1.5t12.5.5q29 0 51-7 25-6 47-18-13 20-28 32zm51-86q-20 20-50 34-28 13-60 14 22-13 39-31 17-17 31-39 7-11 11.5-22.5T658 504q8-27 8-52 8 17 13 37 5 22 5 39 0 23-6 44zm48-81q-2 8-5 17t-8 17q0-39-15-74-13-34-39-61-5-20-14-36.5T624 321q-23-30-56-50 15 1 29 4.5t28 8.5q26 11 47 30 26 30 41 63 14 35 19 77-2 20-6 37z"/></svg>