<svg xmlns="http://www.w3.org/2000/svg" viewBox="0 -200 1011 1000"><path fill="currentColor" d="M960 227q41 72 47.5 136t-2.5 112q-11 56-38 105l-88-3-90 157 48 74q-31 48-78 86-20 16-45 31.5T659 953t-66 19-77 7q-42 0-77-7t-64.5-19-53-27.5T279 894q-44-38-72-86l46-74-90-157q-25 2-44 3-8 1-16.5 1H88q-8 0-14 1l-1-2q-25-51-35-110-8-51-1-116.5T86 216q21-36 45-62.5t49-46T230.5 75 279 54q55-19 110-20l41 79h181q11-21 20-39 8-15 14-27t7-13q58 4 113 25 24 9 49.5 23t51 34.5T915 164t45 63zm-443 51q-30 9-56 27-24 19-43 45 22-12 47-18 24-7 51-7 14 0 27 2t26 5q28 8 48 19-9-13-19.5-24.5T574 306q-24-19-57-28zm123 127q-24-23-55-37-34-14-69-14t-66 14q-31 12-55 36-6 20-6 43 0 31 10 57 8 26 26 50 17 22 41 38 24 17 51 24 27-7 51-24 24-16 41-38 18-24 26-50 10-26 10-57v-10.5l-1-10.5-1.5-10.5L640 405zM312 523q2-41 16-74 15-34 40-60 13-40 34-67 24-30 56-50-33 3-62 16-30 14-51 35-19 25-33 56-14 32-18 66v2q0 11 1.5 20.5T299 487q5 20 13 36zm30 28q1 5 1.5 10.5T346 572q24 22 51 35 28 13 61 15-11-7-21-15t-19-17q-8-9-16-19t-14-21q-7-11-11.5-22.5T368 503q-8-27-8-52-10 19-14 38-3 10-4 20t-1 21v10.5l1 10.5zm293 109q15-14 28-33-11 6-23 10.5t-24 8.5q-24 6-51 6h-12.5l-12.5-2q-5-1-11-1.5t-12-1.5q-6 1-11.5 1.5T494 650q-6 2-12 2h-13q-28 0-52-7-28-8-48-19 25 37 62 58 38 22 85 22 22 0 45-6 22-6 40-16 9-5 17.5-11t16.5-13zm51-87q6-19 6-43 0-11-1.5-20.5T687 490q-5-20-13-36 0 25-8 51-8 27-20 46-14 23-31 40-8 9-18 16.5T576 622q33-1 60-15 28-12 50-34zm48-81q5-18 6-37-5-43-19-76-14-34-41-64-20-17-47-30-25-10-57-13 34 20 56 51 25 31 35 68 25 27 39 62 15 33 15 73 8-15 13-34z"/></svg>