<svg xmlns="http://www.w3.org/2000/svg" viewBox="0 -200 1089 1160"><path fill="currentColor" d="M610 878q-2-3-22-5-26-3-50-11v9q33 17 54 17 5 0 8-1t10-1q5 0 0-8zM556-350l1-10 2 11 1 11v-9q0-17 2 5 2 21 12 214l13 227 19 2q117 15 208 79 95 66 144 171 35 74 42 162l1 15 9 1q14 1 44 2 35 1 35 2t-44 5l-44 5-1 20q-10 165-123 283-91 95-211 123-47 11-108 11-64 0-115-14-155-42-250-181-67-98-75-223l-1-19-44-5q-43-4-43-5l36-2q38-2 44-2l8-1v-10q10-99 46-173 42-86 118-148 102-83 238-97l12-1 1-9q0-2 11-220 10-196 12-220zM454 489l-45-90q-10-17 21 17 14 13 25 22 15 12 16 13 3 3 9 6l2 1v-5q0-2-44-91l-19-39 26 25q46 65 67 65 2 0 2-1l1-2 7-114q5-81 5-108v-2q-1-1-17 1-107 13-190 89-84 76-107 179-3 14-10 62-1 7 3 7h20q19 0 88-4 86-5 112-5l13-3q-5-5-45-21-17-7-21-9-10-5-16-10h2l26 4 23 4q7 1 46 9zm152-82l3-1 3-1q3 0 41-37l46-45-23 48q-36 77-36 84v1h1q17-13 67-56 0 1-3 6l-9 15q-12 20-13 22-25 38-25 44v2q1 0 54-9 47-8 54-8 0 1-6 3l-15 6q-8 5-21 10-39 15-44 20-3 3 3 3 4 0 9 1 4 0 122 5l101 4q1 0 1-4 0-12-8-53-20-101-95-177-74-75-176-98-31-7-38-7h-2q-5 0-6 1v2q0 5 5 108 5 109 10 111zM210 615q10 49 60 132 36 59 116 104l18 10q8 0 12-102 1-58 2-65l2-15 19-18q34-34 60-72 10-15 13-16.5t18 1.5q17 3 31 7 20 6 20 9t7 17 7 23q0 6-3 9t-4 2q0-3-5.5-13.5T577 611q0-5-1-6t-7-2-25-7l-18-7-3 4q-6 8-10 16-10 17-23 23-6 3-3 5 9 5 30 5 7 0 20-1l26-2 9 7q7 6 16 13 8 6 11.5 12t.5 13l-3 7-2-6q-2-9-21-19-9-5-42-6-28-1-42-4-17-4-20-3t-11 12q-9 13-8 14 1 0 7-4l7-4 10 3q17 5 41 6l30 1 29 13 29 13v16q0 16-1 16t-8-6-5-10q2-5 2-6 0-6-57-11-48-4-61-9-11-4-15-1-2 3-8 13.5t-5 11.5 9-3q16-7 27-1 6 3 6 3.5T466 741l-22 20v14q0 11-11 55l-10 40 11 4q15 6 25 8 5 1 17 5 3 1 3-2.5t8-8.5q24-14 42-30 8-9 11.5-9t25.5 9q25 9 38 9h3q16 0 23-7 2-2-10-10-4-3-12-8-37-24-53-26-7-1-26 7-15 6-17.5 8t-1.5 5q1 8-9 21l-6 8v-10q0-10 1-24l1-14 33-17 32-17 9 6q6 4 22 16 45 37 56 43l9 6 3 18q3 18 5 20 1 1 22-7 131-53 191-175 30-63 36-135l1-13-9 2q-19 1-121 11h-3l-2 1h-9l-112 13 83 55q62 46 62 48v1q-2 0-8-4-10-7-55-28-19-9-31-15-22-10-29-14-14-6-15-7-16-7-29.5-22T623 576t-1 4.5-5 9.5l-5 5-6-6q-7-5-7-12t2.5-7 3.5-3.5 5-3.5q7 0 7-23v-15l-7-2q-11-2-11-7 0-2 7-2 6 0 7.5-3.5T615 493q0-13-3.5-16t-4.5-8q0-5-4-5-3 1-3.5-2.5T599 439q0-26-1-26-3 0-65 47l-33 25v14q0 14-2 15-3 1-3 12t2 24-1 20q-2 5-15 20l-14 16-49 24-91 42q5-5 65-47 61-43 64-45l5-4-8-1q-27-3-131-13l-119-11q-3 1-3 8v1q0 14 10 55zm369-173q5-4 5.5-4t.5 41v40h-11v-74zm-35 27q4-6 4 27v23h-18q-15 0-17.5-1.5T510 506q0-13 20-27 12-7 14-10zm28 60l9-1h11v28h-6q-12 0-12-16 0-10-2-11zm-59 21v-10h38v27l-5-1q-3-1-19-3l-14-2v-11zm-4 168q12-3 24-3h11l25 18q25 18 25 19t-4 3q-4 1-16-6-24-14-60-23l-19-5z"/></svg>