<?xml version="1.0" encoding="utf-8"?>
<!-- Generator: Adobe Illustrator 21.0.2, SVG Export Plug-In . SVG Version: 6.00 Build 0)  -->
<svg version="1.1" id="Layer_1" xmlns="http://www.w3.org/2000/svg" xmlns:xlink="http://www.w3.org/1999/xlink" x="0px" y="0px"
	 width="24px" height="24px" viewBox="0 0 24 24" style="enable-background:new 0 0 24 24;" xml:space="preserve">
<path d="M11,0.7l7.8,2.6L16.8,5c1.3,1.9,2,3.7,2,5.4v0.1c0,1.6-0.6,3.2-1.7,4.7c-0.4,0.4-0.8,0.8-1,1.1c-0.2,0.3-0.4,0.5-0.4,0.6
	c-0.1,0.1-0.1,0.3-0.2,0.4c-0.1,0.2-0.1,0.3-0.1,0.3c0.1,0.5,0.1,0.8,0.3,1.1c0.1,0.3,0.3,0.5,0.6,0.6c0.2,0.1,0.5,0.2,0.7,0.3
	c0.2,0,0.5,0.1,0.8,0.1l-1.2,3.6c-0.7-0.2-1.3-0.4-1.8-0.7c-0.5-0.3-1-0.6-1.5-1s-0.8-1-1.1-1.6c-0.2-0.7-0.4-1.4-0.4-2.2v-0.2
	c0-1.3,0.7-2.7,2.1-4c0.3-0.4,0.6-0.7,0.7-1c0.2-0.2,0.3-0.5,0.5-0.9c0.2-0.4,0.2-0.8,0.2-1.1c0-1-0.5-2-1.6-3.1L11,9.8V0.7z
	 M10.5,12.4c0,0.7-0.3,1.4-0.8,1.9c-0.5,0.5-1.2,0.8-1.9,0.8S6.5,14.8,6,14.3c-0.5-0.5-0.8-1.2-0.8-1.9s0.3-1.3,0.8-1.9
	s1.1-0.8,1.9-0.8s1.3,0.3,1.9,0.8S10.5,11.7,10.5,12.4z"/>
</svg>
