<svg xmlns="http://www.w3.org/2000/svg" viewBox="0 -200 1000 1000"><path fill="currentColor" d="M776 190q64 64 95.5 144.5t31.5 164-31.5 164T776 807q-65 64-144.5 96T467 935t-165-32-144-96-96-144.5-32-164 32-164T158 190t144-96 165-32 164.5 32T776 190zm-35 582q55-55 84-125.5T854 498t-29-148-84-125-125.5-84T467 112t-148.5 29T193 225q-57 57-85 128T80 498.5 108 644t85 128q55 55 125.5 84T467 885t148.5-29T741 772zM319 569q-25 0-43-19-19-18-19-43 0-26 19-44 18-18 43-18 24 0 44 18 18 18 18 44t-18 44q-20 18-44 18zm162 176q-9-5-18-11t-17-14q-16-15-25-38-9-22-9-51v-6q0-46 48-94 6-8 10-13.5t7-9.5q4-4 6.5-9.5T489 486q6-13 6-26 0-34-37-71l-65 56V234l181 59-45 40q46 65 46 126v2q0 57-40 109-15 17-23 26-4 5-6.5 9t-3.5 6q-2 6-4 10-2 6-3 8 2 8 3.5 14.5T502 655q4 10 13 15t16 6q5 1 9.5 1H551l-28 84q-23-7-42-16z"/></svg>