<svg xmlns="http://www.w3.org/2000/svg" viewBox="0 -200 1000 1000"><path fill="currentColor" d="M466 61q90 0 169.5 34.5T774 189t94 138.5T903 498q0 90-35 170t-94 139-138.5 93.5T466 935q-91 0-170.5-35t-139-94T63 667.5 29 498t34-170 93.5-139 139-93.5T466 61zM323 568q24 0 44-18 18-18 18-44 0-25-18-43-20-18-44-18-25 0-43 18-19 18-19 43 0 26 19 44 18 18 43 18zm162 176q10 5 20 9t22 8l28-84q-6 0-10.5-.5t-9.5-.5q-8-2-16-7-9-5-13-15-4-7-7-26 1-1 3-8 2-4 4-10 1-2 3.5-5.5t6.5-9.5q5-5 10.5-11t12.5-14q40-53 40-109v-2q0-61-46-126l45-40-181-60v212l65-57q37 38 37 72 0 13-6 26-3 7-5.5 12t-6.5 9q-3 5-7 10t-10 13q-48 48-48 94v6q0 30 9 52 10 24 25 38 16 14 35 24z"/></svg>