<svg xmlns="http://www.w3.org/2000/svg" viewBox="0 -200 1000 1000"><path fill="currentColor" d="M912 196v609l-66 66-66 67H174L39 803V194l66-66 67-66h606zM458 661q19 0 36.5-3.5t31-8.5 21.5-10 8-9-8.5-9-22-9.5-31-8T458 600H327l-23-35h-50l16 35h-16v7h-25v47h25v7h16l-16 33h50l23-33h131zm89-133q19 0 36-3.5t30.5-8.5 21.5-10 8-9-8.5-9-22-10-30.5-8.5-35-3.5H416l-24-35h-49l16 35h-16v7h-26v48h26v7h15l-15 33h49l23-33h132zm95-130q19 0 36.5-3.5t31-8.5 21.5-10 8-9-8.5-9-22-9.5-31-8T642 337H511l-24-35h-49l16 35h-16v7h-25v47h25v7h16l-16 33h49l23-33h132z"/></svg>