<svg xmlns="http://www.w3.org/2000/svg" viewBox="0 -200 1000 1000"><path fill="currentColor" d="M779 61q68 66 134 134v609L781 936H175q-34-34-67.5-67T40 802V193l66-66 67-66h606zm85 154l-75-75-30-30H193l-52 52-51 51v568l105 106h566l51-52 52-52V215zM459 659H328l-23 34h-50l16-34h-16v-7h-25v-47h25v-7h16l-16-35h50l23 35h131q18 0 35.5 3.5t31 8.5 22 10 8.5 9-8 9-21.5 9.5-31 8T459 659zm89-133H416l-23 34h-49l15-34h-15v-7h-26v-47h26v-7h16l-16-35h49l24 35h131q18 0 35 3.5t30.5 8.5 22 10 8.5 9-8 9-21.5 9.5-30.5 8-36 3.5zm95-130H511l-23 34h-49l16-34h-16v-6h-25v-48h25v-7h16l-16-35h49l24 35h131q18 0 35.5 3.5t31 8.5 22 10 8.5 9-8 9-21.5 9.5-31 8T643 396z"/></svg>