<svg xmlns="http://www.w3.org/2000/svg" viewBox="0 -200 1000 1000"><path fill="currentColor" d="M691 315l-92 88 113-53q8 16 15.5 32t12.5 35l-120 53 131-14q0 14 1.5 24.5T754 502t-1.5 19.5T751 541l-124-4 117 43q-5 19-13 39t-19 39l-113-53 92 81q-14 16-27.5 29T634 739l-85-89 53 114q-16 8-32 15.5T535 792l-53-120 11 131q-11 0-21.5 1.5T450 806t-21-1.5-21-1.5l14-131-53 120q-19-5-36.5-11T298 764l57-114-88 92q-17-13-30-26t-24-27l89-84-113 53q-11-19-19-38t-13-40l120-43-127 4q-3-11-3.5-19.5T146 502t2-23 2-23l131 14-121-53q4-11 8-23 4-11 9-23.5t12-24.5l116 57-95-88q14-14 27-28t30-25l81 91-50-113q17-11 37-18.5t41-13.5l39 117V201q8-2 16-2.5t19-.5 19.5.5T489 201l-3 124 42-117q19 6 39 13.5t39 18.5l-53 113 85-91zm120-22v414L450 919 90 707V293L450 81zM450 824q66 0 125-25.5t102.5-69 69-102.5T772 502t-25.5-125-69-102.5-102.5-69T450 180t-124.5 25.5-102 69-69 102.5T129 502t25.5 125 69 102.5 102 69T450 824zm421-566v484L450 986 30 739V258L450 14zm-32 18L450 49 58 276v445l392 230 389-226V276z"/></svg>