<svg xmlns="http://www.w3.org/2000/svg" viewBox="0 -200 1051 1000"><path fill="currentColor" d="M535 250h12q86 0 162 22 28 9 53 19.5t45 20 41.5 23.5 35.5 23.5 33 26.5 29 26 28 29.5 25 28.5 26.5 30.5T1051 530Q948 694 702 740q-87 22-178 22-72 0-149-16-255-44-345-214 55-106 135.5-164T373 270q9-2 34.5-7t38-6.5 37-4T535 250zm175 99q58 66 58 154 0 64-32 117.5T650 705q5-1 14.5-2t15.5-2q49-12 77-20t70-23.5 69-31 55-40.5 46-56q-68-79-133.5-122T710 349zm-351 7q-88 22-155.5 70T115 530q19 38 46 66t61.5 47 65 30 72.5 22q42 6 62 8-52-30-83.5-83.5T307 503q0-83 52-147zm172 106q0 35 25.5 60.5T618 548t61-25.5 25-60.5q0-36-25-61t-61-25-61.5 25-25.5 61z"/></svg>