<svg xmlns="http://www.w3.org/2000/svg" viewBox="0 -200 1000 1000"><path fill="currentColor" d="M472 62q90 0 170 34.5T781 190t93.5 138.5T909 498t-34.5 170T781 807t-139 93.5T472 935t-169.5-34.5T164 807 70.5 668 36 498t34.5-169.5T164 190t138.5-93.5T472 62zm0 824q80 0 151-30.5t123.5-83 83-123.5T860 498t-30.5-150.5-83-123-123.5-83T472 111t-150.5 30.5-123 83-83 123T85 498t30.5 151 83 123.5 123 83T472 886zm233-392q9 11 12 15-48 77-164 98-42 11-84 11-32 0-70-8-120-21-163-100 26-49 64-78 36-26 98-46 2 0 6-1t10-2q12-3 18-3 3-1 7.5-1t9.5-1q6-1 12-1h19q42 0 76 10 7 2 13 4.5t12 4.5l11 5.5 10 4.5q11 5 20 11 5 3 9 6t8 5q6 5 15 12 5 5 8.5 8t5.5 5l5 5 8 8 7.5 8.5 4.5 5.5 4.5 5.5 7.5 8.5zm-313 92q10 2 17 2.5t12 1.5q-24-13-39-39-15-25-15-55 0-39 24-69-42 11-73 33-32 23-42 49 5 9 10.5 16.5T298 540q7 6 14 11.5t15 10.5 15.5 8 15.5 6q7 2 15.5 5t18.5 5zm92-81q12 12 29 12t29-12 12-28q0-17-12-29t-29-12-29 12-12 29q0 16 12 28zm186 30q7-6 12-12.5t10-13.5q-32-36-63-58-16-10-34-17t-38-11q27 32 27 73 0 30-15 55-14 24-41 40 2 0 3.5-.5t3.5-.5 4-.5 3-.5q12-3 21-5t16-4 15-5 18-6q21-8 32-15 12-7 26-19z"/></svg>