<svg xmlns="http://www.w3.org/2000/svg" viewBox="0 -200 1000 1000"><path fill="currentColor" d="M550 477q0 16-12 28t-29 12-29-12-12-28q0-17 12-29 11-11 29-11t29 11q12 12 12 29zm-172 74q15 26 39 39-10 0-29-3-10-3-18.5-5.5T354 576t-15.5-5.5T323 562q-15-8-29-22-6-7-11.5-14.5T272 509q10-26 42-49 31-22 73-33-24 30-24 69 0 30 15 55zm247-99q30 20 63 57-10 17-22 26-7 6-13 11t-13 8q-11 7-32 15-10 4-18 6.5t-15 4.5-16 4.5-21 5.5h-7q-3 1-7 1 25-13 41-39 15-25 15-56 0-40-27-72 42 8 72 28zM468 62q90 0 170 34.5T777 190t93.5 139T905 499t-34.5 169.5-93.5 139T638 901t-170 34-169.5-34T160 807.5t-93.5-139T32 499t34.5-170T160 190t138.5-93.5T468 62zm81 546q116-23 164-99-2-2-4.5-5.5T701 495q-9-10-12-15-2-2-4.5-5t-7.5-8-8-8.5-5-5.5-5.5-5-8.5-7q-7-7-15-13-4-2-8-4.5t-9-6.5l-10-6-10-5q-9-4-21-9-12-6-25-9-38-11-76-11h-6q-7 0-13 .5t-12 .5q-5 1-9.5 1.5t-7.5.5q-6 2-18 3-6 2-10 2.5t-6 1.5q-58 18-98 46-36 26-64 77 44 80 163 101 34 7 70 7 45 0 84-10z"/></svg>