<?xml version="1.0" encoding="utf-8"?>
<!-- Generator: Adobe Illustrator 21.0.2, SVG Export Plug-In . SVG Version: 6.00 Build 0)  -->
<svg version="1.1" id="Layer_1" xmlns="http://www.w3.org/2000/svg" xmlns:xlink="http://www.w3.org/1999/xlink" x="0px" y="0px"
	 width="24px" height="24px" viewBox="0 0 24 24" style="enable-background:new 0 0 24 24;" xml:space="preserve">
<path d="M11.9,6.4h0.3c1.3,0,2.4,0.2,3.5,0.5c0.4,0.1,0.8,0.3,1.2,0.4c0.4,0.2,0.7,0.3,1,0.4s0.6,0.3,0.9,0.5s0.6,0.4,0.8,0.5
	c0.2,0.1,0.4,0.3,0.7,0.6c0.3,0.2,0.5,0.4,0.6,0.6c0.1,0.1,0.4,0.3,0.6,0.6c0.3,0.3,0.4,0.5,0.5,0.6c0.1,0.1,0.3,0.3,0.6,0.7
	c0.3,0.3,0.5,0.6,0.6,0.7c-1.5,2.4-4.1,3.9-7.6,4.6c-1.3,0.3-2.6,0.5-3.9,0.5c-1.1,0-2.1-0.1-3.3-0.4c-3.7-0.6-6.2-2.2-7.6-4.7
	C1.6,11,2.6,9.8,3.8,9s2.7-1.6,4.5-2.1c0.1,0,0.4-0.1,0.8-0.2s0.6-0.1,0.8-0.1s0.5-0.1,0.8-0.1S11.5,6.4,11.9,6.4z M15.7,8.6
	c0.8,1,1.3,2.1,1.3,3.4c0,0.9-0.2,1.8-0.7,2.6c-0.5,0.8-1.1,1.4-1.9,1.9c0.1,0,0.2,0,0.3,0s0.3,0,0.3,0c0.7-0.2,1.3-0.3,1.7-0.4
	c0.4-0.1,0.9-0.3,1.5-0.5c0.6-0.2,1.1-0.5,1.5-0.7c0.4-0.2,0.8-0.5,1.2-0.9c0.4-0.4,0.7-0.8,1-1.2c-1-1.2-2-2-2.9-2.7
	C18.1,9.2,17,8.8,15.7,8.6z M8,8.7C6.7,9,5.6,9.5,4.6,10.2S3,11.7,2.7,12.5c0.3,0.6,0.6,1,1,1.4c0.4,0.4,0.8,0.8,1.3,1
	s1,0.5,1.4,0.7c0.4,0.2,1,0.3,1.6,0.5c0.6,0.1,1.1,0.1,1.4,0.2c-0.8-0.4-1.4-1-1.8-1.8c-0.5-0.8-0.7-1.6-0.7-2.6
	C6.9,10.7,7.3,9.6,8,8.7z M11.8,11c0,0.5,0.2,1,0.6,1.3c0.4,0.4,0.8,0.6,1.3,0.6c0.5,0,1-0.2,1.3-0.6c0.4-0.4,0.5-0.8,0.5-1.3
	c0-0.5-0.2-1-0.5-1.3s-0.8-0.5-1.3-0.5c-0.5,0-1,0.2-1.3,0.5C12,10.1,11.8,10.5,11.8,11z"/>
</svg>
