<?xml version="1.0" encoding="utf-8"?>
<!-- Generator: Adobe Illustrator 21.0.2, SVG Export Plug-In . SVG Version: 6.00 Build 0)  -->
<svg version="1.1" id="Layer_1" xmlns="http://www.w3.org/2000/svg" xmlns:xlink="http://www.w3.org/1999/xlink" x="0px" y="0px"
	 width="24px" height="24px" viewBox="0 0 24 24" style="enable-background:new 0 0 24 24;" xml:space="preserve">
<path d="M11.8,0.7c0.1,0,0.1,0,0.2,0h0.2c1.7,0,3.4,0.4,5,1.2C19,2.8,20.5,4.2,21.7,6c1.1,1.8,1.7,3.8,1.7,5.9c0,0.3,0,0.5,0,0.7
	c-0.1,2.3-0.8,4.3-2.2,6.2c-1.4,1.9-3.2,3.2-5.3,3.9c-1.2,0.4-2.4,0.6-3.7,0.6c-1.6,0-3.1-0.3-4.5-0.9c-1.5-0.6-2.7-1.5-3.8-2.6
	c-1-1-1.8-2.2-2.3-3.6c-0.5-1.4-0.8-2.8-0.8-4.3c0-1.6,0.3-3,0.9-4.4c0.8-2,2.2-3.7,4.1-5S9.6,0.7,11.8,0.7z M11.8,1.7
	c-2.1,0-4,0.7-5.7,1.9s-3,2.8-3.7,4.8C2,9.5,1.8,10.7,1.8,11.9c0,1.6,0.3,3.1,1,4.5C3.5,17.9,4.5,19,5.7,20c1.8,1.5,3.9,2.2,6.3,2.2
	c2.2,0,4.2-0.6,5.9-1.9c1.3-0.9,2.4-2.2,3.2-3.7s1.1-3.1,1.1-4.8c0-0.9-0.1-1.9-0.4-2.7c-0.6-2.1-1.8-3.9-3.6-5.3
	c-1.8-1.4-3.9-2.1-6.1-2.1H11.8z M11.7,2.8c0.1,0,0.2,0,0.3,0H12c0.1,0,0.1,0,0.3,0c1.3,0,2.7,0.4,4.2,1.3v4.7
	c-0.9,0.5-1.8,0.8-2.8,1V7.5L14,7.5V5.4c-0.5-0.3-1.2-0.5-2-0.5c-0.8,0.1-1.4,0.2-1.9,0.5v2.1l0.3,0.1v2.2c-1-0.1-1.9-0.4-2.8-1V4.1
	C9,3.3,10.4,2.9,11.7,2.8z M5.1,7.5v2.2c0.3,0.2,0.6,0.3,1,0.5s0.7,0.2,0.9,0.3s0.6,0.1,1.1,0.2s0.8,0.2,1,0.2v2.2
	c-0.1,0-0.5,0.1-1,0.2s-0.9,0.2-1.1,0.2c-0.2,0.1-0.5,0.1-0.9,0.3c-0.4,0.1-0.7,0.3-1,0.5v2.2c-0.9-0.2-1.7-0.7-2.4-1.6V9.1
	C3.4,8.2,4.2,7.7,5.1,7.5z M18.9,7.5c0.9,0.2,1.7,0.7,2.4,1.6v5.8c-0.7,0.9-1.5,1.4-2.4,1.6v-2.2c-0.3-0.2-0.6-0.3-1-0.5
	c-0.4-0.1-0.7-0.2-0.9-0.3c-0.2-0.1-0.6-0.1-1.1-0.2c-0.5-0.1-0.8-0.2-1-0.2v-2.2c0.1,0,0.5-0.1,1-0.2c0.5-0.1,0.9-0.2,1.1-0.2
	c0.2-0.1,0.5-0.1,0.9-0.3c0.4-0.1,0.7-0.3,1-0.5V7.5z M10.3,14.2v2.2L10,16.5v2.1c0.5,0.3,1.2,0.5,1.9,0.5c0.8,0,1.4-0.2,2-0.5v-2.1
	l-0.3-0.1v-2.2c1,0.1,2,0.4,2.8,1v4.7c-1.5,0.8-2.9,1.2-4.2,1.3h-0.6c-1.3,0-2.7-0.4-4.2-1.3v-4.7C8.4,14.7,9.3,14.4,10.3,14.2z"/>
</svg>
