<svg xmlns="http://www.w3.org/2000/svg" viewBox="0 -200 1000 1000"><path fill="currentColor" d="M461 66q4-1 8 0h6q101 0 194 48 108 53 174 160t66 228q0 17-1 26-5 131-87 240.5T615 920q-68 25-143 25-91 0-175.5-36T151 808q-58-59-89.5-139.5T30 503q0-91 34-169 48-118 158.5-192.5T461 66zm1 41q-120 1-222 73.5T98 366q-24 64-24 134 0 92 40 176t111 138q105 85 245 85 129 0 229-73 78-54 122.5-142T866 500q0-55-15-106-33-123-140-205t-235-82h-14zm-4 44q7 0 10 1h3q3-1 10-1 77 1 162 49v181q-51 30-109 37v-85l11-3v-80q-30-18-76-20-45 3-75 20v80l11 3v85q-57-7-110-37V200q87-48 163-49zM201 330v87q17 10 38 18t34.5 11 42.5 8.5 37 7.5v86q-8 2-37 7.5t-42.5 8.5-34.5 11-38 18v87q-50-12-93-63V393q43-51 93-63zm536 0q50 12 93 63v224q-43 51-93 63v-87q-16-10-37.5-18t-34-11-42-8.5T586 548v-86q8-2 37.5-7.5t42-8.5 34-11 37.5-18v-87zM405 592v85l-11 3v80q30 17 75 20 46-2 76-20v-80l-11-3v-85q60 7 109 38v180q-85 48-162 49h-23q-76-1-163-49V630q51-31 110-38z"/></svg>