<svg xmlns="http://www.w3.org/2000/svg" viewBox="0 -200 1000 1000"><path fill="currentColor" d="M298 864q2 2 4 3.5t4 2.5q-6 2-9 6.5t-6 9.5q-3-2-6.5-4.5T278 876q-45-36-64-62.5T190 777q-2-25-5.5-44t-5.5-31q8 27 22.5 51t31 44.5 34 37.5 31.5 29zm277 22q14 6 19 16 2 8-2.5 16t-9.5 15q0 1-.5 1t-.5 2l-2 2v1q-3 1-5 5l-4-22q-1-1-2-2.5t-4-2.5-8 1q-13 15-29.5 24t-32 14-27.5 6.5-16 1.5q-3 0-15-1.5t-28-6.5-33-14-30-24q-5-2-7-1-5 2-5 5l-4 22q-2-3-5-5l-1-1q0-1-1-2-1-2-3-3-5-7-8.5-15t-1.5-16q3-10 19-16h4q1 0 2-.5t3-.5q3 0 3-2h8q9 0 18.5 2.5T386 892q25 11 39.5 13t22.5 2h7q6 0 21-2t39-13q11-4 21-6.5t19-2.5h6q2 2 4 2h1q2 0 2.5.5t1.5.5h5zM112 428q6-4 23.5-8.5t43-10 55-10.5 59.5-10v7l45 16 46-8h135l46 8 44-16v-7l60 10 55 10.5 42.5 10L790 428q2 5 0 23t-13 60q-6 26-15 53t-17 44q-4 4-8 7.5t-9 8.5q-20 18-41.5 35.5T646 685q-11 5-27 5t-31.5-1.5T560 684t-16-5q-4-3-15.5-18T507 633l-24-32-15-18-9.5-8-7.5-2q-3 0-6.5 2t-9.5 8-15.5 18-24.5 32q-9 13-21 28t-16 18q-4 2-16 5t-27 4.5-31 1.5-27-5q-19-8-41-25.5T174 624q-4-5-8.5-8.5T157 608q-8-17-16.5-44T125 511q-11-41-12.5-59.5T112 428zm497-140l-10-16V38q61 26 104 55.5t72.5 60.5 46.5 62 27 59q-6 21-14.5 65T826 454q0 86 4 128t6 53q-11 11-18.5 21T806 670l-57 7h-19q4-9 14-19 5-8 11-17t11-21q6-13 15.5-41t17.5-59 12.5-59.5.5-42.5v-1q-1-3-3.5-6.5t-13.5-8-33.5-10T699 380q-28-5-52.5-9t-37.5-6v-77zm255 43q6 32 7.5 63.5T873 452q-1 30-3 58 0 19-1 36-1 15-2.5 30t-3.5 26q-4 5-7.5 9t-7.5 9q-2-17-4.5-57T841 454q0-54 5-92t12-61q2 8 3.5 15t2.5 15zm-526 55l-21-8v-83l46-63h176l47 63v83l-22 8-36-59H374zm385 316q-2 12-5 31t-5 44q-6 10-24.5 35.5T627 873q-2 3-6 5-1 0-1 3-5 2-8 5-4-5-7-9.5t-9-6.5h1q2-1 3.5-2.5t3.5-2.5v-1h1q14-12 31.5-29t34-37.5T701 753t22-51zM66 635q2-11 6-53t4-128q0-70-8-114t-14-65q9-28 26.5-59t46.5-62 72.5-60.5T304 38v234l-11 16v77q-12 2-37 6t-52 9q-40 7-62.5 12.5t-33.5 10-13.5 8T91 417v1q-5 14-.5 42.5T103 520t18 59 16 41q5 12 11 21t11 17q4 5 7.5 9.5t6.5 9.5h-20l-57-7q-3-4-11-14t-19-21zm749 47q1-1 7.5-8.5T838 655q0 2-.5 4t-.5 4q0 60-13 105.5t-31 78-37.5 52.5-32.5 30q0-35 4-74.5t8.5-74 9-59T749 692l64-8zm-662 10q1 5 5.5 29.5t9 59 8.5 74 4 74.5q-14-10-33.5-30T109 846.5t-30.5-78T66 663q0-2-2-8 9 11 16 18.5t9 8.5l1 2zm298-485h-76V-56h153v263h-77zm0 173h-68l-26 3 26-39h137l25 39-25-3h-69zm123-139l-23-33V-40l14 65q3 2 5 2.5t4 2.5v211zM38 331q2-8 3-15t4-15q7 23 11.5 61t4.5 92q0 69-2.5 109T54 620q-4-5-7.5-9t-7.5-9q-2-11-3.5-26T33 546q-1-17-2-36-3-28-3-58 0-26 2-57.5t8-63.5zm314-123l-24 33V30q2-2 4.5-2.5T337 25l15-65v248zm99 771q16 0 32-4t30-10 26-13 19-13l2 18q-2 1-11.5 8t-24 14.5T491 993t-40 6-40-6-33.5-13.5-24-14.5-11.5-8l3-18q7 6 18.5 13t26 13 30 10 31.5 4z"/></svg>