<svg xmlns="http://www.w3.org/2000/svg" viewBox="0 -200 1000 1000"><path fill="currentColor" d="M883 362h3l32 58 16 398-30 37zM48 818l10-221q-6-4-11-7.5t-7-5.5q-2 0-2.5-7.5T38 560l2-24-11-12v-51h11l8-131v-38l16-14 9-373-25-57 63-29 190 38v17l-36 21-4 15-11 10-77-2-8-13q-10 6-19 10-8 4-15 8t-10 6q-4 4-12 2-4-1-9-2L88 284l18-4-4 72-1 40-23 463zm83-592q14-46 37.5-79.5T220 89t59-39.5T340 25Q410 4 491 6q104-3 187 31 35 15 69 39.5t61 62 44 90T871 351q-28-4-66.5-7t-80.5-5-83-4-74-3-54-1.5-22-.5-20 .5-50 1.5-70 2.5-79.5 4-79 5.5-68.5 6zm752 636l-16 3-278 104v1q2-17 6.5-50t11.5-75 16.5-89 20.5-92q9-45 40-78t85-59q31-14 58.5-21t38.5-9zM341 664q10 45 19 92t15.5 89 11 75 6.5 50v-1L116 865l-16-3 17-365q14 2 40 9t57 21q53 26 84.5 59t42.5 78zm92 317l-25-510-258-39v-30q46-2 101-4 47-2 109-3.5t131-1.5 131 1.5 109 3.5q55 2 101 4v30l-257 39-26 510H433z"/></svg>