<svg xmlns="http://www.w3.org/2000/svg" viewBox="0 -309 1000 1000"><path fill="currentColor" d="M798 509q-3-15-7.5-34t-8.5-37.5-7.5-34.5-6.5-26q-5-22-20-38h30q3 0 7 1 3 1 7 2.5t8 3.5q19 15 20 50 4 47 5.5 65.5T827 483zM223 339q-5 8-10.5 17t-8.5 21q-3 10-6.5 26t-7.5 34.5-8 37.5-7 34l-30-26q1-3 2-21.5t5-65.5q1-18 6-30t13-19q4-3 8.5-4.5l7.5-2.5q4-1 7-1h29zM101 701q10-22 22.5-31t29.5-17q14-7 22-15l83 101q-21 5-53.5 19T145 804q-17-22-26-37.5T105.5 739t-5-21 .5-17zm637 210l-5-5q-5-3-8.5-6.5T716 893l-9-7-5-4q-1-1-2-1.5t-3-2.5q-5-2-9.5-5t-10.5-6q-4 0-5-1l-2-1-3-1q-2-2-7-2-1-1-5-1-14-2-25 1-13 4-22 10-2 1-2.5 2t-1.5 2q-1-2-2.5-3.5L598 869q16-16 32.5-33.5t30-32.5 24-27 15.5-18q6 1 20 4.5t31.5 11T787 794t32 34q0 6-1 16t-3 21q-4 10-12 19.5t-16.5 17-16.5 13-12 7.5l-3-1h-1l-1-2-1-1q-2-1-2-1.5t-2-.5q-1 0-1-1l-2-2h-3l-2-1h-1zm-503 0l-2 1h-1l-2 1h-3q-2 1-2 2t-2 1l-1 1q-1 0-1 .5t-1 .5l-1 1-1 2h-2v1h-3q-4-2-11.5-7.5t-16-13T169 885t-12-20q-2-11-3-21t-1-16q14-21 32-34t35-20.5 31.5-11T273 758q4 6 14.5 18t24 27 29.5 32.5 32 33.5q-2 4-5 7l-2-2-3-2q-8-7-21-10-11-3-25-1-3 0-6 1-2 0-5 2l-4 1-2 1q-3 1-5 1l-10 6-10 5q-2 2-3.5 2.5T270 882l-5 4-9 7q-5 3-8.5 6.5T239 906l-4 5h-1 1zm636-210q1 8 1 17t-4.5 21-14 27.5T827 804q-27-32-59.5-46T714 739l84-101q4 4 8.5 7.5T819 653q17 8 29 17t23 31zm-66-160q0-1-1-6t-3-13l66-58q5 1 11 3t11 7q7 6 7 26.5t-4 48-11 57.5-14 55q-8-9-18-15.5T827 633t-16.5-12-5.5-8v-72zM371 341h-41q6-15 16-47t20-83q4-48 7.5-96t5.5-87q3-46 4-87h206q2 41 5 87 2 39 5.5 87t8.5 96q8 51 18 83t16 47h-39V231h-80v-18h-21v152h-32V213h-20v18h-79v110zm291-22q-13-66-15-121t0-93q2-29 5-51t5-33q10 3 29 10t41.5 21.5 45.5 37 42 55 31 76.5 11 101v134l-11 10q-1-10-2.5-27.5T840 393q-2-42-26-62-12-11-23.5-11.5T775 319H662zm-75 659q4 4 8 7.5t6 7.5l3.5 3.5 3.5 2.5q-8 0-15.5-2t-14.5-4q-20-10-30.5-18.5T533 960l15-108-12-2-15 104-8 21h-53l-7-21h-2l-15-104-12 2 15 108q-4 6-14 14.5T395 993l-14 4-15 2q1-1 2-2.5t3-3.5l15-15q2-2 2-3t1-2l3-3q0-1 1-2l2-5q3-4 3-6l1-4v-1l1-2v-6q3-6 0-12-1-13-7-24-3-4-5.5-7.5T382 892q10-13 16-21.5t10-15.5 7.5-14.5T425 820v-2q5-11 23-18t38-7 38 7 23 18l1 2q5 13 8.5 20.5T564 855t10 15.5 16 21.5q-2 5-5 8.5t-6 7.5q-6 11-7 24-2 4-2 12 2 1 2 2.5t1 3.5v3l1 4q1 2 1 3t2 3l2 5q1 0 1 2l3 3q2 2 4 5zm-123-76l-8-84h-13l7 85zm20 12l-7-101-12 1 6 100h13zm23-100l-13-1-7 101h14zm21 4h-12l-8 84 13 1zM139 969v-1 1zm695 0v-1 1zm-12-91q43 30 71 53t44 42 22 35 6 31q0 16-5.5 27.5T947 1086q-8 9-18 15-11 5-23 6.5t-23 1.5q-12 0-25-2-5 2-9 1.5t-7-1.5q-4-1-6-3-13 2-16.5 0t-7.5-6q-8 2-13 .5t-7-3.5q-3-3-4-7-8 3-12 1.5t-6-4-3.5-5.5-2.5-3q-8 4-11 1.5t-4.5-6.5-4-6.5-8.5.5-8.5.5-2.5-6-2.5-6-8.5.5-8.5.5-4-5.5-2.5-6-4-2q-5 3-8 1t-5-5-4-5.5-5-1.5q-6 2-8-.5t-3-6-3-6-8 .5q-6 2-7.5 0t-1.5-5-.5-6-4.5-2q-7 2-6.5-2t-.5-6q-5 0-7 1v-1q-3-3-4-5-2-2-4-4.5t-4-4.5q-5-5-8.5-8t-7.5-7q0-4-2-4l-1-2q-1 0-1-1-1 0-1-2l-2-3q0-3-3-5 0-2-.5-4.5t-.5-4.5v-10q1-4 2.5-8.5t3.5-8.5q7-12 13-18 0-2 1-2.5t1-2.5l3-1v-1h1l4-5 3-3q4-2 8.5-4.5t9.5-3.5q10-3 18-2 3 2 5 2 4 0 5 1l5 2q2 0 2.5 1t2.5 2q5 2 9.5 4t8.5 6q2 0 2.5.5t2.5 1.5l3 3 9 7q4 4 8 7t9 7l4 4h1l2 1q2 2 5 2 0 2 1 2h2q1 0 1 1t1 1h2l2 3q0 1 1 1h2l1 1h1l3 1 1 2h1l2 1 2 2 1 1v2q1 1 2 1h1q2 2 5 2h5l1 2 2 2v1q2 0 2 2l2 1q0 1 3 2h10v2l2 1v1q1 1 2 1t1 2q1 1 3 1h9l1-1h1v2q0 1 2 1 1 4 5 4 1 1 5 1h8l2-1 1 1h1l1 2q2 1 5 1.5t4-.5h4q1 0 1.5.5t1.5.5l3 1q1 0 1 .5t1 .5q3 2 8 2h26q1 0 2.5-1t2.5-1v-1l-10-2h-8l-2-1-5-2q-2-1-3.5-.5t-2.5-.5q-3 0-4-1h-1l-1-1v-2 2-2h-2q-2-2-6-2-2-1-6-1h-1v-1l-2-1h-1v-1l-1-1h-1q-1-1-3-1-1 0-1-1l-1-1q-4 0-5 2h-5l-1-2q-2-1-2-1.5t-1-1.5l-1-2q-1 0-3-1-1-1-5-1h-5q0 1-2 1l-1-1-1-3h-3q0-2-4-2-1-1-5-1h-3q-2-2-2.5-3t-1.5-2-2-1-2-2q-1 0-5-2h-5v-1 1-1h-1q11-7 27-20.5t26-32.5zm-446 91q-3 4-7 7t-8 8q-2 2-4 4.5t-4 4.5q-2 4-2 5l-1 1q-3-1-7-1-2 2-1 6t-7 2q-3-1-3.5 2l-1 6-2 5H321q-6-3-8-.5t-3 6-3 6-8 .5q-3-1-5 1.5t-4 5.5-5 5-9-1q-3-1-4 2l-2 6-3.5 5.5-8.5-.5q-7-3-8.5-.5t-2 6-2 6-8.5-.5-9.5-.5-4 6.5-4.5 6.5-11-1.5q-1 0-2 3t-3.5 5.5-7 4-11.5-1.5q0 4-4 7-3 2-8.5 3.5t-13.5-.5q-2 4-5.5 6t-16.5 0q-1 2-5 3-3 1-7.5 1.5t-9.5-1.5q-14 2-26 2-11 0-23-1.5t-22-6.5q-10-6-18-15-7-8-12.5-19.5T7 1039q0-15 6.5-31T36 973t43.5-42 70.5-53q10 19 27 32.5t26 20.5l-1 1 1-1-1 1h-6q0 1-1.5 1t-2.5 1q-1 2-2 2t-2 1q-2 1-2 2t-2 3h-3q-4 0-5 1-3 0-5 2h-1l-2 3-1 1h-1l-1-1h-5q-4 0-5 1-2 1-3 1l-1 2q-2 2-2 3v2h-7q-1-2-5-2-1 0-1.5 1t-1.5 1v1h-3v1l-2 1v2h-3q-4 0-6 1-4 0-6 2h-1v2-2 2l-2 1h-2q0 1-3 1 0-1-5 1l-6 2-2 1h-8l-10 2v1q2 0 2.5 1t2.5 1h26q5 0 8-2 1 0 2-1l3-1q1 0 2-1h5q2 1 9-1l1-2h1l2-1 2 1h8q2 0 4-1 2 0 5-4l1-1q1 0 1-.5t1-.5v-1 1h10q2 0 4-1 1-2 2-3l1-1v-1l2-2h9q3-1 3-2 1 0 1-.5t1-.5q0-2 1-2h1v-1l2-2q0-2 1-2h5q3 0 5-2 2 0 2-1l1-1v-1l1-1 2-1q1 0 1-1 1-1 2-1v-2h2v-1h3l1-1q1 0 2-.5t2-.5l2-3 2-1 1-1h3l2-2 4-2 1-1h1l4-4q4-4 8-7t9-7l8-7 5-3q2-2 3-2 10-7 19-10 2-1 3-2t3-1l4-2q1-1 5-1t5-2q8-1 18 2 5 1 9.5 3.5t8.5 4.5l3 3 4 5 1 1 2 1q2 3 3 5 7 8 12 18 5 9 7 17v10q0 3-2 9 0 1-1 2t-1 3l-2 3q-1 1-1 2v1l-2 2q-1 0-1 1.5t-2 2.5zm-30-782q2-39 0-71.5T341 59t-6-38-4-17q7-17 13-38t12-25h6q0 2-.5 23t-2 55-4.5 77.5-7 89.5zM145 633q-12 6-22 12.5T105 661q-8-25-14.5-55T80 548.5t-4-48 7-26.5q5-5 11-7t10-3l67 58q-2 17-4 19 0 1-.5 3t-.5 9.5.5 21.5.5 38q-1 2-5.5 8T145 633zm-30-177V322q0-57 12-101t30.5-76.5 42-55 45.5-37T285.5 31 314 21q2 11 5.5 33t5.5 51q2 38 0 93t-15 121H196q-3 0-14 .5T158 331q-23 21-27 62-2 28-3 45.5t-2 27.5zm509-270q-4-46-7-89.5T612.5 19t-2-55-.5-23h5q7 4 13.5 25T641 4q-1 3-4 17t-6 38-5.5 56.5-.5 71.5zM224 382q7-23 18-32t13-11h51q-2 6-2 10l-9 12h96V252h59v134h73V252h59v109h94l-7-12q-2-3-2-5.5t-1-4.5h51q3 2 14 11t17 32q2 5 3.5 11t2.5 14H218l3.5-14 2.5-11zm162 470q-19-18-37-37.5T317 778q-17-19-32-37l-1-3q11-3 27.5-8.5T343 718l5-2v-51l-10 7q-11 9-33 21t-42 20l-77-95 1-2V516q1-2 1.5-6.5T193 491q0-5 1.5-11t3.5-11q10 39 24.5 50t25.5 11q27 0 53-5t49-13.5 41-19 27-22.5q5-8 24-17t44-9q24 0 41.5 9t23.5 17q9 12 26.5 22.5t40.5 19 49.5 13.5 53.5 5q11 0 25.5-12t25.5-55q2 17 4 33.5t4 24.5q2 13 3.5 18.5t1.5 6.5v72l-76 95q-20-8-41.5-20T635 672l-11-7v51l4 2q16 6 32.5 11.5T688 738l-1 3q-15 18-32 37-14 17-32.5 36.5T585 852q-5-9-8.5-16.5T567 813l-2-3q-10-29-48-35-11-2-31-2t-31 2q-38 6-48 35l-2 3q-5 15-9 22.5T386 852zm172-167l4 1q2 2 15.5 8t23.5 12l9 5v-53l-2-3q-15-9-24-15t-16-11l-10-7v63zm-60-13l7 2q14 0 31 5l8 2v-69l-3-2q-13-10-35-13l-8-2v77zm-70 9l8-2q20-5 31-5l5-2v-77l-7 2q-21 3-35 13l-2 2v69zm-57 25q10-6 23.5-12t15.5-8l5-1v-63l-11 7q-7 5-15 11t-25 15l-3 3v53z"/></svg>