<?xml version="1.0" encoding="utf-8"?>
<!-- Generator: Adobe Illustrator 21.0.2, SVG Export Plug-In . SVG Version: 6.00 Build 0)  -->
<svg version="1.1" id="Layer_1" xmlns="http://www.w3.org/2000/svg" xmlns:xlink="http://www.w3.org/1999/xlink" x="0px" y="0px"
	 width="24px" height="24px" viewBox="0 0 24 24" style="enable-background:new 0 0 24 24;" xml:space="preserve">
<path d="M20.3,4.2v1.8h0.7v12.1h-0.7v1.8h0.7v2.8h-2.8v-0.7h-1.8v0.7H7.6v-0.7H5.9v0.7H3.1v-2.8h0.6v-1.8H3.1V5.9h0.6V4.2H3.1V1.4
	h2.8V2h1.8V1.4h8.7V2h1.8V1.4h2.8v2.8H20.3z M6.4,9.9l1.9,1.8v-1.3L7.6,9.9H6.4z M8.3,8.8V7.4L7.6,6.9H6.4L8.3,8.8z M6.4,12.7
	l1.9,1.9v-1.2l-0.7-0.7H6.4z M4.8,2.1c-0.3,0-0.5,0.1-0.7,0.3C3.9,2.6,3.9,2.8,3.9,3.1s0.1,0.5,0.3,0.7C4.3,3.9,4.5,4,4.8,4
	C5,4,5.2,3.9,5.3,3.8c0.2-0.2,0.3-0.4,0.3-0.7c0-0.3-0.1-0.5-0.3-0.7C5.2,2.2,5,2.1,4.8,2.1z M4.8,21.8c0.2,0,0.4-0.1,0.6-0.3
	c0.2-0.2,0.3-0.4,0.3-0.6c0-0.3-0.1-0.5-0.3-0.7C5.2,20.1,5,20,4.8,20c-0.3,0-0.5,0.1-0.7,0.2c-0.2,0.2-0.3,0.4-0.3,0.7
	c0,0.2,0.1,0.5,0.3,0.6C4.3,21.7,4.5,21.8,4.8,21.8z M6,5.4H5.3v13.1H6V5.4z M6.4,15.5l1.9,1.9v-1.2l-0.7-0.7H6.4z M17.3,19.1H6.7
	v0.7h10.6V19.1z M11.2,14.5v-1.2l-0.7-0.7H9.2L11.2,14.5z M11.2,16.2l-0.7-0.7H9.2l1.9,1.9V16.2z M11.2,11.7v-1.3l-0.7-0.5H9.2
	L11.2,11.7z M11.2,8.8V7.4l-0.7-0.6H9.2L11.2,8.8z M10.2,5.4H9L8.3,6v1.2L10.2,5.4z M8.3,8.9V10l1.9-1.8L9,8.3L8.3,8.9z M8.3,11.7
	V13l1.9-1.9H9L8.3,11.7z M8.3,14.7v1.2l1.9-1.9H9L8.3,14.7z M8.3,17.5v1.2l1.9-1.9L9,16.9L8.3,17.5z M14,14.5v-1.2l-0.5-0.7h-1.3
	L14,14.5z M14,16.2l-0.5-0.7h-1.3l1.9,1.9V16.2z M14,11.7v-1.3l-0.5-0.5h-1.3L14,11.7z M14,8.8V7.4l-0.5-0.6h-1.3L14,8.8z M13.2,5.4
	h-1.3L11.3,6v1.2L13.2,5.4z M11.3,8.9V10l1.9-1.8l-1.3,0.1L11.3,8.9z M11.3,11.7V13l1.9-1.9h-1.3L11.3,11.7z M11.3,14.7v1.2l1.9-1.9
	h-1.3L11.3,14.7z M11.3,17.5v1.2l1.9-1.9l-1.3,0.1L11.3,17.5z M16.9,14.5v-1.2l-0.7-0.7H15L16.9,14.5z M16.9,16.2l-0.7-0.7H15
	l1.9,1.9V16.2z M16.9,11.7v-1.3l-0.7-0.5H15L16.9,11.7z M16.9,8.8V7.4l-0.7-0.6H15L16.9,8.8z M16.1,5.4h-1.2L14.2,6v1.2L16.1,5.4z
	 M14.2,8.9V10l1.9-1.8l-1.2,0.1L14.2,8.9z M14.2,11.7V13l1.9-1.9h-1.2L14.2,11.7z M14.2,14.7v1.2l1.9-1.9h-1.2L14.2,14.7z
	 M14.2,17.5v1.2l1.9-1.9l-1.2,0.1L14.2,17.5z M17.3,4.2H6.7v0.7h10.6V4.2z M18.6,18.6V5.4H18v13.1H18.6z M19.2,21.8
	c0.3,0,0.5-0.1,0.7-0.3c0.2-0.2,0.3-0.4,0.3-0.6c0-0.3-0.1-0.5-0.2-0.7c-0.2-0.2-0.4-0.2-0.7-0.2c-0.2,0-0.4,0.1-0.6,0.2
	c-0.2,0.2-0.2,0.4-0.2,0.7c0,0.2,0.1,0.5,0.2,0.6C18.8,21.7,19,21.8,19.2,21.8z M19.2,4c0.3,0,0.5-0.1,0.7-0.3
	c0.2-0.2,0.3-0.4,0.3-0.7c0-0.3-0.1-0.5-0.2-0.7c-0.2-0.2-0.4-0.3-0.7-0.3c-0.2,0-0.4,0.1-0.6,0.3c-0.2,0.2-0.2,0.4-0.2,0.7
	s0.1,0.5,0.2,0.7C18.8,3.9,19,4,19.2,4z"/>
</svg>
