<svg xmlns="http://www.w3.org/2000/svg" viewBox="0 -200 1000 1000"><path fill="currentColor" d="M805 151v80h31v547h-31v79h31v126H709v-31h-79v31H236v-31h-79v31H30V857h29v-79H30V231h29v-80H30V25h127v29h79V25h394v29h79V25h127v126h-31zM183 408l84 80v-57l-31-23h-53zm84-50v-60l-31-25h-53zm-84 176l84 84v-54l-31-30h-53zM108 60q-17 0-29.5 12.5T66 103t12.5 30 29.5 12q14 0 25.5-11.5T145 103q0-18-11.5-30.5T108 60zm0 887q14 0 25.5-13t11.5-29q0-20-11.5-31T108 863q-17 0-29.5 10.5T66 905q0 16 12.5 29t29.5 13zm55-740h-31v592h31V207zm20 453l84 86v-55l-31-31h-53zm489 164H193v33h479v-33zM395 618v-54l-31-30h-55zm0 73l-31-31h-55l86 86v-55zm0-200v-60l-31-23h-55zm0-133v-60l-31-25h-55zm-43-151h-56l-29 29v54zm-85 157v52l85-83-56 6zm0 127v60l85-84h-56zm0 134v55l85-87h-56zm0 126v56l85-85-56 3zm254-133v-54l-24-30h-60zm0 73l-24-31h-60l84 86v-55zm0-200v-60l-24-23h-60zm0-133v-60l-24-25h-60zm-35-151h-58l-28 29v54zm-86 157v52l86-83-58 6zm0 127v60l86-84h-58zm0 134v55l86-87h-58zm0 126v56l86-85-58 3zm254-133v-54l-30-30h-55zm0 73l-30-31h-55l85 86v-55zm0-200v-60l-30-23h-55zm0-133v-60l-30-25h-55zm-36-151h-54l-31 29v54zm-85 157v52l85-83-54 6zm0 127v60l85-84h-54zm0 134v55l85-87h-54zm0 126v56l85-85-54 3zm139-600H193v33h479v-33zm60 648V207h-29v592h29zm24 148q19 0 30.5-13t11.5-29q0-20-11-31t-31-11q-14 0-25 10.5T720 905q0 16 11 29t25 13zm0-802q19 0 30.5-11.5T798 103q0-18-11-30.5T756 60q-14 0-25 12.5T720 103t11 30 25 12z"/></svg>