<?xml version="1.0" encoding="utf-8"?>
<!-- Generator: Adobe Illustrator 21.0.2, SVG Export Plug-In . SVG Version: 6.00 Build 0)  -->
<svg version="1.1" id="Layer_1" xmlns="http://www.w3.org/2000/svg" xmlns:xlink="http://www.w3.org/1999/xlink" x="0px" y="0px"
	 width="24px" height="24px" viewBox="0 0 24 24" style="enable-background:new 0 0 24 24;" xml:space="preserve">
<path d="M4.3,3.5c2.2-2,4.7-3,7.7-3c3.1,0,5.8,1.1,8,3.3s3.3,4.9,3.3,8.1s-1.1,5.8-3.3,8.1s-4.9,3.3-8,3.3S6.2,22.3,4,20.1
	S0.6,15.1,0.6,12C0.6,8.7,1.9,5.8,4.3,3.5z M5.3,4.2c-2.4,2.1-3.5,4.7-3.5,7.8c0,2.8,1,5.3,3,7.3s4.4,3,7.3,3s5.3-1,7.3-3
	s3-4.4,3-7.3s-1-5.3-3-7.3s-4.4-3-7.3-3C9.4,1.7,7.2,2.5,5.3,4.2z M8.7,3.1h0.6v3.2h1.8V3.1h0.6v3.2H18L12,21H9.2l4.6-11.5h-2v3.3
	h-0.6V9.6H9.3v3.3H8.7V9.6H7.8V6.2h0.8V3.1z"/>
</svg>
