<?xml version="1.0" encoding="utf-8"?>
<!-- Generator: Adobe Illustrator 21.0.2, SVG Export Plug-In . SVG Version: 6.00 Build 0)  -->
<svg version="1.1" id="Layer_1" xmlns="http://www.w3.org/2000/svg" xmlns:xlink="http://www.w3.org/1999/xlink" x="0px" y="0px"
	 width="24px" height="24px" viewBox="0 0 24 24" style="enable-background:new 0 0 24 24;" xml:space="preserve">
<path d="M4.2,8C4.1,8.3,4,8.6,3.9,8.8C3.7,9.1,3.7,9.4,3.6,9.8c-0.1,0.4-0.2,0.7-0.2,1.1c0,0.4-0.1,0.7-0.1,1.1c0,0.4,0,0.8,0.1,1.2
	c0,0.4,0.1,0.7,0.2,1.1c0.1,0.3,0.2,0.6,0.3,0.9C4,15.4,4.1,15.7,4.2,16l0.4-0.2c-0.1-0.3-0.3-0.5-0.4-0.8c-0.1-0.3-0.2-0.5-0.3-0.8
	l1-0.3c-0.2-0.6-0.2-1.2-0.2-1.9c0-0.6,0.1-1.2,0.2-1.8l-1-0.3c0.2-0.6,0.4-1.1,0.7-1.6L4.2,8z M5.8,5.8C5.6,6.1,5.4,6.3,5.2,6.5
	C5,6.8,4.8,7,4.7,7.3L5,7.5C5.2,7.2,5.3,7,5.5,6.8c0.2-0.2,0.4-0.4,0.6-0.6l0.7,0.7C7.3,6.4,7.8,6,8.3,5.7C8.9,5.4,9.5,5.1,10.1,5
	L9.9,4c0.6-0.2,1.2-0.3,1.8-0.3V3.3c-0.3,0-0.6,0-1,0.1s-0.6,0.1-1,0.2C9,3.8,8.3,4.1,7.6,4.5S6.4,5.3,5.8,5.8z M12.5,3.7
	c0.6,0,1.1,0.1,1.6,0.3l-0.2,1c1.3,0.4,2.3,1,3.3,1.9l0.7-0.7C18.3,6.5,18.7,7,19,7.5l0.3-0.2C19.1,7,19,6.8,18.8,6.5
	s-0.4-0.5-0.6-0.7c-0.5-0.5-1.1-1-1.8-1.4c-0.7-0.4-1.4-0.7-2.1-0.9c-0.3-0.1-0.6-0.1-0.9-0.2c-0.3,0-0.6-0.1-0.9-0.1V3.7z
	 M19.4,8.2c0.3,0.5,0.5,1,0.7,1.6L19,10.1c0.2,0.6,0.3,1.2,0.3,1.8c0,0.7-0.1,1.3-0.3,1.9l1.1,0.3c-0.1,0.3-0.2,0.5-0.3,0.8
	c-0.1,0.3-0.2,0.5-0.4,0.8l0.4,0.2c0.2-0.3,0.3-0.6,0.4-0.9c0.1-0.3,0.2-0.6,0.3-0.9c0.2-0.7,0.3-1.5,0.3-2.3c0-0.4,0-0.7-0.1-1.1
	c0-0.4-0.1-0.7-0.2-1.1c-0.1-0.6-0.4-1.2-0.7-1.8L19.4,8.2z M18.2,18.2c0.2-0.2,0.4-0.4,0.6-0.7s0.4-0.5,0.5-0.8L19,16.5
	c-0.2,0.2-0.3,0.5-0.5,0.7c-0.2,0.2-0.4,0.4-0.6,0.6l-0.7-0.7c-0.5,0.4-1,0.8-1.5,1.2c-0.6,0.3-1.1,0.6-1.8,0.7l0.2,1
	c-0.2,0.1-0.5,0.1-0.8,0.2c-0.3,0-0.6,0.1-0.8,0.1v0.4c0.3,0,0.6,0,0.9-0.1c0.3,0,0.6-0.1,0.9-0.2c0.7-0.2,1.4-0.5,2.1-0.9
	C17,19.1,17.6,18.7,18.2,18.2z M9,12c0,0.1,0,0.3,0,0.4c0,0.1,0,0.3,0.1,0.4l-3,0.8c0.1,0.5,0.3,1,0.6,1.5c0.3,0.5,0.6,0.9,0.9,1.2
	l2.2-2.2c0.2,0.2,0.4,0.4,0.6,0.5c0.2,0.1,0.5,0.2,0.7,0.3l-0.8,3c0.2,0.1,0.5,0.1,0.8,0.1c0.3,0,0.5,0.1,0.8,0.1
	c0.3,0,0.5,0,0.8-0.1s0.5-0.1,0.8-0.1l-0.8-3c0.3-0.1,0.5-0.2,0.7-0.3c0.2-0.1,0.4-0.3,0.6-0.5l2.2,2.2c0.4-0.4,0.7-0.8,0.9-1.2
	c0.3-0.5,0.5-1,0.6-1.5l-3-0.8c0.1-0.2,0.1-0.5,0.1-0.8c0-0.1,0-0.2,0-0.4c0-0.1-0.1-0.3-0.1-0.4l3-0.8c-0.1-0.5-0.3-1-0.6-1.4
	c-0.3-0.5-0.6-0.9-0.9-1.3l-2.2,2.2c-0.2-0.2-0.4-0.3-0.6-0.5S13,9.2,12.7,9.2l0.8-3C13.3,6.1,13.1,6,12.8,6c-0.3,0-0.5-0.1-0.8-0.1
	c-0.2,0-0.5,0-0.8,0.1c-0.3,0-0.5,0.1-0.8,0.2l0.8,3c-0.3,0.1-0.5,0.1-0.7,0.3c-0.2,0.1-0.4,0.3-0.6,0.5L7.7,7.7
	C7.3,8.1,7,8.5,6.7,9c-0.3,0.5-0.5,0.9-0.6,1.5l3,0.8c0,0.1,0,0.2-0.1,0.4C9,11.7,9,11.9,9,12z M11.7,20.3c-0.3,0-0.6,0-0.9-0.1
	c-0.3,0-0.6-0.1-0.9-0.2l0.2-1c-0.6-0.2-1.2-0.4-1.8-0.7c-0.6-0.3-1.1-0.7-1.5-1.2l-0.7,0.7c-0.2-0.2-0.4-0.4-0.6-0.6
	C5.3,17,5.2,16.8,5,16.5l-0.3,0.2C4.8,17,5,17.2,5.2,17.5c0.2,0.2,0.4,0.5,0.6,0.7c0.5,0.5,1.1,1,1.8,1.4C8.3,20,9,20.3,9.7,20.5
	c0.3,0.1,0.6,0.1,1,0.2c0.3,0,0.6,0.1,1,0.1V20.3z M2.5,14.5c-0.1-0.4-0.2-0.8-0.2-1.2c-0.1-0.4-0.1-0.9-0.1-1.3
	c0-0.4,0-0.9,0.1-1.3c0.1-0.4,0.1-0.8,0.2-1.2c0.2-0.8,0.6-1.6,1-2.4s0.9-1.4,1.6-2c0.6-0.6,1.3-1.1,2-1.6s1.5-0.7,2.4-1
	c0.4-0.1,0.8-0.2,1.2-0.2c0.4-0.1,0.8-0.1,1.3-0.1c0.5,0,0.9,0,1.3,0.1c0.4,0.1,0.8,0.1,1.2,0.2c0.9,0.2,1.7,0.6,2.4,1
	c0.8,0.4,1.4,0.9,2,1.6c0.6,0.6,1.1,1.3,1.5,2c0.4,0.7,0.8,1.5,1,2.4c0.1,0.4,0.2,0.8,0.2,1.2s0.1,0.9,0.1,1.3c0,0.5,0,0.9-0.1,1.3
	c-0.1,0.4-0.1,0.8-0.2,1.2c-0.2,0.9-0.6,1.7-1,2.4c-0.4,0.7-0.9,1.4-1.5,2c-0.6,0.6-1.3,1.1-2,1.6c-0.8,0.4-1.6,0.7-2.4,1
	c-0.8,0.2-1.6,0.3-2.5,0.3c-0.4,0-0.9,0-1.3-0.1c-0.4-0.1-0.8-0.1-1.2-0.2c-0.8-0.2-1.6-0.6-2.4-1c-0.8-0.4-1.4-0.9-2-1.6
	c-0.6-0.6-1.1-1.3-1.6-2S2.7,15.4,2.5,14.5z"/>
</svg>
