<svg xmlns="http://www.w3.org/2000/svg" viewBox="0 -200 1000 1000"><path fill="currentColor" d="M879 717q11-20 19-40.5t13-45.5q8-26 11-53t3-53q0-29-3-56.5T911 415q-5-23-13-43t-19-42l-18 11q10 19 18 38.5t15 39.5l-50 14q12 44 12 92 0 46-12 89l50 14q-14 43-33 79zm-77 104q16-15 30.5-33t25.5-37l-16-10q-11 19-24 35.5T788 807l-34-35q-32 32-72.5 55.5T596 864l12 47q-42 12-87 15v18q23 0 46.5-4t46.5-10q55-14 102.5-42.5T802 821zM481 924q-42 0-79-13l11-47q-91-26-158-92l-34 35q-32-28-54-66l-15 10q11 19 25 37t30 33q38 38 86 66.5T395 930q22 6 43.5 9t42.5 5v-20zM148 707q-19-36-33-79l51-14q-13-42-13-89 0-50 13-92l-51-14q7-20 15-39.5t18-38.5l-17-11q-12 22-20 42t-13 43q-14 53-14 110 0 26 3 53t11 53q10 47 33 86zm59-480q-16 14-30 32t-25 37l15 10q11-18 24.5-35t29.5-30l34 34q33-32 73-56t85-36l-11-48q17-5 38-8.5t41-4.5v-18q-21 1-42.5 4T395 118q-54 13-102 42t-86 67zm441 298q0-10-1.5-19.5T644 487l144-39q-10-38-29.5-72T713 316L606 423q-13-14-30-23t-36-15l40-144q-18-4-37-7t-37-3q-20 0-39.5 3t-37.5 7l40 144q-19 6-35.5 15T403 423L296 316q-26 26-45 60t-29 72l147 39q-7 17-7 38 0 8 1.5 17.5T369 560l-147 40q10 37 29 70t45 62l107-108q14 12 30.5 22t35.5 14l-40 147q18 5 37.5 7.5T506 817q18 0 37-2.5t37-7.5l-40-147q19-4 36-13t30-23l107 108q26-28 45.5-61t29.5-71l-144-40q1-8 2.5-17.5T648 525zM521 122q23 1 44.5 4.5T608 135l-12 48q45 12 85.5 36t72.5 56l34-35q17 14 30 31t24 35l16-10q-11-19-25.5-37T802 227q-38-38-85.5-67.5T614 115q-23-5-46.5-8t-46.5-3v18zm442 279q8 29 12 60t4 64q0 32-4 63t-12 60q-17 60-48 113.5T840 859q-43 45-97.5 75.5T627 982q-29 8-59.5 12t-61.5 4q-33 0-63.5-4T383 982q-62-17-116.5-47.5T169 859q-43-44-74.5-97.5T46 648q-8-29-12-60t-4-63q0-33 4-64t12-60q17-62 48.5-115.5T169 189q43-45 97.5-75.5T383 66q55-16 123-16 31 0 61.5 4T627 66q61 17 115.5 47.5T840 189q44 43 75 96.5T963 401z"/></svg>