<svg xmlns="http://www.w3.org/2000/svg" viewBox="0 -200 1000 1000"><path fill="currentColor" d="M935 467q6 88-21 171-9 26-20.5 51.5T867 738l-1 2v3q-1 35-1.5 71t-.5 72q-36-1-72-1t-71-1h-3l-2 1q-6 4-12 7.5t-13 6.5q-81 42-172 48-8 1-16 1h-16q-72 0-138-22-27-9-53-21t-50-28l-2-1h-2q-35 0-70.5-.5T101 874q1-35 1-70.5t1-70.5v-2l-1-2q-4-7-7.5-13T88 703q-42-81-48-172-6-87 21-170 17-53 45-98l1-2v-2q1-37 1.5-73t.5-73q36 1 72 1.5t72 .5l2 1 2-2q7-4 13.5-7.5T284 100q81-42 171-48 8-1 16-1h16q73 0 139 22 52 16 95 43l2 2h3q36 0 72 .5t73 1.5q-1 35-1 70.5t-1 70.5v2l1 2q5 8 9 15.5t8 15.5q42 81 48 171zm-68 156q24-74 19-152-6-79-43-153l-15-27-2-2-7-12v-17l1-70 1-21-23-1-73-1h-16l-12-7-2-1q-20-13-40.5-22T611 120q-62-20-124-20h-14l-14 1q-82 6-153 43l-12 6-11 7-3 1-12 7h-16l-94-1v23l-1 72v3l-1 13-7 12-1 2q-24 39-40 87-25 76-19 152 6 82 43 153 3 5 6 11l6 12 2 2 7 12-1 14v2l-1 70v21l21 1 70 1h17l12 8 2 1q44 28 91 43 62 20 123 20 8 0 14.5-.5t14.5-.5q79-6 153-43 5-3 11-6t11-7l2-1 12-7h16q24 1 47.5 1t46.5 1l1-94v-16l8-12 1-2q27-41 42-89zM487 457q16 0 27 11t11 26q0 16-11 27t-27 11q-15 0-26-11t-11-27q0-15 11-26t26-11zm296 75l-58-21q-2 32-12 61t-27 54v67h-67q-29 19-62 29.5T487 733h-3l-34 57 21-58q-32-2-61-12t-54-27h-67v-67q-19-29-29.5-62T249 494v-3l-58-34 59 21q2-32 12-61t27-54v-67h67q28-19 61.5-29.5T487 256h4l34-57-21 58q63 5 115 39h67v67q19 28 29.5 61.5T726 494q0 2-.5 2.5t-.5 1.5zM484 313h3q34 0 64 11.5t53.5 31.5 39.5 47.5 22 59.5l28 17q-3-40-19.5-74.5T631 345t-62.5-41.5T493 287zm-12-26q-39 3-73.5 19.5T338 350t-41.5 62.5T280 488l26 10v-4q0-33 11.5-63t31.5-53.5 47.5-39.5 59.5-22zm18 389h-3q-33 0-63-11.5T370.5 633 331 585.5 309 526l-29-17q3 40 19.5 74.5T343 644t62.5 41.5T481 702zm-3-20q3 0 5.5-.5t5.5-.5l12-34-87-1 30-81q15 12 34 12 5 0 9.5-1t8.5-2l-1 1-22 39h87l-36 61q51-15 83.5-57t32.5-98q0-2-.5-5t-.5-5l-34-12-1 87-81-30q5-8 8.5-16t3.5-19q0-5-1-9t-3-9l2 1 39 23v-87l61 36q-15-51-57.5-83.5T487 333q-7 0-10 1l-12 33 87 2-30 81q-17-12-35-12-9 0-18 3l1-1 23-40h-87l35-60q-50 15-82.5 57T326 494q0 7 1 11l33 12 2-87 81 30q-12 15-12 34 0 10 3 19l-2-2-39-22v87l-60-36q15 51 57 83.5t97 32.5zm15 45q40-3 74.5-19.5T637 638t41.5-62 16.5-75l-26-10v3q0 34-11.5 64T626 611.5 578.5 651 519 673z"/></svg>