<svg xmlns="http://www.w3.org/2000/svg" viewBox="0 -200 1000 1000"><path fill="currentColor" d="M295 497l-26-9q1-40 16.5-75.5T327 350t60.5-43.5T461 287l-16 28q-32 6-59.5 22T338 376.5 306.5 430 295 494v3zm360-35q-6-32-22-59.5T593.5 355 540 323.5 476 312h-3l9-26q40 1 75.5 16.5T620 344t43.5 60.5T683 479zm-357 63q6 32 22 60t39.5 48 53.5 31.5 63 11.5q1 0 1.5-.5t1.5-.5l-9 26q-40-1-75.5-16.5t-62.5-41-43.5-60T269 509zm626-58q6 87-21 170-18 55-47 101l-1 2v2q-1 36-1.5 72t-.5 71q-36 0-72-.5t-71-1.5h-3l-2 1q-6 4-12 7.5t-13 6.5q-81 42-172 48-87 6-170-21-27-8-53-20.5T235 877l-2-1h-2q-35-1-70.5-1.5T90 874q1-35 1-70.5t1-70.5v-3l-1-2q-8-14-14-26-42-79-48-171-6-88 21-171 17-52 45-98l1-2v-2q1-36 1.5-72.5T98 113q36 1 72 1t72 1h2l2-1 27-15q41-20 83.5-32.5T444 51q88-6 171 21 26 8 49.5 19t45.5 25l2 1h3q36 1 72 1.5t73 .5q-1 35-1 70.5t-1 70.5v3l1 2q5 8 9 15t8 15q42 81 48 172zm-152 64l-58-34q0-1 .5-1.5t.5-1.5q0-37-10.5-70T675 362v-67h-67q-52-34-115-39l21-58-34 58h-4q-36 0-69.5 10T345 295h-67v67q-34 52-39 115l-59-21 58 34v4q0 37 10.5 70t29.5 62v66h67q49 34 115 39l-21 59 34-58h3q37 0 70-10.5t62-29.5h67v-66q35-53 39-115zm-273 90l-12 34h-11q-55 0-97-32.5T322 540l60 35v-87l39 23 2 1q-3-9-3-18 0-18 12-35l-81-30-2 87-33-12q-1-3-1-10 0-55 32.5-97.5T430 339l-35 61h87l-23 39-1 2q9-3 18-3 20 0 35 12l30-82-87-1 12-34h10q55 0 97.5 32t57.5 83l-61-36v87l-39-22-2-1q4 10 4 18 0 19-12 34l81 31 1-88 34 12q0 3 .5 5.5t.5 5.5q0 55-32.5 97.5T522 648l36-60h-87l22-39 1-2q-8 3-18 3-21 0-34-12l-30 81zm-23-165q-15 0-26 11t-11 27 11 26.5 26 10.5q16 0 27-10.5t11-26.5-11-27-27-11zm182 35l26 9q-1 40-16.5 75.5T626 638t-60.5 43.5T491 701l17-28q32-6 59.5-22t47.5-40 31.5-54 11.5-63v-3z"/></svg>