<?xml version="1.0" encoding="utf-8"?>
<!-- Generator: Adobe Illustrator 21.0.2, SVG Export Plug-In . SVG Version: 6.00 Build 0)  -->
<svg version="1.1" id="Layer_1" xmlns="http://www.w3.org/2000/svg" xmlns:xlink="http://www.w3.org/1999/xlink" x="0px" y="0px"
	 width="24px" height="24px" viewBox="0 0 24 24" style="enable-background:new 0 0 24 24;" xml:space="preserve">
<path d="M12,0.6c3.1,0,5.8,1.1,8,3.3s3.3,4.9,3.3,8.1s-1.1,5.8-3.3,8.1s-4.9,3.3-8,3.3c-3.1,0-5.8-1.1-8.1-3.3S0.6,15.1,0.6,12
	s1.1-5.8,3.3-8.1S8.9,0.6,12,0.6z M12,1.7c-2.8,0-5.3,1-7.3,3s-3,4.4-3,7.2c0,2.8,1,5.3,3,7.3s4.4,3,7.3,3s5.3-1,7.3-3s3-4.4,3-7.3
	c0-2.8-1-5.2-3-7.2S14.8,1.7,12,1.7z M16.3,3.9c0.1,0.4,0.2,0.8,0.2,1.3c0,1.2-0.3,2.6-0.9,4L11.1,19l-0.5-0.2l-0.5,1l-2.5-1.2
	l0.5-1l-0.4-0.2l4.8-9.5c0.3-0.4,0.5-0.8,0.7-1.1c0.2-0.3,0.4-0.6,0.8-1c0.3-0.4,0.7-0.8,1.1-1.1S15.8,4,16.3,3.9z M13.2,8.1l-2,4
	l0.5,0.2l1.9-4L13.2,8.1z M14.5,8.7l-2,4.1l0.5,0.2l1.9-4L14.5,8.7z M8.8,12.9l-1.5,3.2L5.1,16l1.2-2.6L8.8,12.9z M13.8,15.4
	l1.2,2.3l-1.2,2.5l-1.5-1.5L13.8,15.4z"/>
</svg>
