<svg xmlns="http://www.w3.org/2000/svg" viewBox="0 -200 1000 1000"><path fill="currentColor" d="M469 59q181 0 310 128.5T908 498 779 808.5 469 937q-182 0-310.5-128.5T30 498t128.5-310.5T469 59zm1 41q-164 0-280 116T74 495q0 164 116 280t280 116 279.5-116T865 495q0-163-116-279T470 100zm164 86q8 21 8 49 0 71-33 156L436 766l-18-9-20 39-96-47 18-39-16-9 185-367q16-26 26.5-41.5t30-40T587 211t47-25zM514 347l-76 156 20 8 75-155zm50 23l-76 158 20 6 74-154zM344 534l-58 122-84-4 46-100zm194 95l46 87-45 95-57-59z"/></svg>