<?xml version="1.0" encoding="utf-8"?>
<!-- Generator: Adobe Illustrator 21.0.2, SVG Export Plug-In . SVG Version: 6.00 Build 0)  -->
<svg version="1.1" id="Layer_1" xmlns="http://www.w3.org/2000/svg" xmlns:xlink="http://www.w3.org/1999/xlink" x="0px" y="0px"
	 width="24px" height="24px" viewBox="0 0 24 24" style="enable-background:new 0 0 24 24;" xml:space="preserve">
<path d="M12,0.6c3.1,0,5.8,1.1,8,3.3s3.3,4.9,3.3,8s-1.1,5.8-3.3,8s-4.9,3.3-8,3.3c-3.1,0-5.8-1.1-8-3.3s-3.3-4.9-3.3-8S1.7,6.2,4,4
	S8.9,0.6,12,0.6z M5.5,8.6C5.4,8.5,5.2,8.3,5.1,8.1C5.1,7.9,5,7.7,4.9,7.4c0-0.1-0.1-0.3-0.1-0.4c0-0.1,0-0.3,0.1-0.4l0.2-0.2
	l1.3,1.3L5.5,8.6z M16.2,6.5l-0.9-0.9c0.2-0.2,0.4-0.3,0.5-0.4c0.2-0.1,0.4-0.2,0.6-0.2c0.2-0.1,0.5-0.1,0.8,0l0.2,0.2L16.2,6.5z
	 M11.3,14.1L10.5,15v0.3l-0.3,0.3l-0.6-0.1l-2.7,2.7l-1.1-1.1l2.9-3l0.2,0.2l0.5-0.5l-0.3-0.3l0.3-0.3l0.3,0.3l0.2-0.2l-0.3-0.3
	l0.3-0.3l0.3,0.3l0,0L11.3,14.1z M7.7,6.5L6.3,5.1L6.5,5c0.3-0.1,0.6,0,0.8,0C7.6,5.1,7.8,5.1,8,5.2c0.2,0.1,0.4,0.2,0.5,0.4
	L7.7,6.5z M12.6,10.7l0.3-0.3l0-0.3l0,0l-0.2-0.2l0.6-0.6l0.2,0.2l0.6-0.6L14,8.6l0.3-0.3l0.2,0.2l0.2-0.2l0.4-0.4c0,0,0,0,0.1,0
	s0,0,0.1,0l-0.1-0.2c0,0,0-0.1,0-0.1c0,0,0,0,0-0.1c-0.1-0.2-0.1-0.3-0.1-0.5c0-0.2,0.1-0.4,0.1-0.5c0.1-0.2,0.1-0.3,0.2-0.4
	c0-0.1,0.1-0.1,0.1-0.1l0.8,0.8l0.4,0.4l0.6,0.6L18,8.5c0,0-0.1,0.1-0.1,0.1c0,0-0.1,0.1-0.1,0.1c-0.1,0-0.1,0.1-0.2,0.1
	c-0.2,0.1-0.4,0.1-0.5,0.1c-0.2,0-0.3,0-0.5-0.1c0,0,0,0-0.1,0c0,0,0,0-0.1,0l-0.2-0.1c0,0,0,0,0,0.1s0,0,0,0.1l0,0.7l-1.6,1.6
	l-0.1-0.1l-0.2,0.2l-0.5,0.5L12.6,10.7z M5.5,17.3l1.3,1.3L6.3,19l-1.2-1.3L5.5,17.3z M12,22c1.4,0,2.7-0.3,3.9-0.8s2.3-1.2,3.2-2.2
	c0.9-0.9,1.6-2,2.1-3.2c0.5-1.2,0.8-2.5,0.8-3.9S21.7,9.3,21.2,8c-0.5-1.2-1.2-2.3-2.1-3.2c-0.9-0.9-2-1.6-3.2-2.2S13.4,1.9,12,1.9
	S9.3,2.1,8.1,2.7S5.8,3.9,4.9,4.8S3.2,6.8,2.7,8S1.9,10.6,1.9,12s0.3,2.7,0.8,3.9s1.2,2.3,2.1,3.2c0.9,0.9,2,1.6,3.2,2.2
	S10.6,22,12,22z M18.1,17.2L17,18.3l-2.7-2.7l-0.6,0.1l-0.3-0.3l0-0.3l-3.7-3.7l-0.2-0.2l-0.1,0.1L7.8,9.6l0-0.7c0,0,0,0,0-0.1
	s0,0,0-0.1L7.6,8.8c0,0,0,0,0,0c0,0,0,0-0.1,0C7.3,8.9,7.1,8.9,7,8.9c-0.2,0-0.3,0-0.5-0.1c-0.1,0-0.2-0.1-0.2-0.1
	c-0.1,0-0.1-0.1-0.1-0.1C6,8.6,6,8.6,5.9,8.5l0.7-0.6l0.6-0.6l0.4-0.4L8.5,6c0,0,0.1,0.1,0.1,0.1c0.1,0.1,0.1,0.2,0.2,0.4
	c0.1,0.2,0.1,0.3,0.1,0.5c0,0.2,0,0.3-0.1,0.5c0,0.1,0,0.1,0,0.1L8.7,7.8c0,0,0.1,0,0.1,0.1l0.4,0.4l0.2,0.2l0.2-0.2l0.4,0.3
	L9.6,8.8l0.6,0.6l0.2-0.2l0.6,0.6l-0.2,0.2l0.1,0l0,0.3l1.6,1.7l0.3-0.3l0.3,0.3l-0.3,0.3l0.2,0.2l0.3-0.3l0.3,0.3l-0.3,0.3l0.2,0.2
	l0.3-0.3l0.3,0.3L14,13.4l0.2,0.2l0.3-0.3l0.3,0.3l-0.3,0.3l0.5,0.5l0.2-0.2L18.1,17.2z M19,6.6c0,0.1,0,0.2,0,0.4
	c0,0.1,0,0.3-0.1,0.4c-0.1,0.3-0.2,0.5-0.2,0.6c-0.1,0.2-0.2,0.4-0.4,0.5l-0.9-0.9l1.3-1.3L19,6.6z M18.4,17.3l0.4,0.4L17.6,19
	l-0.4-0.4L18.4,17.3z"/>
</svg>
