<svg xmlns="http://www.w3.org/2000/svg" viewBox="0 -200 1000 1000"><path fill="currentColor" d="M469 59q181 0 310 128.5T908 498 779 808.5 469 937q-182 0-310.5-128.5T30 498t128.5-310.5T469 59zM219 368q-9-9-15-21-4-9-9-25-2-7-2-15 0-7 2-16l6-9 52 52zm414-83l-33-34q10-9 21-15 10-5 24-8.5t31-.5l9 6zM443 580l-31 32v12l-12 12-24-2-106 106-41-41 113-114 8 8 20-20-12-12 12-12 12 12 8-8-12-12 12-12 12 12 1-1zM301 285l-52-52 9-6q17-3 31 .5t25 8.5q11 6 21 15zm192 164l13-12-1-11 1-1-8-9 25-25 8 8 25-25-8-8 13-13 8 8 7-7 14-14q1-1 2-1.5t2-1.5l-3-6q0-2-.5-2.5t-.5-2.5q-3-9-3-18 1-12 4-21 3-11 7-14 2-3 5-5l31 31 17 17 22 23 26 25q-2 2-5 4-2 2-5.5 4t-8.5 4q-10 4-21 4-10 0-19-3-1 0-2-.5t-2-.5l-6-3q-1 1-1.5 2t-1.5 2l-1 28-62 62-4-4-6 6-20 21zM217 703l49 49-17 16-48-49zm251 183q80 0 150.5-30.5t123-83.5 83-123.5T855 497t-30.5-152-83-124-123-83.5T468 107t-151 30.5T193.5 221t-83 124T80 497t30.5 151.5 83 123.5T317 855.5 468 886zm238-187l-42 41-105-106-25 2-12-12 1-12-143-143-6-6-4 4-62-62-1-28q-1-1-1.5-2t-1.5-2l-6 3q-1 0-1.5.5t-2.5.5q-10 3-20 3-10 1-20-4-5-2-8.5-4t-5.5-4q-3-2-5-4l26-25 22-23 17-17 32-31q2 2 4 5 4 6 8 14 3 10 3 20 0 9-3 19 0 3-1 5l-3 6q2 1 4 3l14 14 7 7 8-8 14 13-9 8 25 25 8-8 25 25-8 9 2 1-1 11 63 64 12-12 13 13-12 11 7 8 12-12 13 12-12 12 7 8 12-12 13 12-12 12 7 8 12-12 12 12-11 12 19 20 8-8zm34-408q1 7 1 14 1 8-2 17-6 18-9 25-4 11-15 21l-33-34 51-52zm-23 412l17 16-49 49-17-16z"/></svg>