<svg xmlns="http://www.w3.org/2000/svg" viewBox="0 -230 1067 1000"><path fill="currentColor" d="M556 1030q-54 0-105-10.5T352 987Q161 900 81 700q-36-90-36-189v-16q2-63 19-122.5T111 257q62-110 178-187l9-6 8 6q2 2 4 2l1 1 13 10-11 13q-2 3-5 7-2 3-5.5 7t-7.5 9q-41 54-65 117-23 64-23 107v36q0 7 3 22.5t14 44.5q16 47 61 92 38 35 80 41 3 0 6 .5t5 .5q38-2 67-35 32-49 32-114 0-7-.5-13.5T474 404q-3-43-33-101-12-25-35-43-25-20-49-30l-20-8 80-92 11 5q27 12 54 35-11-30-30-57l-7-10L556-25l113 128-7 10q-19 26-30 56 27-23 54-35l11-4 80 92-21 8q-37 16-58 38-13 14-19 22.5t-8 12.5q-29 63-32 101-1 8-1 14v36q0 2 1 9.5t5 26.5q6 29 24 55 32 35 68 35 9-1 18-2.5t19-5.5q28-9 56-35 78-80 78-182v-12q-3-26-7.5-49T887 251q-32-84-59-117-8-8-13.5-15.5T805 106q-4-6-8-10l-14-17 31-14 7 5q116 76 181 191t65 234v58q0 58-37 151-34 90-106 166-67 73-163 117-93 43-205 43zM233 154q-56 52-93 119-58 103-63 223v15q0 94 34 177 76 189 254 270 87 40 191 40 51 0 99-10t93-30q88-40 153-110 67-71 100-156 17-44 25.5-78.5t8.5-60.5v-58q0-110-61-218-38-68-94-120 9 17 18 37.5t19 45.5q8 22 13.5 47t8.5 54v14q0 115-88 205-32 30-68 43-24 8-46 9-53 0-94-47l-1-2q-21-32-29-66-5-21-6-30t-1-13v-37l1-16q3-44 36-112 8-18 31-42 17-20 50-37l-36-41q-39 20-71 68l-33 49 3-59q5-64 42-122l-73-81-71 81q18 29 28 59t12 63l4 59-33-49q-32-47-71-68l-36 41q10 5 19 11.5t18 14.5q29 23 44 53 31 64 36 112 0 8 .5 15.5t.5 14.5q0 76-38 132l-1 2q-39 45-92 47-4 0-7.5-.5T360 610q-53-8-97-49-50-49-69-105-19-51-19-77v-36q0-25 6.5-54t18.5-64q13-35 33-71z"/></svg>