<svg xmlns="http://www.w3.org/2000/svg" viewBox="0 -200 1000 1000"><path fill="currentColor" d="M464 235q-4-65-43-120l88-101 90 101q-40 57-44 120 38-57 86-76l56 64q-41 17-62 40.5T607 301q-30 62-33 103-1 16-1 26v24q0 9 6.5 38.5T605 551q35 40 79 40 19-1 40-8 31-10 60-37 80-82 80-188v-12q-5-54-20-94-32-83-59.5-117.5T754 97t1-1q2 1 2-1 110 72 170.5 179.5T988 494v56q0 52-34 140-33 85-100 156-64 69-153 109.5T509.5 996 318 956Q139 874 64 686q-34-85-34-177v-15q5-119 62.5-223T259 95q3 2 4.5 1t-1 1.5T244 120q-41 53-64.5 117.5T156 346v35q0 22 17 70 18 50 63 95 40 37 86 44 7 1 13 1 44-1 77-40 34-51 34-119 0-14-1-28-3-43-33-103-13-26-38-46.5T323 223l56-64q48 21 85 76z"/></svg>