<svg xmlns="http://www.w3.org/2000/svg" viewBox="0 -200 1000 1000"><path fill="currentColor" d="M146 314l2-49q17-30 48-51l43-17q0 7-.5 15.5t-1 12.5-.5 6q-28 39-39 55-50 26-52 28zM58 442q11 32 12 35v32q0 28 2 64-10 15-19 51-13-11-21-39-2-20-2-32 0-33 9-75 7-17 19-36zm136-4q20 48 29 62-8 13-37 76-17-6-42-21-4-16-4-32 0-5 11-66 21-11 43-19zm157-250q42-30 57-35 18-5 34-5h5q4 17 9 23-23 30-37 50-43 6-77 14v-7q0-23 9-40zm69 81l34 76-61 84h-95q-11-33-18-86l59-72zm62-15q4-6 14.5-22t20.5-31q10 0 30-.5t30-.5q56 48 59 50l-13 71-95-2zm86-94q25-1 30-2 28 13 74 38 11 10 32 40h-51q-13-12-34.5-27.5T592 189q-9-17-24-29zm138 52q3 1 14.5 6t21.5 8q29 24 42 35.5t14 13.5l2 5 9 10q12 17 17 27.5t8 20.5 6 16q-1-1-10.5-6T806 336q-27-39-68-78-6-13-32-46zm-39 57h60l67 76 3 85-81 1-60-88zm203 184q2 8 7 59-4 10-24 36-11-49-31-82 4-41 4-82 1 1 9 4t14 7 12 11zm9 116l-3 55q-15 52-43 100-8 10-37 27 11-44 11-57 2-4 11-18t12.5-21 9-22.5T848 600q16-9 31-31zm-79-74q16 37 27 88-7 22-14 37.5t-19.5 37T779 682l-73 5-30-84 48-107zm-30 230q-7 42-11 53-20 24-67 58-30 7-55 8 5-8 5-21 0-7-2-21 29-25 63-67 1 0 26.5-4t40.5-6zm-138-87q10 20 32 74l-57 70-84 2-49-68 50-79zm-104-69l-60-101 62-94 103 3 60 102-55 89zm-163-14l42 80-31 68-79 1-46-73 30-78zm11 213q24 33 34 43-11 22-15 34l-43-4-41-34-2-46q21 6 67 7zm106 38l70-1 19 31q-22 22-50 36l-42 1-22-25zM144 697l35 14 43 65-7 37-35-10q-32-44-38-57-1-4-1-15t3-34z"/></svg>