<svg xmlns="http://www.w3.org/2000/svg" viewBox="0 -200 1000 1000"><path fill="currentColor" d="M480 77q41 0 84 8l-16 60q-40-7-71-7-18 0-54 4l-11-59q33-6 68-6zM368 92l11 60q-36 9-80 32l-28-51q42-25 97-41zm242 5q130 42 212 153t82 251q0 142-85.5 254.5T600 907l-16-56q113-35 185.5-131T842 502q0-118-69.5-213T594 157zM478 229q17 0 47 4l-11 39q-22-2-35-2-20 0-30 2l-8-40q18-3 37-3zm-81 13l8 40q-24 8-40 18l-21-36q30-16 53-22zm174 3q80 29 130 99t50 157q0 91-53.5 162.5T560 761l-11-41q71-22 116-82.5T710 500q0-73-41.5-132T560 284zM30 348l563 152L31 652l109-151zm337 354q19 11 45 19l-8 42q-26-6-58-24zm138 28l12 41q-20 3-39 3-10 0-30-2l9-42q7 1 22 1 18 0 26-1zm-205 91q38 21 86 34l-11 56q-54-14-103-41zm240 40l15 56q-34 7-75 7-34 0-61-4l11-56q24 3 47 3 33 0 63-6z"/></svg>