<svg xmlns="http://www.w3.org/2000/svg" viewBox="0 -200 1000 1000"><path fill="currentColor" d="M465 61q90 0 170 34.5T774 189t93.5 139T902 498t-34.5 169.5-93.5 139T635 900t-170 34-169.5-34T157 806.5t-93.5-139T29 498t34.5-170T157 189t138.5-93.5T465 61zm1 204q-19 0-37 3l6 33q10-2 17.5-2H465q16 0 39 3l8-33q-11-2-23-3t-23-1zm25 86q-8-2-14.5-2H455l-10 1 4 22q3 0 7-.5t10-.5q3 0 8 .5t11 .5zm-70 5q-14 3-30 12l12 20q8-5 22-10zm-16-83q-16 5-29 10.5T351 296l16 28q12-7 22.5-11t21.5-7zM279 498l-60 83 309-83-309-84zm201 126q-3 1-14 1-10 0-12-1l-5 23q5 1 9 1.5t7 .5q5 0 10.5-.5T487 647zm-65 69q-29-8-48-19l-15 27q28 16 56 23zm14-74q-16-5-25-10l-12 20q9 5 17 8.5t15 5.5zm37 112q25 0 42-4l-9-31q-15 4-34 4-7 0-13-.5t-13-1.5l-6 31q8 1 16 1.5t17 .5zm44-90q45-13 76-53 29-38 29-90 0-47-27-86-27-38-72-55l-6 22q38 14 60 46 23 34 23 73 0 43-25 75-23 33-64 46zm143-3q47-62 47-140 0-77-46-138-45-61-116-84l-9 33q61 21 98 73 38 50 38 117 0 68-39 120-41 53-103 72l9 31q74-23 121-84z"/></svg>