<svg xmlns="http://www.w3.org/2000/svg" viewBox="0 -200 1000 1000"><path fill="currentColor" d="M466 59q90 0 170 34.5T775 187t93.5 138.5T903 495t-34.5 170T775 804t-139 93.5T466 932t-169.5-34.5T158 804 64.5 665 30 495t34.5-169.5T158 187t138.5-93.5T466 59zm0 824q80 0 151-30.5t123.5-83 83-123.5T854 495t-30.5-150.5-83-123-123.5-83T466 108t-150.5 30.5-123 83-83 123T79 495t30.5 151 83 123.5 123 83T466 883zm1-620q11 0 23 1t23 3l-8 33q-20-4-39-4-5 0-12.5.5T436 298l-6-32q18-3 37-3zm25 85l-6 22q-6-1-11-1h-8q-13 0-17 1l-4-22q5-1 10-1.5t10-.5 11.5.5T492 348zm-66 27q-7 2-12 5t-10 5l-12-20q16-7 30-12zm-20-104l6 33q-11 2-21.5 6.5T368 321l-16-28q24-13 54-22zM220 412l309 83-309 84 60-83zm268 232q-6 2-11.5 2H459l-9-1 5-23h26zm-79 78l-28-10-28-13 15-27q19 11 48 19zm16-82q-7-2-15-5t-17-8l12-20q9 5 25 10zm42 89q-18 0-33-3l6-30q7 1 13 1h13q17 0 34-3l9 31q-10 2-20.5 3t-21.5 1zm38-113q40-12 64-45 25-32 25-76 0-40-23-72-22-32-60-47l6-21q45 17 72 54 27 39 27 87 0 51-29 89-29 39-76 54zm149 20q-49 62-121 83l-9-30q63-19 103-73 39-52 39-120 0-66-38-117-37-52-98-72l9-33q71 23 116 84 46 59 46 138 0 78-47 140z"/></svg>