<svg xmlns="http://www.w3.org/2000/svg" viewBox="0 -200 1000 1000"><path fill="currentColor" d="M244 762l2 34 116 16 9-10 45 4 6 11 135-1 89-7 5-12 53-6-3-12-51 3-8-12-104 6-115 1-6 13-46-3-8-15zm487-46l-3-30q-128 19-245 19h-12q-126 0-264-20l-3 30q132 21 261 21h6q133-1 260-20zM282 344h375l-187-42zm250 261q-7 0-11 4-5 5-5 11t5 12 11 5q8-1 12-5t4-12q0-6-5-10.5t-11-4.5zm0-56q-7 0-11 4-5 5-5 11t5 12 11 5q8-1 12-5t4-12q0-6-5-10.5t-11-4.5zm-62-43q-7 0-11 4-5 5-5 11t5 12 11 5q8-1 12-5t4-12q0-6-5-10.5t-11-4.5zm-9-442h14q102 0 195 48 107 53 173 160t66 228q0 17-1 26-4 130-86.5 240T615 918q-68 25-143 25-90 0-175-36T151 806q-58-59-89.5-139.5T30 501q0-92 35-169 48-118 158.5-192.5T461 64zm335 661q70-100 70-226 0-55-15-107-33-123-140-205t-235-82h-14q-120 1-221 73-100 72-143 186-24 64-24 133 0 124 70 228l36-13 3-30-16-18 95-342V199h24v123l184-40 209 40 94 342-22 18 2 32zM346 410q-16 0-27 11t-11 27q0 15 11 26t27 11 26.5-11 10.5-26q0-16-10.5-27T346 410zm87 38q0 15 11 26t26 11q16 0 27-11t11-26q0-16-11-27t-26-11q-16 0-27 11t-11 27zm162-38q-16 0-27 11t-11 27q0 15 11 26t27 11 26.5-11 10.5-26q0-16-10.5-27T595 410zm-249 96q-7 0-11 4-5 5-5 11t5 12 11 5q8-1 12-5t4-12q0-6-5-10.5t-11-4.5z"/></svg>