<?xml version="1.0" encoding="utf-8"?>
<!-- Generator: Adobe Illustrator 21.0.2, SVG Export Plug-In . SVG Version: 6.00 Build 0)  -->
<svg version="1.1" id="Layer_1" xmlns="http://www.w3.org/2000/svg" xmlns:xlink="http://www.w3.org/1999/xlink" x="0px" y="0px"
	 width="24px" height="24px" viewBox="0 0 24 24" style="enable-background:new 0 0 24 24;" xml:space="preserve">
<path d="M6.2,18.7l0.1,0.9l3,0.4l0.2-0.3l1.2,0.1l0.2,0.3l3.5,0l2.3-0.2l0.1-0.3l1.4-0.2L18,19.1l-1.3,0.1l-0.2-0.3L13.8,19l-3,0
	l-0.2,0.3l-1.2-0.1l-0.2-0.4L6.2,18.7z M18.8,17.5l-0.1-0.8c-2.2,0.3-4.3,0.5-6.3,0.5H12c-2.2,0-4.4-0.2-6.8-0.5l-0.1,0.8
	c2.3,0.4,4.5,0.5,6.7,0.5H12C14.3,18,16.6,17.8,18.8,17.5z M7.2,7.9h9.7L12,6.8L7.2,7.9z M13.6,14.6c-0.1,0-0.2,0-0.3,0.1
	c-0.1,0.1-0.1,0.2-0.1,0.3s0,0.2,0.1,0.3c0.1,0.1,0.2,0.1,0.3,0.1c0.1,0,0.2-0.1,0.3-0.1C14,15.3,14,15.1,14,15c0-0.1,0-0.2-0.1-0.3
	C13.8,14.7,13.7,14.6,13.6,14.6z M13.6,13.2c-0.1,0-0.2,0-0.3,0.1c-0.1,0.1-0.1,0.2-0.1,0.3c0,0.1,0,0.2,0.1,0.3
	c0.1,0.1,0.2,0.1,0.3,0.1c0.1,0,0.2-0.1,0.3-0.1c0.1-0.1,0.1-0.2,0.1-0.3c0-0.1,0-0.2-0.1-0.3C13.8,13.2,13.7,13.2,13.6,13.2z
	 M12,12.1c-0.1,0-0.2,0-0.3,0.1c-0.1,0.1-0.1,0.2-0.1,0.3c0,0.1,0,0.2,0.1,0.3c0.1,0.1,0.2,0.1,0.3,0.1c0.1,0,0.2-0.1,0.3-0.1
	c0.1-0.1,0.1-0.2,0.1-0.3c0-0.1,0-0.2-0.1-0.3C12.2,12.1,12.1,12.1,12,12.1z M11.8,0.6h0.4c1.8,0,3.4,0.4,5,1.2
	C19,2.8,20.5,4.2,21.7,6s1.7,3.8,1.7,5.9c0,0.3,0,0.5,0,0.7c-0.1,2.2-0.8,4.3-2.2,6.2s-3.2,3.2-5.3,3.9c-1.2,0.4-2.4,0.6-3.7,0.6
	c-1.6,0-3.1-0.3-4.5-0.9s-2.7-1.5-3.8-2.6c-1-1-1.8-2.2-2.3-3.6s-0.8-2.8-0.8-4.3c0-1.6,0.3-3,0.9-4.4c0.8-2,2.2-3.7,4.1-5
	S9.6,0.7,11.8,0.6z M20.4,17.7c1.2-1.7,1.8-3.7,1.8-5.8c0-0.9-0.1-1.9-0.4-2.8c-0.6-2.1-1.8-3.9-3.6-5.3c-1.8-1.4-3.9-2.1-6.1-2.1
	h-0.4c-2.1,0-4,0.6-5.7,1.9c-1.7,1.2-3,2.8-3.7,4.8C2,9.5,1.8,10.6,1.8,11.8c0,2.1,0.6,4.1,1.8,5.9l0.9-0.3l0.1-0.8l-0.4-0.5
	l2.5-8.8V4.1h0.6v3.2l4.8-1l5.4,1l2.4,8.8l-0.6,0.5l0.1,0.8L20.4,17.7z M8.8,9.6c-0.3,0-0.5,0.1-0.7,0.3s-0.3,0.4-0.3,0.7
	c0,0.3,0.1,0.5,0.3,0.7s0.4,0.3,0.7,0.3c0.3,0,0.5-0.1,0.7-0.3s0.3-0.4,0.3-0.7c0-0.3-0.1-0.5-0.3-0.7S9.1,9.6,8.8,9.6z M11.1,10.6
	c0,0.3,0.1,0.5,0.3,0.7s0.4,0.3,0.7,0.3c0.3,0,0.5-0.1,0.7-0.3s0.3-0.4,0.3-0.7c0-0.3-0.1-0.5-0.3-0.7S12.3,9.6,12,9.6
	c-0.3,0-0.5,0.1-0.7,0.3S11.1,10.3,11.1,10.6z M15.2,9.6c-0.3,0-0.5,0.1-0.7,0.3s-0.3,0.4-0.3,0.7c0,0.3,0.1,0.5,0.3,0.7
	s0.4,0.3,0.7,0.3s0.5-0.1,0.7-0.3s0.3-0.4,0.3-0.7c0-0.3-0.1-0.5-0.3-0.7S15.5,9.6,15.2,9.6z M8.8,12.1c-0.1,0-0.2,0-0.3,0.1
	c-0.1,0.1-0.1,0.2-0.1,0.3c0,0.1,0,0.2,0.1,0.3c0.1,0.1,0.2,0.1,0.3,0.1c0.1,0,0.2-0.1,0.3-0.1c0.1-0.1,0.1-0.2,0.1-0.3
	c0-0.1,0-0.2-0.1-0.3S8.9,12.1,8.8,12.1z"/>
</svg>
