<svg xmlns="http://www.w3.org/2000/svg" viewBox="0 -200 1000 1000"><path fill="currentColor" d="M713 463q9 29 13 52 5 25 5 49v8q0 27-12 55-10 26-33 40-24 13-45 16t-44 3q-8 0-20.5-4t-21.5-9.5-9-11 17-7.5q10-1 18.5-1t19.5-5q15-5 29-19 8-7 13-18.5t7.5-24 2.5-25-3-22.5q-3-11-10-23t-13-22q-11-20-20.5-34T582 429q-12-13-21.5-22T541 386q-6-2-9-7.5t-9-7.5q-4-2-5.5-7t-8.5-7q-2-6 1.5-17t7.5-23 9-22 7-15q3-2 7-9t9.5-14 10-12 8.5-3q5 1 18.5 13.5T604 274q10 8 19 21t16 24 16 20q10 10 16 21 13 24 24 51 12 32 18 52zM234 348q6 4 15.5 12t13.5 13q3 13-6 20.5T241 407q-10 10-19 18t-22 17q-13 8-19 18t-16 24q-15 17-29 32-13 15-23 40-8 20-8 40 0 7 1 12 6 32 16 50 14 24 37 28 13 2 27 2 8 0 19-1t21-2.5 9 15.5q-1 18-14 24-14 5-28 8t-31 3q-19-1-34-4-16-3-27-13t-22-23q-18-18-29.5-40T33 605q-3-25-3-33v-6q-1-10 3-25 2-7 9-28 4-14 10-29 10-40 27.5-76.5T124 342q4-6 20.5-19t30.5-16q9-5 15.5.5T203 319q8 10 14.5 16.5T234 348zm101 324q4 8 3 24.5t-1 25.5v41q1 4-1 26-3 44-5 66-11-9-11-22t-2-26q-3-15-4.5-29t-4.5-28q-1-3-4.5-22.5T299 688q-1-10-1-14 1-12 2-20 2-14 13-10l-4 1q6 7 14 14t12 13zm137 52q1 10 1 20 0 16-3 34-5 31-5 55 0 12 2 24t2 25q0 3-2 11t-5 16.5-8 13.5-9-2q-6-2-3-12t4-16q0-8 1-17t-1-18q-1-14-5-28.5t-4-30.5q-2-16-2-31v-8q1 0 1-3 0-17-5-35-5-14-7.5-30t13.5-26h-2q5-7 13.5-8.5T459 663q2 3 2 14.5t1 16.5q3 8 5 15.5t5 14.5zm70-571q7 14 7 34v11q-3 27-16 44-23 31-27 36-12 18-14 43-2 11-9 17.5t-14.5 13T455 365t-7 18q-2 9 4.5 16.5T461 416q2 10-1 25t-6 25q-5 8-8 16t-6 18q-2 11 .5 22t-.5 23q0 22 4 39 3 13 3 26-1 9-1 14 0 11-5 18.5t-11.5 15-11 15.5-4.5 21q3 15 4.5 30.5T420 755v-5q0-2 1-3v32l2 32q1 7 1 31v11q-1 7 1 21 5 19 6 37.5t1 38.5q0 13-.5 24.5T418 994q-7-1-15 4-8 3-15-4-1-1-1-8v-25l1-9v-25q-1-5 5-29 4-16 4-40 1-5 0-13-4-35-6-41-4-13-4-26 0-7 1-15l6-54q1-9 1-18-1-23-3-35-3-18-5-66-1-3-1-6 5-39 15-59 13-28 16-51 2-14 2-27t-2-26q-6 11-12.5 20T394 460q-6 13-5 22 1 12 3 22 1 7 1 11-1 18-5 31-3 10-7 19t-6 19q-1-13-4-22.5t-8-22.5q-3-9-5.5-20t2.5-21q4-13 5.5-20.5T355 460q-6-8-12-14t-9-17q-2 14-2 29 0 12 1 20 3 29 14 47 8 13 10 17 6 7 8 17 1 11 .5 23t-.5 23q0 12 .5 23.5T371 653q4 11 4.5 19t-.5 22q0 25 3 47 0 11-1 21.5t-2 21.5q0 14-4 30-3 14 0 29 2 12 4 23 1 15 1 25 0 29-5 49-3 12-3 23 1 16 3 27-9-2-12-8t-7-12q-4-4-8-6t-7-5q-7-8-4.5-18t4.5-21q1-13 1-26 0-12 4-27 5-19 5-42-1-14-1-21 1-24 3-36 4-40 5-57 1-15 4-29t-6-23q-9-7-19-13.5T314 629q-9-9-13-15.5t-1-21.5q3-14 3.5-27.5t.5-27.5q0-12 1.5-25.5t2-26.5-1-24.5T295 440q-4-6-8-8-3-2-7-11-2-5-1-11.5t1-13.5q0-10 2-24t-6-23q-4-2-11-1.5t-10-1.5q-2-1-8-5.5t-8-7.5q-10-6-18-18t-14-24q-6-7-8-17.5t0-20.5q-12-5-14.5-13.5T183 221t5-20q5-11 6-21 2-13 7-24 12-20 12-21l4-5q3-2 5-4 6-6 8-2 9-3 9 9l-4-1q2 9 4 22.5t2 19.5q-2 7-4 13.5t0 16.5 6 12q3 1 12 10 13 12 24 23 18 17 26 22t18 17q9 10 15 20-1-6-2.5-11.5T334 285q-3-11-5-23t-4-23q-1-10-3.5-19t-4.5-18q-3-10-4.5-20T301 166q-4-7-12-12.5T276 142q-8-9-15.5-16T246 112q-16-13-19-30-2-13-2-26v-9q2-13 10.5-25.5t21.5-19 27.5-7T311 5q-8 14-13.5 33T290 67q2-5 2.5-7t2.5-5q4 7 7 9l4 4 3 3q5 3 10.5 3.5T327 80q-2 3-2.5 7.5T322 98q-4 15-4 24.5t2 9.5q0-12 1.5-14.5T327 105q3-8 6-12.5t5-12.5q-2-5 3-12-6 0-13.5-3T318 55q-5 0-7 2 0-23 11-48 2-2 5.5-4.5T334 0q7-4 16-2t16 0q10 0 19-3.5T403-9t14.5 3T434-5q5-3 9-5.5t11-2.5q6 0 10 2t9-1q9-1 15-3t16 3q10 7 10.5 16t2.5 19q1 8 3.5 15.5T521 55q0 13-7.5 20T501 92q-7 12-12.5 22T473 132t-22 11-20 10q-8 6-18.5 14T397 184q-9 3-11.5 19t-2.5 38 2.5 42 2.5 29q3-8 4.5-17t3.5-18q3-9 8-17.5t13-13.5q5-6 12-10t14-7q8-6 15-12.5t17-11.5q10-16 17-31 9-18 9-34 0-5 2.5-15t7.5-20.5T522 87t12-7q3 11-.5 20t-2.5 21q3 17 11 32z"/></svg>