<?xml version="1.0" encoding="utf-8"?>
<!-- Generator: Adobe Illustrator 21.0.2, SVG Export Plug-In . SVG Version: 6.00 Build 0)  -->
<svg version="1.1" id="Layer_1" xmlns="http://www.w3.org/2000/svg" xmlns:xlink="http://www.w3.org/1999/xlink" x="0px" y="0px"
	 width="24px" height="24px" viewBox="0 0 24 24" style="enable-background:new 0 0 24 24;" xml:space="preserve">
<path d="M19.5,11.4c0.1,0.4,0.2,0.8,0.3,1.2c0.1,0.4,0.1,0.7,0.1,1.1v0.2c0,0.4-0.1,0.8-0.3,1.2c-0.2,0.4-0.4,0.7-0.7,0.9
	c-0.4,0.2-0.7,0.3-1,0.4c-0.3,0-0.6,0.1-1,0.1c-0.1,0-0.3,0-0.5-0.1c-0.2-0.1-0.4-0.1-0.5-0.2c-0.1-0.1-0.2-0.2-0.2-0.2
	s0.1-0.1,0.4-0.2c0.2,0,0.3,0,0.4,0s0.3,0,0.4-0.1c0.2-0.1,0.4-0.2,0.7-0.4c0.1-0.1,0.2-0.2,0.3-0.4c0.1-0.2,0.1-0.4,0.2-0.5
	s0.1-0.4,0.1-0.6s0-0.4-0.1-0.5c0-0.2-0.1-0.3-0.2-0.5s-0.2-0.3-0.3-0.5c-0.2-0.3-0.3-0.6-0.5-0.8s-0.3-0.4-0.6-0.7
	c-0.2-0.2-0.3-0.4-0.5-0.5s-0.3-0.3-0.4-0.5c-0.1,0-0.2-0.1-0.2-0.2s-0.1-0.1-0.2-0.2c-0.1,0-0.1-0.1-0.1-0.2C15.1,9,15,9,14.9,9
	c0-0.1,0-0.2,0-0.4c0.1-0.2,0.1-0.3,0.2-0.5c0.1-0.2,0.1-0.3,0.2-0.5c0.1-0.2,0.1-0.3,0.2-0.3c0,0,0.1-0.1,0.2-0.2
	c0.1-0.1,0.1-0.2,0.2-0.3c0.1-0.1,0.2-0.2,0.2-0.3c0.1-0.1,0.1-0.1,0.2-0.1c0.1,0,0.2,0.1,0.4,0.3C16.9,6.8,17,7,17.1,7.1
	c0.2,0.1,0.3,0.3,0.4,0.5c0.1,0.2,0.3,0.4,0.4,0.5c0.1,0.2,0.2,0.3,0.4,0.5c0.2,0.2,0.3,0.3,0.4,0.5c0.2,0.4,0.4,0.7,0.5,1.2
	C19.3,10.7,19.4,11.1,19.5,11.4z M8.7,8.8C8.8,8.8,8.9,8.9,9,9c0.1,0.1,0.2,0.2,0.3,0.3c0,0.2,0,0.4-0.1,0.5C9.1,9.9,9,10,8.8,10.1
	c-0.2,0.2-0.3,0.3-0.4,0.4s-0.3,0.2-0.5,0.4c-0.2,0.1-0.3,0.3-0.4,0.4s-0.2,0.3-0.4,0.5c-0.2,0.3-0.4,0.5-0.7,0.7
	c-0.2,0.2-0.4,0.5-0.5,0.9c-0.1,0.3-0.2,0.6-0.2,0.9c0,0.1,0,0.2,0,0.3c0.1,0.5,0.2,0.9,0.4,1.1c0.2,0.4,0.5,0.6,0.8,0.6
	c0.2,0,0.4,0,0.6,0c0.1,0,0.3,0,0.4,0c0.2,0,0.3,0,0.5-0.1s0.2,0.1,0.2,0.4c0,0.3-0.1,0.5-0.3,0.5c-0.2,0.1-0.4,0.1-0.6,0.2
	c-0.2,0-0.4,0.1-0.7,0.1c-0.3,0-0.5,0-0.8-0.1c-0.2,0-0.4-0.1-0.6-0.3c-0.2-0.2-0.3-0.3-0.5-0.5c-0.3-0.3-0.5-0.6-0.7-0.9
	S4.2,15,4.1,14.6c0-0.4-0.1-0.6-0.1-0.7v-0.1c0-0.2,0-0.3,0.1-0.6c0-0.1,0.1-0.3,0.2-0.6c0.1-0.2,0.1-0.4,0.2-0.7
	c0.2-0.6,0.4-1.2,0.6-1.7c0.3-0.6,0.6-1,1-1.5c0.1-0.1,0.2-0.2,0.5-0.4C6.9,8,7.1,7.9,7.4,7.8c0.1-0.1,0.3-0.1,0.4,0
	C7.8,7.9,7.9,8,8,8.1c0.1,0.2,0.2,0.3,0.3,0.4C8.4,8.6,8.5,8.7,8.7,8.8z M11,16.1c0.1,0.1,0.1,0.3,0.1,0.6c0,0.2,0,0.4,0,0.6v0.9
	c0,0.1,0,0.3,0,0.6c0,0.7-0.1,1.2-0.1,1.5c-0.2-0.1-0.2-0.3-0.2-0.5s0-0.4,0-0.6c0-0.2-0.1-0.4-0.1-0.7c0-0.2-0.1-0.4-0.1-0.6
	c0,0,0-0.2-0.1-0.5c-0.1-0.3-0.1-0.6-0.1-0.9c0-0.2,0-0.3,0-0.3c0-0.2,0-0.3,0-0.5c0-0.2,0.1-0.3,0.3-0.2l-0.1,0
	c0.1,0.1,0.2,0.2,0.3,0.3C10.8,15.9,10.9,16,11,16.1z M14.1,17.3c0,0.2,0,0.3,0,0.5c0,0.2,0,0.5-0.1,0.8c-0.1,0.5-0.1,0.9-0.1,1.2
	c0,0.2,0,0.4,0,0.5c0,0.2,0,0.4,0,0.6c0,0,0,0.1,0,0.2c0,0.1-0.1,0.2-0.1,0.4s-0.1,0.2-0.2,0.3s-0.1,0.1-0.2,0
	c-0.1,0-0.1-0.1-0.1-0.3c0-0.2,0.1-0.3,0.1-0.4c0-0.1,0-0.2,0-0.4c0-0.1,0-0.3,0-0.4c0-0.2-0.1-0.4-0.1-0.6
	c-0.1-0.2-0.1-0.4-0.1-0.7c0-0.2,0-0.5,0-0.7v-0.2c0,0,0,0,0-0.1c0-0.3,0-0.5-0.1-0.8C13.1,17,13,16.8,13,16.5s0.1-0.4,0.3-0.6h0
	c0.1-0.1,0.2-0.2,0.3-0.2c0.1,0,0.2,0,0.2,0.1c0,0,0,0.2,0,0.3c0,0.2,0,0.3,0,0.4c0,0.1,0.1,0.2,0.1,0.4C14,17,14,17.1,14.1,17.3z
	 M15.7,4.3c0.1,0.2,0.2,0.5,0.2,0.8v0.2c0,0.4-0.2,0.7-0.4,1c-0.3,0.5-0.6,0.7-0.6,0.8c-0.2,0.3-0.3,0.6-0.3,1
	c0,0.2-0.1,0.3-0.2,0.4c-0.1,0.1-0.2,0.2-0.3,0.3c-0.1,0.1-0.2,0.2-0.3,0.3c-0.1,0.1-0.1,0.2-0.2,0.4c0,0.1,0,0.3,0.1,0.4
	c0.1,0.1,0.2,0.2,0.2,0.4c0,0.2,0,0.3,0,0.6s-0.1,0.4-0.1,0.6c-0.1,0.1-0.1,0.2-0.2,0.4s-0.1,0.3-0.1,0.4c0,0.2,0,0.3,0,0.5
	c0,0.2,0,0.3,0,0.5c0,0.3,0,0.6,0.1,0.9c0,0.2,0.1,0.4,0.1,0.6c0,0.1,0,0.2,0,0.3c0,0.2,0,0.3-0.1,0.4s-0.2,0.2-0.3,0.3
	c-0.1,0.1-0.2,0.2-0.2,0.4c-0.1,0.1-0.1,0.3-0.1,0.5c0,0.2,0.1,0.5,0.1,0.7c0,0.2,0,0.5,0,0.7v-0.1c0,0,0-0.1,0-0.1v0.7l0,0.7
	c0,0.1,0,0.3,0,0.7v0.2c0,0.1,0,0.3,0,0.5c0.1,0.3,0.1,0.6,0.1,0.8c0,0.3,0,0.6,0,0.9c0,0.2,0,0.4,0,0.6c0,0.2-0.1,0.3-0.3,0.4
	c-0.1,0-0.2,0-0.3,0.1c-0.1,0-0.2,0-0.3-0.1c0,0,0-0.1,0-0.2v-0.6l0-0.2v-0.6c0-0.1,0-0.3,0.1-0.7c0.1-0.2,0.1-0.5,0.1-0.9
	c0-0.1,0-0.2,0-0.3c-0.1-0.5-0.1-0.8-0.1-0.9c-0.1-0.2-0.1-0.4-0.1-0.6c0-0.1,0-0.2,0-0.3l0.1-1.2c0-0.1,0-0.3,0-0.4
	c0-0.3,0-0.6-0.1-0.8c0-0.3-0.1-0.8-0.1-1.5c0,0,0-0.1,0-0.1c0.1-0.6,0.2-1,0.3-1.3c0.2-0.4,0.3-0.8,0.4-1.2c0-0.2,0-0.4,0-0.6
	c0-0.2,0-0.4,0-0.6c-0.1,0.2-0.2,0.3-0.3,0.5s-0.2,0.3-0.2,0.4c-0.1,0.2-0.1,0.4-0.1,0.5c0,0.2,0,0.3,0.1,0.5c0,0.1,0,0.2,0,0.2
	c0,0.3-0.1,0.5-0.1,0.7c0,0.2-0.1,0.3-0.2,0.4c-0.1,0.1-0.1,0.3-0.1,0.4c0-0.2,0-0.4-0.1-0.5s-0.1-0.3-0.2-0.5
	c0-0.1-0.1-0.3-0.1-0.5c0-0.2,0-0.3,0.1-0.5c0.1-0.2,0.1-0.4,0.1-0.5c0-0.1-0.1-0.2-0.2-0.4c-0.1-0.1-0.2-0.2-0.3-0.3
	S11,10.7,11,10.6c0,0.2,0,0.4,0,0.7c0,0.2,0,0.3,0,0.5c0,0.4,0.2,0.8,0.3,1.1c0.1,0.2,0.2,0.3,0.2,0.4c0.1,0.1,0.2,0.2,0.2,0.4
	c0,0.2,0,0.3,0,0.5c0,0.2,0,0.4,0,0.5c0,0.2,0,0.4,0,0.5c0,0.2,0,0.4,0.1,0.6c0.1,0.2,0.1,0.3,0.1,0.4c0,0.1,0,0.3,0,0.5
	c0,0.4,0,0.7,0.1,1.1c0,0.2,0,0.3,0,0.5c0,0.2,0,0.3,0,0.5c0,0.2,0,0.4-0.1,0.7c0,0.2,0,0.4,0,0.7c0,0.2,0.1,0.4,0.1,0.5
	c0,0.2,0,0.4,0,0.6c0,0.4,0,0.8-0.1,1.1c0,0.2-0.1,0.4-0.1,0.5c0,0.2,0,0.4,0.1,0.6c-0.1,0-0.2-0.1-0.3-0.2s-0.1-0.2-0.2-0.3
	c-0.1-0.1-0.1-0.1-0.2-0.1s-0.1-0.1-0.2-0.1c-0.1-0.1-0.1-0.3-0.1-0.4c0-0.2,0.1-0.3,0.1-0.5c0-0.2,0-0.4,0-0.6c0-0.2,0-0.4,0.1-0.6
	c0.1-0.3,0.1-0.6,0.1-0.9c0-0.2,0-0.4,0-0.5c0-0.4,0-0.6,0.1-0.8c0.1-0.6,0.1-1,0.1-1.3c0-0.2,0-0.4,0.1-0.7c0-0.2,0-0.4-0.1-0.5
	c-0.1-0.1-0.3-0.2-0.4-0.3c-0.2-0.1-0.3-0.2-0.4-0.4c-0.1-0.1-0.2-0.3-0.3-0.4s-0.1-0.3,0-0.5c0-0.2,0.1-0.4,0.1-0.6
	c0-0.2,0-0.4,0-0.6c0-0.2,0-0.4,0-0.6c0-0.2,0-0.4,0-0.6c0-0.2,0-0.4,0-0.6c0-0.2-0.1-0.3-0.3-0.5c-0.1-0.1-0.1-0.2-0.2-0.2
	c0,0-0.1-0.1-0.2-0.2c0-0.1,0-0.2,0-0.3c0-0.1,0-0.2,0-0.3c0-0.2,0-0.3,0-0.5c0-0.2,0-0.4-0.1-0.5c-0.1,0-0.1,0-0.2,0s-0.2,0-0.2,0
	c0,0-0.1-0.1-0.2-0.1C8.9,8.5,8.8,8.5,8.8,8.4C8.7,8.3,8.5,8.2,8.4,8C8.3,7.8,8.2,7.6,8.1,7.5C8,7.4,7.9,7.2,7.9,7.1
	c0-0.2,0-0.3,0-0.5C7.7,6.5,7.6,6.4,7.6,6.3s0-0.3,0-0.4c0-0.2,0.1-0.3,0.1-0.5C7.7,5.3,7.8,5.1,7.8,5c0-0.2,0.1-0.4,0.2-0.5
	C8.1,4.1,8.2,4,8.2,3.9l0.1-0.1c0,0,0.1-0.1,0.1-0.1c0.1-0.1,0.2-0.1,0.2,0c0.1,0,0.2,0,0.2,0.2l-0.1,0c0,0.1,0.1,0.3,0.1,0.5
	c0,0.2,0,0.4,0,0.4c0,0.1-0.1,0.2-0.1,0.3c0,0.1,0,0.2,0,0.4c0,0.2,0.1,0.2,0.1,0.3c0,0,0.1,0.1,0.3,0.2c0.2,0.2,0.4,0.4,0.5,0.5
	C10,6.8,10.2,6.9,10.3,7c0.1,0.1,0.3,0.2,0.4,0.4C10.8,7.5,11,7.7,11,7.8c0-0.1,0-0.2-0.1-0.3c0-0.1,0-0.2,0-0.3
	c0-0.2-0.1-0.3-0.1-0.5c0-0.2-0.1-0.4-0.1-0.5c0-0.2,0-0.3-0.1-0.4s-0.1-0.3-0.1-0.4c0-0.2-0.1-0.3-0.1-0.5c0-0.2-0.1-0.3-0.3-0.4
	c-0.1-0.1-0.2-0.2-0.3-0.3C9.8,4.3,9.7,4.2,9.6,4.1C9.5,4,9.4,3.8,9.3,3.7C9.2,3.6,9.1,3.5,9,3.4C8.7,3.2,8.6,3,8.5,2.7
	c0-0.2,0-0.4,0-0.6V1.9c0-0.2,0.1-0.4,0.2-0.6C8.9,1.2,9,1,9.2,0.9s0.4-0.2,0.6-0.2s0.4,0.1,0.6,0.2c-0.1,0.2-0.2,0.5-0.3,0.7
	S10,2.2,10,2.4c0-0.1,0-0.1,0.1-0.2c0,0,0-0.1,0.1-0.1c0.1,0.1,0.1,0.2,0.2,0.2l0.1,0.1l0.1,0.1c0.1,0,0.2,0.1,0.2,0.1
	s0.1,0,0.2,0.1c0,0,0,0.1-0.1,0.2c0,0.1,0,0.1-0.1,0.2c-0.1,0.2-0.1,0.4-0.1,0.6s0,0.2,0,0.2c0-0.2,0-0.3,0-0.3c0,0,0.1-0.1,0.1-0.3
	c0-0.1,0.1-0.2,0.1-0.3S11,2.8,11,2.7c0-0.1,0-0.2,0.1-0.3c-0.1,0-0.2,0-0.3-0.1s-0.2-0.1-0.2-0.2c-0.1,0-0.1,0-0.2,0
	c0-0.3,0.1-0.7,0.2-1.1c0,0,0.1-0.1,0.1-0.1s0.1-0.1,0.1-0.1c0.1-0.1,0.2-0.1,0.4,0c0.1,0,0.3,0,0.4,0c0.2,0,0.3,0,0.4-0.1
	s0.3-0.1,0.4-0.1s0.2,0,0.3,0.1s0.2,0.1,0.4,0c0.1,0,0.1-0.1,0.2-0.1s0.1-0.1,0.2-0.1c0.1,0,0.2,0,0.2,0c0.1,0,0.1,0,0.2,0
	c0.1,0,0.2,0,0.3-0.1s0.2,0,0.4,0.1C14.9,0.7,15,0.8,15,1s0,0.3,0.1,0.4c0,0.1,0,0.2,0.1,0.4c0,0.1,0,0.2,0,0.4
	c0,0.2-0.1,0.3-0.2,0.5c-0.1,0.1-0.2,0.2-0.3,0.4c-0.1,0.2-0.2,0.3-0.3,0.5c-0.1,0.2-0.2,0.3-0.4,0.4c-0.2,0.1-0.3,0.2-0.5,0.2
	s-0.3,0.1-0.5,0.2c-0.1,0.1-0.3,0.2-0.4,0.3c-0.2,0.1-0.3,0.2-0.4,0.4c-0.1,0-0.2,0.2-0.3,0.4c0,0.2-0.1,0.5-0.1,0.9s0,0.6,0.1,0.9
	c0,0.3,0.1,0.5,0.1,0.7c0-0.1,0.1-0.2,0.1-0.4c0-0.1,0-0.3,0.1-0.4c0-0.1,0.1-0.3,0.2-0.4c0.1-0.1,0.2-0.2,0.3-0.3
	c0.1-0.1,0.2-0.2,0.3-0.2s0.2-0.1,0.3-0.2c0.1-0.1,0.2-0.2,0.3-0.3c0.1-0.1,0.2-0.2,0.4-0.3c0.2-0.2,0.3-0.5,0.4-0.7
	c0.1-0.3,0.2-0.5,0.2-0.8c0-0.1,0-0.2,0.1-0.3c0-0.2,0.1-0.3,0.2-0.5s0.2-0.3,0.2-0.4c0.1-0.1,0.2-0.2,0.3-0.2c0,0.2,0,0.3,0,0.5
	s-0.1,0.3-0.1,0.5C15.5,3.9,15.5,4.1,15.7,4.3z"/>
</svg>
