<?xml version="1.0" encoding="utf-8"?>
<!-- Generator: Adobe Illustrator 21.0.2, SVG Export Plug-In . SVG Version: 6.00 Build 0)  -->
<svg version="1.1" id="Layer_1" xmlns="http://www.w3.org/2000/svg" xmlns:xlink="http://www.w3.org/1999/xlink" x="0px" y="0px"
	 width="24px" height="24px" viewBox="0 0 24 24" style="enable-background:new 0 0 24 24;" xml:space="preserve">
<path d="M12,22.8c-1.5,0-2.9-0.3-4.2-0.9s-2.5-1.3-3.5-2.3c-1-1-1.8-2.1-2.3-3.5c-0.6-1.3-0.8-2.7-0.8-4.2c0-1.5,0.3-2.9,0.8-4.2
	s1.3-2.5,2.3-3.4S6.5,2.6,7.8,2s2.7-0.8,4.2-0.8c1.5,0,2.9,0.3,4.2,0.8c1.3,0.6,2.5,1.3,3.4,2.3c1,1,1.7,2.1,2.3,3.4
	s0.8,2.7,0.8,4.2c0,1.5-0.3,2.9-0.8,4.2c-0.6,1.3-1.3,2.5-2.3,3.5c-1,1-2.1,1.8-3.4,2.3C14.9,22.5,13.5,22.8,12,22.8z M5.4,4.4
	C5.2,4.6,4.9,4.8,4.7,5.1C4.5,5.3,4.3,5.5,4,5.8l0.3,0.8L3.5,8L2.7,8.2C2.6,8.3,2.5,8.5,2.5,8.6S2.4,8.9,2.3,9.1l0.9-0.3l0.6,1.5
	l-0.7,1.2l-1-0.1L2,10.7c0,0.4-0.1,0.8-0.1,1.3c0,0.5,0,0.9,0.1,1.2l0.2-0.8l1-0.1l0.7,1.2l-0.6,1.5l-1-0.3c0.1,0.2,0.1,0.4,0.2,0.6
	c0.1,0.2,0.1,0.4,0.2,0.6L3.5,16l0.8,1.4L4,18.2c0.2,0.3,0.4,0.5,0.6,0.8c0.2,0.2,0.5,0.5,0.7,0.7l-0.7-1.1L5,17.7L6.5,18l0.6,1.2
	L6.7,20l-1.2-0.3c0.4,0.3,0.8,0.5,1.1,0.8C7,20.8,7.5,21,7.9,21.2l-0.6-0.8l0.5-0.7l1.5,0.2l0.9,1.2l-0.6,0.8l-0.3,0
	c0.2,0.1,0.4,0.1,0.6,0.2c0.2,0.1,0.4,0.1,0.7,0.1l0.6-0.6h1.6l0.6,0.6c0.2,0,0.5-0.1,0.7-0.1s0.4-0.1,0.7-0.2l-0.3,0L13.7,21
	l0.9-1.2l1.5-0.2l0.5,0.7L16,21.2c0.5-0.2,0.9-0.5,1.3-0.7s0.8-0.5,1.2-0.8L17.3,20l-0.5-0.8l0.7-1.2l1.5-0.3l0.3,0.8l-0.7,1.1
	c0.3-0.2,0.5-0.4,0.7-0.6c0.2-0.2,0.4-0.5,0.7-0.7l-0.3-0.8l0.8-1.4l0.9-0.2c0.1-0.2,0.1-0.4,0.2-0.6c0.1-0.2,0.1-0.4,0.2-0.6
	l-1,0.3l-0.6-1.5l0.7-1.2l1,0.1l0.2,0.8c0-0.2,0-0.4,0-0.6c0-0.2,0-0.4,0-0.6c0-0.2,0-0.4,0-0.6l0-0.6l-0.2,0.7l-1,0.1l-0.7-1.2
	l0.6-1.5l0.9,0.3c0-0.1-0.1-0.3-0.1-0.4c-0.1-0.1-0.1-0.3-0.2-0.4L20.5,8l-0.8-1.4L20,5.8c-0.2-0.3-0.4-0.5-0.7-0.8
	c-0.2-0.2-0.5-0.5-0.7-0.6l0.7,1.1L19,6.3L17.5,6l-0.7-1.3L17.3,4l1.2,0.3c-0.4-0.3-0.8-0.6-1.2-0.8S16.5,3,16,2.7l0.7,0.8l-0.5,0.7
	l-1.5-0.1L13.7,3l0.6-0.8l0.3,0c-0.4-0.1-0.9-0.2-1.4-0.3l-0.6,0.7h-1.6L10.6,2c-0.2,0-0.4,0.1-0.7,0.1c-0.2,0-0.4,0.1-0.6,0.2
	l0.3,0L10.3,3L9.4,4.2L7.8,4.3L7.3,3.6l0.6-0.8C7.5,3,7,3.2,6.6,3.5C6.2,3.7,5.9,4,5.5,4.3L6.7,4l0.5,0.8L6.5,6L5,6.3L4.7,5.5
	L5.4,4.4z M10.3,11.8l0.8-1.5h1.8l0.9,1.5l-0.9,1.5h-1.8L10.3,11.8z M11.1,14.3h1.8l0.9,1.4L12.9,17h-1.8l-0.8-1.4L11.1,14.3z
	 M12.9,18.2l0.9,1.1l-0.9,1.1h-1.8l-0.8-1.1l0.8-1.1H12.9z M11.1,5.5l-0.8-1.1l0.8-1.1h1.8l0.9,1.1l-0.9,1.1H11.1z M19.3,14l0.5,1.3
	l-0.9,1.5L17.5,17L17,15.8l0.9-1.5L19.3,14z M4.2,8.3l0.9-1.5l1.4-0.2l0.4,1.3L6,9.4L4.7,9.6L4.2,8.3z M17.9,9.4L17,7.9l0.5-1.3
	l1.4,0.2l0.9,1.5l-0.5,1.3L17.9,9.4z M6,14.3l0.9,1.5L6.4,17l-1.4-0.2l-0.9-1.5L4.7,14L6,14.3z M12.9,9.5h-1.8l-0.8-1.3l0.8-1.4h1.8
	l0.9,1.4L12.9,9.5z M16.1,12.3l0.8,1.4L16,15.2l-1.6,0l-0.7-1.4l0.9-1.5L16.1,12.3z M7.9,11.5l-0.8-1.4L8,8.6l1.6-0.1l0.7,1.5
	l-0.9,1.5L7.9,11.5z M16,8.6l0.9,1.5l-0.8,1.5l-1.6-0.1l-0.9-1.5l0.7-1.5L16,8.6z M9.4,12.3l0.9,1.5l-0.7,1.4l-1.6,0l-0.9-1.5
	l0.8-1.4L9.4,12.3z M10.3,17.8l-0.9,1.1L8,18.7l-0.9-1.2l0.6-1.2h1.7L10.3,17.8z M16.3,16.2l0.5,1.3l-0.9,1.2l-1.5,0.1l-0.7-1.1
	l0.9-1.5H16.3z M17.8,13.4l-0.9-1.5l0.9-1.5l1.4,0.2l0.6,1.4l-0.6,1.4L17.8,13.4z M13.5,6l0.9-1.1L15.8,5l0.9,1.3l-0.6,1.2h-1.8
	L13.5,6z M7.7,7.5L7.2,6.2L8.1,5l1.5-0.1L10.3,6L9.4,7.5H7.7z M6.1,10.3l0.8,1.5l-0.8,1.6l-1.4-0.2L4,11.8l0.7-1.4L6.1,10.3z"/>
</svg>
