<svg xmlns="http://www.w3.org/2000/svg" viewBox="0 -200 1025 1000"><path fill="currentColor" d="M736 486l3-16q1 5 1.5 10.5t.5 13.5q0 6-.5 12.5T739 519l-3-14-20-2-13 24 12 29 18-5q-1 2-1.5 4t-1.5 4q-2 6-4 8l-16 4-16 28 5 16q-4 5-7 8t-6 7q-5 6-15 13l14-22-6-15-29 5-13 25 9 16 24-6q-6 4-11.5 8t-11.5 8-12 7.5-13 6.5l12-17-10-14-31 3-18 23 13 15 7-1q-6 3-13 3-3 1-6.5 1.5T569 691l-11-13h-33l-11 13q-15-3-27-6l7 1 12-15-18-23-30-3-10 14 13 17q-12-6-26-14l-12-8-11-8 24 6 10-16-13-25-30-5-7 15 15 22q-5-3-8-6l-7-7-6.5-6.5-6.5-8.5 6-16-16-28-17-4q-2-2-4-8t-2-8l17 5 13-29-14-24-20 2-4 14q0-9-1-13v-25q1-4 1-11l4 16 20 2 14-24-13-29-19 6 2-6 2-6q1-6 4-11l17-4 16-28-6-16q3-4 6.5-7.5t6.5-7.5q4-3 7-6.5t8-6.5l-15 22 7 15 30-5 13-25-10-16-24 6q5-4 11-8l12-8 12.5-7 13.5-7-13 17 10 15 30-4 18-23-12-15-7 1q3-1 6.5-1.5t6.5-1.5q4-1 7-1.5t7-.5l11 12h33l11-12q5 0 13 2 3 1 6.5 1.5t6.5 1.5l-7-1-13 15 18 23 31 4 10-15-12-17q7 4 13 7t12 7 11.5 8 11.5 8l-24-6-9 16 13 25 29 5 6-15-14-22q5 3 8.5 6.5l6.5 6.5q3 4 6 7.5t7 7.5l-5 16 16 28 16 4q2 5 4 11l2 6 2 6-19-6-12 29 13 24zm-94-68l17 30 27 5 9-26-17-31-27-4zm-136-69l18 21h35l16-21-16-22h-35zm53 177l16-30-16-30h-36l-17 30 17 30h36zm0 17h-35l-18 26 18 28h35l16-28zm0-96l16-27-16-28h-35l-18 28 18 27h35zm-113-64l10 26h35l18-30-15-22-30 2zm-2 76l15 28 32-1 18-30-15-28-32 1zm-58-32l10 26 27-5 18-30-10-26-27 4zm0 68l13 27 28 4 17-30-17-30-28 1zm55 79l-18-31-27-3-10 25 18 30 27 5zm21-14l32 2 15-29-18-29-32-2-15 29zm50 52l-18-30h-34l-12 25 17 25 29 2zm63 31l-16-22h-35l-18 22 18 21h35zm62-35l-11-26h-35l-17 29 15 23 30-2zm2-78l-16-28-32 2-17 29 15 29 31-2zm0-71l-19-30-31-1-15 28 17 30 32 1zm0-74l-19-25-29-3-17 21 17 31h35zm56 180l-9-25-27 3-17 31 9 26 27-5zm4-70l-13-27-28-4-16 31 16 30 27-1zm321 96l5 3-1 6q-20 90-69 166l-3 5-6-2-13-3q-16-5-28-8-46 64-108 107 2 8 4 14.5t4 14.5l3 13 2 6-5 3q-76 49-165 69l-6 1-3-5-7-12q-4-7-7.5-13t-7.5-13q-19 4-38 5.5t-38 1.5-37.5-1.5T457 943q-4 7-7.5 13t-6.5 13l-7 12-3 5-6-1q-91-20-165-69l-5-3 1-6 4-13q2-8 3.5-14.5T269 865q-63-44-107-107-8 2-14.5 4t-14.5 4l-13 3-6 2-3-5q-50-77-68-166l-2-6 6-3 11-6q7-4 13-7.5t13-7.5q-3-20-5-38.5T77 494t2-38 5-38q-7-4-13-7.5T58 403l-11-7-6-3 2-6q18-88 68-165l3-5 6 2 13 3q8 2 14.5 4t14.5 4q22-32 49-58.5t58-49.5q-2-7-3.5-14T262 94l-4-13-1-6 5-3q74-49 165-69l6-1 3 5 7 12q6 13 14 25 39-6 76-6 38 0 76 6 4-6 7.5-12.5T624 19l7-12 3-5 6 1q88 20 165 69l5 3-2 6-3 13-4 14-4 14q63 45 108 108l14-4 14-4 13-3 6-2 3 5q49 76 69 165l1 6-5 3-12 7q-6 4-12.5 7.5T983 418q6 38 6 76 0 37-6 76 6 4 12.5 7.5t12.5 7.5zm-281-15q16-36 16-82t-16-84q-8-20-20-37t-26-32q-32-30-69-46-37-17-84-17-46 0-83 17-38 16-68 46t-46 69q-17 40-17 84 0 43 17 82 17 41 46 68 27 29 68 46 40 17 83 17 44 0 84-17t69-46q30-30 46-68z"/></svg>