<svg xmlns="http://www.w3.org/2000/svg" viewBox="0 -200 1000 1000"><path fill="currentColor" d="M497 48q98 0 183.5 37T830 186t100.5 150T967 519q0 96-36.5 181T830 848.5t-149.5 100T497 985q-97 0-182-36.5t-148.5-100T66.5 700 30 519q0-97 36.5-183t100-150T315 85t182-37zm286 797q18-13 32-28t28-32l-11-35 35-61 36-9q5-8 8-17.5t6-18.5l-39 11-26-64 29-51 43 3 8 31q3-27 3-55 0-30-3-51l-8 35-43 4-29-53 26-63 42 13q-4-13-8-25.5t-9-25.5l-36-8-35-61 11-34q-14-17-28-32.5T783 189l31 47-14 33-64-12-28-54 20-34 52 13q-24-18-49.5-34.5T675 117l27 36-22 32-67-7-39-50 28-33 14 2q-13-4-27.5-7.5T560 85l-25 27h-71l-24-27q-16 1-30.5 4.5T381 97l15-2 27 33-39 50-67 7-22-32 29-36q-30 14-56.5 30.5T217 182l53-13 21 34-29 54-65 12-14-33 31-47q-17 13-31.5 28T154 249l13 35-35 61-38 8q-5 13-8.5 25.5T77 404l43-13 27 63-30 53-43-4-9-35q-1 11-2 24t-1 27q0 13 1 27l2 28 9-31 43-3 30 51-27 64-39-11q2 9 5.5 18.5T94 680l38 9 35 61-13 35q14 17 28.5 32.5T214 845l-31-47 14-33 65 11 29 55-21 33-53-13q24 19 50.5 35.5T324 917l-29-36 22-31 67 6 39 50-27 33-15-2q26 8 59 13l24-29h71l25 28q14-2 28.5-4.5T616 937l-14 2-28-33 39-50 67-6 22 31-27 36q30-14 55.5-30.5T780 851l-52 13-20-33 28-55 64-11 14 33zM574 525l-36 64h-78l-37-64 37-67h78zm-36-108h-77l-38-59 38-60h77l36 60zm-77-168l-38-46 38-47h77l36 47-36 46h-77zm77 549l36 47-36 47h-77l-38-47 38-47h77zM183 430l-22-57 39-67 59-8 21 55-38 66zm653 246l-37 65-60 10-19-57 37-66 59-8zm-594-48l38 66-21 57-59-10-39-65 22-56zm515-209l-37-64 19-57 60 8 37 67-20 57zM461 626h77l36 58-36 60h-77l-38-60zM320 505l-33-62 40-66 69-1 32 60-38 66zm358 33l34 61-40 66-69 4-32-63 38-64zM327 665l-40-64 33-63 70 4 38 64-32 63zm282-163l-38-66 32-60 69 1 40 66-34 62zm-38-235l38-46 63 6 40 54-28 53h-75zm-257 67l-22-56 38-53 66-4 32 48-38 65h-76zm-65 124l38 67-38 64-60-8-28-59 28-61zm186 320l-38 48-63-5-39-55 26-53h76zm249-66l24 56-39 53-66 5-32-50 38-64h75zm71-124l-36-66 36-68 61 10 27 59-29 62z"/></svg>