<svg xmlns="http://www.w3.org/2000/svg" viewBox="0 -200 1025 1000"><path fill="currentColor" d="M1020 592l5 3-1 6q-20 89-69 165l-3 5-6-1-13-4q-7-2-14-3.5t-14-3.5q-46 63-108 107l4 14 4 14 3 13 2 6-5 4q-77 48-165 68l-6 1-3-5-7-12q-4-6-7.5-12.5T609 944q-38 6-76 6-37 0-76-6-8 12-14 25l-7 12-3 5-6-1q-90-20-165-68l-5-4 1-6 4-13q2-7 3.5-14t3.5-14q-63-45-107-107-8 2-14.5 3.5T133 766l-13 4-6 1-3-5q-50-78-68-165l-2-6 6-3 11-7q7-4 13-7.5t13-7.5q-3-19-5-38t-2-38 2-37.5 5-38.5q-7-3-13-6.5T58 404l-11-7-6-3 2-6q18-87 68-165l3-5 6 1 13 4q8 2 14.5 3.5T162 230q22-31 49-57.5t58-49.5q-2-8-3.5-14.5T262 94l-4-13-1-5 5-4q75-50 165-68l6-2 3 6 7 11q3 7 6.5 13t7.5 13q39-6 76-6 38 0 76 6 4-7 7.5-13t7.5-13l7-11 3-6 6 2q87 18 165 68l5 4-2 5-3 13q-2 8-4 14.5t-4 14.5q62 44 108 107 7-2 14-3.5t14-3.5l13-4 6-1 3 5q49 77 69 165l1 6-5 3-12 7q-12 8-25 14 6 39 6 76 0 39-6 76 6 4 12.5 7.5t12.5 7.5zm-92-199l30-17 6-4 4-2q-14-50-39-95l-2 1-9 2-34 9-19-28q-41-55-96-96l-28-20 9-33 3-11q-43-24-95-40-2 3-3 5.5t-3 5.5l-17 29-34-5q-35-6-68-6-34 0-67 6l-34 5-18-29q-2-3-3-5.5t-2-5.5q-52 16-95 40l3 11 9 33-28 20q-28 20-52 44t-44 52l-20 28-33-9-11-3h-1q-24 44-39 95l11 6 29 17-5 34q-6 33-6 67 0 35 6 68l5 34-29 17-9 5-2 1q15 51 39 95l5-1 7-2 33-9 20 28q20 28 44 52t52 44l28 20-9 33-3 11q43 24 95 40v-1l6-10 17-30 34 6q33 6 67 6 33 0 68-6l34-6 17 30 6 11q52-16 95-40-2-8-3-11l-9-33 28-20q55-40 96-96l19-28 34 9 11 3q25-45 39-95-2-2-5-3t-5-3l-30-17 6-34q6-33 6-68 0-34-6-67zm-469 95l-15-29 18-30h32l15 27-18 30zm-63-35l-10-26 18-30 27-4 10 25-18 30zm3 70l-13-27 13-28 28-2 17 31-17 29zm57-114l-10-25 18-25 30-1 15 22-18 29h-35zm68 134h35l16 27-16 27h-35l-18-27zm135-95l-17-29 9-26 27 4 17 30-9 26zm-84-28l-16 27h-35l-18-27 18-27h35zm-51-50l-18-21 18-21h35l16 21-16 21h-35zM423 544l18 30-10 26-27-4-18-30 10-26zm152-47l-16 29h-36l-17-29 17-31h36zm48 6l16 28-19 30-31 2-15-29 17-29zm63 37l9 26-17 30-27 4-9-26 17-30zm0-71l13 27-14 28-27 2-16-30 16-32zm53-59q16 39 16 84t-16 83-46 68q-32 30-69 46-40 17-84 17-43 0-83-17-38-16-68-46-29-27-46-68-17-40-17-83 0-42 17-84 17-41 46-68 14-15 31-26.5t37-20.5q40-17 83-17 44 0 84 17 41 19 69 47 30 30 46 68zm0 109q1-6 1.5-12t.5-13-.5-12.5T739 471l-3 16-20 2-13-25 12-28 19 5q-1-2-2-5l-2-6q-2-8-4-12l-16-4-16-27 5-16q-4-4-7-7.5t-6-7.5q-5-6-15-13l14 22-6 15-29-6-13-25 9-15 24 6q-13-10-23-16-6-4-12-7.5t-13-6.5l12 17-10 14-31-3-18-23 13-15 7 1q-3-1-6.5-2t-6.5-2-6.5-1-6.5-1l-11 13h-33l-11-13q-4 1-7 1t-7 1q-3 1-6.5 2t-6.5 2l7-1 12 15-18 23-30 3-10-14 13-17q-12 6-26 14-6 4-12 7.5t-11 8.5l24-6 10 15-13 25-30 6-7-15 15-22q-5 3-8 6l-7 7-6.5 6.5-6.5 7.5 6 17-16 27-17 4q-2 4-4 12l-2 6-2 5 19-5 13 28-14 25-20-2-4-16q0 7-1 11v25q1 4 1 12l4-14 20-1 14 23-13 29-17-5q0 3 2 9 1 4 4 8l17 4 16 28-6 16q3 4 6.5 7.5t6.5 7.5l7 7 8 5-15-21 7-15 30 5 13 25-10 15-24-6q5 5 11 8.5t12 7.5q6 5 12.5 8t13.5 6l-13-16 10-14 30 2 18 23-12 16-7-1q12 3 27 6l11-14h33l11 13q3-1 6.5-1t6.5-1 6.5-1.5 6.5-1.5l-7 1-13-16 18-23 31-2 10 14-12 16q7-3 13-6t12-8q10-6 23-16l-24 6-9-15 13-25 29-5 6 15-14 21q9-6 15-12 3-4 6-7.5t7-7.5l-5-16 16-28 16-4q3-4 4-8l3-9-18 5-12-29 13-23 20 1zM620 360l19 25-13 24h-35l-17-30 17-21zm6 223l11 25-18 24-30 3-15-23 17-29h35zm-6-154l19 30-16 29-32-2-17-30 15-27h31zm-61 193l16 21-16 22h-35l-18-22 18-21h35zm-97-61l-18-29 15-29 32 2 18 29-15 29zm50 52l-18 22-29-3-17-25 12-24h34z"/></svg>