<svg xmlns="http://www.w3.org/2000/svg" viewBox="0 -200 1000 1000"><path fill="currentColor" d="M358 348q24 0 46 9.5t38.5 26T469 422t10 47-10 47-26.5 38.5-38.5 26-46 9.5q-26 0-48-9.5t-39-26-26.5-38.5-9.5-47 9.5-47 26.5-38.5 39-26 48-9.5zm0-82q41 0 78 16t64.5 43.5T544 390t16 79-16 79-43.5 64.5T436 656t-78 16q-42 0-79.5-16t-65-43.5T170 548t-16-79 16-79 43.5-64.5 65-43.5 79.5-16zm0 342q28 0 53-11t43.5-29.5 29.5-44 11-54.5q0-28-11-53.5T454.5 371 411 341t-53-11q-29 0-54.5 11t-45 30-30.5 44.5-11 53.5q0 29 11 54.5t30.5 44 45 29.5 54.5 11zm0-405q54 0 102.5 21t85 57 57.5 84.5T624 469t-21 103.5-57.5 85-85 57.5T358 736q-56 0-104.5-21t-85-57.5-57.5-85T90 469t21-103.5 57.5-84.5 85-57T358 203zm0 511q50 0 94.5-19.5T530 642t52.5-77.5T602 469t-19.5-95.5T530 296t-77.5-52-94.5-19q-51 0-96 19t-78.5 52-52.5 77.5-19 95.5 19 95.5 52.5 77.5 78.5 52.5 96 19.5zm323-245q0 35-7 66.5T655 596q5 7 12 17.5t12.5 21T687 654t-2 13q-5 6-24 24.5t-40.5 40-40.5 41-25 25.5q-5 5-14.5 2.5t-20-8-20.5-13-16-12.5q-59 25-126 25-68 0-129-25-7 5-17 12t-20.5 12.5-19.5 8-13-1.5l-24.5-24.5-40-40-40.5-41L28 667q-5-5-2.5-14.5T34 633t13-20 12-17q-26-58-26-127 0-67 26-128-5-6-12-16t-13-20.5-8.5-19T28 272l26-26 40.5-41 40-40.5L159 141q4-4 13-2t19.5 7.5 20.5 13 17 12.5q60-26 129-26 68 0 126 26 6-5 16-12.5t20.5-13 20-8T555 141l25 25 40.5 40.5L661 247l24 25q4 4 2 13t-7.5 19.5T667 325t-12 16q12 30 19 62t7 66zm-605 0q0 59 22 110t60.5 89 89.5 60 110 22q58 0 109-22t89-60 60-89 22-110q0-58-22-109t-60-89-89-60-109-22q-59 0-110 22t-89.5 60T98 360 76 469z"/></svg>