<svg xmlns="http://www.w3.org/2000/svg" viewBox="0 -200 1017 1000"><path fill="currentColor" d="M976 245l6 10 6 10q-88 152-174 302T640 869h-26l-2 5q-11 17-20.5 35T571 944h-99q-11-17-21-35t-21-36l-2-4h-24q-88-152-175-301.5T54 266l12-20 2-4-2-5q-11-17-20.5-35T25 166q12-21 24.5-42.5T75 80h87l2-4q2-4 4.5-7t4.5-7q175-1 348-1t348-1q2 5 4.5 8.5T878 76l2 4h87q12 22 24.5 43t25.5 43q-11 18-20.5 35.5T976 237l-2 4zm-16-79l-9-15-13-22h-86l-11-19q-161 0-320 .5t-320 .5l-10 19h-88l-21 36 6 11 21 36 2 4 15 25-15 24 26 45 295 509h25l14 25 2 4 27 46h42l7-11 20-35 2-4 15-25h26l318-555-13-24 14-25 2-4 20-35zM579 672H462v-99h117v99zm5-164H458l-26-277h177z"/></svg>