<?xml version="1.0" encoding="utf-8"?>
<!-- Generator: Adobe Illustrator 21.0.2, SVG Export Plug-In . SVG Version: 6.00 Build 0)  -->
<svg version="1.1" id="Layer_1" xmlns="http://www.w3.org/2000/svg" xmlns:xlink="http://www.w3.org/1999/xlink" x="0px" y="0px"
	 width="24px" height="24px" viewBox="0 0 24 24" style="enable-background:new 0 0 24 24;" xml:space="preserve">
<path d="M12,0.7c2,0,3.9,0.5,5.7,1.5s3.1,2.4,4.1,4.1s1.5,3.6,1.5,5.7s-0.5,3.9-1.5,5.7s-2.4,3.1-4.1,4.1S14,23.3,12,23.3
	c-3.1,0-5.8-1.1-8-3.3s-3.3-4.9-3.3-8S1.8,6.2,4,4S8.9,0.7,12,0.7z M12,1.8c-2.8,0-5.2,1-7.2,3s-3,4.4-3,7.2c0,2.8,1,5.2,3,7.2
	s4.4,3,7.2,3s5.2-1,7.2-3s3-4.4,3-7.2c0-2.8-1-5.2-3-7.2S14.8,1.8,12,1.8z M9.9,3.9c0.2,0.1,0.3,0.3,0.3,0.4c0,0.1-0.1,0.2-0.2,0.4
	c-0.4,0-0.7,0.1-1,0.2C6.8,5.8,5.7,7.4,5.6,9.8c0,0.1,0,0.2,0,0.4c0,0.2,0,0.3,0,0.3c-0.1,0.2-0.2,0.3-0.4,0.3S5,10.7,4.9,10.6
	c-0.1-0.1-0.1-0.3-0.1-0.6V9.7c0.1-2.8,1.4-4.7,4-5.6C9,4,9.2,4,9.3,4c0.1,0,0.3,0,0.4-0.1C9.8,3.9,9.9,3.9,9.9,3.9z M10.7,6
	C10.9,6.1,11,6.2,11,6.4c0,0.1-0.1,0.3-0.2,0.4C9.8,6.9,9.1,7.3,8.6,8c-0.5,0.7-0.7,1.6-0.7,2.7v0.2c-0.1,0.2-0.2,0.2-0.4,0.2
	S7.2,11,7.1,10.8v-0.4c0-1.2,0.3-2.2,0.9-3S9.6,6.2,10.7,6z M16.6,7.8c0.2,0,0.3,0.1,0.4,0.3c0,0.1,0,0.1,0,0.2c0,0.4-0.2,1.1-0.7,2
	c-0.5,0.9-1.1,1.8-1.9,2.7c-0.7,0.9-1.4,1.6-2.2,2.2c-0.8,0.6-1.4,1-2,1.2l-0.2,0l-0.1-0.2l-0.1-0.4c0.1-0.4,0.2-0.8,0.4-1.2
	c0.2-0.4,0.4-0.7,0.5-0.9s0.4-0.6,0.8-1.1c-0.1,0.2-0.2,0.4-0.4,0.7c-0.2,0.3-0.3,0.5-0.3,0.6s-0.2,0.4-0.3,0.7
	c-0.1,0.3-0.2,0.7-0.3,1.2c0.1,0,0.1,0,0.1,0c0,0,0.1-0.1,0.2-0.1c0.1-0.1,0.2-0.1,0.2-0.1c0.8-0.4,1.7-1.3,2.8-2.5s1.9-2.5,2.5-3.8
	c0.2-0.5,0.3-0.8,0.3-0.9V8.2c-0.4,0.1-0.7,0.3-1,0.5c-0.3,0.2-0.7,0.5-1.1,0.8s-0.7,0.5-0.9,0.7c0.8-1,1.8-1.8,2.8-2.3
	c0,0,0.1,0,0.1,0S16.5,7.8,16.6,7.8z M17.3,8.4c0.3,0.1,0.4,0.3,0.5,0.5C17.9,9.1,18,9.4,18,9.8c0,0.4,0.1,0.7,0.1,0.8
	c-0.1,1.4-0.5,2.5-1,3.2c-0.2-0.1-0.3-0.1-0.5-0.1c-0.4,0-0.7,0.1-1,0.4c-0.3,0.3-0.4,0.6-0.4,1c0,0.3,0.1,0.5,0.2,0.7
	c-1,0.7-1.7,1.1-2.1,1.2c-0.5,0-0.9,0.1-1.1,0.1c-0.8,0-1.2-0.1-1.4-0.4c1.6-0.9,3-2.2,4.3-3.9S17,9.6,17.3,8.4z M10.6,8.9
	c0.2,0,0.3,0.1,0.5,0.2c0.1,0.1,0.2,0.3,0.2,0.5v0.1l2.9,1.9c0,0.8-0.4,1.2-1.1,1.2l-2.2-2.6c-0.1,0-0.2,0.1-0.3,0.1
	c-0.2,0-0.3-0.1-0.5-0.2C10,9.9,10,9.8,10,9.6s0.1-0.3,0.2-0.5C10.3,9,10.4,8.9,10.6,8.9z M17.5,13.9c0.3,0.3,0.6,0.6,0.8,1
	c0.2,0.3,0.4,0.8,0.6,1.4c0.2,0.6,0.4,0.9,0.5,1.1c-0.5,0.6-1,1.1-1.5,1.3c-0.1-0.3-0.2-0.7-0.4-1.2c-0.1-0.5-0.2-0.8-0.3-1
	c-0.2,0.1-0.4,0.1-0.6,0.1c-0.2,0-0.5-0.1-0.9-0.2l-0.7,4.1c-0.9,0.4-1.6,0.6-2.3,0.6l1.4-4l0.3-0.4c0.1-0.1,0.2-0.1,0.3-0.2
	c0.1-0.1,0.2-0.1,0.4-0.2c0.2-0.1,0.3-0.2,0.5-0.3c0,0,0.1,0.1,0.2,0.1h0c0,0,0.1,0.1,0.1,0.1c0.3,0.2,0.5,0.3,0.7,0.3
	c0.1,0,0.3-0.1,0.7-0.2c0.4-0.3,0.6-0.6,0.6-1.1c0-0.4-0.2-0.7-0.5-1L17.5,13.9z M16.6,14.1c0.3,0,0.5,0.1,0.7,0.3
	c0.2,0.2,0.3,0.4,0.3,0.7c0,0.3-0.1,0.5-0.3,0.7c-0.2,0.2-0.4,0.3-0.7,0.3c-0.3,0-0.5-0.1-0.7-0.3c-0.2-0.2-0.3-0.4-0.3-0.7
	c0-0.3,0.1-0.5,0.3-0.7C16.1,14.2,16.3,14.1,16.6,14.1z"/>
</svg>
