<svg xmlns="http://www.w3.org/2000/svg" viewBox="0 -200 1000 1000"><path fill="currentColor" d="M469 61q119 0 220 59t160 160 59 220-59 220-160 160-220 59q-182 0-310.5-128.5T30 500t128.5-310.5T469 61zm1 41q-164 0-280 116T74 497q0 164 116 280t280 116 279.5-116T865 497q0-163-116-279T470 102zm-82 84q12 8 12 14 0 7-7 15-24 1-37 8-131 54-134 190 0 6 .5 15.5t.5 13.5q-5 12-14 12t-14-9q-3-5-3-25v-8q4-162 157-219 7-3 15.5-4.5t15.5-2 8-.5zm31 81q12 5 12 15 0 8-8 16-58 6-86 47.5T309 451v7q-5 9-16 9t-14-12v-14q0-72 36.5-118T419 267zm227 69q10 0 15 11 1 3 1 8 0 25-29 76.5T561 536q-40 50-84 86t-78 47l-8-1-4-6-2-14q4-25 15.5-48.5t20.5-36 32-41.5q-6 12-15 27.5t-13 24-10.5 27.5-13.5 47q3 0 5.5-1.5t7-4.5 8.5-5q46-26 109.5-95.5T630 394q12-29 12-35v-6q-21 6-39.5 17.5t-41 29.5-34.5 26q48-59 109-88 1 0 4.5-1t5.5-1zm28 24q15 7 21 19.5t8.5 36T707 445q-8 81-40 125-9-3-20-3-22 0-37.5 15T594 620q0 15 7 29-56 40-82 45-30 2-44 2-44 0-56-17 92-54 166-151.5T674 360zm-258 20q10 0 17.5 7.5T441 406v5l113 72q-2 44-43 47l-85-100q-4 2-10 2-11 0-18.5-7.5T390 406t7.5-18.5T416 380zm267 195q19 17 30.5 37t24.5 52.5 18 42.5q-28 36-58 52-6-18-14.5-46.5T672 674q-13 5-22 5-12 0-34-7l-28 159q-50 23-91 23l53-155 11-15q7-4 13.5-7.5T590 667t18-11q1 2 6 2h1q2 2 2 3 16 10 29 10 4 0 28-8 22-16 22-42 0-24-18-37zm-36 7q16 0 27 11t11 27q0 15-11 26.5T647 658t-27-11.5-11-26.5q0-16 11-27t27-11z"/></svg>