<svg xmlns="http://www.w3.org/2000/svg" viewBox="0 -289 1378 1000"><path fill="currentColor" d="M1272 229q22 0 41.5 8.5t33.5 23 22.5 33.5 8.5 41v353q0 22-8 41t-22.5 33.5-33.5 23-40 8.5l-173-44-15-3 5 13 68 223q0 22-8.5 41t-22.5 33.5-33.5 23-41.5 8.5H365q-22 0-41-8.5t-33.5-22.5-23-32.5T259 986l69-226 4-13-14 3q-45 11-88.5 21.5T141 793q-22 0-41-8t-33.5-22.5T44 729t-8-41V335q0-22 8-41t22.5-33.5 33.5-23 40-8.5l178 44 14 3-4-14-68-228q0-22 8-41.5T290.5-41 324-63.5t41-8.5h688q22 0 41.5 8t33.5 22.5 22.5 33T1159 31l-68 231-4 14 14-3zm57 106q0-22-15-38t-36-18l-165 41-14 4-84 21 24-83 4-14 66-223q-2-20-18-33.5T1053-22H365q-22 0-37.5 14T310 27l65 221 5 14 24 82-83-20-14-3-172-42q-20 2-35 18t-15 38v353q0 22 15 38t36 18l70-18 101-24 14-3 84-21-25 83-5 14-66 216q3 20 19 34t37 14h688q22 0 38-14.5t18-35.5l-66-214-4-14-25-84 84 22 15 3 166 42q21-2 35.5-18.5T1329 688V335zm-234 173l-168 83-16-13q-17 48-51.5 83T777 712l13 17-83 167-83-167 13-17q-48-16-82.5-51T503 578l-16 13-168-83 168-83 16 14q17-48 51.5-83t82.5-52l-13-16 83-168 83 168-13 16q48 17 82.5 52t51.5 83l16-14zm-271 0l64-51q-14-48-48-82t-82-48l-51 65-52-65q-47 14-81 48t-48 82l64 51-64 52q14 47 48 81.5t81 47.5l52-64 51 64q48-13 82-47.5t48-81.5z"/></svg>