<?xml version="1.0" encoding="utf-8"?>
<!-- Generator: Adobe Illustrator 21.0.2, SVG Export Plug-In . SVG Version: 6.00 Build 0)  -->
<svg version="1.1" id="Layer_1" xmlns="http://www.w3.org/2000/svg" xmlns:xlink="http://www.w3.org/1999/xlink" x="0px" y="0px"
	 width="24px" height="24px" viewBox="0 0 24 24" style="enable-background:new 0 0 24 24;" xml:space="preserve">
<path d="M4.9,2.5h13.9L14,7.8c1.4,0.7,2.3,1.9,2.5,3.4l6.8-2.1v5.5l-6.8-2.2c-0.1,0.8-0.4,1.5-0.8,2.1c-0.5,0.7-1.1,1.1-1.8,1.5
	l4.9,5.4H4.9l5-5.4c-0.7-0.3-1.3-0.8-1.7-1.5c-0.5-0.6-0.7-1.3-0.8-2.1l-6.6,2.1V9.1l6.6,2.1c0.3-1.5,1.1-2.7,2.4-3.4L4.9,2.5z
	 M13.3,8.6l-1.4,1.5l-1.4-1.5C9.9,8.9,9.4,9.2,9,9.7c-0.4,0.5-0.6,1.1-0.7,1.7l1.1,0.3l-1.2,0.4c0,0.7,0.3,1.4,0.7,1.9
	c0.4,0.6,0.9,1,1.6,1.3l1.4-1.5l1.4,1.5c0.7-0.3,1.2-0.7,1.6-1.3c0.4-0.6,0.6-1.2,0.7-2l-1-0.3l1-0.3c-0.1-0.7-0.3-1.3-0.7-1.8
	C14.4,9.2,13.9,8.8,13.3,8.6z"/>
</svg>
