<svg xmlns="http://www.w3.org/2000/svg" viewBox="0 -285 1379 1000"><path fill="currentColor" d="M825 505l64 51q-14 48-48 82t-82 48l-51-65-52 65q-47-14-81-48t-48-82l64-51-64-52q14-47 48-81t81-48l52 64 51-64q48 14 82 48t48 81zm448-279q22 0 41.5 8.5T1348 257t22.5 33 8.5 41v353q0 22-8 41t-22.5 33.5-33.5 23-40 8.5l-173-43-15-4 5 14 68 223q0 22-8.5 41t-22.5 33.5-33.5 22.5-41.5 8H366q-22 0-41-8t-33.5-22.5-23-33T260 982l69-225 4-14-14 3q-45 11-88.5 22T142 790q-22 0-41-8.5t-33.5-23T45 725t-8-41V331q0-22 8-41t22.5-33.5 33.5-23 40-8.5l178 44 14 3-4-13-68-229q0-22 8-41t22.5-33T325-66.5t41-8.5h688q22 0 41.5 8t33.5 22.5 22.5 33T1160 28l-68 231-4 13 14-3zm-177 279l-168-83-16 13q-17-48-51.5-83T778 301l13-17-83-167-83 167 13 17q-48 16-82.5 51T504 435l-16-13-168 83 168 83 16-13q17 47 51.5 82t82.5 52l-13 16 83 168 83-168-13-16q48-17 82.5-52t51.5-82l16 13z"/></svg>