<svg xmlns="http://www.w3.org/2000/svg" viewBox="0 -200 1000 1000"><path fill="currentColor" d="M461 60h8q108 0 200 48 108 53 174 160.5T909 496q0 17-1 26-5 131-87 240.5T615 914q-68 25-144 25-91 0-175.5-35.5T151 803q-58-60-89.5-140.5T30 497q0-91 34-169 49-118 159.5-192.5T461 60zm1 41q-120 1-222 74T98 361q-24 65-24 134 0 91 40 175t111 138q105 85 245 85 129 0 229-73 78-54 122.5-142T866 494q0-55-15-106-33-123-140-205t-235-82h-14zm179 126q69 0 97 76 15 8 47 47-5 9-19 23-26-13-59-13-39 0-77 14.5T583 403q16 0 13 21 23 27 69 27 8 0 28-2v-2q0-8 32-23 18 15 21 33-7 40-11 79-22 14-31 14 5 18 18 25 43 8 66 13t26 6l8 34q-56 131-149 186.5T452 874l-4-150-22 2 5 148q-76-10-145-45 2-14 5-54t6-59 10-48.5 20-50 33-35.5l172-40-39-81q-10-36-10-53 0-30 24-45-9-19-9-33 0-2 3-20 11-27 54.5-54.5T641 227zm-356 14q57 0 90 68 24 19 37 35-4 14-12 22-22-7-53-13-53 9-110 37l11 4q0 2 2 7.5t3 11.5q26 21 58 21 2 0 6.5-.5t6.5-.5q6-11 34-22 17 8 20 22 0 26-11 70-42 4-74.5 39T245 625.5 222.5 712t-7.5 63q-5-5-28.5-31.5T155 705t-24-39-23.5-58.5T96 536q61-15 101-23v-14q0-48-27-53h-2q-5 0-9-14t-4-31q0-39 23-40-8-27-8-30 0-7 3-13 14-29 46-52.5t66-24.5z"/></svg>