<?xml version="1.0" encoding="utf-8"?>
<!-- Generator: Adobe Illustrator 21.0.2, SVG Export Plug-In . SVG Version: 6.00 Build 0)  -->
<svg version="1.1" id="Layer_1" xmlns="http://www.w3.org/2000/svg" xmlns:xlink="http://www.w3.org/1999/xlink" x="0px" y="0px"
	 width="24px" height="24px" viewBox="0 0 24 24" style="enable-background:new 0 0 24 24;" xml:space="preserve">
<path d="M11.8,0.6H12c1.9,0,3.6,0.4,5.2,1.2C19,2.8,20.5,4.2,21.7,6s1.7,3.8,1.7,5.9c0,0.3,0,0.5,0,0.7c-0.1,2.3-0.8,4.3-2.2,6.2
	c-1.4,1.9-3.2,3.2-5.3,3.9c-1.2,0.4-2.4,0.6-3.7,0.6c-1.6,0-3.1-0.3-4.5-0.9C6,21.8,4.8,21,3.8,19.8c-1-1-1.8-2.2-2.3-3.6
	s-0.8-2.8-0.8-4.3c0-1.6,0.3-3,0.9-4.4c0.8-2,2.2-3.7,4.1-5S9.6,0.7,11.8,0.6z M11.8,1.7c-2.1,0-4,0.7-5.7,1.9s-3,2.9-3.7,4.8
	C2,9.5,1.8,10.7,1.8,11.9c0,1.6,0.3,3.1,1,4.5S4.5,19,5.7,20c1.8,1.5,3.9,2.2,6.3,2.2c2.2,0,4.2-0.6,5.9-1.9
	c1.3-0.9,2.4-2.2,3.2-3.7s1.2-3.1,1.2-4.8c0-0.9-0.1-1.9-0.4-2.7c-0.6-2.1-1.8-3.9-3.6-5.3c-1.8-1.4-3.9-2.1-6.1-2.1H11.8z M16.4,5
	c1.2,0,2,0.7,2.5,2c0.3,0.1,0.7,0.5,1.2,1.2c-0.1,0.2-0.2,0.4-0.5,0.6c-0.4-0.2-1-0.3-1.5-0.3c-0.7,0-1.3,0.1-2,0.4
	c-0.7,0.2-1.1,0.5-1.2,0.7c0.3,0,0.4,0.2,0.3,0.5c0.4,0.5,1,0.7,1.8,0.7c0.1,0,0.4,0,0.7-0.1v-0.1c0-0.1,0.3-0.3,0.8-0.6
	c0.3,0.3,0.5,0.5,0.5,0.9c-0.1,0.7-0.2,1.4-0.3,2c-0.4,0.2-0.6,0.4-0.8,0.4c0.1,0.3,0.2,0.5,0.5,0.6c0.7,0.1,1.3,0.2,1.7,0.3
	c0.4,0.1,0.6,0.1,0.7,0.2l0.2,0.9c-1,2.3-2.2,3.9-3.9,4.8s-3.5,1.5-5.7,1.5l-0.1-3.9l-0.6,0.1l0.1,3.8c-1.3-0.2-2.6-0.6-3.7-1.2
	c0-0.2,0.1-0.7,0.1-1.4c0.1-0.7,0.1-1.2,0.2-1.5c0.1-0.3,0.1-0.7,0.3-1.3c0.1-0.5,0.3-0.9,0.5-1.3c0.2-0.4,0.5-0.7,0.9-0.9l4.4-1
	l-1-2.1c-0.2-0.6-0.3-1.1-0.3-1.4c0-0.5,0.2-0.9,0.6-1.2c-0.2-0.3-0.2-0.6-0.2-0.9c0,0,0-0.2,0.1-0.5c0.2-0.5,0.7-0.9,1.4-1.4
	C15,5.2,15.7,5,16.4,5z M7.2,5.3c1,0,1.8,0.6,2.3,1.8c0.4,0.3,0.7,0.6,1,0.9c-0.1,0.2-0.2,0.4-0.3,0.6C9.8,8.4,9.4,8.3,8.8,8.2
	C7.9,8.4,7,8.7,6,9.2l0.3,0.1c0,0,0,0.1,0.1,0.2c0,0.1,0.1,0.2,0.1,0.3c0.4,0.4,0.9,0.5,1.5,0.5c0,0,0.1,0,0.2,0c0.1,0,0.1,0,0.2,0
	c0.1-0.2,0.4-0.4,0.9-0.6c0.3,0.1,0.5,0.3,0.5,0.6c0,0.4-0.1,1.1-0.3,1.8c-0.7,0.1-1.4,0.4-1.9,1s-1,1.3-1.2,2.2
	c-0.3,0.8-0.5,1.6-0.6,2.2s-0.2,1.2-0.2,1.6c-0.1-0.1-0.3-0.4-0.7-0.8c-0.4-0.5-0.7-0.8-0.8-1c-0.1-0.2-0.3-0.5-0.6-1
	c-0.3-0.5-0.5-1-0.6-1.5c-0.1-0.5-0.2-1.2-0.3-1.8c1.1-0.3,1.9-0.5,2.6-0.6V12c0-0.8-0.2-1.3-0.7-1.4H4.2c-0.1,0-0.2-0.1-0.2-0.4
	C3.9,10,3.9,9.7,3.9,9.5c0-0.7,0.2-1,0.6-1C4.3,8,4.3,7.7,4.3,7.6c0-0.1,0-0.2,0.1-0.3C4.6,6.8,5,6.4,5.5,6C6.1,5.5,6.6,5.3,7.2,5.3
	z"/>
</svg>
