<svg xmlns="http://www.w3.org/2000/svg" viewBox="0 -200 1000 1000"><path fill="currentColor" d="M469 65q181 0 310 128.5T908 504 779 814.5 469 943q-182 0-310.5-128.5T30 504t128.5-310.5T469 65zm1 41q-164 0-280 116T74 501q0 164 116 280t280 116 279.5-116T865 501q0-163-116-279T470 106zM279 645.5q0 9.5 6.5 16.5t16 7 16.5-7 7-16.5-7-16-16.5-6.5-16 6.5-6.5 16zM548 588v33h126v-33H548zm-151 36v42h99v-42h-99zm1-77v43h99v-43h-99zm-127 0v43h99v-43h-99zm170-77h30v20h20v-20h24v20h21v-20h25v21h49v-50h-66v-95h22v74h44v-12l30-30v-70q-10-1-18-10-10-9-10-22t9.5-22.5T644 244t22.5 9.5T676 276q0 2-10 22-1 2-2 3v190h17l75 75v97l-70 70H269l-66-66v-38h-15v-45h15v-26l67-67h25l12-102q-6-1-11-5-6-7-6-16t6.5-15.5T312 346t15.5 6.5T334 368q0 11-6 16-5 4-11 5l11 102h35v-21h56v23h22v-23zm106 80v12h139v-12H547zm0 103v12h84l11-12h-95z"/></svg>