<?xml version="1.0" encoding="utf-8"?>
<!-- Generator: Adobe Illustrator 21.0.2, SVG Export Plug-In . SVG Version: 6.00 Build 0)  -->
<svg version="1.1" id="Layer_1" xmlns="http://www.w3.org/2000/svg" xmlns:xlink="http://www.w3.org/1999/xlink" x="0px" y="0px"
	 width="24px" height="24px" viewBox="0 0 24 24" style="enable-background:new 0 0 24 24;" xml:space="preserve">
<path d="M12,0.6c3.1,0,5.8,1.1,8,3.3s3.3,4.9,3.3,8s-1.1,5.8-3.3,8s-4.9,3.3-8,3.3c-3.1,0-5.8-1.1-8-3.3s-3.3-4.9-3.3-8S1.7,6.2,4,4
	S8.9,0.6,12,0.6z M12,1.7c-2.8,0-5.2,1-7.2,3s-3,4.4-3,7.2c0,2.8,1,5.2,3,7.2s4.4,3,7.2,3s5.2-1,7.2-3s3-4.4,3-7.2
	c0-2.8-1-5.2-3-7.2S14.8,1.7,12,1.7z M7.1,15.7c0,0.2,0.1,0.3,0.2,0.4c0.1,0.1,0.3,0.2,0.4,0.2c0.2,0,0.3-0.1,0.4-0.2
	c0.1-0.1,0.2-0.3,0.2-0.4s-0.1-0.3-0.2-0.4c-0.1-0.1-0.3-0.2-0.4-0.2c-0.2,0-0.3,0.1-0.4,0.2S7.1,15.5,7.1,15.7z M14,14.2V15h3.3
	v-0.9H14z M10.1,15.1v1.1h2.6v-1.1H10.1z M10.2,13.1v1.1h2.6v-1.1H10.2z M6.9,13.1v1.1h2.6v-1.1H6.9z M11.3,11.1h0.8v0.5h0.5v-0.5
	h0.6v0.5h0.5v-0.5h0.6v0.5h1.3v-1.3h-1.7V7.9h0.6v1.9h1.1V9.5l0.8-0.8V6.9c-0.2,0-0.3-0.1-0.5-0.3c-0.2-0.2-0.3-0.3-0.3-0.6
	c0-0.2,0.1-0.4,0.2-0.6c0.2-0.2,0.4-0.2,0.6-0.2c0.2,0,0.4,0.1,0.6,0.2c0.2,0.2,0.2,0.4,0.2,0.6c0,0-0.1,0.2-0.3,0.6
	c0,0,0,0.1-0.1,0.1v4.9h0.4l1.9,1.9v2.5l-1.8,1.8H6.8l-1.7-1.7v-1H4.7v-1.2h0.4v-0.7l1.7-1.7h0.6L7.8,9C7.7,9,7.6,9,7.5,8.9
	C7.4,8.8,7.4,8.6,7.4,8.5c0-0.2,0.1-0.3,0.2-0.4C7.6,8,7.8,7.9,7.9,7.9c0.2,0,0.3,0.1,0.4,0.2c0.1,0.1,0.2,0.2,0.2,0.4
	c0,0.2-0.1,0.3-0.2,0.4C8.3,9,8.2,9,8.1,9l0.3,2.6h0.9v-0.5h1.4v0.6h0.6V11.1z M14,13.2v0.3h3.6v-0.3H14z M14,15.9v0.3h2.2l0.3-0.3
	H14z"/>
</svg>
