<?xml version="1.0" encoding="utf-8"?>
<!-- Generator: Adobe Illustrator 21.0.2, SVG Export Plug-In . SVG Version: 6.00 Build 0)  -->
<svg version="1.1" id="Layer_1" xmlns="http://www.w3.org/2000/svg" xmlns:xlink="http://www.w3.org/1999/xlink" x="0px" y="0px"
	 width="24px" height="24px" viewBox="0 0 24 24" style="enable-background:new 0 0 24 24;" xml:space="preserve">
<path d="M12,23.4h-0.2c-3,0-5.6-1.1-7.8-3.3s-3.3-4.9-3.3-8C0.6,8.9,1.7,6.2,4,4s4.9-3.3,8-3.3c3.1,0,5.8,1.1,8,3.3
	c2.2,2.2,3.3,4.9,3.3,8c0,3.2-1.1,5.8-3.3,8S15.1,23.4,12,23.4z M7.7,20.3C7.3,20.2,7,20.1,6.8,20s-0.4-0.2-0.5-0.3
	c-0.1-0.1-0.2-0.2-0.1-0.4c0-0.1,0-0.3,0.1-0.4C6.1,19.1,6,19.3,6,19.5c0,0.2,0.1,0.3,0.2,0.5c0.3,0.3,0.7,0.6,1.2,0.8
	c0.5,0.1,0.9,0.3,1.4,0.3c0.5,0.1,0.9,0.1,1.2,0.2c0.4,0.1,0.8,0.1,1.2,0.1v-0.5c-0.3,0-0.6,0-0.9-0.1s-0.5,0-0.8-0.1
	c-0.3,0-0.5-0.1-0.8-0.2S8.2,20.4,7.7,20.3z M8.9,18.8c-0.2-0.1-0.3-0.2-0.4-0.3c-0.1-0.1-0.1-0.2-0.1-0.3c0-0.1,0-0.2,0.1-0.4
	C8.3,17.9,8.2,18,8,18.1c-0.2,0.1-0.4,0.2-0.6,0.2c-0.2,0.1-0.4,0.2-0.5,0.3c-0.1,0.1-0.2,0.3-0.1,0.4c0.1,0.2,0.2,0.3,0.3,0.5
	c0.1,0.1,0.3,0.2,0.4,0.2c0.2,0.1,0.3,0.1,0.5,0.1L8.9,18.8z M11.7,22.3c0.1,0,0.1,0,0.1,0c0,0,0.1,0,0.1,0c0,0,0.1,0,0.1,0
	c0,0,0.1,0,0.1,0v-1.9c0.2,0,0.4,0,0.7,0c0.3,0,0.6,0,0.8-0.1c0.3,0,0.5-0.1,0.7-0.1c0.2,0,0.3-0.1,0.3-0.1
	c-0.1-0.3-0.2-0.5-0.3-0.7c-0.1-0.1-0.1-0.2-0.2-0.3c-0.2,0-0.4,0.1-0.6,0.1c-0.4,0.1-1,0.1-1.6,0.1c-0.7,0-1.2,0-1.6-0.1
	c-0.2,0-0.4,0-0.6-0.1c-0.1,0.1-0.2,0.2-0.2,0.3c-0.1,0.2-0.2,0.4-0.3,0.7c0,0.1,0.1,0.1,0.3,0.1s0.4,0.1,0.7,0.1
	c0.3,0,0.5,0.1,0.8,0.1c0.3,0,0.5,0,0.7,0V22.3z M15.5,17.9c0.1,0.1,0.1,0.2,0.1,0.4c0,0.1-0.1,0.2-0.1,0.3
	c-0.1,0.1-0.2,0.2-0.4,0.3l1,1c0.2,0,0.3,0,0.5-0.1c0.1,0,0.3-0.1,0.4-0.2s0.2-0.3,0.3-0.5c0.1-0.2,0-0.3-0.1-0.4
	c-0.1-0.1-0.3-0.2-0.5-0.3s-0.4-0.2-0.6-0.2C15.8,18,15.6,17.9,15.5,17.9z M16.2,20.3c-0.4,0.1-0.8,0.2-1.1,0.2
	c-0.3,0.1-0.6,0.1-0.8,0.2s-0.5,0.1-0.8,0.1s-0.6,0-0.9,0.1v0.5c0.4,0,0.8,0,1.2-0.1c0.3,0,0.8-0.1,1.2-0.2c0.4-0.1,0.9-0.2,1.4-0.3
	c0.6-0.2,1-0.4,1.2-0.8c0.1-0.2,0.2-0.3,0.2-0.5c0-0.2-0.1-0.4-0.3-0.6c0.1,0.1,0.1,0.3,0.1,0.4c0,0.1,0,0.3-0.1,0.4
	c-0.1,0.1-0.3,0.2-0.5,0.3S16.6,20.2,16.2,20.3z M18.8,19.8c1.1-0.9,1.9-2.1,2.6-3.4c0.6-1.3,0.9-2.8,0.9-4.3c0-1.4-0.3-2.8-0.8-4
	s-1.3-2.4-2.2-3.3S17.3,3,16,2.4s-2.6-0.8-4-0.8c-1.4,0-2.8,0.3-4,0.8S5.6,3.7,4.7,4.7S3,6.7,2.5,8s-0.8,2.6-0.8,4
	c0,1.6,0.3,3,0.9,4.3s1.5,2.5,2.5,3.4l0.3-0.3c0.1-0.1,0.2-0.2,0.3-0.4l0.5-0.5c0.6-0.3,1.2-0.6,1.9-0.8c0.6-0.2,1.2-0.3,1.8-0.4
	c-0.2,0.1-0.2,0.2-0.3,0.2c0,0.1,0.2,0.3,0.7,0.4c0.5,0.1,1,0.2,1.6,0.2c0.6,0,1.2-0.1,1.6-0.2s0.7-0.2,0.7-0.4
	c0-0.1-0.1-0.2-0.3-0.3c0.6,0.1,1.2,0.2,1.9,0.4c0.7,0.2,1.4,0.5,2,0.8l0.5,0.5l0.3,0.4C18.6,19.5,18.7,19.7,18.8,19.8L18.8,19.8z
	 M19.1,7.3c0,0,0.1,0,0.1,0.1c0,0.1,0,0.1,0,0.2l-0.1,0.1c0,0-0.1,0.1-0.1,0.1H19l-0.6-0.2l0,0.1c0,0.1,0,0.1-0.1,0.1l-0.1,0
	c0,0,0,0-0.1,0c0,0-0.1,0-0.1,0c0,0-0.1,0-0.1-0.1c-0.1,0-0.1-0.1-0.2-0.2c-0.1,0-0.2-0.1-0.2-0.1l-2.3-0.6l-0.4,0.1l-2.1,1.1h1.4
	L15,8.3c0.1,0,0.1,0.1,0.1,0.1v0.1l0.2,0.1c0.1,0,0.1,0.1,0.2,0.2l2,0.9h0c0.1,0,0.1,0,0.2,0c0.1,0,0.1-0.1,0.2-0.1
	c0.1,0,0.2,0,0.2,0.1c0,0,0,0.1,0.1,0.1l0,0.1c0,0.1,0,0.1-0.1,0.1l0.5,0.2c0.1,0,0.1,0.1,0.1,0.2l0,0.1c0,0.1-0.1,0.1-0.2,0.1
	l-0.1,0l-0.5-0.2c0,0,0,0.1-0.1,0.1L18,10.6c0,0-0.1,0-0.1,0h-0.1c0,0-0.1,0-0.1-0.1c-0.1,0-0.1-0.1-0.2-0.2c-0.1,0-0.2-0.1-0.3-0.2
	l-2-0.9c0,0-0.1,0-0.1,0c-0.1,0-0.2,0-0.2-0.1c-0.1,0-0.3-0.1-0.5-0.2c-0.2-0.1-0.4-0.2-0.5-0.2l-0.8,0.1L13,8.9l3.9,2.7h0.3
	c0,0,0.1,0,0.2,0.1c0.1,0.1,0.3,0.2,0.5,0.3c0.2,0.1,0.4,0.3,0.6,0.5c0.2,0.2,0.4,0.5,0.5,0.7c0,0.1,0,0.1,0,0.2
	c-0.2,0.2-0.4,0.4-0.6,0.4c-0.1,0-0.2,0-0.3-0.1l-0.4-0.1l-0.2-0.1c-0.2-0.1-0.4-0.1-0.6-0.2c-0.2-0.1-0.4-0.2-0.6-0.3
	c-0.2-0.1-0.4-0.2-0.5-0.3c-0.1-0.1-0.2-0.1-0.2-0.1c-0.1,0-0.1-0.1-0.1-0.1v-0.1L11,10.1l-0.5-0.1c0,0.1-0.1,0.2-0.1,0.4
	c-0.1,0.1-0.2,0.2-0.3,0.3c-0.1,0-0.2,0.1-0.3,0.1c-0.3,0-0.6-0.2-0.9-0.5l-0.6,0l-1.1,0.5l0.3,0.4c0,0,0.1,0.1,0.1,0.1
	c0,0,0,0.1-0.1,0.1l-0.1,0.1c0,0-0.1,0-0.1,0c0,0-0.1,0-0.1-0.1l-0.1-0.1l-0.1,0.1c0,0,0,0-0.1,0.1c0,0-0.1,0-0.1-0.1l-0.2-0.1
	c-0.1,0-0.1,0-0.1-0.1v-0.1l-0.5,0.2l0.2,0.3c0,0.1,0.1,0.1,0.1,0.1l0,0.3l1.1,1.7l0.2,0.1c0.1,0,0.1,0,0.1,0.1l0.1,0.1v0.1l0,0.1
	l0.5,0.8c0.1,0.1,0.1,0.2,0,0.2l-0.1,0.1c0,0-0.1,0-0.1,0s-0.1,0-0.1-0.1c-0.1-0.1-0.2-0.3-0.3-0.4c-0.1-0.1-0.2-0.2-0.2-0.3H7.3
	c-0.1,0-0.1,0-0.2-0.1l-0.1-0.1l0-0.1v-0.2l-1.1-1.6l-0.2-0.1c-0.1,0-0.1,0-0.1-0.1l-0.9-1.3c0,0,0-0.1,0-0.1l0-0.2c0,0,0,0,0,0
	c0,0,0,0,0.1,0l1-0.8L5.3,9.4H4.5c-0.1,0-0.1,0-0.1-0.1L4.1,8.8c0,0,0-0.1,0-0.1c0,0,0-0.1,0.1-0.1l0.1-0.1L4.1,8.3c0,0,0-0.1,0-0.1
	V8.1l0.1-0.3c0.1-0.1,0.2-0.2,0.3-0.1c0.1,0.1,0.2,0.1,0.3,0.1c0,0,0,0,0.1,0l0.4,0.4L7.1,8l0.1-0.1c0-0.1,0-0.1,0.1-0.1l0.7-0.1
	L7.4,7.3c0,0-0.1-0.1-0.1-0.1c0,0-0.1-0.1-0.1-0.3c0-0.1,0-0.2,0.1-0.3c0.1-0.1,0.2-0.2,0.4-0.2c0.1,0,0.2,0,0.2,0.1S8,6.6,8,6.6
	l0.9,0.6l0.3,0L9.7,7h0.1l0,0L9.6,6.9c0,0,0,0-0.1,0c0,0,0,0-0.1-0.1c0,0-0.1-0.1-0.1-0.2c0-0.2,0-0.3,0.2-0.4C9.7,6.1,9.8,6,10,6
	c0.1,0,0.2,0,0.3,0.1l0.2,0.1l1,0.5l0.6,0.1l1.5-0.5c-0.1-0.1-0.1-0.2-0.1-0.4c0-0.1,0-0.1,0.1-0.2c0.1-0.1,0.2-0.1,0.3-0.1
	c0.1,0,0.1,0,0.2,0l1.4,0.4c0,0,0,0,0.1,0.1l0.1,0.1l2.2,0.7c0,0,0.1,0,0.2,0H18c0.1-0.1,0.1-0.1,0.2-0.1c0.1,0,0.1,0,0.1,0
	c0.1,0,0.1,0,0.2,0.1c0,0.1,0,0.1-0.1,0.2l0,0L19.1,7.3z M6.9,9.2L6,9.3l0.3,0.3L6.9,9.2z M9,11.1c0.1,0.1,0.2,0.2,0.3,0.3
	c0.1,0.1,0.2,0.1,0.3,0.1s0.2,0.1,0.3,0.1l1.5,5.4l-2.7-5.8L9,11.1z M11.1,10.9l0.2,0.1c0.1,0.1,0.2,0.1,0.4,0.2
	c0.1,0.1,0.3,0.2,0.6,0.4l-0.3,5L11.1,10.9z M13.7,12.5l0.8,0.4l-1.9,3.9L13.7,12.5z"/>
</svg>
