<svg xmlns="http://www.w3.org/2000/svg" viewBox="0 -200 1000 1000"><path fill="currentColor" d="M469 938h-9q-172 0-301-128T30 500q0-183 128.5-311.5T469 60q180 0 310 129 129 128 129 310 0 183-129 311T469 938zM304 819q-23-6-35-12t-18-12.5-5.5-14T250 765q-11 12-11 24 0 9 7 18 15 20 47 29 27 8 54 13t48 7q25 4 46 4v-21q-20-1-35-2t-29.5-3-31-6-41.5-9zm46-56q-11-5-15-11.5t-5-11.5q-1-6 2-14-7 3-18.5 7t-23 9.5T272 755t-4 16q4 11 11 17.5t15 8.5q9 3 19 3zm108 135q3 0 5.5.5t5.5.5q2 0 4-.5t4-.5v-74q10 0 26.5-1t32.5-3.5 27.5-5T575 809q-5-16-12-26-4-6-9-12-10 2-24 3-24 3-63 3t-61-3q-13-1-25-3-5 5-9 12-8 11-11 26 0 3 11.5 5.5t27 5 32 3.5 26.5 1v74zm146-172q3 7 2 14-1 5-4.5 11.5T586 763l37 37q9 0 19-3 8-2 14.5-8t10.5-18q3-9-4-16t-18-12.5-22.5-9.5-18.5-7zm28 93q-25 5-41.5 9t-31 6-29 3-35.5 2v21q22 0 46-4 20-2 47-7 26-5 55-13 35-10 48-29 6-9 6-18 1-11-11-24 4 8 4.5 15.5t-5 14-18 12.5-35.5 12zm101-19q63-55 99.5-133T869 499q0-83-31.5-155.5t-86-127.5T624 130 469 99q-83 0-156 31t-127 86-85.5 127.5T69 499q0 90 36 167t98 132l12-12q5-6 13-14l18-18q35-20 72-31t69-16q-9 5-10 9 0 8 26.5 14.5T465 737q36 0 61.5-6.5T552 716q0-5-12-10 33 5 73 16t77 32l18 18 13 14q6 7 12 12v2zm11-482q2 1 4 3 1 4 0 6l-2 4q-1 2-5 2h-3l-22-7 1 3q0 4-4 5l-3 1q0 1-2 1t-3-1q-1 0-4.5-2.5T694 324q-5-1-8-4l-89-25-15 3-81 41h53l31 16q4 2 4 5v4l9 4q5 2 6 9l78 34h1q5 0 7 1 4-2 9-2 6 0 9 3 1 1 3 4l1 2q0 4-2 5l20 9q5 2 3 9l-1 3q-1 4-6 4l-3-1-20-8q0 2-2 4l-2 2q-1 1-4 1h-3q-1-1-4-3.5t-6-9.5q-8-2-10-6l-79-35q-2 1-5 1-6 0-8-2-5-2-19-9t-19-9l-31 2-5 3 150 106h11q1 0 8.5 4.5t18 12.5 22.5 20.5 21 28.5q1 5-1 7-11 14-25 14-5 0-11-2l-14-3-8-3q-10-3-23-8.5t-25-11-20.5-10-9.5-4.5q-3-1-3-5v-4l-167-94-18-3q-2 6-5.5 14T395 450q-8 2-12 2-20 0-33-18l-24 1-41 20 13 14q2 2 2 5 0 2-2 4l-5 4q-1 1-4 1-2 0-4-2l-4-5-3 3q-1 1-3 2-2 0-3-2l-7-4q-4 0-4-4v-3l-21 9 8 11q2 3 2 4l1 13 44 67 7 2q4 0 4 3l2 4v4l-1 3 19 30q4 6-1 8l-5 4q-1 1-4 1t-5-2q-5-8-11.5-16.5T291 601h-5q-5 0-6-3l-2-5-1-3v-7l-44-63-7-2q-3-1-4-2l-35-50q-1-2-1-5l1-8q1-1 1-1.5t2-1.5l40-30-20-22h-29q-4 0-5-4l-13-18q-1-1-1-4 0-2 3-4l3-2-5-9q-1-2-1-3v-6l4-10q8-8 12-5t10 3q1 0 2 1l16 17 74-11 2-4q0-3 4-4l26-5-19-12q-2-2-4.5-4t-2.5-10q0-6 5-12 7-7 14-7 5 0 7.5 2t3.5 2l35 24 10 1 20-8h5l-1-1-8-3q-1-1-2-1 0-1-2.5-3.5T370 290q-1-9 6-16 5-5 14-5 5 0 10 2l6 3 38 19 23 3 59-19q-5-4-5-14 0-4 3.5-7.5T536 252q3 0 6 1l56 17q1 0 3 2l2 2 86 27q2-1 6-1h4q4-3 7.5-3.5t5.5-.5q4 0 6 4 2 5-2 7l-1 1zm-471 74l-37 4 11 13zm82 71q5 7 10.5 10t10.5 5 12 3l58 208-104-224zm80-7l7 5q7 4 14 9 5 3 22 14l-13 192zm99 61l29 17-75 149z"/></svg>