<?xml version="1.0" encoding="utf-8"?>
<!-- Generator: Adobe Illustrator 21.0.2, SVG Export Plug-In . SVG Version: 6.00 Build 0)  -->
<svg version="1.1" id="Layer_1" xmlns="http://www.w3.org/2000/svg" xmlns:xlink="http://www.w3.org/1999/xlink" x="0px" y="0px"
	 width="24px" height="24px" viewBox="0 0 24 24" style="enable-background:new 0 0 24 24;" xml:space="preserve">
<path d="M14.8,15.3c0-0.4,0-0.6,0-0.8v-0.2c0-0.2-0.1-0.4-0.2-0.5c-0.1-0.1-0.3-0.2-0.5-0.2c-0.4,0-0.7,0.2-0.7,0.6l0,0.5l0,0.3v0.2
	c0,0.2,0.1,0.4,0.2,0.5c0.1,0.1,0.3,0.2,0.5,0.2c0.2,0,0.4-0.1,0.5-0.2C14.7,15.6,14.8,15.5,14.8,15.3z M12,0.6c3.1,0,5.8,1.1,8,3.3
	s3.3,4.9,3.3,8s-1.1,5.8-3.3,8s-4.9,3.3-8,3.3c-3.1,0-5.8-1.1-8-3.3s-3.3-4.9-3.3-8S1.7,6.2,4,4S8.9,0.6,12,0.6z M12,1.7
	c-2.8,0-5.2,1-7.2,3s-3,4.4-3,7.2c0,2.8,1,5.2,3,7.2s4.4,3,7.2,3s5.2-1,7.2-3s3-4.4,3-7.2c0-2.8-1-5.2-3-7.2S14.8,1.7,12,1.7z
	 M15.3,5.6c0.2,0,0.3,0.1,0.3,0.3l0.7,10.4c-0.1,0.3-0.1,0.6-0.2,0.9s-0.2,0.5-0.3,0.6c-0.1,0.2-0.3,0.3-0.5,0.4s-0.4,0.2-0.5,0.3
	c-0.1,0-0.3,0.1-0.6,0.2c-0.3,0.1-0.5,0.2-0.5,0.2c-0.5,0.1-1,0.1-1.4,0.1c-2.7,0-4.9-1.4-6.8-4.2c-0.4-0.6-0.6-1.1-0.6-1.6
	c0-0.7,0.3-1.4,1-2.1l9.2-5.5C15.1,5.7,15.1,5.7,15.3,5.6C15.2,5.6,15.2,5.6,15.3,5.6z M8.7,10.4c-0.3,0-0.5,0.1-0.6,0.3l-0.6,0.5
	c-0.2,0.2-0.4,0.4-0.4,0.6c0,0.2,0.1,0.4,0.2,0.5c0.1,0.1,0.3,0.2,0.5,0.2c0.3,0,0.4-0.1,0.6-0.3L9,11.8c0.3-0.1,0.4-0.3,0.4-0.6
	c0-0.2-0.1-0.4-0.2-0.5C9.1,10.5,8.9,10.4,8.7,10.4z M11.6,14l0.1-0.2c0.1-0.2,0.1-0.3,0.1-0.4c0-0.5-0.2-0.7-0.7-0.7
	c-0.1,0-0.3,0-0.4,0.1s-0.2,0.2-0.3,0.3l-0.1,0.1L10,13.9c-0.1,0.2-0.1,0.3-0.1,0.4c0,0.2,0.1,0.3,0.2,0.5s0.3,0.2,0.5,0.2
	c0.2,0,0.4-0.1,0.6-0.3l0.1-0.2c0-0.1,0.1-0.1,0.1-0.2C11.5,14.2,11.5,14.1,11.6,14L11.6,14z"/>
</svg>
