<svg xmlns="http://www.w3.org/2000/svg" viewBox="0 -200 1000 1000"><path fill="currentColor" d="M578 627q1-21 1-32v-6q0-11-8-19t-19-8q-25 0-28 25l-1 19-1 13v7q0 11 8.5 19t19.5 8 19-7.5 9-18.5zM469 61q181 0 310 128.5T908 500 779 810.5 469 939q-182 0-310.5-128.5T30 500t128.5-310.5T469 61zm1 41q-164 0-280 116T74 497q0 164 116 280t280 116 279.5-116T865 497q0-163-116-279T470 102zm125 152q10 0 13 10l26 402q-3 20-9.5 35T612 725t-18.5 17-18.5 10.5-22 8-21 7.5q-30 5-54 5-156 0-261-163-22-34-22-63 0-39 39-80l354-211q1 0 3.5-1t3.5-1zM343 440q-15 0-23 11l-22 18q-14 11-14 25 0 11 8 19.5t20 8.5q15 0 22-12l21-18q15-8 15-24 0-12-8-20t-19-8zm109 136l4-7q3-9 3-14 0-28-27-28-8 0-15 5.5T407 544l-3 5-12 23q-3 12-3 14 0 11 8.5 18.5T417 612q14 0 22-11l3-6q2-3 4.5-8t3.5-8z"/></svg>