<svg xmlns="http://www.w3.org/2000/svg" viewBox="0 -215 1000 1000"><path fill="currentColor" d="M929 460v83l-8 8-391 438q-13 13-23 26h-65q-6-7-11.5-13.5T419 989L28 551l-4-4-4-4v-83l8-8L419 14q6-7 11.5-13T442-12h65q5 7 11 13t12 13l391 438zm-50 19L493 47l-9-9h-20l-8 9L70 479v45l386 432q2 2 4 4.5t4 4.5h20l9-9 386-432v-45zM512 781h-76l-27-82q17-1 34-1h66l30 1zm38-115H398l-28-83q52-6 108-6 26 0 51 1.5t49 3.5zm40-121H358l-24-70q24-6 49.5-10t51.5-6h86q24 2 47 5.5t46 8.5zm38-115H319l-19-59q83-37 178-37 89 0 171 34z"/></svg>