<svg xmlns="http://www.w3.org/2000/svg" viewBox="0 -200 1000 1000"><path fill="currentColor" d="M469 61q181 0 310 128.5T908 500 779 810.5 469 939q-182 0-310.5-128.5T30 500t128.5-310.5T469 61zm1 41q-164 0-280 116T74 497q0 164 116 280t280 116 279.5-116T865 497q0-163-116-279T470 102zm307 214l3 9-26 13-93 22-6-20 92-23zm-136 21l4 17-107 29-3-19zm146 15l3 9-26 13-93 22-6-19 92-24zm-269 6l2 18-49 12-4-18zm-65 4l23 109-70 15-1 39-19 10-8-44q-9-21-25 5-17-10-21-10-7 0-11 15l-1 3v4l-1 4-3 2-4 2h-5q-3 1-61 11l-5 9-20 3q-2-12 1-17-12-2-19-5.5t-8.5-5.5-2-7.5-.5-6.5q-2-2-2.5-8t-4-9-11.5-3q-2 0-6.5.5t-7.5.5q-1-1-5.5-7.5T150 460q0-7 8-14l47-5 15-21q4-12 11-12t18 12q12 0 23-6 4-17 11-17 8 0 19 14l30-10q4-15 16-19 2 0 16 15 6-7 36-9l-4-10zm195 8l8 36-106 27-7-38zm-122 18l11 58-49 10-14-58zm-125 10q-5 1-10 13l15 57q5 5 17 7-1-2-5-21t-15-44q6-3 1-11-1-1-3-1zm-58 8q-25 4-31 9 6 8 22 14 2-1 9.5-3.5T356 420q-4-8-13-14zm-63 14q-8 1-12.5 2t-6 2-2 3-1.5 3q2 1 8.5 6.5T278 442q6 0 18-9 0-9-16-13zm-65 63q-12 0-12 13t12 13 12-13-12-13zm267 25q71 48 88 60v23H354v-17q11-12 20-20v12q7 1 18 1 33 0 33-33 0-4-2-16l8-2q8-1 24-3.5t27-4.5zm-4 10q-9 0-15 9l12 40h75zm-241 21v2q0 74 64 103l2-7q24 0 26 1 3-15 11-34h259q8 15 11.5 32t4.5 38 3 32h134q-7 6-26.5 23.5t-30 26.5-29 22-37.5 22q-63 31-149 38h-13q-96-8-157-38-18-9-36.5-22T244 756t-29.5-26-26.5-24h133q2-6 4-38-18 0-28-6v-8q-68-38-70-114zm211 89v114h-4v-88h-17v85h-82v9q67 13 119 13V648h12v113q52 0 119-13v-9h-82v-85h-17v88h-5V628h-24 3-22z"/></svg>