<?xml version="1.0" encoding="utf-8"?>
<!-- Generator: Adobe Illustrator 21.0.2, SVG Export Plug-In . SVG Version: 6.00 Build 0)  -->
<svg version="1.1" id="Layer_1" xmlns="http://www.w3.org/2000/svg" xmlns:xlink="http://www.w3.org/1999/xlink" x="0px" y="0px"
	 width="24px" height="24px" viewBox="0 0 24 24" style="enable-background:new 0 0 24 24;" xml:space="preserve">
<path d="M12,0.6c3.1,0,5.8,1.1,8,3.3s3.3,4.9,3.3,8s-1.1,5.8-3.3,8s-4.9,3.3-8,3.3c-3.1,0-5.8-1.1-8-3.3s-3.3-4.9-3.3-8S1.7,6.2,4,4
	S8.9,0.6,12,0.6z M12,1.7c-2.8,0-5.2,1-7.2,3s-3,4.4-3,7.2c0,2.8,1,5.2,3,7.2s4.4,3,7.2,3s5.2-1,7.2-3s3-4.4,3-7.2
	c0-2.8-1-5.2-3-7.2S14.8,1.7,12,1.7z M20,7.2L20,7.5l-0.7,0.3L17,8.4l-0.2-0.5l2.4-0.6L20,7.2z M16.5,7.8l0.1,0.4L13.8,9l-0.1-0.5
	L16.5,7.8z M20.2,8.2l0.1,0.2l-0.7,0.3l-2.4,0.6l-0.2-0.5l2.4-0.6L20.2,8.2z M13.3,8.3l0.1,0.5l-1.3,0.3l-0.1-0.5L13.3,8.3z
	 M11.6,8.4l0.6,2.8l-1.8,0.4l0,1l-0.5,0.3l-0.2-1.1c-0.2-0.4-0.4-0.3-0.6,0.1c-0.3-0.2-0.5-0.3-0.5-0.3c-0.1,0-0.2,0.1-0.3,0.4
	l0,0.1v0.1l0,0.1L8,12.4l-0.1,0.1H7.8c-0.1,0-0.6,0.1-1.6,0.3l-0.1,0.2L5.6,13c0-0.2,0-0.4,0-0.4c-0.2,0-0.4-0.1-0.5-0.1
	c-0.1-0.1-0.2-0.1-0.2-0.1c0,0,0-0.1-0.1-0.2c0-0.1,0-0.2,0-0.2c0,0-0.1-0.1-0.1-0.2s0-0.2-0.1-0.2c-0.1-0.1-0.2-0.1-0.3-0.1
	c0,0-0.1,0-0.2,0c-0.1,0-0.1,0-0.2,0c0,0-0.1-0.1-0.1-0.2C3.8,11.1,3.7,11,3.7,11c0-0.1,0.1-0.2,0.2-0.4l1.2-0.1l0.4-0.5
	c0.1-0.2,0.2-0.3,0.3-0.3c0.1,0,0.3,0.1,0.5,0.3c0.2,0,0.4-0.1,0.6-0.2C7,9.5,7.1,9.3,7.2,9.3c0.1,0,0.3,0.1,0.5,0.4l0.8-0.3
	C8.5,9.2,8.7,9,8.9,8.9c0,0,0.2,0.1,0.4,0.4c0.1-0.1,0.4-0.2,0.9-0.2l-0.1-0.3L11.6,8.4z M16.6,8.6l0.2,0.9l-2.7,0.7l-0.2-1
	L16.6,8.6z M13.5,9.1l0.3,1.5l-1.3,0.3l-0.4-1.5L13.5,9.1z M10.2,9.4c-0.1,0-0.2,0.1-0.3,0.3l0.4,1.5c0.1,0.1,0.2,0.1,0.4,0.2
	c0,0-0.1-0.2-0.1-0.5c-0.1-0.3-0.2-0.7-0.4-1.1C10.4,9.6,10.4,9.5,10.2,9.4C10.3,9.4,10.3,9.4,10.2,9.4z M8.7,9.6
	C8.3,9.6,8,9.7,7.9,9.8c0.1,0.1,0.3,0.3,0.6,0.4c0,0,0.1,0,0.2-0.1C8.9,10,9,10,9.1,9.9C9,9.8,8.9,9.7,8.7,9.6z M7.1,9.9
	C7,9.9,6.9,10,6.8,10S6.7,10,6.6,10s0,0-0.1,0.1s0,0.1,0,0.1c0,0,0.1,0.1,0.2,0.2c0.1,0.1,0.2,0.1,0.3,0.1c0.1,0,0.3-0.1,0.5-0.2
	C7.5,10.1,7.4,10,7.1,9.9z M5.4,11.6c-0.2,0-0.3,0.1-0.3,0.3c0,0.2,0.1,0.3,0.3,0.3c0.2,0,0.3-0.1,0.3-0.3
	C5.7,11.7,5.6,11.6,5.4,11.6z M12.3,12.2c1.2,0.8,2,1.3,2.3,1.6v0.6H9v-0.4c0.2-0.2,0.4-0.4,0.5-0.5v0.3c0.1,0,0.3,0,0.5,0
	c0.6,0,0.9-0.3,0.9-0.9c0-0.1,0-0.2-0.1-0.4l0.2-0.1c0.1,0,0.3,0,0.6-0.1C11.9,12.3,12.1,12.2,12.3,12.2z M12.2,12.5
	c-0.2,0-0.3,0.1-0.4,0.2l0.3,1h1.9L12.2,12.5z M6,13L6,13c0,1.3,0.6,2.2,1.7,2.7l0.1-0.2c0.4,0,0.6,0,0.7,0c0.1-0.3,0.1-0.6,0.3-0.9
	h6.7c0.1,0.3,0.2,0.5,0.3,0.8c0.1,0.3,0.1,0.6,0.1,1s0,0.6,0.1,0.8h3.5c-0.1,0.1-0.3,0.3-0.7,0.6c-0.3,0.3-0.6,0.5-0.8,0.7
	c-0.2,0.2-0.4,0.3-0.8,0.6c-0.3,0.2-0.6,0.4-1,0.6c-1.1,0.5-2.4,0.9-3.9,1h-0.3c-1.7-0.1-3-0.5-4.1-1c-0.3-0.2-0.6-0.3-0.9-0.6
	c-0.3-0.2-0.6-0.4-0.8-0.6S5.7,18.2,5.4,18s-0.5-0.5-0.7-0.6h3.4c0-0.1,0.1-0.4,0.1-1c-0.3,0-0.6-0.1-0.7-0.2V16
	c-1.2-0.7-1.8-1.6-1.8-3L6,13z M11.5,15.3v3h-0.1V16h-0.4v2.2H8.8v0.2c1.2,0.2,2.2,0.3,3.1,0.3v-2.9h0.3v2.9c0.9,0,1.9-0.1,3.1-0.3
	v-0.2h-2.1V16h-0.4v2.3h-0.1v-3h-0.6H12H11.5z"/>
</svg>
