<svg xmlns="http://www.w3.org/2000/svg" viewBox="0 -200 1000 1000"><path fill="currentColor" d="M646 350q23 29 36.5 65.5T696 493q0 47-18 88.5t-48.5 72-72 48.5-88.5 18q-41 0-77.5-13.5T326 669zM481 541q3 3 6 5.5t6 4.5q10 10 19 16 5 3 8.5 5.5t6.5 4.5q4 2 10 4 10 4 13-1 3-3 0-12-3-3-6-9-2-3-4.5-6.5T533 545q-3-5-7-9.5t-9-9.5l-10-10zm128 70q3-15 2-31 0-19-6-40-3-11-7.5-22.5T588 494q-1 5-1 10t-1 10q-2 8-4 13-1 7-4 7-1 0-4-4l-6-9q-2-3-3.5-6l-3.5-7-9-15q-2-4-4-7.5t-4-7.5l-27 27q5 8 10.5 15.5T538 536t10.5 15.5T558 567q4 7 7.5 13t5.5 11q4 9 2 13-8 11-31-1-24-12-67-49l-3-3-40 40q8 4 13 6l12 6 12 5q6 3 11.5 5.5T491 618t8.5 4 6.5 4q2 1 5 1 1 0 2 1 17 7 36 10 10 2 15 2 3 1 6.5 1h6.5q4 0 6.5-.5t5.5-1.5q4-2 8-6 8-9 12-22zM469 266q42 0 79.5 14t67.5 40L296 640q-26-30-40-67.5T242 493q0-47 18-88.5t48.5-72 72-48.5 88.5-18zm-78 242q-7-3-13-6t-11-5q-9-4-15-9-3-2-5.5-3.5T342 481q6 7 12 13l13 13q3 3 6.5 6t6.5 7zm20-18q-1-1-12.5-10T372 459t-29.5-24.5T321 416l80 83zm32-34q-4-3-7.5-6.5T428 443q-16-14-29.5-24.5T373 398q-14-11-27-20.5T321 359q9 12 19.5 24.5T362 410q10 11 21 25t25 29q3 4 6.5 7.5l6.5 6.5zm26-25q-5-5-10-8.5t-10-8.5q2 3 3.5 7t3.5 9l4 10zm0-371q90 0 170 34.5T778 188t93.5 139T906 497t-34.5 169.5-93.5 139T639 899t-170 34-170-34-139-93.5-93.5-139T32 497t34.5-170T160 188t139-93.5T469 60zm0 702q56 0 105-21t86-57.5 58-85.5 21-105-21-105-58-86-86-58-105-21-105 21-86 58-58 86-21 105 21 105 58 85.5 86 57.5 105 21z"/></svg>