<svg xmlns="http://www.w3.org/2000/svg" viewBox="0 -200 1000 1000"><path fill="currentColor" d="M465 61q90 0 170 34.5T774 189t93.5 138.5T902 497t-34.5 170T774 806t-139 93.5T465 934t-170-34.5T156 806 62.5 667 28 497t34.5-169.5T156 189t139-93.5T465 61zm0 824q80 0 150.5-30.5t123-83 83-123.5T852 497t-30.5-150.5-83-123-123-83T465 110t-150.5 30.5-123 83-83 123T78 497t30.5 151 83 123.5 123 83T465 885zm136-345q6 23 6 40 1 17-2 32-4 13-12 22-4 4-8 5-3 1-5.5 1.5t-6.5.5q-7 2-13 0-4-1-7.5-1t-7.5-1q-8-2-17-4.5t-19-5.5q-1 0-2-1-1 0-5-2-3-2-6.5-3.5T487 619t-10.5-4.5T465 609t-12-5.5-12-5.5q-5-2-13-6l40-41 3 3q22 19 38.5 31.5T538 604q24 11 31 0 2-4-2-13-2-5-5.5-11t-7.5-13q-5-7-9.5-14.5T534 536l-21-30 27-27q2 4 4 7.5t4 6.5q2 4 4.5 8t4.5 7q2 4 3.5 7.5t3.5 5.5q5 6 6 10 3 3 4 3 2 0 4-6 2-4 4-14 1-5 1-9.5t1-10.5q5 13 9.5 24t7.5 22zm-93 28q-5-3-9.5-7t-9.5-9q-3-2-6-4.5t-6-5.5l26-26q2 3 5 5.5t5 4.5q5 6 9 10.5t7 8.5q4 5 6.5 8t4.5 6q4 8 6 10 3 9 0 12-3 4-13 1-2-1-4.5-2t-5.5-3q-6-3-15-9zm-43-344q56 0 105 21t86 57.5 58 85.5 21 105-21 105-58 86-86 58-105 21-105-21-86-58-58-86-21-105 21-105 58-85.5 86-57.5 105-21zM238 493q0 42 14 80t40 67l320-320q-30-25-67.5-39.5T465 266q-47 0-88.5 18t-72 48.5-48.5 72-18 88.5zm227 227q47 0 88.5-17.5t72-48.5 48.5-72.5 18-88.5q0-41-13.5-77T642 351L322 670q29 23 65.5 36.5T465 720zM363 498q5 2 11 5t13 6l-11 11q-3-3-6.5-6t-6.5-7q-7-6-13-12.5T338 481q2 2 10 8 6 3 15 9zm-46-81q7 6 22 18l30 24 26.5 21 11.5 9-10 10zm52-18q12 9 25.5 20t29.5 25q4 3 7.5 6t7.5 7l-22 22q-3-4-6.5-7.5L404 465q-14-16-25-29.5T358 410q-11-14-21.5-26.5T317 359q12 9 25 19t27 21zm88 41l-4-10-4-9-4-7q5 5 10 9l10 8z"/></svg>