<svg xmlns="http://www.w3.org/2000/svg" viewBox="0 -200 1000 1000"><path fill="currentColor" d="M165 224l20-67 108-32 43 44-108 32-16 57 43 35q18 14 114 93 32 28 66 58 51 45 69 63 14 14 26.5 27.5T554 559t19 21 15 18q7 9 12.5 16t9.5 13q4 7 7 11.5t5 9.5q8 19 1 24-6 10-27 2-11-4-21-10-9-4-15-8l-16-11q-5-3-19-15l-21-18q-11-11-25-22-5-4-27-26-48-48-66-68-37-41-58-66-42-50-52-60-24-24-64-76l-8-11-8 26-43-43 10-34-16-18q12 6 18 10zm127 298l24 12q5 2 8.5 3t5.5 1q4 2 6 0 1-1 1-5-2-3-5-8t-9-12L147 331q29 26 57.5 52t57.5 52q13 11 25.5 22.5T313 481q14 12 27 24t27 23q14 12 26.5 24t25.5 23q9 8 48 42 89 77 139 102 26 13 42 13t24-11q3-7-6-27-10-23-27-50-8-15-18.5-31T598 579q-11-17-23.5-35T550 509q-30-42-64.5-87.5T412 325q35 29 64 55 6 5 12.5 10.5T501 402l12 12 12 11 11 10 10 10 9 9 7 7q6 6 9-3 3-6 7-20l2-16 2-19q13 24 24 45.5t22 41.5q5 8 8.5 15.5T645 521t9 14.5 8 12.5q5 11 12 20 4 7 7 7 6 0 10-13 2-6 3.5-13.5T697 533q2-9 3-19.5t2-21.5q12 26 20 50 7 19 15 46 14 47 14 83v36q1 7-6 29-10 31-23 46-6 8-18 12-5 2-11 3t-13 1q-7 1-13.5.5T652 797t-15.5-1.5T621 793q-36-8-74-21-2 0-15-6-6-2-14-5.5t-18-8.5-21.5-10-23.5-11l-51-24q-31-14-65.5-30.5T266 642q6 1 12.5 1.5T292 645q6 1 12.5 1t13.5 1q8 0 15 .5t15 .5q10 1 13 1 18-2 18-7 0-1-1-3-5-10-45-40-18-11-45-35-12-11-24-22.5T241 519q-25-25-52-55 8 7 22 16 6 4 14 9t18 10 22 10.5 27 12.5zm644-204l-54 54-72-243-243-72 54-54 243 71zm-122-52l-44 43-32-108-108-32 43-44 109 32zM102 74L345 3l54 54-243 72-71 243-55-54z"/></svg>