<?xml version="1.0" encoding="utf-8"?>
<!-- Generator: Adobe Illustrator 21.0.2, SVG Export Plug-In . SVG Version: 6.00 Build 0)  -->
<svg version="1.1" id="Layer_1" xmlns="http://www.w3.org/2000/svg" xmlns:xlink="http://www.w3.org/1999/xlink" x="0px" y="0px"
	 width="300px" height="300px" viewBox="0 0 300 300" style="enable-background:new 0 0 300 300;" xml:space="preserve">
<path d="M125.7,66.5c9.8,0.6,19.6,1,29.4,1.3c9.8,0.3,19.6,0.7,29.5,1.3c0,0.6,0.1,1.2,0.2,1.9c0.1,0.7,0.2,1.4,0.2,2h1.3v-0.4
	l2.6,2.6h0.4c0-0.6,0.1-0.9,0.2-1.1c0.1-0.1,0.2-0.4,0.2-0.7h0.5c9.2,7.8,18.4,15.5,27.5,23.2c9.1,7.7,18.3,15.2,27.5,22.7
	c0.6,0,1.1,0.1,1.5,0.2c0.5,0.1,1,0.2,1.5,0.2c3.2,0.6,5.8,1.6,7.8,3c0.9,0.9,1.6,1.9,2.2,3c0,0.6,0,1.6,0,3c0,1.4,0,2.9,0,4.3
	c0,1.4-0.1,2.8-0.4,4.1c-0.3,1.3-0.6,2.1-0.9,2.4c-1.2,2-3.4,3.4-6.7,4.1c-3.3,0.7-6.6,0.7-9.8-0.2c-0.8-0.3-1.9-0.8-3-1.5
	c-1.2-0.7-1.9-1.1-2.1-1.1c-2.9,1.2-4.9,2-6.1,2.6c2.3,1.4,4.2,2.7,5.9,3.9c1.6,1.2,3.3,2.4,5.2,3.7s3.4,2.4,4.5,3.2
	c1.2,0.6,2.7,1.5,4.8,2.8c2,1.3,3.2,2.5,3.5,3.7v4.3c0.3,0.3,1.1,0.6,2.4,1.1c1.3,0.4,1.9,0.8,1.9,1.1c0.6,0.9,1.1,1.8,1.5,2.8
	c0.5,1,1.1,1.8,2,2.4c2.3,1.7,3.9,3,4.8,3.9c0.8,0.3,1.9,0.7,3,1.3c1.1,0.9,2.1,1.8,3,2.8c0.8,1,1.9,2.1,3,3.2l5.6,5.6v0.4
	c1.4,1.2,2.6,2.2,3.7,3.3c1,1,2.1,2.1,3.2,3.2c0.6,0.6,0.7,2,0.5,4.3c-0.3,2.3-0.6,3.8-0.9,4.3c-0.6,0.6-1,0.9-1.3,0.9
	c-2,0-4-0.4-5.9-1.1c-1.9-0.7-3.7-1.4-5.4-1.9c-4.1-1.4-8-2.7-11.7-3.7c-3.8-1-7.4-2.2-10.8-3.7c-1.8-0.6-3.6-1.4-5.6-2.4
	c-2-1-3.3-2.2-3.9-3.7c0.3,0,0.5-0.1,0.5-0.2c0-0.2,0.1-0.2,0.4-0.2v-3c-0.9,0.3-1.7,0.7-2.6,1.1c-0.8,0.4-1.7,0.8-2.6,1.1
	c-1.4,0-3.3-0.7-5.6-2.2c-2.3-1.4-3.9-2.4-4.8-3c-4.3-2.3-8.6-4.6-12.8-6.9c-4.2-2.3-8.5-4.6-12.8-6.9c-6.6,2.6-13,5.3-19,8.2
	c0.6,0.6,1.9,1.8,4.1,3.7c2.1,1.9,3.4,3.1,3.7,3.7c-0.3,1.2-0.4,2.3-0.4,3.3s0,1.9,0,2.8c0.8-0.3,1.7-0.5,2.4-0.7
	c0.7-0.1,1.5-0.4,2.4-0.7c1.4,1.4,2.8,2.7,4.1,3.7c1.3,1,2.6,2.2,4.1,3.7c2.3,3.2,4.8,6.3,7.4,9.3c2.6,3,5,6.1,7.4,9.3
	c2,2.6,3.9,5,5.6,7.2c1.7,2.2,2.1,5.7,1.3,10.6c-2.6,0.6-4.8,0.3-6.5-0.9c-1.7-1.1-3.6-2.2-5.6-3c-4.9-2.3-9.7-4.7-14.3-7.2
	c-4.6-2.4-9-5.3-13-8.4c-2.6,0.6-4.7,0.2-6.1-1.3c-3.5,1.2-6.6,0.6-9.3-1.7s-5.1-4.2-7.1-5.6c-4.3-3.2-8.5-6.5-12.6-10
	c-4.1-3.5-8.2-6.9-12.5-10.4c-1.4-1.1-3.3-3-5.6-5.6c-2.3-2.6-4.2-4.2-5.6-4.8c-2,1.4-4.5,1.9-7.4,1.3c0.3,0.6,0.7,1.2,1.3,1.7
	c2-0.6,3.4,0.3,4.1,2.6c0.7,2.3,0.7,4.2-0.2,5.6c-1.4,0.6-2.7,1.1-3.7,1.7c-1,0.6-2.2,1.2-3.7,1.7c0.9,2.9,0.9,5.4,0,7.4
	c-0.9,2-2.3,3.5-4.1,4.5c-1.9,1-4.1,1.7-6.7,2c-2.6,0.3-5.1,0.1-7.4-0.4c-1.7-0.6-3.3-1.3-4.8-2.2c-1.4-0.9-2.5-2.2-3-3.9
	c-0.3-0.6-0.5-1.1-0.5-1.7s-0.1-1.2-0.4-1.7l-78-46.8v-6.5h0.9c0-3.2,0.7-6.6,2.1-10.4l2.6-11.7l2.6-10.4c0.6-0.9,1.3-1.5,2.1-1.9
	c0.9-0.4,1.6-1.4,2.2-2.8h2.6v0.4c0.9,2,1.2,5.5,1.1,10.4c-0.1,4.9-0.2,8.8-0.2,11.7c0,1.2-0.1,2.3-0.2,3.5c-0.1,1.1-0.1,2,0.2,2.6
	l0.4,0.4c0.6-0.3,1.7-0.4,3.2-0.4c1.6,0,3.3,0,5.2,0s3.7,0.1,5.4,0.2c1.7,0.2,3,0.4,3.9,0.7v0.9c0.6-0.6,2.4-0.7,5.4-0.4
	c3,0.3,5,0.6,5.9,0.9h4.8c4.3,3.2,8.8,6.7,13.4,10.6c4.6,3.9,9.1,7.4,13.4,10.6c1.4,1.2,2.8,2.2,4.1,3.2c1.3,1,2.7,2.1,4.1,3.3
	c0.6,0.3,0.7,0.5,0.4,0.7c-0.3,0.1-0.1,0.4,0.5,0.7l0.4-0.4c0,3.2-0.2,5.9-0.6,8.2c-0.5,2.3-0.7,4.8-0.7,7.4
	c2.9-0.9,6.1-1.2,9.5-0.9l-0.4-0.4c-0.6-1.1-1.3-2.2-2.1-3.2c-0.9-1-1.6-2.1-2.2-3.3c-0.6-2.3-0.5-4.2,0.2-5.6c0.7-1.4,2-2,3.7-1.7
	c-0.6-1.2-0.5-2.4,0.2-3.7c0.7-1.3,1.4-2.4,1.9-3.3c-1.4-1.4-2.7-2.7-3.9-3.9c-1.2-1.1-2.3-2.4-3.5-3.9c-0.6,0-1.1-0.1-1.5-0.2
	c-0.4-0.1-0.9-0.2-1.5-0.2c-0.6-0.9-1.1-1.7-1.7-2.4c-0.6-0.7-1.2-1.4-1.7-1.9c-2-2.3-4.1-4.7-6.1-7.2s-3.9-4.8-5.6-7.1
	c-1.4-1.4-2.7-3-3.7-4.5c-1-1.6-2.3-3.1-3.7-4.6c-0.3-4.9-0.4-9.7-0.4-14.5c0-4.8-0.1-9.6-0.4-14.5c0.3-0.9,1-1.7,2.1-2.4
	c1.2-0.7,2-1.4,2.6-2c0.3,0.3,0.7,0.4,1.3,0.4c0.8-0.9,2.1-1.5,3.7-2c1.6-0.4,3.1-0.4,4.5,0.2c1.2-0.6,2.3-1,3.2-1.3
	c1-0.3,2.3-0.6,3.7-0.9v-1.7c0.9-0.6,2.3-1.3,4.3-2.2c2-0.9,3.7-1.1,5.2-0.9l35.1,16.9c1.7,0.9,4.1,1.9,7.1,3c3,1.1,4.8,2.7,5.4,4.8
	c4.9,2.3,9.6,4.6,14.1,6.9c4.5,2.3,9,4.6,13.6,6.9c2.3,1.5,4.5,2.7,6.7,3.7c2.1,1,4.8,1.5,8,1.5c-0.3-1.1-0.6-2.2-1.1-3
	c-0.4-0.9-0.8-1.7-1.1-2.6c-1.2-2.6-2.2-5.5-3-8.7c-1.2-2.3-2.2-4.5-3-6.5c-0.9-2-1.3-4.6-1.3-7.8c-1.2-0.6-1.9-1-2.2-1.3V92
	c-9.8-2.6-19.6-5.1-29.2-7.6c-9.7-2.4-19.4-5-29.2-7.6c-0.9-0.9-1.2-2.6-0.9-5.2C124.7,69.1,125.1,67.4,125.7,66.5z"/>
</svg>
