<svg xmlns="http://www.w3.org/2000/svg" viewBox="0 -250 1000 1000"><path fill="currentColor" d="M291 299q34 2 68 3t68 3q0 2 .5 4.5t.5 4.5h3v-1l6 6h1q0-2 .5-2.5t.5-1.5h1q32 27 63.5 53.5T567 421q2 0 3.5.5t3.5.5q11 2 18 7 3 3 5 7v17l-1 9.5-2 5.5q-4 7-15.5 9.5T556 477q-3-1-7-3.5t-5-2.5q-10 4-14 6l4 2.5 9.5 6.5 12 8.5L566 502q4 2 11 6.5t8 8.5v10q1 1 5.5 2.5t4.5 2.5q2 3 3.5 6.5t4.5 5.5q8 6 11 9 3 1 7 3 4 3 7 6.5t7 7.5l13 13v1q5 4 8.5 7.5l7.5 7.5q2 2 1 10t-2 10q-2 2-3 2-7 0-13.5-2.5T634 614q-14-5-27-8.5t-25-8.5q-6-2-13-5.5t-9-8.5q1 0 1-.5t1-.5v-7q-3 1-6 2.5t-6 2.5q-5 0-13-5t-11-7q-15-8-29.5-16T467 536q-23 9-44 19 2 2 9.5 8.5t8.5 8.5q-1 4-1 7.5v6.5q3-1 5.5-1.5t5.5-1.5q5 5 9.5 8.5t9.5 8.5q8 11 17 21.5t17 21.5q7 9 13 16.5t3 24.5q-9 2-15-2t-13-7q-17-8-33-16.5T429 639q-9 2-14-3-12 4-21.5-4T377 619q-15-11-29-23t-29-24q-5-4-13-13t-13-11q-7 5-17 3 1 2 3 4 7-2 9.5 6t-.5 13q-5 2-8.5 4t-8.5 4q3 10 0 17t-9.5 10.5T246 614t-17-1q-6-2-11-5t-7-9q-1-2-1-4t-1-4L29 483v-15h2q0-11 5-24l6-27 6-24q2-3 5-4.5t5-6.5h6v1q3 7 2.5 24t-.5 27q0 4-.5 8t.5 6l1 1q2-1 7.5-1h12l12.5.5 9 1.5v2q2-2 12.5-1t13.5 2h11q15 11 31 24.5t31 24.5q5 4 9.5 7.5t9.5 7.5q2 1 1 1.5t1 1.5l1-1q0 11-1.5 19t-1.5 17q10-3 22-2l-1-1q-2-4-5-7.5t-5-7.5q-2-8 .5-13t8.5-4q-2-4 .5-8.5t4.5-7.5l-9-9-8-9q-2 0-3.5-.5t-3.5-.5q-2-3-4-5.5t-4-4.5q-7-8-14-16.5T192 442q-5-5-8.5-10.5T175 421q-1-17-1-33.5t-1-33.5q1-3 5-5.5t6-4.5q1 1 3 1 3-3 8.5-4.5t10.5.5q4-2 7.5-3t8.5-2v-4q3-2 10-5t12-2l81 39q6 3 16.5 7t12.5 11q17 8 32.5 16t31.5 16q8 5 15.5 8.5T452 426q-1-4-2.5-7t-2.5-6q-4-9-7-20-4-8-7-15t-3-18q-4-2-5-3v1q-34-9-67.5-17.5T290 323q-3-3-2-12t3-12z"/></svg>