<svg xmlns="http://www.w3.org/2000/svg" viewBox="0 -250 1000 1000"><path fill="currentColor" d="M727 622l-9 3-16-15 2-3-19-25h-3l-7-10q0-2-1-5-1-2-3-4l-4-4q0-8-2-14t-4-16H530l66 18q4 1 8 3 3 2 6 3t3 3q0 4-10 2l-10-2-120-19q1 4-2 8-2 3-7 6.5t-14 5.5q-9 4-16.5 1.5t-13.5-8-10-12.5-5-13l-5 2v4l4 8q2 5 3 11t2 17 1.5 21.5T412 608q1 11 1 21-2 2-4 3-5 2-7 1-5-3-8.5-5.5T386 618q-2-2-4.5-8.5T376 596q-4-8-8-17l-25-9q-5 0-10.5-4.5T319 559q-1 2-4 4-6 4-14 4-24 0-29-12h-2l-3-7-120 31q-9 3-17 5-7 2-13 2.5t-7-3.5q-3-4 8-9 4-2 12-4l48-19-121 13 2 8h4l1 10q1 1 3 4t4 13q1 1 1 2l-2 4-2-4v4l22 34h3l9 20-8 5-16-17 1-2-18-28h-4q-3-5-5-9-4-8-4-9l-5-5-2-12q-1-1-2-4-2-6-2-14-2 0-5-1-6-2-6-6-2-5 6-7.5t27-7.5q9-2 35-8t53-12q32-7 70-16-8-1-16-3t-16.5-4-18.5-4q-23-5-51-12-2-1-3-2-3-2-2-5 0-2 5.5-1.5t10.5.5q3 1 24.5 3t45.5 5q28 4 63 8-2 0-4-2-3-3-3-11t7.5-10 12.5 1l14 14 10 2v-30l5-2v-2l8-5q2 0 2-3v-3h6l2-12 2-2h4l-2-8h-2v-6h4l8 13 17 1v11q2 0 5 1 4 1 9 8 4 4 7.5 8.5t6.5 8.5q4 5 6 10h1q0-2 1-5 2-6 10-9 8-2 11.5 2.5T419 475l8 1 2 4h4l3 3h4l153-35 8-2q6-2 11 0 4 4 3.5 5t-8.5 5q-5 2-21.5 8T549 477q-23 8-50 17 41 2 78 6 32 3 63 6.5t48 7.5q11 3 12 5.5t-3 4.5q-4 3-13 5l1 7 5 1v10l3 1 3 19-1 1q-1 0-1 .5t-2-1.5q-3 0 0 3 0 1 1 2l20 29 4-1z"/></svg>