<?xml version="1.0" encoding="utf-8"?>
<!-- Generator: Adobe Illustrator 21.0.2, SVG Export Plug-In . SVG Version: 6.00 Build 0)  -->
<svg version="1.1" id="Layer_1" xmlns="http://www.w3.org/2000/svg" xmlns:xlink="http://www.w3.org/1999/xlink" x="0px" y="0px"
	 width="300px" height="300px" viewBox="0 0 300 300" style="enable-background:new 0 0 300 300;" xml:space="preserve">
<path d="M285.7,182.5l-3.5,1.2l-6.2-5.8l0.8-1.1l-7.4-9.7h-1.2l-2.7-3.9c0-0.5-0.1-1.1-0.4-1.9c-0.3-0.5-0.6-1-1.2-1.6
	c-0.5-0.5-1-1-1.5-1.5c0-2.1-0.3-3.9-0.8-5.4c-0.5-1.5-1-3.6-1.6-6.2h-50.7l25.5,7c1,0.3,2,0.6,3.1,1.2c0.8,0.5,1.5,0.9,2.3,1.2
	c0.8,0.3,1.2,0.6,1.2,1.1c0,1-1.3,1.3-3.9,0.8l-3.9-0.8l-46.4-7.4c0.3,1,0,2.1-0.8,3.1c-0.5,0.8-1.4,1.6-2.7,2.5
	c-1.3,0.9-3.1,1.6-5.4,2.1c-2.3,1-4.5,1.2-6.4,0.6c-2-0.6-3.7-1.7-5.2-3.1c-1.5-1.4-2.8-3-3.9-4.8c-1-1.8-1.7-3.5-1.9-5l-2,0.8v1.5
	c0.5,1,1,2.1,1.5,3.1c0.5,1.3,0.9,2.7,1.2,4.3c0.3,1.5,0.5,3.7,0.8,6.6c0.3,2.8,0.4,5.6,0.6,8.3c0.1,2.7,0.3,5.2,0.6,7.5
	c0.3,2.8,0.4,5.6,0.4,8.1c-0.5,0.5-1,0.9-1.5,1.2c-1.3,0.5-2.2,0.6-2.7,0.4c-1.3-0.8-2.4-1.5-3.3-2.1c-0.9-0.6-1.9-1.9-2.9-3.7
	c-0.5-0.5-1.1-1.6-1.7-3.3c-0.7-1.7-1.4-3.4-2.1-5.2c-1-2.1-2-4.3-3.1-6.6l-9.7-3.5c-1.3,0-2.6-0.6-4.1-1.7c-1.4-1.2-3.2-2-5.2-2.5
	c-0.3,0.5-0.8,1-1.5,1.5c-1.5,1-3.4,1.6-5.4,1.6c-6.2,0-10-1.6-11.2-4.6h-0.8l-1.2-2.7l-46.4,12c-2.3,0.8-4.5,1.4-6.6,1.9
	c-1.8,0.5-3.5,0.9-5,1c-1.5,0.1-2.5-0.3-2.7-1.4c-0.8-1,0.3-2.2,3.1-3.5c1-0.5,2.6-1,4.6-1.6l18.6-7.4l-46.8,5l0.8,3.1h1.5l0.4,3.9
	c0.3,0.3,0.7,0.8,1.2,1.6c0.5,0.8,1,2.4,1.5,5c0.3,0.3,0.4,0.5,0.4,0.8l-0.8,1.5l-0.8-1.5v1.5l8.5,13.2h1.2l3.5,7.7l-3.1,1.9
	l-6.2-6.6l0.4-0.8l-7-10.8h-1.6c-0.8-1.3-1.4-2.4-1.9-3.5c-1-2.1-1.5-3.2-1.5-3.5l-2-1.9l-0.8-4.6c-0.3-0.3-0.5-0.8-0.8-1.5
	c-0.5-1.5-0.8-3.4-0.8-5.4c-0.5,0-1.2-0.1-2-0.4c-1.5-0.5-2.3-1.3-2.3-2.3c-0.5-1.3,0.3-2.3,2.3-2.9c2.1-0.6,5.5-1.6,10.5-2.9
	c2.3-0.5,6.8-1.5,13.5-3.1c6.7-1.6,13.5-3.1,20.5-4.6c8.2-1.8,17.3-3.9,27.1-6.2c-2-0.3-4.1-0.6-6.2-1.1c-2.1-0.5-4.2-1-6.4-1.6
	c-2.2-0.5-4.6-1-7.1-1.5c-6-1.3-12.5-2.8-19.7-4.6c-0.5-0.3-0.9-0.5-1.2-0.8c-0.8-0.5-1-1.2-0.8-1.9c0-0.5,0.7-0.7,2.1-0.6
	c1.4,0.1,2.8,0.2,4.1,0.2c0.8,0.3,3.9,0.6,9.5,1.1c5.5,0.5,11.4,1.2,17.6,1.9c7.2,1,15.4,2.1,24.4,3.1c-0.5,0-1-0.3-1.6-0.8
	c-0.8-0.8-1.1-2.2-1.1-4.3c0-2.1,0.9-3.3,2.9-3.9c1.9-0.5,3.5-0.4,4.8,0.4l5.4,5.4l3.9,0.8v-11.6l2-0.8v-0.8l3.1-1.9
	c0.5,0,0.8-0.4,0.8-1.2v-1.2h2.3l0.8-4.6l0.8-0.8h1.6l-0.8-3.1h-0.8v-2.3h1.6l3.1,5l6.6,0.4v4.3c0.5,0,1.2,0.1,1.9,0.4
	c1,0.3,2.2,1.3,3.5,3.1c1,1,2,2.1,2.9,3.3s1.7,2.3,2.5,3.3c1,1.3,1.8,2.6,2.3,3.9h0.4c0-0.5,0.1-1.1,0.4-1.9
	c0.5-1.6,1.8-2.7,3.9-3.5c2.1-0.5,3.6-0.2,4.4,1c0.9,1.2,2.4,2.9,4.5,5.2l3.1,0.4l0.8,1.5h1.5l1.2,1.2h1.5l59.2-13.5l3.1-0.8
	c1.5-0.5,3-0.5,4.3,0c1,1,1.5,1.7,1.4,1.9c-0.1,0.3-1.2,0.9-3.3,1.9c-1.3,0.5-4.1,1.5-8.3,3.1c-4.3,1.6-9,3.2-14.1,5
	c-5.9,2.1-12.4,4.3-19.3,6.6c10.6,0.5,20.6,1.3,30.2,2.3c8.2,0.8,16.4,1.6,24.4,2.5s14.2,1.9,18.6,2.9c2.8,0.8,4.4,1.5,4.7,2.1
	c0.3,0.6-0.2,1.2-1.2,1.7c-1,0.8-2.7,1.4-5,1.9l0.4,2.7l2,0.4v3.9l1.2,0.4l1.1,7.4l-0.4,0.4c-0.3,0-0.4,0.1-0.4,0.2
	c0,0.1-0.3,0-0.8-0.6c-0.8,0-0.8,0.4,0,1.1c0,0.3,0.1,0.5,0.4,0.8l7.7,11.2l1.5-0.4L285.7,182.5z"/>
</svg>
