<?xml version="1.0" encoding="utf-8"?>
<!-- Generator: Adobe Illustrator 21.0.2, SVG Export Plug-In . SVG Version: 6.00 Build 0)  -->
<svg version="1.1" id="Layer_1" xmlns="http://www.w3.org/2000/svg" xmlns:xlink="http://www.w3.org/1999/xlink" x="0px" y="0px"
	 width="300px" height="300px" viewBox="0 0 300 300" style="enable-background:new 0 0 300 300;" xml:space="preserve">
<path d="M200.4,113.5c0,0.3,1.3,0.5,3.9,0.6c2.6,0.1,5.4,0.5,8.4,1c3.5,0.5,7.5,1.1,11.9,1.6l16.8,13.1l0.4,15.6L227,158.9
	l38.1,30.7l-0.8,1.6l2.5,2l-3.7,6.1l-23.7-13.1l-2,7l-3.7,0.8l-3.3-2.5l-4.9,2.5l8.2,6.5v4.5l13.9,10.6c1.4,0,2.7,0.4,4.1,1.2
	c3,1.4,5.6,3.4,7.8,6.1l9.8,13.1c0.3,0.3,0.4,0.7,0.4,1.2c0,1.1-0.1,1.8-0.4,2c-0.8,0.5-1.6,0.8-2.3,0.8c-0.7,0-1.8-0.4-3.5-1.2
	c-0.8-0.5-2-1.2-3.5-1.8c-1.5-0.7-2.9-1.4-4.3-2.3c-1.6-1.1-3.4-2-5.3-2.9l-2-2l-2-2l-2-2.5l-2.9-3.3l-4.1-4.1
	c-1.6-1.4-3.4-3-5.3-4.9l-10.2,1.6l-9.4-8.2v1.2c0,0.8,0.5,1.6,1.6,2.5c0.5,0.5,1.4,1.4,2.7,2.5c1.2,1.1,2.5,2.2,3.9,3.3
	s2.9,2.5,4.5,4.1l8.6,4.5l12.3,16l0.8,1.6c0.5,1.1,0.3,1.9-0.8,2.5s-2,0.7-2.7,0.4s-1.3-0.5-1.8-0.8c-0.3,0-1-0.3-2-1
	c-1.1-0.7-2.3-1.4-3.7-2.3c-1.6-1.1-3.4-2-5.3-2.9c-1.1-0.3-2.2-1-3.3-2c-2.5-1.9-4.4-4.2-5.7-7c-1.6-2.5-4-4.9-7-7.4
	c-1.4-1.1-3-2.3-4.9-3.7l-9.4,1.2L183.7,206h-1.2c-0.3,0-0.5-0.1-0.8-0.2c-0.3-0.1-0.3-0.2,0-0.2l-15.1-13.1c-1.6,0.3-3,0.4-4.1,0.4
	c-1.1,0.3-2,0.4-2.9,0.4c-0.8,0-1.1,0-0.8,0l-2,0.8l-7.4-6.5l-0.8-3.3l-4.5-4.1l-2.9,0.4l-6.1-5.7l-67.1,63l-35.6-36.8
	c-0.5,0-1-0.4-1.2-1.2c-0.8-1.4-0.8-3.3,0-5.7c0.3-1.4,0.8-3.4,1.4-6.1c0.7-2.7,1.3-5.4,1.8-8s1.1-4.8,1.6-6.5l0.8-2.7
	c-0.3,0.5-0.3,0.5,0-0.2c0.3-0.7,1.1-1.7,2.5-3.1c0.3-0.3,1.2-1.2,2.9-2.7s3.6-3.3,5.9-5.5c2.3-2.2,4.8-4.6,7.6-7.4s5.6-5.5,8.6-8.2
	c6.8-6.5,14.5-13.6,22.9-21.3l-20.9-10.2c-0.8-0.3-1.5-0.7-2-1.2c-0.5-0.5-1-1.1-1.4-1.6s-0.6-1.5-0.6-2.9c0-1.1-0.1-2.3-0.2-3.5
	s-0.2-2.3-0.2-3.1v-2.9l4.1-2c0.3-0.8,0.8-1.8,1.6-2.9c1.4-1.6,3.3-2.9,5.7-3.7c1.4-0.5,2.5-0.8,3.5-0.6c1,0.1,1.7,0.2,2.3,0.2
	c0.8,0.3,1.4,0.4,1.6,0.4l11.9-5.3v-2c0-1.1,0.4-2.3,1.2-3.7l0.8-1.6l1.2-1.6l1.2-1.6c0-0.3,0.3-0.5,0.8-0.8c0.8-0.8,2-1.4,3.7-1.6
	c1.4,0,3.4-0.3,6.1-0.8l3.3-0.8l1.6-4.1l9.8-1.6c-0.3-1.6-0.3-3,0-4.1c0-2.7,1-4.1,2.9-4.1l3.3,1.6c0.8,0.5,1.8,1.1,2.9,1.6l2.5,2.9
	l2.5-0.4h0.8c0.3,0,1.1,0.4,2.5,1.2c0.5,0.5,1.8,1.6,3.9,3.3c2,1.6,4.3,3.4,6.8,5.3c3,2.2,6.1,4.6,9.4,7.4l9.4,1.2l2.9,2.9l0.4,5.7
	l4.9,4.5l2,4.1L200.4,113.5z"/>
</svg>
