<svg xmlns="http://www.w3.org/2000/svg" viewBox="0 -250 1000 1000"><path fill="currentColor" d="M442 422q0 1 9.5 1.5T472 426q13 2 29 4l41 32 1 38-36 33 93 75-2 4 6 5-9 15-58-32-5 17-9 2-8-6-12 6 20 16v11l34 26q5 0 10 3 11 5 19 15l24 32q1 1 1 3 0 4-1 5-3 2-5.5 2t-8.5-3q-3-2-8.5-4.5T577 719q-6-4-13-7l-5-5-5-5-5-6-7-8-10-10q-6-5-13-12l-25 4-23-20v3q0 3 4 6 2 2 6.5 6t9.5 8 11 10l21 11 30 39 2 4q2 4-2 6t-6.5 1-4.5-2q-1 0-5-2.5t-9-5.5q-6-4-13-7-4-1-8-5-9-7-14-17-6-9-17-18-5-4-12-9l-23 3-40-33h-3q-1 0-2-.5t0-.5l-37-32q-6 1-10 1-4 1-7 1t-2 0l-5 2-18-16-2-8-11-10-7 1-15-14-164 154-87-90q-2 0-3-3-3-5 0-14 1-5 3.5-15t4.5-19.5 4-16l2-6.5q-1 2 0-.5t6-7.5q1-1 7-6.5T69.5 534 88 516t21-20q25-24 56-52l-51-25q-3-1-5-3t-3.5-4-1.5-7q0-4-.5-8.5t-.5-7.5v-7l10-5q1-3 4-7 5-6 14-9 5-2 8.5-1.5t5.5.5q3 1 4 1l29-13v-5q0-4 3-9l2-4 3-4 3-4q0-1 2-2 3-3 9-4 5 0 15-2l8-2 4-10 24-4q-1-6 0-10 0-10 7-10l8 4q3 2 7 4l6 7 6-1h2q1 0 6 3 2 2 9.5 8t16.5 13q11 8 23 18l23 3 7 7 1 14 12 11 5 10z"/></svg>