<?xml version="1.0" encoding="utf-8"?>
<!-- Generator: Adobe Illustrator 21.0.2, SVG Export Plug-In . SVG Version: 6.00 Build 0)  -->
<svg version="1.1" id="Layer_1" xmlns="http://www.w3.org/2000/svg" xmlns:xlink="http://www.w3.org/1999/xlink" x="0px" y="0px"
	 width="300px" height="300px" viewBox="0 0 300 300" style="enable-background:new 0 0 300 300;" xml:space="preserve">
<path d="M51.4,79.6l-0.8-24.4c0.3-0.8,0.6-1.5,0.8-2.1c0.6-1.1,1.4-1.4,2.5-0.8c0.6,0.6,1.6,1.5,3.2,2.9c1.5,1.4,3.2,2.8,4.8,4.2
	c1.7,1.7,3.6,3.5,5.9,5.5c0.6,0.8,1.1,1.8,1.7,2.9c1.1,2.5,1.8,5.5,2.1,8.8c0,2,0.1,3.7,0.2,5.3s0.4,3,0.6,4.4
	c0.3,1.4,0.6,2.7,0.8,3.8l15.6-4.2c0.8-2.5,1.8-4.8,2.9-6.7c0.8-1.7,1.9-3.2,3.2-4.4c1.3-1.3,2.7-2,4.4-2.3c1.7-0.6,3.2-0.1,4.6,1.3
	c0.3,0,0.9-0.8,1.9-2.5c1-1.7,3.4-3.2,7.4-4.6l-2.1-21c0-0.8,0.1-1.7,0.4-2.5c0.6-1.7,2-2.1,4.2-1.3l16.8,10.1
	c0.6,0,1.3,0.6,2.1,1.7c1.4,1.7,2.7,5.6,3.8,11.8c0.6,2,1,3.9,1.3,5.7c0.3,1.8,0.7,3.4,1.3,4.8c0.6,1.7,1,3.2,1.3,4.6
	c0,0.6,0.3,1.3,0.8,2.1c0.6,0.6,1.2,1.3,1.9,2.1s2,1.8,4,2.9c5,3.4,7.6,5.3,7.6,5.9l0.4,0.8v0.4l1.3,1.3l5.5-0.8l0.4-1.3l5-0.4
	l0.8,0.4l0.8-0.4l1.3-0.4l3.4-0.4l2.1,1.3h3.8c2,0,3.6,0.4,5,1.3c0-0.6,0.1-1.1,0.4-1.7c0.3-0.8,0.8-1.3,1.7-1.3
	c0.3,0.3,1,0.8,2.1,1.5c1.1,0.7,2.4,1.5,3.8,2.3l5,3.4l0.4,0.8l2.1,1.7l0.4-0.4l8,4.6l1.3,1.3l7.1,4.6v0.4l6.3,3.4v0.8
	c0,0.6-0.4,0.8-1.3,0.8c-0.6,0-1.7-0.6-3.4-1.7c-0.8-0.6-1.7-1.3-2.5-2.1h-1.7c-0.3,0-1.3-0.6-2.9-1.7c-0.8-0.6-1.5-1-2.1-1.3
	c0,0.3,0.1,0.6,0.4,0.8c0,0.3,0.1,0.6,0.2,0.8c0.1,0.3,0.2,0.6,0.2,0.8l7.6,5v1.7l5,3.4c1.4,1.1,3.2,2.2,5.5,3.4h1.7l5,3.4
	c0.3,0.3,0.4,0.7,0.4,1.3c0,1.1-0.1,1.8-0.4,2.1c-1.1,0.8-2.4,0.8-3.8,0c-0.6-0.3-0.9-0.5-1.1-0.6s-0.5-0.4-1.1-0.6
	c-0.6-0.3-1-0.6-1.3-0.8l-0.8-0.8c-0.3-0.3-0.4-0.7-0.4-1.3c-0.6-0.3-1.1-0.7-1.7-1.3s-1.7-1.4-3.4-2.5l-5-3.4h-1.7l-8-4.2
	c-0.3,0.3-0.7,0.4-1.3,0.4c-1.1,0-2-0.3-2.5-0.8c2,2.5,3.6,5,5,7.6c1.4,2.2,2.7,4.6,4,7.1c1.3,2.5,2.2,4.8,2.7,6.7
	c0,0.3,0.3,0.4,0.8,0.4h0.8l17.7,34.1l-0.8,1.7c1.7,2.8,3.2,5.6,4.6,8.4c1.4,2.2,2.7,4.5,3.8,6.7c1.1,2.2,2.1,3.9,2.9,5
	c0.8,1.4,2.1,3.2,3.8,5.3s3.6,4.4,5.7,6.9c2.1,2.5,4.3,4.9,6.7,7.1s4.7,4.1,6.9,5.5l-0.8,3.4l-26.1,15.1l-16-13.5l-1.7,0.4
	l12.6,13.5l-0.8,2.9L207,258.7c-2.5-2.2-5.3-4.8-8.4-7.6c-2.8-2.2-6-4.7-9.5-7.4c-3.5-2.7-7.2-5.3-11.1-7.8c-2-1.1-4.7-2.7-8.2-4.6
	c-3.5-2-7.4-4.1-11.6-6.5c-4.2-2.4-8.7-4.9-13.5-7.6c-4.8-2.7-9.5-5.3-14.3-7.8c-11.2-5.9-23.1-12.3-35.7-19.3l-37.8-21.9l-3.4-5
	l-2.1,1.3c0.3,0.6,0.4,1.3,0.4,2.1c0,1.7-0.6,3.1-1.7,4.2l2.1,2.5h0.8l0.8,2.5v0.8c0.3,0.3,0.4,0.6,0.4,0.8c0,0.8-0.1,1.4-0.4,1.7
	l0.8,1.7c0.3,0.6,0.6,1.2,0.8,1.9c0.3,0.7,0.7,1.3,1.3,1.9c0.8,1.7,1.8,3.5,2.9,5.5c0.3-0.3,0.7-0.3,1.3,0c0.8,0.6,1.7,1.8,2.5,3.8
	c0,0.6,0.1,1,0.2,1.3c0.1,0.3,0.2,0.6,0.2,0.8c0,0.3,0.1,0.4,0.4,0.4c-0.3,1.1-0.7,2.1-1.3,2.9c-1.1,1.7-2.7,1.7-4.6,0
	c-0.6-0.8-1-1.5-1.3-2.1l-0.8-1.7l-0.8-1.7v-2.5l-2.5-5.9c-0.8-1.7-1.7-3.5-2.5-5.5h-1.3c-0.8,0-1.3-0.1-1.3-0.4h-0.8
	c-0.3,0-0.6,0.1-0.8,0.4c-0.3,0-0.6-0.1-0.8-0.4c-0.8-0.8-1.5-1.7-2.1-2.5c-0.6-0.6-1.1-1.3-1.7-2.3c-0.6-1-1.1-1.9-1.7-2.7
	c-0.8-1.1-1.5-2.1-2.1-2.9l-2.5-5.5l-1.3-0.4l-2.1-4.2l0.4-0.4c0-0.3,0.3-0.4,0.8-0.4l0.8-0.4c-0.8-0.6-1.4-1.3-1.7-2.1
	c-0.8-1.1-0.7-2.7,0.4-4.6c-0.3-0.6-0.4-1.3-0.4-2.1c0-0.6,0.1-1.1,0.2-1.7s0.8-1.1,1.9-1.7c-0.3,0-0.4-0.3-0.4-0.8v-0.8
	c-0.3,0.3-0.6,0.3-0.8,0c-0.6,0-1.1-0.6-1.7-1.7c-0.3-0.3-0.4-0.7-0.4-1.3c0-0.3-0.1-0.4-0.4-0.4v-0.4c-0.3-0.6-0.4-1.1-0.4-1.7
	c0-1.1,0.4-1.8,1.3-2.1c0.6-0.6,1.5-0.1,2.9,1.3l0.4,0.8c0,0.3,0.1,0.4,0.4,0.4h1.3l0.4,2.9v2.1l0.4,0.8c0.6,0,1.1,0.3,1.7,0.8
	c0.6,0.6,1.4,1.7,2.5,3.4c0.6,0.3,1.1,0.7,1.7,1.3c1.1,1.1,1.7,2.7,1.7,4.6l1.3,4.2l2.9-0.4v-0.8c0-0.8,0.3-1.3,0.8-1.3
	c0.3,0,0.4,0.1,0.4,0.2c0,0.1,0.1,0.2,0.4,0.2c0,0.3,0.1,0.4,0.4,0.4l1.3-0.4c-0.6-2.8-1.4-5.5-2.5-8c-0.8-2.2-1.8-4.5-2.7-6.7
	c-1-2.2-2.2-4.2-3.6-5.9c0,0.3,1.4-0.8,4.2-3.2c2.8-2.4,5.6-4,8.4-4.8l-0.4-0.8c-0.6-0.6-0.8-1.4-0.8-2.5c-0.6-1.1-1-2.1-1.3-2.9
	l-3.4-5c-0.6-0.6-1.3-1.1-2.1-1.7c-1.4-0.8-2.5-2.1-3.4-3.8c-0.8-1.1-1.3-2.2-1.3-3.4v-0.8l-3.4-3.4c-2-2.5-2.9-4.6-2.9-6.3
	c0-0.8,0.1-2.2,0.2-4s0.7-3.6,1.7-5.5s2.4-3.6,4.2-5.3C45.5,81.3,48.1,80.1,51.4,79.6z"/>
</svg>
