<svg xmlns="http://www.w3.org/2000/svg" viewBox="0 -250 1000 1000"><path fill="currentColor" d="M67 336l-2-58q1-3 2-5 2-4 6-2 2 2 7.5 7T92 288q6 6 14 13 2 3 4 7 4 9 5 21 0 7 .5 12.5T117 352t2 9l37-10q3-9 7-16 3-6 7.5-10.5T181 319q6-2 11 3 1 0 4.5-6t17.5-11l-5-50q0-3 1-6 2-6 10-3l40 24q2 0 5 4 5 6 9 28 2 7 3 13.5t3 11.5q2 6 3 11 0 2 2 5 2 2 4.5 5t9.5 7q18 12 18 14l1 2v1l3 3 13-2 1-3 12-1 2 1 2-1 3-1 8-1 5 3h9q7 0 12 3 0-2 1-4 1-3 4-3 1 1 5 3.5t9 5.5l12 8 1 2 5 4 1-1 19 11 3 3 17 11v1l15 8v2q0 2-3 2-2 0-8-4-3-2-6-5h-4q-1 0-7-4-3-2-5-3 0 1 1 2 0 1 .5 2t.5 2l18 12v4l12 8q5 4 13 8h4l12 8q1 1 1 3 0 4-1 5-4 3-9 0-2-1-2.5-1.5T494 461t-3-2l-2-2q-1-1-1-3-2-1-4-3t-8-6l-12-8h-4l-19-10q-1 1-3 1-4 0-6-2 7 9 12 18 5 8 9.5 17t6.5 16q0 1 2 1h2l42 81-2 4q6 10 11 20 5 8 9 16t7 12q3 5 9 12.5t13.5 16.5 16 17 16.5 13l-2 8-62 36-38-32-4 1 30 32-2 7-71 40q-9-8-20-18-10-8-22.5-17.5T368 708q-7-4-19.5-11T321 681.5t-32-18-34-18.5q-40-21-85-46l-90-52-8-12-5 3q1 2 1 5 0 6-4 10l5 6h2l2 6v2q1 1 1 2 0 3-1 4l2 4q1 2 2 4.5t3 4.5q3 6 7 13 1-1 3 0 3 2 6 9 0 2 .5 3t.5 2 1 1q-1 4-3 7-4 6-11 0-2-3-3-5l-2-4-2-4v-6l-6-14q-3-6-6-13h-3q-3 0-3-1h-2q-1 0-2 1-1 0-2-1-3-3-5-6-2-2-4-5.5t-4-6.5q-3-4-5-7l-6-13-3-1-5-10 1-1q0-1 2-1l2-1q-3-2-4-5-3-4 1-11-1-2-1-5 0-2 .5-4t4.5-4q-1 0-1-2v-2q-1 1-2 0-2 0-4-4-1-1-1-3 0-1-1-1v-1q-1-2-1-4 0-4 3-5 2-2 7 3l1 2q0 1 1 1h3l1 7v5l1 2q2 0 4 2t6 8q2 1 4 3 4 4 4 11l3 10 7-1v-2q0-3 2-3 1 0 1 .5t1 .5q0 1 1 1l3-1q-2-10-6-19-3-8-6.5-16T49 471q0 1 10-7.5T79 452l-1-2q-2-2-2-6-2-4-3-7l-8-12q-2-2-5-4-5-3-8-9-3-4-3-8v-2l-8-8q-7-9-7-15 0-3 .5-9.5t4-13 10-12.5 18.5-8z"/></svg>