<svg xmlns="http://www.w3.org/2000/svg" viewBox="0 -250 1000 1000"><path fill="currentColor" d="M186 192q2-1 13.5 0t13.5 1 4 1.5 4 2.5h4q1 0 3-1l10 2q10 2 11 2 2 0 4 2l3 3q2 1 11 6t13 7 13.5 11 13.5 14q4 4 4 8.5v6.5l-.5 2.5-.5 1.5v2l6 1v1q0 1 1 1h2q3 3-2 3h-2q-1 0-2-1l-1 1q0 1-1 1l-8-1v2q-1 2-3 1t-4-1q-1 0-1-.5t-1-.5h-1l-28 8h-17l4 32 36 45-1 5h3l5 8-6 4-10 1 6 4-2 26 48-9v-1q0-2 1-3 1-3 6-3h4q9 3 17 6 7 2 12.5 4t7.5 2l2 2q0 1 1 2l28 10 3 2 5 2 2 1 21 7 2-1q3 0 5 2l1 1q0 2 2 2 1 1 0 2t-2 1h-3q-1 0-2-1 0 1-1 1h-2q-1 0-1-2v-2l-4-1q-5-1-9-3-2 0-6-2-2-1-3-1h-3l-13-5h-5q-1 0-2-1-4-1-8-3-6-3-9-3-1 0-5 2-2 2-3.5 1.5t-3.5-.5q-1 0-3-2-1-1-2-1l-78 33v21q-2-1-5-2-2-1-4.5-2t-3.5-1q-3 0-5 2l-1 1q3 0 7 2 2 1 4 3l16 11 3 5v6q-10 4-19 8l-20 8q0 2-1 10t-3 16q-2 10-3 22-8 49-14 89-5 34-9.5 62t-4.5 29q2 2 5 6.5t4 4.5q7 4 16 11t11 9q2 3 1 4l-2 2 2 4 8 6q3 2 5 4.5t3 2.5l2 2q0 1 1 2l31 24h2q2 1 3 2l3 3q0 1 .5 1t.5 1v2q0 1-2 1h-1q-2 0-5-3-3-1-3-2v-1l-32-24h-2l-6-5v5l8 6v1h-2l-8-5v3l9 7h3l2 2q1 1 1 2 1 0 1 1 0 2 1 2v1l-1 1-5-2h-3q-1-1-1-3v-1l-10-8-4 2-11-1q-9-6-15-11-12-9-17-14-4-3-11.5-10.5L189 755l-8-11-2-11q0-2 5-5 2-1 4-1l6-7-17-245q-29 8-51 14-20 5-35.5 9T74 502q2 2 2 3t-1 2q2 1 5 3 6 4 8 5 1 1 2 1t2 1 1 2l11 6 3 3 18 11q1-1 3-1h2v1q2 1 2 1.5t1 1.5q0 1 1 2 2 1 2 2.5t-1 1.5h-6q-1 0-2-1t-1 0q-3-1-3-3v-2l-19-11-3-1-11-6-1 1-24-15q-2 1-3 2-2 1-4 1-1 1-2 1h-1l-33-20v-3q0-2-.5-3t.5-3q1-4 9-7 5 0 7 1t3 2l111-47v-5l3-1 1-2 13-5q-5-2-9-4t-8-3-6-3q-4-1-4-4v-1q-1-7-1-12-1-5-1-9.5v-17l3-12.5q3-4 9-6 3-1 6 0l8-6q3-6 11-6h7v-3l-18-10 5-4 5-57q-5-3-11.5-9.5T154 242t-5-10l-2-10q0-5 4.5-10.5t6.5-7.5q1-1 5.5-3t9.5-4q6-3 13-5z"/></svg>