<?xml version="1.0" encoding="utf-8"?>
<!-- Generator: Adobe Illustrator 21.0.2, SVG Export Plug-In . SVG Version: 6.00 Build 0)  -->
<svg version="1.1" id="Layer_1" xmlns="http://www.w3.org/2000/svg" xmlns:xlink="http://www.w3.org/1999/xlink" x="0px" y="0px"
	 width="300px" height="300px" viewBox="0 0 300 300" style="enable-background:new 0 0 300 300;" xml:space="preserve">
<path d="M129.3,20.1c0.5-0.3,2.4-0.3,5.5,0c3.1,0.3,5,0.4,5.5,0.4s1.1,0.2,1.6,0.6c0.5,0.4,1.1,0.8,1.6,1h1.6c0.3,0,0.7-0.1,1.2-0.4
	l4.1,0.8c2.7,0.5,4.2,0.8,4.5,0.8c0.5,0,1.1,0.3,1.6,0.8l1.2,1.2c0.5,0.3,2.1,1.1,4.5,2.5c2.5,1.4,4.2,2.3,5.3,2.9
	c1.1,0.5,2.9,2.1,5.5,4.5c2.6,2.5,4.5,4.4,5.5,5.8c1.1,1.1,1.6,2.3,1.6,3.5v2.7l-0.2,1l-0.2,0.6v0.8l2.5,0.4v0.4
	c0,0.3,0.1,0.4,0.4,0.4h0.8c0.8,0.8,0.5,1.2-0.8,1.2h-0.8c-0.3,0-0.5-0.1-0.8-0.4l-0.4,0.4c0,0.3-0.1,0.4-0.4,0.4l-3.3-0.4v0.8
	c-0.3,0.5-0.7,0.7-1.2,0.4c-0.5-0.3-1.1-0.4-1.6-0.4c-0.3,0-0.4-0.1-0.4-0.2c0-0.1-0.1-0.2-0.4-0.2h-0.4l-11.5,3.3h-7l1.6,13.1
	l14.8,18.5l-0.4,2.1h1.2l2.1,3.3l-2.5,1.6l-4.1,0.4l2.5,1.6l-0.8,10.7l19.7-3.7v-0.4c0-0.5,0.1-1,0.4-1.2c0.3-0.8,1.1-1.2,2.5-1.2
	h1.6c2.5,0.8,4.8,1.6,7,2.5c1.9,0.5,3.6,1.1,5.1,1.6s2.5,0.8,3.1,0.8l0.8,0.8c0,0.3,0.1,0.5,0.4,0.8l11.5,4.1l1.2,0.8l2.1,0.8
	l0.8,0.4l8.6,2.9l0.8-0.4c0.8,0,1.5,0.3,2.1,0.8l0.4,0.4c0,0.5,0.3,0.8,0.8,0.8c0.3,0.3,0.3,0.5,0,0.8c-0.3,0.3-0.5,0.4-0.8,0.4
	h-1.2c-0.3,0-0.5-0.1-0.8-0.4c0,0.3-0.1,0.4-0.4,0.4H234c-0.3,0-0.4-0.3-0.4-0.8v-0.8L232,117c-1.4-0.3-2.6-0.7-3.7-1.2
	c-0.5,0-1.4-0.3-2.5-0.8c-0.5-0.3-1-0.4-1.2-0.4h-1.2l-5.3-2.1H216c-0.3,0-0.5-0.1-0.8-0.4c-1.1-0.3-2.2-0.7-3.3-1.2
	c-1.6-0.8-2.9-1.2-3.7-1.2c-0.3,0-1,0.3-2.1,0.8c-0.5,0.5-1,0.8-1.4,0.6s-0.9-0.2-1.4-0.2c-0.3,0-0.7-0.3-1.2-0.8
	c-0.3-0.3-0.5-0.4-0.8-0.4l-32,13.6v8.6c-0.5-0.3-1.2-0.5-2.1-0.8c-0.5-0.3-1.2-0.5-1.8-0.8c-0.7-0.3-1.2-0.4-1.4-0.4
	c-0.8,0-1.5,0.3-2.1,0.8l-0.4,0.4c0.8,0,1.8,0.3,2.9,0.8c0.5,0.3,1.1,0.7,1.6,1.2l6.6,4.5l1.2,2.1v2.5c-2.7,1.1-5.3,2.2-7.8,3.3
	l-8.2,3.3c0,0.5-0.1,1.9-0.4,4.1c-0.3,2.2-0.7,4.4-1.2,6.6c-0.5,2.7-1,5.8-1.2,9c-2.2,13.4-4.1,25.6-5.8,36.6
	c-1.4,9.3-2.7,17.8-3.9,25.5c-1.2,7.7-1.8,11.6-1.8,11.9c0.5,0.5,1.2,1.4,2.1,2.7c0.8,1.2,1.4,1.8,1.6,1.8c1.9,1.1,4.1,2.6,6.6,4.5
	c2.5,1.9,4,3.1,4.5,3.7c0.5,0.8,0.7,1.4,0.4,1.6l-0.8,0.8l0.8,1.6l3.3,2.5c0.8,0.5,1.5,1.2,2.1,1.8c0.5,0.7,1,1,1.2,1l0.8,0.8
	c0,0.3,0.1,0.5,0.4,0.8L179,276h0.8c0.5,0.3,1,0.5,1.2,0.8l1.2,1.2c0,0.3,0.1,0.4,0.2,0.4c0.1,0,0.2,0.1,0.2,0.4v0.8
	c0,0.3-0.3,0.4-0.8,0.4h-0.4c-0.5,0-1.2-0.4-2.1-1.2c-0.8-0.3-1.2-0.5-1.2-0.8v-0.4l-13.1-9.9h-0.8l-2.5-2.1v2.1l3.3,2.5v0.4h-0.8
	l-3.3-2.1v1.2l3.7,2.9h1.2l0.8,0.8c0.3,0.3,0.4,0.5,0.4,0.8c0.3,0,0.4,0.1,0.4,0.4c0,0.5,0.1,0.8,0.4,0.8v0.4l-0.4,0.4l-2.1-0.8
	h-1.2c-0.3-0.3-0.4-0.7-0.4-1.2V274l-4.1-3.3l-1.6,0.8l-4.5-0.4c-2.5-1.6-4.5-3.1-6.2-4.5c-3.3-2.5-5.6-4.4-7-5.8
	c-1.1-0.8-2.7-2.3-4.7-4.3l-5.1-5.1l-3.3-4.5l-0.8-4.5c0-0.5,0.7-1.2,2.1-2.1c0.5-0.3,1.1-0.4,1.6-0.4l2.5-2.9l-7-100.6
	c-7.9,2.2-14.9,4.1-21,5.8c-5.5,1.4-10.3,2.6-14.6,3.7s-6.5,1.6-6.8,1.6c0.5,0.5,0.8,1,0.8,1.2c0,0.3-0.1,0.5-0.4,0.8
	c0.5,0.3,1.2,0.7,2.1,1.2c1.6,1.1,2.7,1.8,3.3,2.1c0.3,0.3,0.5,0.4,0.8,0.4s0.5,0.1,0.8,0.4c0.3,0.3,0.4,0.5,0.4,0.8l4.5,2.5
	l1.2,1.2l7.4,4.5c0.3-0.3,0.7-0.4,1.2-0.4h0.8v0.4c0.5,0.3,0.8,0.5,0.8,0.6c0,0.1,0.1,0.3,0.4,0.6c0,0.3,0.1,0.5,0.4,0.8
	c0.5,0.3,0.8,0.6,0.8,1s-0.1,0.6-0.4,0.6h-2.5c-0.3,0-0.5-0.1-0.8-0.4s-0.4-0.3-0.4,0c-0.8-0.3-1.2-0.7-1.2-1.2v-0.8l-7.8-4.5
	l-1.2-0.4l-4.5-2.5l-0.4,0.4l-9.9-6.2c-0.5,0.3-1,0.5-1.2,0.8c-0.5,0.3-1.1,0.4-1.6,0.4c-0.3,0.3-0.5,0.4-0.8,0.4h-0.4l-13.6-8.2
	v-1.2c0-0.5-0.1-1-0.2-1.2c-0.1-0.3-0.1-0.7,0.2-1.2c0.3-1.1,1.5-2.1,3.7-2.9c1.4,0,2.3,0.1,2.9,0.4c0.5,0.3,1,0.5,1.2,0.8
	l45.6-19.3v-2.1l1.2-0.4l0.4-0.8l5.3-2.1c-1.4-0.5-2.6-1.1-3.7-1.6s-2.2-1-3.3-1.2c-1.1-0.3-1.9-0.7-2.5-1.2
	c-1.1-0.3-1.6-0.8-1.6-1.6V108c-0.3-1.9-0.4-3.6-0.4-4.9c-0.3-1.4-0.4-2.7-0.4-3.9v-7l1.2-5.1c0.8-1.1,2.1-1.9,3.7-2.5
	c0.8-0.3,1.6-0.3,2.5,0l3.3-2.5c0.8-1.6,2.3-2.5,4.5-2.5h2.9v-1.2l-7.4-4.1l2.1-1.6l2.1-23.4c-1.4-0.8-2.9-2.1-4.7-3.9
	c-1.8-1.8-3.2-3.4-4.3-4.7c-1.1-1.4-1.8-2.7-2.1-4.1l-0.8-4.1c0-1.4,0.6-2.8,1.8-4.3c1.2-1.5,2.1-2.5,2.7-3.1c0.3-0.3,1-0.7,2.3-1.2
	c1.2-0.5,2.5-1.1,3.9-1.6C125.6,21.3,127.4,20.6,129.3,20.1z"/>
</svg>
