<?xml version="1.0" encoding="utf-8"?>
<!-- Generator: Adobe Illustrator 21.0.2, SVG Export Plug-In . SVG Version: 6.00 Build 0)  -->
<svg version="1.1" id="Layer_1" xmlns="http://www.w3.org/2000/svg" xmlns:xlink="http://www.w3.org/1999/xlink" x="0px" y="0px"
	 width="300px" height="300px" viewBox="0 0 300 300" style="enable-background:new 0 0 300 300;" xml:space="preserve">
<path d="M123.2,54.9l9.1,7.5l5.1-0.4l12.6,10.7l17.4,25.7v1.6c0,0.5,0.1,1.1,0.2,1.8s0.2,1.4,0.2,2.2c-0.3,1.1-0.4,1.9-0.4,2.6
	c0,0.7-0.1,1.3-0.4,1.8c-0.3,0.8-0.5,1.4-0.8,2c-0.3,1.1-0.8,2.1-1.6,3.2c-1.6,2.4-3.8,4.3-6.7,5.9v3.2h1.2c0.3,0.3,0.7,0.5,1.2,0.8
	l1.6,0.8c1.3-0.3,2.8-0.4,4.3-0.4c1.3,0.3,2.8,0.7,4.3,1.2s3,1.6,4.3,3.2c1.3,1.8,2.2,3.6,2.6,5.3s0.6,3.4,0.6,4.9
	c0,1.8-0.3,3.6-0.8,5.1l3.6,7.1l13,11.8l7.1,1.6l7.1-2l4.7,1.2c0.3,0,0.4,0.1,0.4,0.4c0,0.5-0.3,0.8-0.8,0.8h-1.6l2,3.9l0.4,1.6
	l0.8,0.8l0.8,0.8l3.9-0.4l4.7,1.2h0.4c0.3,0.3,0.4,0.5,0.4,0.8c0,0.3-0.5,0.4-1.6,0.4c-0.5,0-0.9-0.1-1.2-0.4l1.2,2l6.7,2.8
	c0.3,0,0.5,0.1,0.8,0.4l0.8,0.8c-0.3,0.3-0.7,0.4-1.2,0.4H229l-5.1-1.6l-0.4,1.6l8.3,6.3c0,0.3,0.1,0.5,0.4,0.8
	c0.3,0.3,0.4,0.6,0.4,1s0.1,0.9,0.4,1.4c0.3,1.1,0.6,2.5,1,4.3s0.3,3.4-0.2,4.7c0,0.3,0.4,1,1.2,2.2c0.8,1.2,1.7,2.4,2.8,3.8
	c1.1,1.6,2.5,3.3,4.3,5.1c0.3,0.5,0.7,1.1,1.2,1.6c1.1,1.1,2.6,1.6,4.7,1.6h19.7c1.3-0.3,2.5,0.1,3.6,1.2c1.1,0.8,2.1,2,3.2,3.8
	c1.1,1.7,1.8,4.3,2.4,7.7l1.2,1.2v4.7l-1.2,0.4c0,0.8-0.1,1.6-0.4,2.4c-0.5,1.8-1.8,3.2-3.9,3.9c-1.3,0.5-2.9,1.2-4.7,2
	s-3.8,1.6-5.9,2.4c-2.4,1.1-4.7,2-7.1,2.8l-0.8,1.2l-13.4,2.8l-0.4-0.8l-20.1-0.4c-0.8,0.3-1.7,0.3-2.8,0c-2.1-0.5-3.4-1.7-3.9-3.6
	c-1.3-2.6-2.1-4.3-2.4-5.1s-0.5-1.3-0.8-1.6l-3.9-2.8c-0.5,0-0.9-0.1-1.2-0.4c-0.8-0.3-1.3-0.9-1.6-2c-0.3-0.5,0-1.2,0.8-2
	c0.3-0.3,0.5-0.4,0.8-0.4l0.4-3.6l-2.8-1.2c-0.5,0-1.1-0.3-1.6-0.8c-0.8-0.8-1.2-2.4-1.2-4.7l-2,0.4l-9.9-7.9h-1.6l-9.1-5.1
	l-1.6,1.6c-1.1,1.1-2.2,1.1-3.6,0c-1.3-0.5-2-1.3-2-2.4v-1.2l-1.2-1.2c-0.3,0.3-0.7,0.4-1.2,0.4c-1.1,0-2-0.4-2.8-1.2
	c-0.8-0.5-1.2-1.2-1.2-2c0-0.3,0.1-0.7,0.4-1.2l-1.2-0.8c-0.3,0.3-0.7,0.4-1.2,0.4c-0.8,0-1.6-0.4-2.4-1.2c-0.8-0.5-1.2-1.3-1.2-2.4
	v-1.2l-1.2-0.4H156c-1.1,0-2-0.4-2.8-1.2c-0.8-0.5-1.2-1.2-1.2-2c0-0.3,0.1-0.7,0.4-1.2l-0.8-2l-4.7-3.9v-3.2l-39.1-19.7l-9.1,1.6
	l-14.2-8.3l-1.6,1.6h-2l-2.4,0.8l-1.2-0.8l-7.1,0.8l-8.7-1.2h-5.1l-0.8-1.2c-1.1,0.3-2,0.3-2.8,0c-1.8-0.5-2.8-1.6-2.8-3.2h-1.6
	L34,138.6l-2-0.8l-0.4-0.4l0.8-3.6l-8.7-7.5c-0.8-1.1-1.3-2.2-1.6-3.6s-0.2-2.8,0.2-4.3s1.4-3.4,3-5.5c2.9-3.2,6.1-4.5,9.5-3.9
	c1.6,0.3,3,0.8,4.3,1.6l9.1,7.9l-0.4-4.3l-2-1.2l0.8-4.3l-7.5-5.5L36,97.5l-2.8-2l1.2-3.2L26.5,86c-1.1-1.3-1.8-2.6-2.4-3.9
	c-0.5-1.3-0.7-2.8-0.4-4.5c0.3-1.7,1.2-3.6,2.8-5.7c1.6-2.1,3.2-3.5,4.9-4.1c1.7-0.7,3.4-0.9,4.9-0.6c1.6,0.3,3.3,1.1,5.1,2.4
	l8.7,7.5c-0.3-1.6-0.3-3,0-4.3s0.7-2.7,1.2-4.1c0.5-1.4,1.7-2.8,3.6-4.1c1.6-1.3,3.1-2,4.5-2c1.4,0,2.8,0.1,4.1,0.4
	c1.3,0.5,2.8,1.1,4.3,1.6l10.7,9.1c-0.5-1.6-0.8-3.2-0.8-4.7c0-1.3,0.3-2.9,1-4.7s2-3.6,4.1-5.1c1.8-1.6,3.6-2.4,5.3-2.6
	c1.7-0.1,3.2,0,4.3,0.4s2.1,0.9,2.8,1.6l1,1l8.7,7.1c-0.5-1.3-0.7-2.8-0.4-4.3c0.3-1.3,0.7-2.7,1.4-4.1s2-2.8,4.1-4.1
	c2.1-1.3,3.9-2,5.3-2c1.4,0,2.8,0.3,4.1,0.8C121,53,122.2,53.8,123.2,54.9z"/>
</svg>
