<svg xmlns="http://www.w3.org/2000/svg" viewBox="0 -250 1000 1000"><path fill="currentColor" d="M288 266l23 19 13-1 32 27 44 65v4q0 2 .5 4.5t.5 5.5q-1 4-1 6.5t-1 4.5q-1 3-2 5-1 4-4 8-6 9-17 15v8h3q1 1 3 2l4 2q5-1 11-1 5 1 11 3t11 8q5 7 6.5 13.5T427 477q0 7-2 13l9 18 33 30 18 4 18-5 12 3q1 0 1 1 0 2-2 2h-4l5 10 1 4 2 2 2 2 10-1 12 3h1q1 1 1 2t-4 1q-2 0-3-1l3 5 17 7q1 0 2 1l2 2q-1 1-3 1h-2l-13-4-1 4 21 16q0 1 1 2t1 2.5 1 3.5q1 4 2.5 11t-.5 12q0 1 3 5.5t7 9.5q4 6 11 13 1 2 3 4 4 4 12 4h50q5-1 9 3 4 3 8 9.5t6 19.5l3 3v12l-3 1q0 3-1 6-2 7-10 10-5 2-12 5t-15 6q-9 4-18 7l-2 3-34 7-1-2-51-1q-3 1-7 0-8-2-10-9-5-10-6-13t-2-4l-10-7q-2 0-3-1-3-1-4-5-1-2 2-5 1-1 2-1l1-9-7-3q-2 0-4-2-3-3-3-12l-5 1-25-20h-4l-23-13-4 4q-4 4-9 0-5-2-5-6v-3l-3-3q-1 1-3 1-4 0-7-3-3-2-3-5 0-1 1-3l-3-2q-1 1-3 1-3 0-6-3-3-2-3-6v-3l-3-1h-3q-4 0-7-3-3-2-3-5 0-1 1-3l-2-5-12-10v-8l-99-50-23 4-36-21-4 4h-5l-6 2-3-2-18 2-22-3h-13l-2-3q-4 1-7 0-7-2-7-8h-4l-37-31-5-2-1-1 2-9-22-19q-3-4-4-9t.5-11 7.5-14q11-12 24-10 6 1 11 4l23 20-1-11-5-3 2-11-19-14-8-14-7-5 3-8-20-16q-4-5-6-10t-1-11.5 7-14.5 12.5-10.5T68 297t13 6l22 19q-1-6 0-11t3-10.5 9-10.5q6-5 11.5-5t10.5 1q5 2 11 4l27 23q-2-6-2-12 0-5 2.5-12t10.5-13q7-6 13.5-6.5t11 1 7 4l2.5 2.5 22 18q-2-5-1-11 1-5 3.5-10.5T255 263t13.5-5 10.5 2 9 6z"/></svg>