<?xml version="1.0" encoding="utf-8"?>
<!-- Generator: Adobe Illustrator 21.0.2, SVG Export Plug-In . SVG Version: 6.00 Build 0)  -->
<svg version="1.1" id="Layer_1" xmlns="http://www.w3.org/2000/svg" xmlns:xlink="http://www.w3.org/1999/xlink" x="0px" y="0px"
	 width="300px" height="300px" viewBox="0 0 300 300" style="enable-background:new 0 0 300 300;" xml:space="preserve">
<path d="M56.2,75l28.7,9.4c5.5-2.6,10.6-5.1,15.3-7.5c3.9-2.1,7.7-4,11.4-5.7c3.7-1.7,6-2.8,7.1-3.3c0.3-1.8,0.8-3.1,1.6-3.9
	c0.8-0.8,1.6-1.3,2.4-1.6c1-0.3,2.1-0.3,3.1,0h3.5l3.1-0.4h17.7l45.6,19.6l0.4,3.1l18.9,7.1c4.7,1.8,9.2,3.5,13.4,4.9
	c4.2,1.4,6.7,2.4,7.5,2.9c0.8,0.8,1,1.6,0.8,2.4c-0.3,0.5-0.7,0.9-1.2,1.2l-38.9-14.5l-6.7-1.2l-1.2,1.2c4.7,1.8,9.2,3.4,13.4,4.7
	c3.7,1.3,7.1,2.5,10.2,3.5s5.1,1.8,5.9,2.4c1.8,2.1,2.2,4.4,1,6.9s-2.3,4.4-3.3,5.7c-0.8,0.8-2.1,1.2-3.9,1.2c-1,0-2-0.1-2.8-0.4
	l-28.7-10.6l-9,17.7l13,4.7h3.9c0.5,0,0.9,0.3,1,1c0.1,0.7,0.5,1,1,1c0.3,0.3,0.7,0.6,1.4,1c0.7,0.4,0.7,0.9,0.2,1.4l-0.8,0.8
	c-0.3,0.3-0.5,0.4-0.8,0.4l47.9,25.1l2.8,0.8c2.9,1.6,5.6,3,8.2,4.3c2.1,1.3,4.3,2.7,6.7,4.1c2.4,1.4,4.5,2.7,6.3,3.7
	c3.4,2.1,6.3,4.8,8.6,8.1s4.1,5.6,5.1,6.9c0.5,2.1,0.2,3.5-1,4.3c-1.2,0.8-2.4,1.4-3.7,2c-4.7-0.5-9.3-1.4-13.8-2.6
	c-4.5-1.2-8.4-2.3-11.8-3.3c-3.9-1-7.6-2.2-11-3.5l-1.2-1.6c-8.6-2.4-16.5-4.6-23.6-6.7c-6-1.8-12-3.6-17.9-5.3
	c-5.9-1.7-9.9-2.8-12-3.3c-2.1-0.5-4.9-1.2-8.4-2c-3.5-0.8-7.1-1.7-10.8-2.8c-4.2-1-8.5-2.2-13-3.5l-59.3,43.6
	c3.7,0.8,6.9,1.7,9.8,2.8c2.6,0.8,5.2,1.5,7.7,2.2c2.5,0.7,4.4,1.2,5.7,1.8c2.4,2.1,3.5,4.1,3.5,6.1c0,2-0.4,3.9-1.2,5.7
	c-0.8,1.3-1.8,2.2-3.1,2.8c-0.8,0.3-1.4,0.4-2,0.4l-31.4-10.6l-3.9,7.9l2.8,0.8l3.5,2.4l17.3,6.3c4.5,1.6,8.6,3,12.4,4.3
	c3.8,1.3,6,2.1,6.5,2.4c1.3,0.5,2.2,0.9,2.6,1c0.4,0.1,0.7,0.7,1,1.8c0,1.3-0.8,2-2.4,2c-0.8,0-1.6-0.1-2.4-0.4l-17.3-6.3
	c-4.5-1.6-8.6-3.1-12.4-4.5c-3.8-1.4-6-2.3-6.5-2.6c-2.1,0-3.5-0.1-4.3-0.4l-2.4-0.8l-2,1.2l-38.5-13c-0.3,0-0.4-0.1-0.4-0.4v-2
	c-2.1-0.8-3.1-1.7-3.1-2.8s0.3-1.8,0.8-2.4s1.2-0.8,2-0.8h0.8v-4.7c0-1.3-0.1-2.5-0.2-3.5c-0.1-1-0.1-1.8,0.2-2.4
	c-1.6-0.3-3.1-0.9-4.7-1.8c-1.6-0.9-2.5-1.9-2.8-2.9c-0.3-1.8,0.1-3.9,1-6.3c0.9-2.4,1.5-3.7,1.8-3.9c1.6-0.5,3-0.8,4.3-0.8
	c0.8,0,1.4,0.1,2,0.4l13.8-51.9c-0.5-3.9-1-7.5-1.6-10.6c-0.5-2.9-1-5.6-1.6-8.1c-0.5-2.5-0.9-4.1-1.2-4.9c-0.5-0.5-1.2-1.2-2-2.2
	c-0.8-0.9-1.4-1.8-2-2.6l-2.4-3.1L53.9,75H56.2z"/>
</svg>
