<svg xmlns="http://www.w3.org/2000/svg" viewBox="0 -250 1000 1000"><path fill="currentColor" d="M109 316l73 24q21-10 39-19 15-8 29-14.5t18-8.5q1-7 4-10t6-4q4-1 8 0h9l8-1h45l116 50 1 8 48 18q18 7 34 12.5t19 7.5q3 3 2 6-1 2-3 3l-99-37-17-3-3 3q18 7 34 12 14 5 26 9t15 6q7 8 2.5 17.5T515 410q-3 3-10 3-4 0-7-1l-73-27-23 45 33 12h10q2 0 2.5 2.5t2.5 2.5q1 1 3.5 2.5t.5 3.5l-2 2q-1 1-2 1l122 64 7 2q11 6 21 11 8 5 17 10.5t16 9.5q13 8 22 20.5t13 17.5q2 8-2.5 11t-9.5 5q-18-2-35-6.5t-30-8.5q-15-4-28-9l-3-4q-33-9-60-17-23-7-45.5-13.5T424 540t-21.5-5-27.5-7q-16-4-33-9L191 630q14 3 25 7 10 3 19.5 5.5T250 647q9 8 9 15.5t-3 14.5q-3 5-8 7-3 1-5 1l-80-27-10 20 7 2 9 6 44 16q17 6 31.5 11t16.5 6q5 2 6.5 2.5t2.5 4.5q0 5-6 5-3 0-6-1l-44-16q-17-6-31.5-11.5T166 696q-8 0-11-1l-6-2-5 3-98-33q-1 0-1-1v-5q-8-3-8-7t2-6 5-2h2v-12q0-5-.5-9t.5-6q-6-1-12-4.5t-7-7.5q-1-7 2.5-16t4.5-10q6-2 11-2 3 0 5 1l35-132q-2-15-4-27-2-11-4-20.5T74 384q-2-2-5-5.5t-5-6.5l-6-8 45-48h6z"/></svg>