<?xml version="1.0" encoding="utf-8"?>
<!-- Generator: Adobe Illustrator 21.0.2, SVG Export Plug-In . SVG Version: 6.00 Build 0)  -->
<svg version="1.1" id="Layer_1" xmlns="http://www.w3.org/2000/svg" xmlns:xlink="http://www.w3.org/1999/xlink" x="0px" y="0px"
	 width="300px" height="300px" viewBox="0 0 300 300" style="enable-background:new 0 0 300 300;" xml:space="preserve">
<path d="M205.2,93.6h3c1,0,2-0.1,3.2-0.2c1.1-0.1,2.3-0.2,3.5-0.2h13c3,0,6.3-0.1,10-0.4c0.5-0.2,1.2-0.2,2.2,0
	c0.5,0.2,1.2,0.6,2,1.1c0.9,0.5,1.7,1.5,2.4,3c-0.2-0.2-0.3-0.1-0.2,0.4c0.1,0.5-0.1,0.6-0.6,0.4c-0.5,0,0,0.4,1.5,1.3
	c1.5,0.9,2.1,2,1.9,3.5c0,0.2,0.2,0.9,0.7,1.9c0.5,1,0.7,1.7,0.7,2.2l0.4,0.9l0.6,2l-0.4,2.4l-2.8,2c-3.5,1-6.8,1.6-10,1.9
	c-2,0.2-3.8,0.5-5.6,0.7l-1.1-1.9l-1.9,0.4l0.4,1.1l-1.5,0.4l-1.1-1.9l-2.2,0.4l0.4,1.5h-1.1l-0.4-0.7c0,0.2-0.1,0.5-0.4,0.7
	c-0.5,0.5-0.9,0.6-1.1,0.4c-0.5-0.2-0.7-0.7-0.7-1.5c-0.5-0.5-1-0.9-1.5-1.1c-0.5-0.2-1-0.4-1.5-0.4s-1-0.2-1.5-0.7
	c-0.2,0-0.4-0.2-0.4-0.7c0-0.2-0.1-0.4-0.4-0.4v-1.5l-3-1.1c0,0.5-0.1,1-0.4,1.5c-0.5,1-1.4,1.7-2.6,2.2c-0.2,0-0.6,1.1-0.9,3.2
	c-0.4,2.1-1.1,4.6-2,7.4c-1,2.9-2.3,5.6-3.9,8.2c-1.6,2.6-3.8,4.5-6.5,5.8c-0.2,0-0.4,0.7-0.4,2.2c0,0.7-0.1,1.5-0.4,2.2v3.2
	l-0.7,1.7c-0.2,0-0.4,0.4-0.4,1.1c0,0.7-0.1,1.5-0.4,2.2c-0.2,1-0.4,2.1-0.4,3.3c0.2,1,0.5,2.1,0.7,3.3c0.5,2.7,0.2,5.8-0.7,9.3
	l-0.4,0.4c0,0.2-0.1,0.4-0.2,0.4s-0.2,0.1-0.2,0.4l-0.7,1.5l-6.7,65.1c0.2,0.2,0.5,0.6,0.7,1.1l0.7,1.5l1.1,1.9
	c0-0.2,0.6-0.4,1.7-0.4s2.5,1.4,4.3,4.1l3.7,1.9h1.5c1.2,0,1.9,0.6,1.9,1.9c0,0.2,0.1,0.9,0.2,2s-0.3,1.6-1.3,1.3
	c-0.5,0-1.1-0.4-1.9-1.1c-0.2-0.2-0.4-0.6-0.4-1.1l-3-1.1c-0.2,0.2-0.6,0.5-1.1,0.7c-1,0.5-2.2,0.4-3.7-0.4c0-0.2-0.4,0.9-1.3,3.3
	s-2.8,4.5-5.8,6c0.2,0,0.3,0.7,0.2,2c-0.1,1.4-0.2,2.9-0.2,4.7c-0.2,2-0.4,4.1-0.4,6.3c-0.7,1.5-1.6,2.6-2.6,3.3
	c-1,0.5-2.3,0.7-3.9,0.7s-3.7-0.7-6.1-2.2c-2.5-2-5.3-4.8-8.6-8.6c-1.7-1.7-3.5-3.7-5.2-6v-1.1c0-0.7,0.2-1.4,0.7-1.9l-1.1-0.2
	l-2-0.9l-1.1-2.6l1.7-4.8c-0.2-0.2-0.5-0.4-0.7-0.4s-0.4-0.1-0.4-0.4v-0.4c0-0.7,0.2-1.6,0.7-2.6l-1.5-8.2c-0.5-2.5-0.9-5.1-1.1-7.8
	c-0.2,0-0.5-0.1-0.7-0.4c-0.2,0-0.4-0.2-0.4-0.7v-1.1c0-0.2-0.1-0.4-0.2-0.6s-0.1-0.4,0.2-0.9l0.4-0.7l-1.5-7.1
	c-2.7,0.7-5.5,0.7-8.2,0c-2.5-0.5-5-1.6-7.6-3.3c-2.6-1.7-5.1-4.6-7.6-8.6c-2.5-4-5.1-8.8-8-14.5s-5.5-11.8-8-18.2s-4.5-13.1-6-20.1
	c-1.5-6.9-2.2-13.6-2.2-20.1l-0.4-6.3c-5,0.2-9.4,0.4-13.4,0.4c-3.5,0-6.8-0.1-9.9-0.2c-3.1-0.1-5.1-0.4-6.1-0.9
	c0,0.2-0.4,0.4-1.1,0.4h-1.1l-7.4-3.3l-3.3,0.7l-1.5-3c-0.2,0-0.6-0.1-1.1-0.4l-1.5-0.7l-0.4-0.4c-0.5-0.2-1-0.7-1.5-1.5
	c-1-1.5-1.4-2.9-1.1-4.1c-0.2-0.5-0.4-1.1-0.4-1.9v-0.7l0.7-1.9l-0.7-1.5l1.5-1.5c-0.5-0.5-0.6-1-0.4-1.5c0-0.5,1.1-1,3.3-1.5
	c1.2,0,4.2-0.1,8.7-0.2c4.6-0.1,9.4-0.3,14.3-0.6c6-0.2,12.5-0.5,19.7-0.7c0.5,0.2,1,0.6,1.5,1.1c1,1,1.5,2,1.5,3
	c0,0.2,0.6,0.3,1.7,0.2s2.3-0.2,3.5-0.2c1.5,0,3.2-0.1,5.2-0.4c0.5-0.5,1-0.7,1.5-0.7c0.7,0,1.6,0.5,2.6,1.5l0.4,0.7h5.6v-0.4
	c0-0.2,0.4-0.4,1.1-0.4l-0.4-0.7c0-0.2-0.1-0.5-0.4-0.7l-1.5-0.7c0,0.2,0.1-0.1,0.2-1.1c0.1-1,0.3-2.1,0.6-3.3l0.7-4.5l-1.5-1.5
	l-10.4,5.2l-4.8-2.2l-0.4,1.1l-3.3-1.1c0.2-3.2,0.7-6.3,1.5-9.3c0.5-2.7,1.2-5.3,2-7.8c0.9-2.5,2.2-4.7,3.9-6.7
	c2-4.5,4.3-8.9,7.1-13.4c2.5-3.7,5.5-7.6,9.1-11.7s8.1-7.6,13.6-10.6h0.4c1.7-1,3.6-2,5.6-3c3.5-1.7,6.8-2.6,10-2.6
	c2.7,0.2,5.9,1,9.5,2.2c3.6,1.2,6.4,2.6,8.4,4.1l0.4,0.4l0.7,0.4c4.7,3.2,8.9,7.3,12.6,12.3c3.2,4.2,6.3,9.6,9.1,16.2
	c2.9,6.6,4.8,14.6,5.8,24c0.5,0.2,1.1,0.7,1.9,1.5C204,89.5,204.9,91.4,205.2,93.6z"/>
</svg>
