<svg xmlns="http://www.w3.org/2000/svg" viewBox="0 -250 1000 1000"><path fill="currentColor" d="M448 357h8q4 0 8.5-.5t9.5-.5h35q12 0 27-1 2-1 6 0 2 1 5.5 3t6.5 8q-1-1-.5 1t-1.5 1q-2 0 4 3.5t5 9.5q0 1 2 5t2 6l1 2.5 1.5 5.5-1 6.5-7.5 5.5q-14 4-27 5-8 1-15 2l-3-5-5 1 1 3-4 1-3-5-6 1 1 4h-3l-1-2q0 1-1 2-2 2-3 1-2-1-2-4-2-2-4-3t-4-1-4-2q-1 0-1-2 0-1-1-1v-4l-8-3q0 2-1 4-2 4-7 6-1 0-2.5 8.5t-5.5 20-10.5 22T422 476q-1 0-1 6 0 3-1 6v8.5l-2 4.5q-1 0-1 3t-1 6q-1 4-1 9 1 4 2 9 2 11-2 25l-1 1q0 1-.5 1t-.5 1l-2 4-18 175q1 1 2 3l2 4 3 5q0-1 4.5-1t11.5 11l10 5h4q5 0 5 5 0 1 .5 5.5T432 776q-2 0-5-3-1-1-1-3l-8-3q-1 1-3 2-4 2-10-1 0-1-3.5 9T386 793q1 0 .5 5.5T386 811q-1 8-1 17-3 6-7 9-4 2-10.5 2t-16.5-6q-10-8-23-23-7-7-14-16v-3q0-3 2-5l-3-.5-5.5-2.5-3-7 4.5-13q-1-1-2-1t-1-1v-1q0-3 2-7l-4-22q-2-10-3-21-1 0-2-1-1 0-1-2v-3q0-1-.5-1.5t.5-2.5l1-2-4-19q-11 3-22 0-10-2-20.5-9T232 647t-21.5-39-21.5-49-16-54-6-54l-1-17q-20 1-36 1-14 0-26.5-.5T87 432q0 1-3 1h-3l-20-9-9 2-4-8q-1 0-3-1l-4-2-1-1q-2-1-4-4-4-6-3-11-1-2-1-5v-2l2-5-2-4 4-4q-2-2-1-4 0-2 9-4 5 0 23.5-.5T106 369q24-1 53-2 2 1 4 3 4 4 4 8 0 1 4.5.5t9.5-.5q6 0 14-1 2-2 4-2 3 0 7 4l1 2h15v-1q0-1 3-1l-1-2q0-1-1-2l-4-2q0 1 .5-3t1.5-9l2-12-4-4-28 14-13-6-1 3-9-3q1-13 4-25 2-11 5.5-21t10.5-18q8-18 19-36 10-15 24.5-31.5T268 193h1q7-4 15-8 14-7 27-7 11 1 25.5 6t22.5 11l1 1 2 1q19 13 34 33 13 17 24.5 43.5T436 338q2 1 5 4 6 6 7 15z"/></svg>