<?xml version="1.0" encoding="utf-8"?>
<!-- Generator: Adobe Illustrator 21.0.2, SVG Export Plug-In . SVG Version: 6.00 Build 0)  -->
<svg version="1.1" id="Layer_1" xmlns="http://www.w3.org/2000/svg" xmlns:xlink="http://www.w3.org/1999/xlink" x="0px" y="0px"
	 width="300px" height="300px" viewBox="0 0 300 300" style="enable-background:new 0 0 300 300;" xml:space="preserve">
<path d="M241.4,100.3v3.7l1.4,1.4c0.6,0.9,0.8,1.5,0.5,1.9c-0.9,0.9-1.5,1.4-1.9,1.4h-0.5l-1.4,2.8l-3.3,0.5l-1.9-3.3l-1.4-5.1
	l-2.8-1.9l-13.9,1.4l-6,36.3c3.4,2.5,6.7,5,9.8,7.4c2.5,2.2,4.7,4.5,6.7,7c2,2.5,3.3,5,4,7.4c1.9,1.2,3.6,2.6,5.1,4.2
	s3.1,3.3,4.6,5.3c1.5,2,3.1,4.4,4.6,7.2l5.6,13c0.6,1.5,1.4,2.9,2.3,4.2c1.2,2.2,2.2,4.8,2.8,7.9c0,1.5,0.3,2.6,0.9,3.3
	c0.6,0.6,1.2,1.7,1.9,3.3c0.6,1.5,1.2,3.9,1.9,7c0.6,3.1,0.9,7.6,0.9,13.5c0,6.8-0.5,10.8-1.4,12.1c-0.6,0.9-1.1,1.4-1.4,1.4
	c0,3.1-0.3,5.9-0.9,8.4c-0.6,2.2-1.5,4.3-2.6,6.3c-1.1,2-2.7,3.5-4.9,4.4c-4.3,1.5-7.7,2.6-10.2,3.3c-2.5,0.6-5.4,0.3-8.8-0.9
	c-3.4-0.9-6.7-2.2-10-3.7s-5.2-5.7-5.8-12.6c-6.2-3.1-11.6-5.9-16.3-8.4c-4-2.2-7.7-4.1-11.2-5.8c-3.4-1.7-5.1-2.7-5.1-3
	c-0.3,0-0.9,0.1-1.9,0.2c-0.9,0.2-2,0.2-3.3,0.2c-1.2,0.3-2.8,0.5-4.6,0.5h-1.4c-1.2,0-2.5-0.6-3.7-1.9c-0.9-0.6-2.6-2.2-5.1-4.6
	l-3.3-3.3l-3.7-0.9l-5.6-3.3L127,217c-0.3,0-0.8-0.2-1.4-0.5c-0.6-0.3-1.2-0.5-1.6-0.7c-0.5-0.2-1-0.5-1.6-1.2
	c-1.2-1.5-2.4-3-3.5-4.4s-0.9-2.2,0.7-2.6c0.9,0,2.3-0.2,4.2-0.5l5.6-0.9c2.2-0.3,4.5-0.6,7-0.9l-1.4-1.9l0.5-1.4l-1.4-0.9v-1.9
	l0.9-0.5l-0.9-1.4c-0.9-1.9-1.4-3.4-1.4-4.6c0-2.8,2-4.8,6-6l0.9-0.5c-0.3-5-0.9-9.8-1.9-14.4c-0.6-4-1.5-8.2-2.6-12.6
	s-2.2-8.2-3.5-11.6c-5.3-3.4-10.2-6.8-14.9-10.2c-4-3.1-8-6.6-11.9-10.5s-6.6-7.8-8.1-11.9c-0.3,0-0.8,0.1-1.4,0.2
	c-0.6,0.2-1.2,0.2-1.9,0.2c-0.9,0.3-2,0.5-3.3,0.5l-5.1,13.5l-5.6-1.9l-10.7-9.3l-6-2.3l-3.3-2.8l0.9-3.3L30.8,80.8l11.6-33.5
	l6.5,1.4l4.6,3.3l1.9,0.9c1.2,0.6,2.6,0.9,4.2,0.9c0.3,0,2.6-0.2,6.7-0.5c4.2-0.3,9.5-0.8,16-1.4c6.5-0.6,13.8-1.2,21.9-1.9
	s16.3-1.4,24.6-2.3c19.5-1.5,41.7-3.6,66.5-6l-0.9-5.1l5.6-2.8l35.8,24.6h3.3c0.9,0,1.9,0.3,2.8,0.9l2.1,2.1l2.1,4l13.9,10.2
	l9.3,32.1l-6.5,2.3l-14.4-10.2L241.4,100.3z M221.8,81.7l-0.5-0.9v-0.5c-3.4-2.5-6.4-4.6-8.8-6.5c-2.5-1.5-4.6-3-6.3-4.4
	c-1.7-1.4-2.6-2.2-2.6-2.6c-0.3,0-0.6-0.7-0.9-2.1c-0.3-1.4-0.8-2.9-1.4-4.4c-0.6-1.9-1.2-3.9-1.9-6L70.3,65.5l6.5,7.9l3.7,2.3
	l6,5.6l0.5,1.9l0.5,0.9l1.9-0.5l3.3,2.8l0.5-0.5c0-0.3,0.1-0.5,0.2-0.7c0.2-0.2,0.2-0.5,0.2-1.2c0-0.6,0.3-0.8,0.9-0.5
	c0.6,0.3,1.2,0,1.9-0.9c0.6-0.6,1.1-0.7,1.4-0.2c0.3,0.5,0.8,0.4,1.4-0.2c0-0.3,0.6-0.5,1.9-0.5c0.3,0.3,0.6,0.5,0.9,0.5
	c0.3-0.3,0.9-0.5,1.9-0.5c0.3,0,0.6,0.2,0.9,0.5l3.7,1.9c0.3,0,0.8,0.2,1.4,0.5c1.2,0.6,2.3,0.8,3.3,0.5h3.7l3.3,0.5
	c1.2,0.3,2.2,0.6,2.8,0.9l11.6,6l0.5-1.9l1.9-0.5l-0.5-0.9c-0.6-0.3-0.6-0.8,0-1.4c0-0.3,0.2-0.5,0.5-0.5v-1.4
	c-0.3-0.3-0.2-0.8,0.5-1.4l0.5-0.5l0.5-0.5c0-1.2,0.2-1.9,0.5-1.9h0.9v-0.5c0-0.3,0.2-0.8,0.5-1.4c0-0.3,0.5-0.5,1.4-0.5h0.9
	c0.3-1.2,0.9-1.9,1.9-1.9c0.3,0,0.8,0.2,1.4,0.5c0-0.3,0.6-0.5,1.9-0.5c0.3,0.3,0.6,0.5,0.9,0.5c0.3-0.3,0.9-0.5,1.9-0.5
	c0.3,0,0.5,0.2,0.5,0.5c0.9,0.6,2,1.1,3.3,1.4c0.6,0.3,1,0.5,1.2,0.5c0.2,0,0.5,0.2,1.2,0.5c0.3,0.3,0.8,0.5,1.4,0.5
	c1.9-0.3,3.6-0.4,5.3-0.2c1.7,0.2,3.3,0.4,4.9,0.7c1.5,0.3,2.9,0.8,4.2,1.4l7.4,4.2l27.4-2.3c0.6-2.2,1.3-3.4,2.1-3.7
	c0.8-0.3,1.8-0.5,3-0.5c0.9,0,2.3,0.6,4.2,1.9c0.9,0.6,1.7,1.1,2.3,1.4c0.3-0.3,0.8-0.6,1.4-0.9L221.8,81.7z"/>
</svg>
