<svg xmlns="http://www.w3.org/2000/svg" viewBox="0 -250 1000 1000"><path fill="currentColor" d="M477 408v8l3 3q2 3 1 4-3 3-4 3h-1l-3 6-7 1-4-7-3-11-6-4-30 3-13 78q11 8 21 16 8 7 14.5 15t8.5 16q6 4 11 9t10 11.5 10 15.5l12 28q2 5 5 9 4 7 6 17 0 5 2 7t4 7 4 15 2 29q0 22-3 26-2 3-3 3 0 10-2 18-2 7-5.5 13.5T496 757q-14 5-22 7t-19-2q-11-3-21.5-8T421 727q-20-10-35-18-13-7-24-12.5t-11-6.5q-1 0-4 .5t-7 .5q-4 1-10 1h-3q-4 0-8-4-3-2-11-10l-7-7-8-2-12-7-50-3q-1 0-3-1t-3.5-1.5-3.5-2.5q-4-5-7.5-9.5t1.5-5.5q3 0 9-1l12-2q7-1 15-2l-3-4 1-3-3-2v-4l2-1-2-3q-3-6-3-10 0-9 13-13l2-1q-1-16-4-31-2-13-5.5-27t-7.5-25q-17-11-32-22-13-10-25.5-22.5T166 440q-1 0-3 .5t-4 .5q-3 1-7 1l-11 29-12-4-23-20-13-5-7-6 2-7-64-63 25-72 14 3 10 7 4 2q4 2 9 2 1 0 14.5-1t34.5-3 47-4 53-5q63-5 143-13l-2-11 12-6 77 53h7q3 0 6 2l4.5 4.5 4.5 8.5 30 22 20 69-14 5-31-22zm-42-40l-1-2v-1q-11-8-19-14-8-5-13.5-9.5T396 336q-1 0-2-4.5t-3-9.5q-2-6-4-13l-278 24 14 17 8 5 13 12 1 4 1 2 4-1 7 6 1-1q0-1 .5-1.5t.5-2.5 2-1 4-2q2-2 3-.5t3-.5q0-1 4-1 1 1 2 1 1-1 4-1 1 0 2 1l8 4q1 0 3 1 4 2 7 1h8l7 1q4 1 6 2l25 13 1-4 4-1-1-2q-2-1 0-3 0-1 1-1v-3q-1-1 1-3l1-1 1-1q0-4 1-4h2v-1q0-1 1-3 0-1 3-1h2q1-4 4-4 1 0 3 1 0-1 4-1 1 1 2 1 1-1 4-1 1 0 1 1 3 2 7 3 2 1 2.5 1t2.5 1q1 1 3 1 6-1 11.5-.5T319 367t9 3l16 9 59-5q2-7 4.5-8t6.5-1q3 0 9 4 3 2 5 3 1-1 3-2z"/></svg>