<?xml version="1.0" encoding="utf-8"?>
<!-- Generator: Adobe Illustrator 21.0.2, SVG Export Plug-In . SVG Version: 6.00 Build 0)  -->
<svg version="1.1" id="Layer_1" xmlns="http://www.w3.org/2000/svg" xmlns:xlink="http://www.w3.org/1999/xlink" x="0px" y="0px"
	 width="300px" height="300px" viewBox="0 0 300 300" style="enable-background:new 0 0 300 300;" xml:space="preserve">
<path d="M259.4,174.3c1.6,1.9,3.1,3.6,4.4,5.2c1.3,1.3,2.5,2.7,3.6,4.2s2,2.6,2.8,3.4c0.5,1.1,1.3,2.9,2.4,5.4s2.1,5.1,3.2,7.8
	c1.1,3.2,2.1,6.7,3.2,10.4l-1.6,0.8c-0.3,0.3-0.3,0.7,0,1.2c0,0.5,0.5,1.3,1.6,2.4c0.8,0.5,1.3,1,1.6,1.4c0.3,0.4,0.5,1.3,0.8,2.6
	c0,0.5,0.1,1.5,0.4,3c0.3,1.5,0.5,3,0.8,4.6c0.3,1.9,0.7,3.9,1.2,6v2c0.3,0.8,0.4,1.6,0.4,2.4c0,1.6-0.1,2.5-0.4,2.8l0.8,0.8l0.4,4
	l-6,1.6v8.8c0,0.5-0.1,0.9-0.4,1.2c-0.3,0.8-0.9,1.3-2,1.6c-1.3,0.5-3.6,1.3-6.8,2.4s-6.3,1.5-9.2,1.2c-2.9-0.3-7.5-1.7-13.6-4.2
	c-6.1-2.5-13.4-6.9-22-13c-4.3-3.2-9-7.1-14.4-11.6c-5.3-4.5-10.5-9-15.6-13.4c-5.1-4.4-9.4-8.3-13.2-11.8s-6.1-5.7-7.2-6.8l-21.2,4
	l-2.8-0.8l-25.2,4.4l-4.4-4.4l1.2-2.8l-15.6-16.8l-4.4-0.8l-4.4-5.6l0.4-2.8l-5.2-6h-4l-6-6.8l-67.9-36.7l-0.4-1.2l4-2v-1.2l-4-2.4
	v-1.2l4-3.2l13.6-2.8c0-2.7,0.5-5.1,1.6-7.2c0.8-1.9,2.1-3.7,3.8-5.4c1.7-1.7,4.2-2.9,7.4-3.4c2.9-0.5,5.9-0.5,8.8,0
	c2.9,0.5,5.5,1.5,7.6,2.8c2.7,1.3,4.9,3.1,6.8,5.2l24.4-5.2L78.5,74.9c-0.5-1.1-0.9-2.1-1.2-3.2c-0.3-1.1-0.3-2.2-0.2-3.4
	c0.1-1.2,0.7-2.5,1.8-3.8l-4.4-5.2V53l0.8-6l7.2-1.2c2.9,1.3,5.7,2.5,8.4,3.6c2.1,0.8,4.1,1.6,5.8,2.4c1.7,0.8,2.7,1.2,3,1.2
	l1.2-0.8V47h0.4v-1.2c-0.5,0-0.9-0.1-1.2-0.4c-0.5-0.5-0.8-1.2-0.8-2L96.5,41v-0.4c0-0.5,0.1-0.9,0.4-1.2c0-0.3,0.1-0.4,0.4-0.4
	c0.5,0,1.2,0.4,2,1.2c-0.3-0.3-0.1-0.7,0.4-1.2c0.5-0.5,1.2-0.5,2,0l2.4,2.8h0.4c0.3,0,0.7,0.3,1.2,0.8l0.8,0.8l2,0.4l0.8,0.8
	c0.3,0.3,0.9,0.4,2,0.4l0.4,6.8c0.3,0.3,0.8,0.5,1.6,0.8c0.5,0.3,1.1,0.6,1.6,1s1.1,0.9,1.6,1.4l4,2.4v2.4l-0.8,0.8
	c-0.3,0.3-0.4,1.2-0.4,2.8l0.8,0.4l2-2h1.6c1.3,0,2.3,0.1,2.8,0.4c0,0.3,0.3,0.9,0.8,1.8c0.5,0.9,0.8,1.7,0.8,2.2
	c0,0.8-0.1,1.2-0.2,1.2c-0.1,0-0.1,0.5,0.2,1.6c0.8,0.3,1.7,0.8,2.8,1.6c2.1,1.6,4.3,2.9,6.4,4c2.7,1.6,5.7,3.5,9.2,5.6
	c2.1-2.4,4.7-4.1,7.6-5.2c2.7-0.8,6-0.8,10,0s8.6,3.5,14,8l16-0.8l4,8.4l-0.8,1.6l2.4,6l2,0.8l6.8,13.2l-0.8,3.2l3.2,6.8l2.4,0.4
	l11.6,9.2v2h4.4l1.6,5.2l4,2.4h2.8c0,0.3,0.7,0.9,2,1.8c1.3,0.9,2.8,2.1,4.4,3.4l6.4,4.8v2.8l3.6,2.4h3.2l6.4,4.8v2.4l-6.4,1.6v2.4
	l6,4v1.6L259.4,174.3z"/>
</svg>
