<svg xmlns="http://www.w3.org/2000/svg" viewBox="0 -250 1000 1000"><path fill="currentColor" d="M651 564q6 7 11 13 5 5 9 10.5t7 8.5q2 4 6 13.5t8 19.5q4 12 8 26l-4 2q-1 1 0 3 0 2 4 6 3 2 4 3.5t2 6.5q0 2 1 7.5t2 11.5q1 7 3 15v5q1 3 1 6 0 6-1 7l2 2 1 10-15 4v22q0 2-1 3-1 3-5 4-5 2-17 6t-23 3-34-10.5-55-32.5q-16-12-36-29t-39-33.5-33-29.5-18-17l-53 10-7-2-63 11-11-11 3-7-39-42-11-2-11-14 1-7-13-15h-10l-15-17-170-92-1-3 10-5v-3l-10-6v-3l10-8 34-7q0-10 4-18 3-7 9.5-13.5T115 367q11-2 22 0t19 7q10 5 17 13l61-13-36-59q-2-4-3-8t-.5-8.5 4.5-9.5l-11-13v-16l2-15 18-3q11 5 21 9 8 3 14.5 6t7.5 3l3-2v-13h1v-3q-2 0-3-1-2-2-2-5l-7-6v-1q0-2 1-3 0-1 1-1 2 0 5 3-1-1 1-3t5 0l6 7h1q1 0 3 2l2 2 5 1 2 2q1 1 5 1l1 17q1 1 4 2 2 1 4 2.5t4 3.5l10 6v6l-2 2q-1 1-1 7l2 1 5-5h4q5 0 7 1 0 1 2 4.5t2 5.5q0 3-.5 3t.5 4q3 1 7 4 8 6 16 10 10 6 23 14 8-9 19-13 10-3 25 0t35 20l40-2 10 21-2 4 6 15 5 2 17 33-2 8 8 17 6 1 29 23v5h11l4 13 10 6h7q0 1 5 4.5t11 8.5l16 12v7l9 6h8l16 12v6l-16 4v6l15 10v4z"/></svg>