<svg xmlns="http://www.w3.org/2000/svg" viewBox="0 -250 1000 1000"><path fill="currentColor" d="M687 647q2 3-3 6.5t-10 3.5q-8 0-26.5-5T607 641t-43.5-12.5T527 618q-29-8-57-18.5T427 584q-8-2-18-5.5t-20-7.5q-11-4-23-8l-6 1-4-2-13 6 27 12q3-2 11 2 4 2 5 3t3 2q2 4 1 5l-2 2h-1q-3 0-4-1-3 1-11-2-2-1-2.5-2t-1.5-2-1-2l-31-12-6 2-24-11q-1 1-1 2-1 1-2 1-2 0-5.5-4t-4.5-6q-6 0-11-7-3-5 0-9.5t4-6.5 8.5-3 10.5-2q3 0 5-4 1-2 1-3-9-1-17-4l-14-4-9-4q-5-2-6-5-1-1 0-3-8-2-15-5-6-2-11-3.5t-7-2.5q-5-1-2-6 1-1-1-3-1-1-2-1-2 1-5 1-2 0-2.5.5t-1.5.5h-2q-1 1-4 1h-2v11q3 0 5 2l1 1-6 2q-2 1-5.5 2t-6.5 1q-7 1-12.5-.5T176 499q-6-2-7-2h-15l-11 4 5 2q10 5 10 10 0 3-1 4 9 6 18 11 7 5 13.5 8.5t8.5 4.5q4 2 5 4t0 2-6.5-3-12-7-12-7.5-6.5-3.5q-3-2-4-1l-3 3q-1 0-5 2t-8.5 4-8.5 4-5 3 2 3.5 7.5 5.5 8.5 5.5 6 3.5q1 1 1 3v1q-1 1-1 0-7-4-12-8-5-3-9.5-6.5T127 543q-4-2-5-1l-2 2 3.5 3.5 8.5 7.5 9.5 7.5 5.5 4.5v2l-1 1-30-25-2 2q-2 2-18 9-8 4-17 8 5 6 9 11t7.5 9 5.5 6q6 7 3 7-1 0-5.5-5T89 581t-10-11.5-6-6.5q-3-2-4-1.5t-6-2.5l-6.5-6.5-9.5-10-8.5-9.5-4.5-6q-2-3-1.5-5.5T34 516q0-1 4-3.5t9.5-5 11-4.5 8.5-3q5 0 9-4l3-3q8-2 15-5 6-2 11-3.5t7-2.5q3 0 11 5 4 3 9 5l4-1-1-3 8-2v-8q0-3 .5-5.5t.5-4.5q1-2 9.5-2H165q2 1-4-3-3-2-7-4-8-12-14-23-5-9-10.5-17t-7.5-11-4-11.5-3.5-18.5-3-18.5T110 349q0-3 6-5 3-1 7-2l11 1h3l17 1 2 2h5q2 1 3.5 1t3.5 1 4 1l10 32q4 12 7 22.5t3 11.5q0 2 10-2 4-1 11-3l13 3-8-21v-7l-3-6 5-34 5-5v-2l3-5q17 2 29 4t20 4q9 2 14 4l5 2-2 79q17 4 31 7 12 2 22.5 4.5T362 440q15 0 22.5 1t11 2 4 2 1.5 2q2 1 3 1t2 1l1 1 17 4 3 4 39 13q15 5 28 10t15 6q3 1 8 1 2 0 2-1 17 8 33 16 14 7 28 13.5t23 11.5q18 9 24 15 4 4 5 6l55 98z"/></svg>