<?xml version="1.0" encoding="utf-8"?>
<!-- Generator: Adobe Illustrator 21.0.2, SVG Export Plug-In . SVG Version: 6.00 Build 0)  -->
<svg version="1.1" id="Layer_1" xmlns="http://www.w3.org/2000/svg" xmlns:xlink="http://www.w3.org/1999/xlink" x="0px" y="0px"
	 width="300px" height="300px" viewBox="0 0 300 300" style="enable-background:new 0 0 300 300;" xml:space="preserve">
<path d="M282.7,211.7c0.5,0.8,0.1,1.7-1.2,2.6s-2.7,1.4-4.1,1.4c-2.2,0-5.7-0.7-10.8-2c-5-1.4-10.5-2.8-16.4-4.5s-11.8-3.3-17.7-5.1
	s-10.8-3.2-14.8-4.3c-7.8-2.2-15.6-4.7-23.1-7.5c-7.6-2.8-13.4-4.9-17.5-6.3c-2.2-0.5-4.6-1.3-7.3-2.2c-2.7-0.9-5.4-2-8.1-3
	c-3-1.1-6.1-2.2-9.3-3.2L150,178l-1.6-0.8l-5.3,2.4l11,4.9c0.8-0.5,2.3-0.3,4.5,0.8c1.1,0.5,1.8,0.9,2,1.2c0.3,0.3,0.7,0.5,1.2,0.8
	c0.5,1.1,0.7,1.8,0.4,2l-0.8,0.8H161c-0.8,0-1.4-0.1-1.6-0.4c-0.8,0.3-2.3,0-4.5-0.8c-0.5-0.3-0.9-0.5-1-0.8
	c-0.1-0.3-0.3-0.5-0.6-0.8c-0.3-0.3-0.4-0.5-0.4-0.8l-12.6-4.9l-2.4,0.8l-9.7-4.5c-0.3,0.3-0.4,0.5-0.4,0.8
	c-0.3,0.3-0.5,0.4-0.8,0.4c-0.5,0-1.3-0.5-2.2-1.6c-0.9-1.1-1.6-1.9-1.8-2.4c-1.6,0-3.1-0.9-4.5-2.8c-0.8-1.4-0.8-2.6,0-3.9
	c0.8-1.2,1.4-2.1,1.6-2.6c0.3-0.5,1.4-0.9,3.4-1.2c2-0.3,3.4-0.5,4.3-0.8c0.8,0,1.5-0.5,2-1.6c0.3-0.5,0.4-0.9,0.4-1.2
	c-2.4-0.3-4.7-0.8-6.9-1.6l-5.7-1.6l-3.7-1.6c-1.4-0.5-2.2-1.2-2.4-2c-0.3-0.3-0.3-0.7,0-1.2c-2.2-0.5-4.2-1.2-6.1-2
	c-1.6-0.5-3.1-1-4.5-1.4c-1.4-0.4-2.3-0.7-2.8-1c-1.4-0.3-1.6-1.1-0.8-2.4c0.3-0.3,0.1-0.7-0.4-1.2c-0.3-0.3-0.5-0.4-0.8-0.4
	c-0.5,0.3-1.2,0.4-2,0.4c-0.5,0-0.9,0.1-1,0.2s-0.3,0.2-0.6,0.2h-0.8c-0.3,0.3-0.8,0.4-1.6,0.4h-0.8v4.5c0.8,0,1.5,0.3,2,0.8
	l0.4,0.4l-2.4,0.8c-0.5,0.3-1.3,0.5-2.2,0.8c-0.9,0.3-1.8,0.4-2.6,0.4c-1.9,0.3-3.6,0.2-5.1-0.2c-1.5-0.4-2.8-0.9-3.9-1.4
	c-1.6-0.5-2.6-0.8-2.8-0.8h-6.1l-4.5,1.6l2,0.8c2.7,1.4,4.1,2.7,4.1,4.1c0,0.8-0.1,1.4-0.4,1.6c2.4,1.6,4.9,3.1,7.3,4.5
	c1.9,1.4,3.7,2.5,5.5,3.4c1.8,0.9,2.9,1.6,3.4,1.8c1.1,0.5,1.8,1.1,2,1.6c0.3,0.5,0.3,0.8,0,0.8c-0.3,0-1.1-0.4-2.6-1.2
	s-3.1-1.8-4.9-2.8c-1.8-1.1-3.4-2.1-4.9-3s-2.4-1.4-2.6-1.4c-0.8-0.5-1.4-0.7-1.6-0.4l-1.2,1.2c-0.3,0-0.9,0.3-2,0.8
	c-1.1,0.5-2.2,1.1-3.4,1.6c-1.2,0.5-2.4,1.1-3.4,1.6c-1.1,0.5-1.8,0.9-2,1.2c-0.3,0.3,0,0.7,0.8,1.4s1.8,1.4,3,2.2s2.4,1.6,3.4,2.2
	c1.1,0.7,1.9,1.1,2.4,1.4c0.3,0.3,0.4,0.7,0.4,1.2v0.4c-0.3,0.3-0.4,0.3-0.4,0c-1.9-1.1-3.5-2.2-4.9-3.2c-1.4-0.8-2.6-1.7-3.9-2.6
	s-2.1-1.7-2.6-2.2c-1.1-0.5-1.8-0.7-2-0.4l-0.8,0.8l1.4,1.4l3.4,3l3.9,3l2.2,1.8v0.8l-0.4,0.4L51,170.3l-0.8,0.8
	c-0.5,0.5-3,1.8-7.3,3.7c-2.2,1.1-4.5,2.2-6.9,3.2c1.4,1.6,2.6,3.1,3.7,4.5c1.1,1.4,2.1,2.6,3,3.7c0.9,1.1,1.7,1.9,2.2,2.4
	c1.6,1.9,2,2.8,1.2,2.8c-0.3,0-1-0.7-2.2-2c-1.2-1.4-2.5-2.8-3.9-4.5c-1.4-1.6-2.7-3.2-4.1-4.7c-1.4-1.5-2.2-2.4-2.4-2.6
	c-0.8-0.5-1.4-0.7-1.6-0.6s-1.1-0.2-2.4-1l-2.6-2.6l-3.9-4.1l-3.4-3.9l-1.8-2.4c-0.5-0.8-0.7-1.6-0.6-2.2c0.1-0.7,0.3-1.4,0.6-2.2
	c0-0.3,0.5-0.7,1.6-1.4c1.1-0.7,2.4-1.4,3.9-2c1.5-0.7,3-1.3,4.5-1.8c1.5-0.5,2.6-0.9,3.4-1.2c1.4,0,2.6-0.5,3.7-1.6l1.2-1.2
	c2.2-0.5,4.2-1.2,6.1-2c1.6-0.5,3.1-1,4.5-1.4c1.4-0.4,2.3-0.7,2.8-1c0.8,0,2.3,0.7,4.5,2c1.1,0.8,2.3,1.5,3.7,2l1.6-0.4l-0.4-1.2
	l3.2-0.8v-3.2c0-0.8,0.1-1.6,0.2-2.2c0.1-0.7,0.2-1.3,0.2-1.8c0.3-0.5,1.6-0.8,3.9-0.8h4.7c0.5,0.3,0-0.1-1.6-1.2
	c-0.8-0.5-1.8-1.1-2.8-1.6c-2.2-3.2-4.1-6.4-5.7-9.3c-1.4-2.4-2.8-4.7-4.3-6.9s-2.5-3.7-3-4.5c-0.5-0.8-1.1-2.4-1.6-4.7
	c-0.5-2.3-1-4.8-1.4-7.5c-0.4-2.7-0.8-5.2-1.2-7.5c-0.4-2.3-0.6-3.7-0.6-4.3c0-0.8,0.8-1.5,2.4-2c0.8-0.3,1.8-0.5,2.8-0.8l4.5,0.4
	h1.2l6.9,0.4l0.8,0.8h2c0.5,0.3,1,0.4,1.4,0.4s0.9,0.1,1.4,0.4c0.5,0.3,1.1,0.4,1.6,0.4l4.1,13c1.1,3.2,2,6.3,2.8,9.1
	s1.2,4.4,1.2,4.7c0,0.5,1.4,0.3,4.1-0.8c1.1-0.3,2.6-0.7,4.5-1.2l5.3,1.2l-3.2-8.5v-2.8l-1.2-2.4l2-13.8l2-2v-0.8l1.2-2
	c4.6,0.5,8.5,1.1,11.8,1.6s6,1.1,8.1,1.6c2.4,0.5,4.3,1.1,5.7,1.6l2,0.8l-0.8,32.1c4.6,1.1,8.8,2,12.6,2.8c3.2,0.5,6.3,1.1,9.1,1.8
	c2.8,0.7,4.8,1,5.9,1c4.1,0,7.1,0.1,9.1,0.4c2,0.3,3.5,0.5,4.5,0.8c0.9,0.3,1.5,0.5,1.6,0.8c0.1,0.3,0.3,0.5,0.6,0.8
	c0.5,0.3,0.9,0.4,1.2,0.4s0.5,0.1,0.8,0.4l0.4,0.4l6.9,1.6l1.2,1.6l15.8,5.3c4.1,1.4,7.8,2.7,11.4,4.1s5.5,2.2,6.1,2.4
	c0.8,0.3,1.9,0.4,3.2,0.4c0.5,0,0.8-0.1,0.8-0.4c4.6,2.2,9.1,4.3,13.4,6.5c3.8,1.9,7.6,3.7,11.4,5.5c3.8,1.8,6.9,3.3,9.3,4.7
	c4.9,2.4,8.1,4.5,9.7,6.1c1.1,1.1,1.8,1.9,2,2.4L282.7,211.7z"/>
</svg>
