<svg xmlns="http://www.w3.org/2000/svg" viewBox="0 -250 1000 1000"><path fill="currentColor" d="M315 335l117 3 73 54 4-39 6-1 5 10 1-3 6-1 5 10 5-7q16 10 28 17 11 6 19.5 11t9.5 5l4 4 10 3 5 10q18 17 29 37 10 17 15.5 39.5T655 536t-23 48-40.5 41.5-65 35T429 688l-1 2-37 7-10-7q-68 3-130-10-27-6-55.5-15.5t-56-25-53-37.5T41 550v-4l7 3 1-3-8-13v-3l14 5v-14q-8-9-15-16l-11-11-4-5v-15l24-40 19-7 29 24 1-2-27-25v-7q0 1 2-1 1-1 2-1l-3-4-1-7 17-5 2-4q1-3 6-6 0-2 1-4 2-3 8-5v-46q0-3 4-6 2-2 5 .5t4 3.5q0 1 .5 0t.5-3 1-3 3-2q2 0 4 .5t5 3.5l1-7q1-1 3-1 3 0 6 1l5.5 5.5 7.5 6.5q4 4 9 8-1 4-1 8v9l2 2q1 1 2 1l5-2 2-2q6-2 11-4 11-4 17-1 12 5 19 14 4 4 5 9l10 18-3 8 63 53 5 3 12 16 2 9 22 18 11 1 24 13 79-28-23-19-1-5-131-105 1-16z"/></svg>