<?xml version="1.0" encoding="utf-8"?>
<!-- Generator: Adobe Illustrator 21.0.2, SVG Export Plug-In . SVG Version: 6.00 Build 0)  -->
<svg version="1.1" id="Layer_1" xmlns="http://www.w3.org/2000/svg" xmlns:xlink="http://www.w3.org/1999/xlink" x="0px" y="0px"
	 width="300px" height="300px" viewBox="0 0 300 300" style="enable-background:new 0 0 300 300;" xml:space="preserve">
<path d="M157.3,55.1v0.8c0.8,0.6,1.8,0.8,2.9,0.8s1.9,0.3,2.5,0.8c0.8,0.6,1.5,1.5,1.9,2.7c0.4,1.2,1.3,2,2.7,2.3
	c0.3-0.3,1.1-0.4,2.5-0.4v-4.6c0.8,0.3,2.1,0.9,3.7,1.9c1.7,1,2.6,1.7,2.9,2.3h0.4c0-0.3,0.1-0.6,0.4-0.8c0.8,0.8,1.8,1.5,2.9,1.9
	c1.1,0.4,2.2,0.9,3.3,1.5c2.5,1.4,5,2.9,7.5,4.6l7.5,5c3.9,2.2,7.8,4.6,11.6,7.3c3.9,2.6,7.8,5.1,11.6,7.3c1.1,0.8,2.2,1.7,3.3,2.7
	c1.1,1,2.4,1.7,3.7,2.3c1.4,0.6,2.6,1,3.5,1.5c1,0.4,2,0.9,3.1,1.5l1.2,1.2c0.3,0,0.4-0.1,0.4-0.4c0.3,0,0.6,0.1,1,0.4
	c0.4,0.3,0.8,0.4,1,0.4c0.8,0.6,1.5,1.2,2.1,1.9c0.6,0.7,1.1,1.3,1.7,1.9c0.8,0.6,1.6,0.9,2.3,1s1.5,0.5,2.3,1
	c1.4,1.1,3,2.1,4.8,2.9c1.8,0.8,3.4,1.8,4.8,2.9c1.1,0.6,2.1,1,3.1,1.5c1,0.4,1.9,0.9,2.7,1.5c0.8,0.8,1.6,1.7,2.3,2.5
	c0.7,0.8,1.5,1.5,2.3,2.1c-0.3,0.6-0.7,1.2-1.2,2.1c-0.6,0.8-1.1,1.4-1.7,1.7c-0.6-0.6-1.9-1-3.9-1.2c-2.1-0.3-3.5-0.6-4.4-0.8v0.4
	c-0.6,0.8-0.8,2.4-0.8,4.6c0.6,0.6,1,1.1,1.2,1.7c0.3,0.6,0.7,1.1,1.2,1.7s1,0.9,1.2,1c0.3,0.1,0.6,0.3,0.8,0.6
	c0.6,0.6,0.7,1,0.4,1.2c-0.3,0.3-0.3,0.7,0,1.2c0.8,1.1,2.1,2.5,3.7,4.2c1.4,1.1,3.1,2.1,5.2,3.1c2.1,1,3.1,2.4,3.1,4.4
	c-0.3,0.3-0.7,0.4-1.2,0.4c-0.3,0-0.6-0.1-1-0.2c-0.4-0.1-0.8-0.2-1-0.2c-1.4,1.4-2.4,2-2.9,1.9c-0.6-0.1-1.8-0.1-3.7,0.2
	c-0.3-0.6-0.6-1-0.8-1.5c-0.3-0.4-0.6-0.9-0.8-1.5c-0.6-0.8-0.8-1.7-0.6-2.7c0.1-1-0.1-1.7-0.6-2.3c-0.3,0-0.8-0.4-1.5-1.2
	s-1-1.4-1-1.7h-1.2c-0.6,0-1-0.2-1.2-0.6s-0.6-0.8-0.8-1c-0.6-0.6-1.2-1.5-2.1-2.7c-0.8-1.2-1.7-1.9-2.5-1.9
	c-0.6-0.6-1.4-0.7-2.5-0.4c-1.1,0.3-2.1,0.1-2.9-0.4v0.8c1.7,0.6,3.3,2.4,5,5.4c1.7,3,2.8,5.3,3.3,6.6c-0.6,0-1.1,0.3-1.7,0.8h-0.4
	c-0.6-0.6-0.9-1-1-1.2c-0.1-0.3-0.5-0.6-1-0.8c0,0.6-0.3,1.4-0.8,2.5c1.1,0.8,1.9,1.8,2.3,2.9c0.4,1.1,1,2.1,1.9,2.9v0.4
	c-0.6,0.8-1,1.4-1.2,1.7c-0.3-0.3-0.6-0.4-0.8-0.4c-0.3,0.3-0.5,0.6-0.6,0.8s-0.5,0.6-1,0.8c0.3,0.3,0.4,0.6,0.4,0.8l-1.2,1.2
	c-0.3,0-0.4-0.1-0.4-0.4c-0.6-0.6-1.4-1.5-2.5-2.7c-1.1-1.2-1.8-2.1-2.1-2.7c-0.3,0-1.2,0.3-2.7,0.8s-2.4,1-2.7,1.2
	c0.6,0.6,1,1.1,1.5,1.7c0.4,0.6,0.9,1.1,1.5,1.7c-0.6,1.1-1.2,1.7-2.1,1.7c-0.6-0.3-1-0.6-1.5-0.8s-0.9-0.7-1.5-1.2l-6.2-6.2
	c-0.6-0.6-1-1.2-1.2-2.1c-0.3-0.8-0.7-1.5-1.2-2.1c-0.6-0.6-0.9-1-1-1.2c-0.1-0.3-0.5-0.7-1-1.2c-1.4-1.4-2.7-2.8-3.9-4.4
	c-1.2-1.5-2.3-3.1-3.1-4.8c0,1.9-0.7,3-2.1,3.3s-2.4,1.1-2.9,2.5c0.6,0.6,1.7,2.1,3.3,4.8s2.6,4.2,2.9,4.8c-0.6,0.6-0.8,1-0.8,1.2
	c0.3,0,0.4,0.3,0.4,0.8c0,0.3-0.3,0.4-0.8,0.4c0.3,0.6,0.5,0.8,0.6,0.8c0.1,0,0.2,0.3,0.2,0.8c-0.3,0.3-0.7,0.8-1.2,1.7
	c0.6,0.6,1,1.2,1.5,1.9c0.4,0.7,0.9,1.3,1.5,1.9c0.8,1.4,1.8,2.9,2.9,4.6c1.1,1.7,2.1,3.2,2.9,4.6c0.3,0.6,0.4,1,0.4,1.2
	s0.3,0.7,0.8,1.2c0.8,1.1,1.6,2.2,2.3,3.3s1.3,2.4,1.9,3.7l3.3,5l2.9,5.4c0.6,1.1,0.8,2.2,0.8,3.3s0.3,2.4,0.8,3.7
	c0.6,1.1,1.2,2.1,1.9,3.1c0.7,1,1.3,2,1.9,3.1c3,6.9,5.5,13.7,7.5,20.4c0.6,1.7,1,3.3,1.2,4.8c0.3,1.5,0.7,3.1,1.2,4.8
	c1.1,3,2.1,6,2.9,8.9s-0.4,5.5-3.7,7.7c-0.6,0.3-1.1,0.4-1.7,0.4s-1.1,0.1-1.7,0.4c-2.8,1.4-6.2,2.3-10.2,2.7s-7.4-0.1-10.2-1.5
	c-2.2-1.4-4.2-3.4-6-6s-3.5-5.1-5.2-7.3c-3-4.4-6-8.8-8.9-13.1c-2.9-4.3-5.7-8.7-8.5-13.1c-0.8-1.4-1.7-2-2.7-1.9
	c-1,0.1-1.9-0.2-2.7-1c-0.6-1.1-1.1-2.1-1.7-2.9l-2.5-4.2l-2.9-4.2c-1.1-1.9-2.2-3.8-3.3-5.6s-2.4-3.7-3.7-5.6
	c-0.6-0.8-1.2-1.7-2.1-2.5s-1.2-1.8-1.2-2.9l0.4-0.4c-0.3-0.3-0.4-0.8-0.4-1.7c0.3-0.6,0.4-1,0.4-1.2s0.1-0.6,0.4-0.8
	c0.6-0.6,1-1,1.5-1.2s0.8-0.7,1-1.2c-1.1-0.8-1.8-1.5-2.1-2.1c-0.3-0.6-1.2-0.8-2.9-0.8c-0.3,0.3-1.6,0.6-3.9,0.8
	c-2.4,0.3-3.8,0.3-4.4,0c-0.3,0-0.8-0.2-1.5-0.6s-1.2-0.6-1.5-0.6c-0.6-0.6-0.8-1-0.8-1.2s-0.3-0.4-0.8-0.4v0.8
	c-1.4-1.1-2.8-1.9-4.4-2.3s-2.8-1-3.9-1.9c-1.4-2.2-2.6-4.5-3.7-6.9c-1.1-2.4-2.4-4.8-3.7-7.3l-1.2,1.2l-6.2,1.2
	c-0.6-0.8-1.2-1.4-2.1-1.7c-0.8-0.3-1.5-0.7-2.1-1.2c-0.6-0.6-0.8-1.1-0.8-1.7c0-0.6-0.1-1.1-0.4-1.7c-0.6-0.6-1-1.3-1.5-2.3
	c-0.4-1-0.8-1.7-1-2.3c-0.3-1.1-0.1-1.9,0.4-2.5c-0.6-1.1-0.8-2.1-0.8-2.9l1.2-1.2c-0.6-0.6-0.9-1-1-1.5c-0.1-0.4-0.5-0.8-1-1
	c-1.1,0.6-2.5,0.9-4.2,1c-1.7,0.1-3.2,0.5-4.6,1c-2.8,0.8-5.6,1.5-8.5,2.1s-5.7,1.1-8.5,1.7c-1.4,0.6-2.6,0.8-3.7,0.8
	c-1.1,0-2.2,0.3-3.3,0.8c1.4,3.9,2.8,7.8,4.4,11.8c1.5,4,3.1,8,4.8,11.8c0,0.6-0.1,1.1-0.2,1.7c-0.1,0.6-0.2,1-0.2,1.2
	c0,0.6,0.1,1,0.2,1.2c0.1,0.3,0.2,0.7,0.2,1.2c-0.6,0-0.8,0.6-0.8,1.7c0.3,0,0.6,1,0.8,2.9c0.3,1.9,0.4,3,0.4,3.3l-0.8,1.7
	c-0.3-0.3-0.7-0.6-1.2-0.8c-0.6,0.6-0.9,1-1,1.2s-0.1,0.8,0.2,1.7c-0.6,0.3-0.9,0.5-1,0.6c-0.1,0.1-0.5,0.3-1,0.6
	c-0.8-0.8-1.4-1.9-1.7-3.1c-0.3-1.2-0.7-2.3-1.2-3.1l-2.5,0.8l-2.5,0.8c-1.4,0-2.1,0.1-2.1,0.4c0.6,0.6,1,1.6,1.5,3.1
	c0.4,1.5-0.1,2.4-1.5,2.7c-0.6,0-1-0.1-1.2-0.4c-0.3-0.3-0.8-1.1-1.7-2.5l-0.8,0.8c-0.8-0.6-1.4-1.2-1.7-2.1
	c-0.3-0.8-0.7-1.7-1.2-2.5c-0.6-0.6-1-1.2-1.5-2.1c-0.4-0.8-0.9-1.5-1.5-2.1c-0.6-1.1-0.9-2.1-1-2.9c-0.1-0.8-0.5-1.8-1-2.9
	c-0.8-2.8-1.9-6-3.3-9.6c-0.3-1.4-0.6-3-1-4.8c-0.4-1.8-0.9-3.1-1.5-3.9c0,1.1,0.1,2.6,0.4,4.6c0.3,1.9,0.3,3.2,0,3.7
	c-0.8,0.6-2.5,1.2-5,1.9c-2.5,0.7-3.9,1.6-4.2,2.7c0.3,0.6,0.4,1.4,0.4,2.5c0.3,0.3,0.5,0.6,0.6,1c0.1,0.4,0.3,0.9,0.6,1.5
	c0.3,0.8,0,1.7-0.8,2.5c0.6,1.7,0.8,2.9,0.8,3.7l3.7,3.7c0.6,0.8,1.1,1.8,1.7,2.9s0.7,1.9,0.4,2.5l-0.8,0.4
	c-0.3-0.6-0.8-0.8-1.7-0.8c-0.6,0.6-1.3,1.2-2.3,1.9s-2.1,0.8-3.5,0.2c-0.6-0.6-1.1-0.8-1.7-0.8c0,0.3-0.3,0.7-0.8,1.2h-0.4
	c-0.8-1.4-1-3-0.4-4.8c0.6-1.8,1-3.3,1.2-4.4c-0.3-0.6-0.4-1.2-0.4-1.9s-0.1-1.3-0.4-1.9c-0.3-0.3-0.6-0.5-0.8-0.6
	c-0.3-0.1-0.6-0.5-0.8-1c-0.6-1.1-1-2.1-1.2-2.9c0-0.6-0.1-1.2-0.2-2.1c-0.1-0.8-0.5-1.4-1-1.7c-0.8-0.6-1.7-0.9-2.7-1
	c-1-0.1-1.7-0.8-2.3-1.9c-0.6-0.6-1-1.4-1.2-2.5c-0.3-1.1-0.7-1.8-1.2-2.1c-0.6,0.3-1,0.3-1.2,0.2c-0.3-0.1-0.7-0.1-1.2,0.2
	c-1.1,0.6-2.1,1-2.9,1.2c-1.9,0.8-3.9,1.9-5.8,3.1c-1.9,1.2-4,2.1-6.2,2.7c-0.6-0.8-1.1-1.5-1.7-1.9s-1-1.2-1.2-2.3
	c-0.6-1.1-0.8-2.8-0.8-5c1.1-0.6,2-1.2,2.7-2.1c0.7-0.8,1.5-1.7,2.3-2.5c1.4-1.1,2.8-2.3,4.2-3.5c1.4-1.2,2.8-2.6,4.2-3.9
	c0.8-0.6,1.7-1.2,2.7-1.9c1-0.7,1.5-1.7,1.5-3.1c0.6-0.6,0.8-1.2,0.8-1.9s0.3-1.3,0.8-1.9c0.6-0.8,1.3-1.5,2.3-2.1
	c1-0.6,1.7-1.1,2.3-1.7h0.8c0.6,0,0.9-0.3,1-0.8c0.1-0.6,0.5-1.1,1-1.7c1.1-0.6,2.1-1.2,3.1-1.9c1-0.7,1.9-1.5,2.7-2.3
	c0.8-0.8,2.1-2.4,3.7-4.6c0.3-0.6,0.4-1.1,0.4-1.7s-0.1-1.1-0.4-1.7c-0.3-0.6-0.4-1.2-0.4-2.1c0.3-0.6,0.5-1,0.6-1.5
	s0.3-0.9,0.6-1.5c0-1.4-0.1-2.7-0.4-3.9c-0.3-1.2-0.6-2.6-0.8-3.9c0.6-0.6,1-1.1,1.5-1.7c0.4-0.6,1-1,1.9-1.2c0.3,0.6,0.6,1.6,1,3.1
	c0.4,1.5,0.9,2.3,1.5,2.3c1.4-0.8,2.8-1,4.2-0.4v-0.8c-0.8-1.1-1.2-2.8-1.2-5h0.8c0.8,0.6,1.5,1,2.1,1.5s1.1,1.2,1.7,2.3l0.4-0.4
	c1.1-1.1,2.1-2.3,3.1-3.5c1-1.2,1.9-2.6,2.7-3.9c1.4-1.9,2.9-3.7,4.6-5.4c1.7-1.7,3.2-3.5,4.6-5.4c1.1-1.4,2.6-3,4.4-4.8
	s3.5-3,5.2-3.5c0,0.3,0.1,0.4,0.4,0.4l0.4-0.4V70c0.8-0.6,1.7-1.2,2.7-2.1c1-0.8,2-1.7,3.1-2.5h0.4c0.3,0.8,0.7,1.7,1.2,2.7
	c0.6,1,1.2,1.5,2.1,1.5c0.6-0.3,1.2-0.4,2.1-0.4h2.1c0-0.8,0.1-1.4,0.4-1.7c0.3-0.6,0.6-0.8,0.8-0.6c0.3,0.1,0.6-0.1,0.8-0.6
	c0-0.6,0.1-1.1,0.4-1.7c0.3-0.6,0.6-0.8,1-0.8s0.9-0.3,1.5-0.8c0.6-0.6,1-1.1,1.2-1.7c0.3-0.6,0.7-1.1,1.2-1.7
	c0.3-0.3,0.5-0.3,0.6-0.2c0.1,0.1,0.3,0.1,0.6-0.2c0.6-1.4,1-2.1,1.2-2.1h1.2c0.6-0.6,1-1,1.2-1.5c0.3-0.4,0.7-0.8,1.2-1
	c0,0.3,0.1,0.4,0.2,0.4c0.1,0,0.2,0.1,0.2,0.4c0.3,0,0.5-0.1,0.6-0.2c0.1-0.1,0.3-0.2,0.6-0.2c0-0.3-0.1-0.5-0.2-0.6
	c-0.1-0.1-0.2-0.3-0.2-0.6h0.4c1.1-0.8,2.1-1,2.9-0.4c0.8,0.6,1.5,0.8,2.1,0.8c0-0.3,0.1-0.4,0.4-0.4c0.6,0.3,1.2,0.7,1.9,1.2
	c0.7,0.6,1.6,0.7,2.7,0.4c0.8-0.3,1.7-0.4,2.7-0.4s1.7-0.1,2.3-0.4h2.1c0.6,0,1.3-0.1,2.3-0.4c1-0.3,1.7-0.3,2.3,0
	c0.6,0,1.2,0.1,1.9,0.4S156.4,55.1,157.3,55.1z"/>
</svg>
