<svg xmlns="http://www.w3.org/2000/svg" viewBox="0 -250 1000 1000"><path fill="currentColor" d="M337 273v2q3 2 7 2t6 2q3 2 4.5 6.5t6.5 5.5q1-1 6-1v-11q3 1 9 4.5t7 5.5h1q0-1 1-2 3 3 7 4.5t8 3.5q9 5 18 11l18 12q14 8 28 17.5t28 17.5q4 3 8 6.5t9 5.5 8.5 3.5 7.5 3.5l3 3q1 0 1-1 1 0 2.5 1t2.5 1q3 2 5 4.5t4 4.5q3 2 5.5 2.5t5.5 2.5q5 4 11.5 7t11.5 7q4 2 7.5 3.5t6.5 3.5q3 3 5.5 6t5.5 5q-1 2-3 5t-4 4q-2-2-9.5-3t-10.5-2v1q-2 3-2 11 2 2 3 4t3 4 3 2.5 2 1.5q2 2 1 3t0 3q3 4 9 10 5 4 12.5 7.5T614 484q-1 1-3 1-1 0-2.5-.5t-2.5-.5q-5 5-7 4.5t-9 .5q-1-2-2-3.5t-2-3.5q-2-3-1.5-6.5T583 470q-1 0-3.5-3t-2.5-4h-3q-2 0-3-1.5t-2-2.5q-2-2-5-6.5t-6-4.5q-2-2-6-1t-7-1v2q6 2 12 13t8 16q-2 0-4 2h-1q-2-2-2.5-3t-2.5-2q0 2-2 6 4 3 5.5 7t4.5 7v1q-2 3-3 4-1-1-2-1-1 1-1.5 2t-2.5 2q1 1 1 2l-3 3q-1 0-1-1-2-2-6-6.5t-5-6.5q-1 0-6.5 2t-6.5 3q2 2 3.5 4t3.5 4q-2 4-5 4-2-1-3.5-2t-3.5-3l-15-15q-2-2-3-5t-3-5-2.5-3-2.5-3q-5-5-9.5-10.5T479 452q0 7-5 8t-7 6q2 2 8 11.5t7 11.5q-2 2-2 3 1 0 1 2 0 1-2 1 1 2 1.5 2t.5 2q-1 1-3 4 2 2 3.5 4.5t3.5 4.5q3 5 7 11t7 11q1 2 1 3t2 3q3 4 5.5 8t4.5 9l8 12 7 13q2 4 2 8t2 9q2 4 4.5 7.5t4.5 7.5q11 25 18 49 2 6 3 11.5t3 11.5q4 11 7 21.5t-9 18.5q-2 1-4 1t-4 1q-10 5-24.5 6.5T505 731q-8-5-14.5-14.5T478 699q-11-16-21.5-31.5T436 636q-3-5-6.5-4.5T423 629q-2-4-4-7l-6-10-7-10q-4-7-8-13.5t-9-13.5q-2-3-5-6t-3-7l1-1q-1-1-1-4 1-2 1-3t1-2q2-2 3.5-3t2.5-3q-4-3-5-5t-7-2q-1 1-9.5 2t-10.5 0q-1 0-3.5-1.5T350 538q-2-2-2-3t-2-1v2q-5-4-10.5-5.5T326 526q-5-8-9-16.5t-9-17.5l-3 3-15 3q-2-3-5-4t-5-3-2-4-1-4q-2-2-3.5-5.5T271 472q-1-4 1-6-2-4-2-7l3-3q-2-2-2.5-3.5T268 450q-4 2-10 2.5t-11 2.5q-10 3-20.5 5t-20.5 4q-5 2-9 2t-8 2q5 14 10.5 28.5T211 525q0 2-.5 4t-.5 3q0 2 .5 3t.5 3q-2 0-2 4 1 0 2 7t1 8l-2 4q-1-1-3-2-2 2-2.5 3t.5 4q-2 1-2.5 1.5T200 569q-3-3-4-7.5t-3-7.5l-6 2-6 2q-5 0-5 1 2 2 3.5 7.5T176 573q-2 0-3-1t-4-6l-2 2q-3-2-4-5t-3-6q-2-2-3.5-5t-3.5-5q-2-4-2.5-7t-2.5-7q-3-10-8-23-1-5-2.5-11.5T134 489q0 4 1 11t0 9q-3 2-12 4.5t-10 6.5q1 2 1 6 1 1 1.5 2.5t1.5 3.5q1 3-2 6 2 6 2 9l9 9q2 3 4 7t1 6l-2 1q-1-2-4-2-2 2-5.5 4.5t-8.5.5q-2-2-4-2 0 1-2 3h-1q-3-5-1-11.5t3-10.5q-1-2-1-4.5t-1-4.5q-1-1-2-1.5t-2-2.5q-2-4-3-7 0-2-.5-5t-2.5-4q-3-2-6.5-2.5T82 516q-2-2-3-6t-3-5q-2 1-3 .5t-3 .5q-4 2-7 3-7 3-14 7.5T34 523q-2-3-4-4.5t-3-5.5q-2-4-2-12 4-2 6.5-5t5.5-6q5-4 10-8.5t10-9.5q3-2 6.5-4.5T67 460q2-2 2-4.5t2-4.5q2-3 5.5-5t5.5-4h2q2 0 2.5-2t2.5-4q4-2 7.5-4.5t6.5-5.5 9-11q1-2 1-4t-1-4-1-5q1-2 1.5-3.5t1.5-3.5q0-5-1-9.5t-2-9.5q2-2 3.5-4t4.5-3q1 2 2.5 7.5t3.5 5.5q5-3 10-1v-2q-3-4-3-12h2q3 2 5 3.5t4 5.5l1-1q4-4 7.5-8.5t6.5-9.5q5-7 11-13t11-13q4-5 10.5-11.5T203 311q0 1 1 1l1-1v-2q3-2 6.5-5t7.5-6h1q1 3 3 6.5t5 3.5q2-1 5-1h5q0-3 1-4 1-2 2-1.5t2-1.5q0-2 1-4t2.5-2 3.5-2 3-4 3-4q1-1 1.5-.5t1.5-.5q2-5 3-5h3q2-2 3-3.5t3-2.5q0 1 .5 1t.5 1q1 0 1.5-.5t1.5-.5q0-1-.5-1.5t-.5-1.5h1q4-3 7-1t5 2q0-1 1-1 2 1 4.5 3t6.5 1q3-1 6.5-1t5.5-1h5q2 0 5.5-1t5.5 0q2 0 4.5 1t5.5 1z"/></svg>