<?xml version="1.0" encoding="utf-8"?>
<!-- Generator: Adobe Illustrator 21.0.2, SVG Export Plug-In . SVG Version: 6.00 Build 0)  -->
<svg version="1.1" id="Layer_1" xmlns="http://www.w3.org/2000/svg" xmlns:xlink="http://www.w3.org/1999/xlink" x="0px" y="0px"
	 width="300px" height="300px" viewBox="0 0 300 300" style="enable-background:new 0 0 300 300;" xml:space="preserve">
<path d="M230.2,117.6v0.8c1.7,1.1,2.5,2.9,2.5,5.4c-0.3,0.3-0.5,0.4-0.6,0.4c-0.1,0-0.3,0.1-0.6,0.4c-1.9,0-3.4-0.3-4.4-1
	s-2-1.5-3.1-2.3c-0.6-0.3-1-0.6-1.5-1s-1-0.8-1.9-1c-0.3,0.3-1.1,0.4-2.5,0.4c-1.1,0.6-2.3,0.9-3.6,1c-1.3,0.1-2.6,0.3-4,0.6
	c-0.6,0.3-1,0.4-1.5,0.4s-0.9,0.1-1.5,0.4h0.4c0.8,0.6,1.7,0.9,2.7,1s1.9,0.5,2.7,1c1.4,1.1,2.9,1.8,4.6,2.1c0-0.8,1-1.3,2.9-1.3
	c1.1,1.7,2.6,2.9,4.6,3.8c0.3,0.6,0.6,0.9,0.8,1s0.6,0.5,0.8,1c1.1,0.8,2.2,1.6,3.1,2.3c1,0.7,1.9,1.6,2.7,2.7
	c0,0.6,0.1,1.2,0.2,1.9s0.2,1.5,0.2,2.3c0.6,0.3,1.3,0.7,2.1,1.3s1.4,1.1,1.7,1.7c0.3,0.3,0.4,0.8,0.4,1.7c0.8,0.8,1.7,1.6,2.5,2.3
	c0.8,0.7,1.7,1.5,2.5,2.3c1.1,0,1.9,0.1,2.5,0.4c0.6,0.6,0.8,1,0.8,1.3v0.4c-0.6,0.6-1.3,0.9-2.1,1s-1.5,0.3-2.1,0.6
	c-1.7,0.6-2.9,0.8-3.8,0.8c-1.4,0.6-2.4,0.4-3.1-0.4s-1.3-1.5-1.9-2.1c-1.1-0.8-2.2-1.7-3.1-2.7c-1-1-2-1.7-3.1-2.3
	c-0.6-0.6-0.9-1-1-1.3c-0.1-0.3-0.5-0.6-1-0.8c-0.6,0-1-0.1-1.3-0.2c-0.3-0.1-0.7-0.2-1.3-0.2c-0.6,0-1-0.2-1.3-0.6
	s-0.7-0.6-1.3-0.6H218c-1.9-0.6-3.3-1.4-4.2-2.5c-0.6,1.9-1.7,2.6-3.3,2.1s-2.9-1.4-3.8-2.5c-2.2,1.1-3.8,0.9-4.6-0.6
	s-1.9-2.6-3.3-3.1c-0.6,0.6-1.5,0.8-2.9,0.6s-2.4-0.3-2.9-0.6c-1.7-0.8-3-1.7-4-2.7c-1-1-2.2-2-3.6-3.1c-0.6-0.6-1-1.2-1.5-1.9
	c-0.4-0.7-1.2-1-2.3-1c-1.1,0.6-2.4,1-3.8,1.3s-2.6,0.7-3.8,1.3c-0.6,0.3-1.2,0.4-1.9,0.4c-0.7,0-1.2,0.3-1.5,0.8
	c0.8,0.6,1.6,1.3,2.3,2.1c0.7,0.8,1.5,1.7,2.3,2.5v-0.4c-0.3-0.3-0.4-1-0.4-2.1c0.6-0.6,1.1-0.8,1.7-0.8c0.6,0.6,1,1.2,1.5,1.9
	c0.4,0.7,0.8,1.3,1,1.9c0,0.3-0.1,0.4-0.2,0.4s-0.2,0.1-0.2,0.4l1.3,2.9c0.3,0.3,0.6,0.5,0.8,0.6c0.3,0.1,0.6,0.3,0.8,0.6v0.8
	c0.3,0.6,0.6,0.8,0.8,0.8s0.6,0.1,0.8,0.4l1.5,1.5l1.9,0.6c0.6-0.6,1.3-1.2,2.3-1.9c1-0.7,2-0.8,3.1-0.2c0.8,0,1.4,0.1,1.7,0.4
	s1.1,0.4,2.5,0.4l1.7,1.7l2.1,1.7v-2.5h2.9c0.6,0.3,0.9,0.6,1,1s0.3,0.8,0.6,1c1.1,0.6,2.1,1,2.9,1.3l3.8,2.5
	c0.8,0.6,1.8,1.5,2.9,2.7c1.1,1.3,1.9,2.3,2.5,3.1l2.1,2.1c1.7,2.2,3.3,4.4,5,6.5c1.7,2.1,3.1,4.4,4.2,6.9v1.7
	c0.6,0,0.8,0.3,0.8,0.8c0,0.6,0.1,1.1,0.4,1.7c0,0.3,0.1,0.6,0.4,0.8s0.4,0.7,0.4,1.3c0.3,0.3,0.1,1.2-0.6,2.7s-1.2,2.6-1.5,3.1
	c-0.8,1.7-2,3.2-3.6,4.6s-3.1,2.6-4.8,3.8c-0.6,0.6-1.7,1.1-3.3,1.7l-0.4,0.4l-0.4,0.4c-0.3,0-0.6-0.1-0.8-0.2
	c-0.3-0.1-0.6,0.1-0.8,0.6c0.3,0,0.4,0.1,0.4,0.2c0,0.1,0.3,0.2,0.8,0.2h0.4c0.3,0.6,0.6,0.8,1,0.8s0.8,0.3,1,0.8s0.5,1,0.6,1.5
	s0.3,0.9,0.6,1.5v0.8l1.7,1.7v1.3c0.3,0.3,0.5,0.6,0.6,0.8c0.1,0.3,0.5,0.6,1,0.8c0.6,0.6,1,1,1.3,1.5c0.3,0.4,0.7,0.9,1.3,1.5
	c0.3,0.3,0.5,0.3,0.6,0.2s0.2,0.1,0.2,0.6c0.8,0.6,1.3,1.4,1.3,2.5c-0.3,0.3-0.7,0.4-1.3,0.4c-0.3-0.3-0.6-0.4-0.8-0.4v0.4
	c-0.3,0.3-0.7,0.4-1.3,0.4c-0.3-0.3-0.6-0.5-1-0.6s-0.8-0.3-1-0.6v-0.8c-0.6-0.3-1.1-0.7-1.7-1.3s-1-1.1-1.5-1.7s-0.9-1.1-1.5-1.7
	c-0.6-0.6-0.9-1-1-1.3c-0.1-0.3-0.5-0.4-1-0.4c-0.3,0.3-0.5,0.3-0.6,0.2c-0.1-0.1-0.3-0.1-0.6,0.2c-0.6,0.6-0.8,1.3-0.6,2.1
	s-0.1,1.5-0.6,2.1c-0.3,0.6-0.6,0.8-0.8,0.6s-0.7-0.1-1.3,0.2s-1,0.8-1.3,1.5s-0.7,1.2-1.3,1.5c-0.6,0.6-1.6,0.9-3.1,1
	c-1.5,0.1-2.7,0.1-3.6-0.2c-0.6-0.6-1.3-0.8-2.1-0.8c0.6,0.6,1,1.1,1.5,1.7c0.4,0.6,0.9,1.1,1.5,1.7c0.3,0.3,0.5,0.4,0.6,0.4
	s0.3,0.1,0.6,0.4c0.3,0.6,0.4,1,0.4,1.5s0.1,0.9,0.4,1.5c-0.3,0.3-0.7,0.4-1.3,0.4c-0.3-0.3-0.6-0.4-0.8-0.4c0,0.6-0.1,0.8-0.2,0.6
	s-0.2-0.1-0.2,0.2h-0.4c-1.1-0.6-1.9-1.1-2.3-1.7s-0.9-1.3-1.5-2.1l-2.5-2.5c-0.6-1.4-1.4-2.2-2.5-2.5h-0.4l-0.4-0.4v-0.8
	c-0.3-0.3-0.6-0.4-0.8-0.4s-0.6-0.1-0.8-0.4v-1.3h-0.8c-0.6-0.6-0.9-1.6-1-3.1c-0.1-1.5,0.1-2.6,0.6-3.1c0.6-0.3,1.7-0.7,3.3-1.3
	c0,0.8,0.6,1.5,1.7,2.1c0-0.6,0.1-1,0.2-1.5s0.2-0.9,0.2-1.5c-11.1,0-20.1-2.2-26.7-6.7c-0.6-0.6-1-1.1-1.3-1.7
	c-2.8-1.9-4.9-4.3-6.5-7.1c-1.5-2.8-3.3-5.7-5.2-8.8c-0.3-0.8-0.6-1.7-1-2.5s-0.9-1.5-1.5-2.1v-1.7c-0.3-0.6-0.6-0.9-1-1
	s-0.8-0.5-1-1c-0.3-0.3-0.6-0.8-1-1.7s-0.9-1.4-1.5-1.7h-0.8c-0.6,0-0.9-0.2-1-0.6s-0.3-0.8-0.6-1c0-0.6,0.1-1,0.2-1.3
	s0.2-0.7,0.2-1.3c0.3-0.3,1.3-0.4,2.9-0.4v0.4c0.6,0.3,0.9,0.6,1,1s0.5,0.6,1,0.6h0.4l-0.4-0.4c0.6-0.3,1.2-0.6,1.9-0.8
	s1.3-0.6,1.9-0.8c0.6,0,0.9,0.1,1,0.2s0.3,0.2,0.6,0.2h1.7c0-1.9,0.1-3.3,0.4-4c0.3-0.7,0.7-1.6,1.3-2.7c-0.3-0.3-0.7-0.9-1.3-1.9
	s-1-1.7-1.3-2.3v-0.8c-0.3-0.3-1-1-2.1-2.3c-1.1-1.3-1.8-1.9-2.1-1.9c-0.3,0.6-0.8,1.1-1.7,1.7s-1.5,0.7-2.1,0.4s-1.6-1.4-3.1-3.3
	c-1.5-1.9-2.6-3.2-3.1-3.8c-0.6-0.3-0.8-0.6-0.8-0.8s-0.1-0.6-0.4-0.8c-0.6,0.6-1.3,0.9-2.3,1c-1,0.1-1.7,0.3-2.3,0.6
	c1.7,2.2,2.1,4.7,1.3,7.5c-1.4,4.5-4.3,7.1-8.8,7.9c-1.7,0.6-3.1,0.6-4.2,0c-1.1-0.6-2.4-1-3.8-1.3v3.3l0.8,0.8
	c0.6,0.6,0.8,1.8,0.8,3.8l-1.5,1.5l-2.3,0.6c-0.8,0-1.4-0.1-1.7-0.4c-1.4-0.8-2.4-2.2-2.9-4.2h-0.4c-0.6,0.6-0.6,1.5,0,2.9
	c0.6,0.8,1,1.5,1.5,1.9c0.4,0.4,0.6,1.5,0.6,3.1c-0.6,0.6-1,1.1-1.5,1.7s-1.3,0.8-2.7,0.8c-0.3-0.3-0.5-0.4-0.6-0.4
	c-0.1,0-0.3-0.1-0.6-0.4c-0.6-0.6-1.1-1.3-1.7-2.1l-1.7-2.5l-0.4,0.4c-0.8,0.3-1.3,1.4-1.3,3.3c0.6,0.8,0.9,1.9,1,3.1
	s0.1,2.3-0.2,3.1c-0.3,0.3-0.8,0.4-1.7,0.4c-0.6-0.6-1-0.8-1.5-0.8c-0.4,0-0.9-0.3-1.5-0.8c-0.6-0.3-0.9-0.7-1-1.3s-0.5-1.1-1-1.7
	v0.8c0.3,0.6,0.3,1,0.2,1.3s-0.2,0.7-0.2,1.3c0.6,0.6,0.8,1.1,0.8,1.7c0.3,0.8,0.3,1.5,0.2,2.1c-0.1,0.6-0.2,1.3-0.2,2.1
	c-0.3,0-0.4,0.1-0.4,0.2s-0.3,0.2-0.8,0.2c-0.6-0.6-1.2-0.9-1.9-1s-1.3-0.5-1.9-1s-0.9-1.2-1-1.9c-0.1-0.7-0.6-1.2-1.5-1.5
	c-0.6,0.6-1.5,1.3-2.7,2.3c-1.3,1-2.2,1.7-2.7,2.3l0.4,0.8c0,0.8,0.1,1.5,0.4,2.1c0,0.6,0.1,1,0.4,1.3s0.6,0.7,0.8,1.3h0.4
	c0.3,0.6,0.6,0.9,1,1c0.4,0.1,0.8,0.5,1,1c0.8,1.4,1.5,2.7,2.1,4c0.6,1.3,1.5,2.4,2.9,3.6v0.8c0,0.6-0.1,0.8-0.4,0.8
	c-0.6,0.6-2.2,1.2-4.8,1.9s-4.4,1-5.2,1c-0.3-0.6-0.6-0.8-0.8-0.8s-0.6-0.3-0.8-0.8c-0.6-0.8-1-1.6-1.3-2.3s-0.7-1.5-1.3-2.3
	c-0.3-0.6-0.6-1-0.8-1.3s-0.6-0.7-0.8-1.3v-0.8c0-0.6-0.6-1.7-1.7-3.3c-0.3-0.3-0.6-0.5-0.8-0.6c-0.3-0.1-0.6-0.5-0.8-1
	s-0.8-1.5-1.5-2.7s-1.2-2.2-1.5-2.7c0.3-0.6,0.4-1.4,0.4-2.5c1.1,0,2-0.2,2.7-0.6c0.7-0.4,1.6-0.6,2.7-0.6c-0.3-0.8-0.8-1.7-1.7-2.5
	c-0.6-1.4-1.3-2.8-2.1-4.2s-1.3-2.9-1.3-4.6c0.6,0,1.2-0.1,1.9-0.4c0.7-0.3,1.2-0.3,1.5,0l0.8,0.8c1.1-1.7,2.2-2.8,3.3-3.3h0.4v-0.8
	c0.6-0.6,1.1-1,1.7-1.5s1-0.9,1.3-1.5c-0.3-0.3-0.5-0.6-0.6-0.8c-0.1-0.3-0.3-0.6-0.6-0.8c-0.8,0.6-1.9,1-3.1,1.3
	c-1.3,0.3-2.4,0.6-3.6,0.8c-0.8,0.6-1.7,0.9-2.7,1s-1.9,0.5-2.7,1h-0.8c-0.3,0-0.4-0.1-0.4-0.4l-0.4,0.8c-0.6,0.3-1,0.4-1.5,0.4
	s-0.8,0.1-1,0.4c-2.2,0.6-4,1.1-5.4,1.7c0.6,1.1,1,2.3,1.3,3.6c0.3,1.3,0.1,2.6-0.4,4c-0.8,0.8-1.4,1.3-1.7,1.3
	c-1.7,0.6-3.1-0.1-4.4-2.1c-1.3-1.9-2.2-3.5-2.7-4.6c-1.1,0.6-2.5,1.1-4.2,1.7c-1.7,0.6-3.1,0.7-4.2,0.4v0.8c-1.4,0-3.2,0.6-5.4,1.7
	c-1.4,0.6-2.6,0.9-3.8,1c-1.1,0.1-2.4,0.5-3.8,1c-0.8,0.6-1.7,0.8-2.7,0.8c-1,0-1.7,0.3-2.3,0.8c-0.3,0-0.4,0.1-0.4,0.4
	c0.6,0.6,0.8,1.3,0.6,2.1c-0.1,0.8-0.1,1.7,0.2,2.5c0.6,1.4,1.3,2.9,2.1,4.4c0.8,1.5,0.8,3.4,0,5.6c-0.3,0.8-1,1.8-2.1,2.9
	c-1.4,0-2.4-0.2-3.1-0.6c-0.7-0.4-1.5-0.9-2.3-1.5c-1.1-0.6-1.8-1.5-2.1-2.9c-0.3-1.4-0.7-2.8-1.3-4.2c-1.4-2.5-2.6-5.1-3.8-7.7
	c-1.1-2.6-2.1-5.4-2.9-8.1v-1.7c-0.6-1.1-0.7-2.1-0.4-2.9l0.4-0.4c0-0.6-0.1-1-0.4-1.3c0-1.4,0.6-2.4,1.7-2.9c0.6-0.6,1.3-0.6,2.1,0
	s1.3,1.1,1.3,1.7h0.4v-0.8c-0.6-0.6-1.1-1.6-1.7-3.1c-0.6-1.5-1-2.6-1.3-3.1c-0.3-0.6-0.3-1-0.2-1.5c0.1-0.4,0.1-0.9-0.2-1.5h0.4
	c0-0.3,0.1-0.4,0.4-0.4h0.4l0.4,0.4h0.4v-0.8c1.7-0.3,3.2-1,4.6-2.1c1.4-0.6,2.8-1,4.2-1.5c1.4-0.4,2.8-0.9,4.2-1.5
	c0.6-0.3,1.3-0.7,2.3-1.3c1-0.6,1.6-0.7,1.9-0.4s0.6,0.4,0.8,0.4v-0.8c1.1-0.3,2.1-0.6,2.9-1l2.9-1.5l10-3.8c0.3,0,0.7-0.1,1.3-0.4
	l1.7-0.8l2.5-0.8l0.4,0.4c0.3-0.3,0.3-0.4,0.2-0.4c-0.1,0,0.1-0.1,0.6-0.4c0.6-0.6,1.3-0.9,2.3-1s1.9-0.5,2.7-1
	c3.3-1.1,7-2.6,10.9-4.6c0.3,0,1.3-0.3,2.9-0.8c0.8-0.3,1.5-0.6,2.1-0.8l0.4,0.4v-0.8c1.9-0.3,4.3-1.2,7.1-2.7
	c2.8-1.5,4.9-2,6.3-1.5v-0.8c0.6-0.6,1.2-0.8,1.9-0.8c0.7,0,1.3-0.3,1.9-0.8c-1.1-0.8-1.5-1.9-1.3-3.3c0.3-1.4,0.7-2.5,1.3-3.3
	c0-0.3,0.7-0.7,2.1-1.3v-0.4c0.3-0.6,0.6-0.7,0.8-0.4c0.3,0.3,0.7,0.3,1.3,0c0.3,0,0.4-0.1,0.4-0.4c0-0.3,0.3-0.3,0.8,0
	c1.4,0.3,2.4,0.8,3.1,1.5c0.7,0.7,1.6,1.3,2.7,1.9c0,0.3,0.3,0.4,0.8,0.4c0.3,0,0.7,0.1,1.3,0.4c0.3,0.3,0.4,0.3,0.4,0
	s0.3-0.3,0.8,0c0.3,0,0.6-0.1,0.8-0.4c0.3-0.3,0.6-0.4,0.8-0.4h0.4c0.6-0.3,0.8-0.6,0.8-0.8s0.3-0.1,0.8,0.4
	c0.6-0.6,1.5-1.3,2.9-2.1c1.4-0.8,2.4-1,2.9-0.4v-0.8c0.8,0,1.6-0.2,2.3-0.6c0.7-0.4,1.3-0.8,1.9-1c0.8-0.3,1.9-0.6,3.1-0.8
	s2.4-0.7,3.6-1.3c0.6-0.3,1.3-0.4,2.1-0.4s1.4-0.3,1.7-0.8c-0.6-0.6-0.9-1.1-1-1.7s-0.5-1.1-1-1.7h-0.8c-0.3,0-1.1-0.5-2.5-1.5
	c-1.4-1-2.1-1.6-2.1-1.9v-2.5c-0.6-0.6-0.8-1.4-0.8-2.5l0.8-0.4c-0.8-0.8-1.3-2-1.5-3.6c-0.1-1.5,0.2-2.9,1-4
	c0.3-0.3,0.5-0.3,0.6-0.2c0.1,0.1,0.3,0.1,0.6-0.2V80c0.3,0,0.8-0.1,1.7-0.4c0.8-0.3,1.5-0.4,2.1-0.4c0.6,0.3,1,0.6,1.5,1
	s0.9,0.8,1.5,1c0.8,0.3,1.5,0.3,1.9,0.2c0.4-0.1,0.9,0.1,1.5,0.6c0.6,0.3,1,0.6,1.3,1s0.7,0.8,1.3,1c0.6,0,1.1-0.1,1.7-0.4
	s1-0.3,1.3,0c0.6,0.3,0.9,0.8,1,1.5s0.5,1.3,1,1.9c0.3,0.3,0.5,0.3,0.6,0.2c0.1-0.1,0.3-0.1,0.6,0.2c0.3,0.3,0.7,1,1.3,2.1
	c0.8,0.6,1.7,1.3,2.5,2.1l2.5,2.5c0.6,0.6,0.8,1.3,0.8,2.1c0,0.8,0.4,1.4,1.3,1.7c0.6-0.3,1.3-0.4,2.3-0.4h2.3
	c-0.3-1.4,0.3-2.8,1.9-4.2c1.5-1.4,3-1.8,4.4-1.3c1.1,0.3,2.1,0.7,2.9,1.3l2.5,1.7c1.1,0,1.9,0.1,2.5,0.4l2.5,1.3l76.9-5.8
	c1.4,0.8,2.8,1.8,4.2,2.9c1.4,0.8,2.6,1.8,3.8,2.9c1.1,1.1,2.2,1.9,3.3,2.5c1.1-0.8,2.5-1.3,4.2-1.3c0.3,0.6,0.7,0.9,1.3,1
	c0.6,0.1,1.1,0.5,1.7,1c2.2,1.7,3.9,2.8,5,3.3c0.6,0.6,1,0.8,1.3,0.8s0.7,0.3,1.3,0.8s0.9,1.5,1,2.7c0.1,1.3,0.3,2.4,0.6,3.6
	c1.4,0.6,2.7,1.5,4,2.9c1.3,1.4,1.6,3.2,1,5.4c-0.8,0.3-1.9,0.5-3.1,0.6s-2.3-0.1-3.1-0.6c-1.1-0.3-2.2-0.8-3.1-1.7
	s-1.9-1.5-2.7-2.1c-1.1-1.1-2.4-2-4-2.7c-1.5-0.7-2.9-1.7-4-3.1c-0.8,0.3-1.7,0.5-2.7,0.6s-1.7,0.3-2.3,0.6c-1.4,0.6-2.7,0.8-4,0.8
	s-2.6,0.3-4,0.8c-0.3,0.3-0.4,0.6-0.4,0.8c1.1,0.8,1.9,2.2,2.5,4.2c-0.3,0-0.4,0.3-0.4,0.8c-0.6,0.3-1,0.6-1.3,0.8s-0.8,0.4-1.7,0.4
	c-0.6-0.3-1-0.4-1.3-0.4s-0.7-0.1-1.3-0.4c-0.6-0.6-1.5-1.3-2.9-2.3c-1.4-1-2.4-1.7-2.9-2.3c-1.1,0.6-2.2,0.8-3.1,0.8
	c-1,0-2.2,0.1-3.6,0.4c-1.1,0.6-2.2,0.9-3.3,1C232.8,117.1,231.5,117.3,230.2,117.6z"/>
</svg>
