<svg xmlns="http://www.w3.org/2000/svg" viewBox="0 -250 1000 1000"><path fill="currentColor" d="M548 414v2q6 4 6 13-1 1-1.5 1t-1.5 1q-7 0-10.5-2.5T533 423q-2-1-3.5-2.5T525 418q-1 1-6 1-4 2-8.5 2.5T501 423q-2 1-3.5 1t-3.5 1h1q3 2 6.5 2.5t6.5 2.5q5 4 11 5 0-3 7-3 4 6 11 9 1 2 2 2.5t2 2.5q4 3 7.5 5.5t6.5 6.5q0 2 .5 4.5t.5 5.5q2 1 5 3t4 4q1 1 1 4 3 3 6 5.5t6 5.5q4 0 6 1 2 2 2 3v1q-2 2-5 2.5t-5 1.5q-6 2-9 2-5 2-7.5-1t-4.5-5q-4-3-7.5-6.5T540 483q-2-2-2.5-3t-2.5-2q-2 0-3-.5t-3-.5-3-1.5-3-1.5h-4q-7-2-10-6-2 7-8 5t-9-6q-8 4-11-1.5t-8-7.5q-2 2-7 1.5t-7-1.5q-6-3-9.5-6.5T441 444q-2-2-3.5-4.5T432 437q-4 2-9 3t-9 3q-2 1-4.5 1t-3.5 2q3 2 5.5 5t5.5 6v-1q-1-1-1-5 2-2 4-2 2 2 3.5 4.5t2.5 4.5q0 1-.5 1t-.5 1l3 7q1 1 2 1.5t2 1.5v2q1 2 2 2t2 1l3.5 3.5 4.5 1.5q2-2 5.5-4.5t7.5-.5q3 0 4 1t6 1l4 4 5 4v-6h7q2 1 2.5 2.5t1.5 2.5q4 2 7 3l9 6q3 2 7 6.5t6 7.5l5 5q6 8 12 15.5t10 16.5v4q2 0 2 2t1 4q0 1 1 2t1 3q1 1-1.5 6.5T543 573q-3 6-8.5 11t-11.5 9q-2 2-8 4l-1 1-1 1q-1 0-2-.5t-2 1.5q1 0 1 .5t2 .5h1q1 2 2.5 2t2.5 2 1.5 3.5 1.5 3.5v2l4 4v3q1 1 1.5 2t2.5 2q2 2 3 3.5t3 3.5q1 1 1.5.5t.5 1.5q3 2 3 6-1 1-3 1-1-1-2-1v1q-1 1-3 1-1-1-2.5-1.5T527 639v-2q-2-1-4-3t-3.5-4-3.5-4-2.5-3-2.5-1q-1 1-1.5.5t-1.5.5q-2 2-1.5 5t-1.5 5q-1 2-2 1.5t-3 .5-3 3.5-3 3.5q-2 2-7.5 2.5t-8.5-.5q-2-2-5-2 2 2 3.5 4t3.5 4q1 1 1.5 1t1.5 1q1 2 1 3.5t1 3.5q-1 1-3 1-1-1-2-1 0 2-.5 1.5t-.5.5h-1q-4-2-5.5-4t-3.5-5l-6-6q-2-5-6-6h-1l-1-1v-2q-1-1-2-1t-2-1v-3h-2q-2-2-2.5-7.5t1.5-7.5q2-1 8-3 0 3 4 5 0-2 .5-3.5t.5-3.5q-40 0-64-16-2-2-3-4-10-7-15.5-17T366 554q-1-3-2.5-6t-3.5-5v-4q-1-2-2.5-2.5T355 534q-1-1-2.5-4t-3.5-4h-2q-2 0-2.5-1.5T343 522q0-2 .5-3t.5-3q1-1 7-1v1q2 1 2.5 2.5t2.5 1.5h1l-1-1q2-1 4.5-2t4.5-2q2 0 2.5.5t1.5.5h4q0-7 1-9.5t3-6.5q-1-1-3-4.5t-3-5.5v-2q-1-1-5-5.5t-5-4.5q-1 2-4 4t-5 1-7.5-8-7.5-9q-2-1-2-2t-1-2q-2 2-5.5 2.5T323 466q6 8 3 18-5 16-21 19-6 2-10 0t-9-3v8l2 2q2 2 2 9l-3.5 3.5-5.5 1.5q-3 0-4-1-5-3-7-10h-1q-2 2 0 7 2 3 3.5 4.5t1.5 7.5q-2 2-3.5 4t-6.5 2q-1-1-1.5-1t-1.5-1q-2-2-4-5l-4-6-1 1q-3 1-3 8 2 3 2.5 7.5t-.5 7.5q-1 1-4 1-2-2-3.5-2t-3.5-2q-2-1-2.5-3t-2.5-4v2q1 2 .5 3t-.5 3q2 2 2 4 1 3 .5 5t-.5 5q-1 0-1 .5t-2 .5q-2-2-4.5-2.5T225 557t-2.5-4.5-3.5-3.5q-2 2-6.5 5.5T206 560l1 2q0 3 1 5 0 2 1 3t2 3h1q1 2 2.5 2.5t2.5 2.5q3 5 5 9.5t7 8.5v2q0 2-1 2-2 2-11.5 4.5T204 607q-1-2-2-2t-2-2q-2-3-3-5.5t-3-5.5q-1-2-2-3t-2-3v-2q0-2-4-8-1-1-2-1.5t-2-2.5-3.5-6.5-3.5-6.5q1-2 1-6 4 0 6.5-1.5t6.5-1.5q-1-3-4-6-2-5-5-10t-3-11q2 0 4.5-1t3.5 0l2 2q4-6 8-8h1v-2q2-2 4-3.5t3-3.5q-1-1-1.5-2t-1.5-2q-3 2-7.5 3t-8.5 2q-3 2-6.5 2.5T171 513h-2q-1 0-1-1l-1 2q-2 1-3.5 1t-2.5 1q-8 2-13 4 2 4 3 8.5t-1 9.5q-3 3-4 3-6 2-10.5-5t-6.5-11q-4 2-10 4t-10 1v2q-5 0-13 4-5 2-9 2.5t-9 2.5q-3 2-6.5 2t-5.5 2q-1 0-1 1 2 2 1.5 5t.5 6q2 5 5 10.5t0 13.5q-1 3-5 7-5 0-7.5-1.5T54 583q-4-2-5-7t-3-10q-5-9-9-18.5T30 528v-4q-2-4-1-7l1-1q0-2-1-3 0-5 4-7 2-2 5 0t3 4h1v-2q-2-2-4-7.5t-3-7.5-.5-3.5-.5-3.5h1q0-1 1-1h1l1 1h1v-2q6-1 11-5 5-2 10-3.5t10-3.5q2-1 5.5-3t4.5-1 2 1v-2q4-1 7-2.5l7-3.5 24-9q1 0 3-1l4-2 6-2 1 1q1-1 .5-1t1.5-1q2-2 5.5-2.5t6.5-2.5q12-4 26-11 1 0 7-2 3-1 5-2l1 1v-2q7-1 17-6.5t15-3.5v-2q2-2 4.5-2t4.5-2q-4-3-3-8t3-8q0-1 5-3v-1q1-2 2-1t3 0q1 0 1-1t2 0q5 1 7.5 3.5t6.5 4.5q0 1 2 1 1 0 3 1 1 1 1 0t2 0q1 0 2-1t2-1h1q2-1 2-2t2 1q2-2 7-5t7-1v-2q3 0 5.5-1.5t4.5-2.5q3-1 7.5-2t8.5-3q2-1 5-1t4-2q-2-2-2.5-4t-2.5-4h-2q-1 0-6-3.5t-5-4.5v-6q-2-2-2-6l2-1q-3-3-3.5-8.5t2.5-9.5q1-1 1.5-.5t1.5-.5v-2q1 0 4-1t5-1q2 1 3.5 2.5t3.5 2.5q3 1 4.5.5t3.5 1.5q2 1 3 2.5t3 2.5q2 0 4-1t3 0q2 1 2.5 3.5t2.5 4.5q1 1 1.5.5t1.5.5 3 5q3 2 6 5l6 6q2 2 2 5t3 4q2-1 5.5-1h5.5q-1-5 4.5-10t10.5-3q4 1 7 3l6 4q4 0 6 1l6 3 184-14q5 3 10 7 5 3 9 7t8 6q4-3 10-3 1 2 3 2.5t4 2.5q8 6 12 8 2 2 3 2t3 2 2.5 6.5 1.5 8.5q5 2 9.5 7t2.5 13q-3 1-7.5 1.5T668 419q-4-1-7.5-4t-6.5-5q-4-4-9.5-6.5T635 396q-3 1-6.5 1.5T623 399q-5 2-9.5 2t-9.5 2q-1 1-1 2 4 3 6 10-1 0-1 2-2 1-3 2t-4 1q-2-1-3-1t-3-1q-2-2-7-5.5t-7-5.5q-4 2-7.5 2t-8.5 1q-4 2-8 2.5t-9 1.5z"/></svg>