<?xml version="1.0" encoding="utf-8"?>
<!-- Generator: Adobe Illustrator 21.0.2, SVG Export Plug-In . SVG Version: 6.00 Build 0)  -->
<svg version="1.1" id="Layer_1" xmlns="http://www.w3.org/2000/svg" xmlns:xlink="http://www.w3.org/1999/xlink" x="0px" y="0px"
	 width="300px" height="300px" viewBox="0 0 300 300" style="enable-background:new 0 0 300 300;" xml:space="preserve">
<path d="M254.4,190.2l-3.1-1.2l0.8,1.9l-9.6,1.9L241,191l-2.7,0.8l-22.7-6.5l31.5,53.8l-1.2,2.3l-28.8-6.5l-55-51.5l-3.5,11.9
	l-1.2,3.8c-15.9,11.8-30.2,22.3-43,31.5c-5.4,4.1-10.8,8.1-16.1,11.9c-5.4,3.8-10.2,7.4-14.6,10.6c-4.4,3.2-8,5.9-11,8.1
	c-2.9,2.2-4.8,3.5-5.6,4c-2.3,2-4.4,3.1-6.1,3.1c-1,0-1.7-0.3-1.9-0.8l-5.4-3.1c-1.5-1-3.1-2-4.8-2.9c-1.7-0.9-3.1-1.7-4.4-2.5
	c-1.8-0.8-2.2-2.2-1.2-4.2c0.5-1,1.3-1.9,2.3-2.7l66.1-64.6l1.2-13.4l-3.8-2.7c-1.5-2.8-2.2-5-2.1-6.5s0.6-2.8,1.3-3.8
	c1-1,2.3-1.9,3.8-2.7l12.3-0.4l0.8-4.6c0.3-1.3,0.4-2.6,0.6-4c0.1-1.4,0.2-2.6,0.2-3.7c0-1.3,0.8-2.2,2.3-2.7
	c0.8-0.3,1.7-0.4,2.7-0.4l-1.2-6.5l1.9-0.4v-2.3h-6.9v-4.2l16.9-91.8c4.1-0.8,7.9-1.5,11.5-2.3c3.1-0.5,6-1.1,8.6-1.7
	s4.5-1.1,5.6-1.3c1.3-0.3,2.4-0.1,3.5,0.4c0.5,0.3,0.9,0.5,1.2,0.8c6.9,12.8,13.2,24.3,18.8,34.6c2.3,4.4,4.7,8.8,7.1,13.3
	c2.4,4.5,4.6,8.5,6.5,12.1c1.9,3.6,3.6,6.7,5,9.2c1.4,2.6,2.4,4.2,2.9,5c1,1.8,1.9,3.3,2.5,4.6l1.7,3.5l1.5,3.5l-12.7,17.7h-7.3
	l-1.9,1.9h-13.8l-1.5,1.5l10.4,5.8l8.8,0.8h2.7c0,0.3,0.1,0.5,0.4,0.8l1.2,1.2c1.8-0.8,3.8-0.6,6.1,0.4l3.1,1.5l6.5,5l16.5,12.7
	c1.3,1,3.5,2.9,6.7,5.6c3.2,2.7,5.8,4.8,7.9,6.3c2.3,2,3.8,3.6,4.6,4.6c0.5,0.8,0.9,1.4,1.2,1.9L254.4,190.2z"/>
</svg>
