<svg xmlns="http://www.w3.org/2000/svg" viewBox="0 -250 1000 1000"><path fill="currentColor" d="M588 615l-8-3 2 5-25 5-4-5-7 2-59-17 82 140-3 6-75-17-143-134-9 31-3 10q-62 46-112 82-21 16-42 31t-38 27.5-28.5 21T101 810q-9 8-16 8-4 0-5-2l-14-8q-6-4-12.5-7.5T42 794q-7-3-3-11 2-4 6-7l172-168 3-35-10-7q-6-11-5.5-17t3.5-10q4-4 10-7l32-1 2-12q1-5 1.5-10.5t.5-9.5q0-5 6-7 3-1 7-1l-3-17 5-1v-6h-18v-11l44-239q16-3 30-6 12-2 22.5-4.5T362 203q5-1 9 1 2 1 3 2 27 50 49 90 9 17 18.5 34.5t17 31.5 13 24 7.5 13q4 7 6.5 12l4.5 9 4 9-33 46h-19l-5 5h-36l-4 4 27 15 23 2h7q0 1 1 2l3 3q7-3 16 1l8 4 17 13 43 33q5 4 17.5 14.5T580 588q9 8 12 12 2 3 3 5z"/></svg>