<svg xmlns="http://www.w3.org/2000/svg" viewBox="0 -250 1000 1000"><path fill="currentColor" d="M295 311l-4-2v-10l30-11 77 40 6-3 22 9 85 46 49-17-27-32q-2-2-4-6-2-3-3-6.5t-3-6.5q-4-5-6-11t1-13q-2-1-4-4l-4-6q-3-4-6-7h3-3v-4h3l-3-2 3-2 3-3h-3l3-2 1-2v-2l3 2 1-2v-2h6v-3h4v-3h2v3h3v-3h3v3h1l11 14h4q3 0 7 2 5 0 7 .5t6 5.5q1 0 5 2 2 1 4 1l1 2q1 2 8 10.5t15 17.5q10 11 21 24h2l24 29v6l2 2q2 2 2 7l14 14v2q0 1 2 5l2 1v3l5 5 1 1q0 1 .5 3t.5 4l11 17q1 0 4 1 2 1 4 1.5t4 2.5l3.5 3.5 3.5 3.5 4 4h3l38 44v4q1 1 2 3l2 4 1 4q0 3 2 5.5t4 6.5l12 25q1 2 1 5 0 5-8 11-8 8-12.5 7t-7.5-3q-2 0-5-2.5t-7-5.5q-4-4-10-7l-8-10h-11q-2-1-2.5-2t-1.5-2l-2-2-26-36-30 25q4 23 0 47-3 20-15 44.5T593 656l-1-3v5l12 14 3 2q1 0 1 1 0 2-1 3 2 0 2 3v2h3l7 9v5h-5q-1-1-2.5-3t-3.5-4l-4-4v-1l-1-2h-2q-2-2-3-3.5t1-1.5l-14-16h-3q-2-1-2-2t-1-2-1-2v-3l-7 3 4 18-2 4q0 1 .5 7t2.5 13q1 8 3 18 1 2 3 4 1 2 2 3t1 3l11 16 7 10-2 2h-5l-6-8q-3-3-5-7l-12 7v3l-2 3h-2l-17 8-4-3-3 3 5 7 2 5 1 1q0 1-1 1l-2 1v-1l-6-7-10-12h-7q-1 1-3 0-3 0-6-6-2-8-2-10t2-4q0-2 1-2h2v-7l-17-17-16 10 4 3h1l2 4v5h2l7 11q1 0 1 1 0 2-1 3h-4q0-1-4-5-2-2-3-4l-1-4h-3q-3 0-3-2h-2v-4l-4-5-10 4h-1q-2-1-4-2.5t-4-3.5q-3-2-5-4h-2q-2 0-13.5 1.5T409 719q-10 1-28 0t-38.5-5.5-41.5-12-36-18.5q-3 0-9 1t-13 2q-8 2-16 3l12 20v4q1 2 3 4 4 4 4 9 0 1 4 5l4 4 8 25q1 2 2 5 2 6-2 9-3 6-11 12.5t-16-1.5q-3-1-7-4t-8-7-10-9l-5-8q-2 1-4 1-4 0-8-6l-9-13.5-15-22.5-20-30-2-4q-2-5 0-8l-12-16q-2 1-5-1-5-2-11-13 0 1-3 .5t-7-5.5q-2-2-3.5-4.5T103 630q-2-2-2-4-1 1-3 0-5 0-9-6-2-2-5-6l-6-8q-4-4-7-10v-6l-37-49q-1-1-2-3t-2.5-3-2.5-3l-8-18q-1-3-2-7-2-8 2-15L7 478l-3-2v-4h3l-3-2 3-2h2l-2-2 2-3h2v-2l3-2v2l1-2v-2h6v-3h4v-3h2l3 3v-3h2l2 3h2l13 16q2 0 6 1 2 1 5.5 2t5.5 3q7 4 8.5 5t3.5 3l42 55 3 2 3 6 45-25-15-76 22-26q-4-18-7-32-3-12-5-23t-2-13l33-13 5 8z"/></svg>