<?xml version="1.0" encoding="utf-8"?>
<!-- Generator: Adobe Illustrator 21.0.2, SVG Export Plug-In . SVG Version: 6.00 Build 0)  -->
<svg version="1.1" id="Layer_1" xmlns="http://www.w3.org/2000/svg" xmlns:xlink="http://www.w3.org/1999/xlink" x="0px" y="0px"
	 width="300px" height="300px" viewBox="0 0 300 300" style="enable-background:new 0 0 300 300;" xml:space="preserve">
<path d="M116.7,78l-1.4-0.7v-3.5l10.4-3.8l26.8,13.9l2.1-1l7.7,3.1l29.6,16l17.1-5.9L199.6,85c-0.5-0.5-0.9-1.2-1.4-2.1
	c-0.5-0.7-0.8-1.5-1-2.3c-0.2-0.8-0.6-1.6-1-2.3c-0.9-1.2-1.6-2.4-2.1-3.8c-0.5-1.4-0.3-2.9,0.3-4.5c-0.5-0.2-0.9-0.7-1.4-1.4
	l-1.4-2.1c-0.7-0.9-1.4-1.7-2.1-2.4h1h-1v-1.4h1l-1-0.7l1-0.7l1-1h-1l1-0.7l0.3-0.7v-0.7l1,0.7l0.3-0.7v-0.7h2.1v-1h1.4v-1h0.7v1h1
	v-1h1v1h0.3l3.8,4.9h1.4c0.7,0,1.5,0.2,2.4,0.7c1.2,0,2,0.1,2.4,0.2c0.5,0.1,1.2,0.8,2.1,1.9c0.2,0,0.8,0.2,1.7,0.7
	c0.5,0.2,0.9,0.3,1.4,0.3l0.3,0.7c0.2,0.5,1.2,1.7,2.8,3.7c1.6,2,3.4,4,5.2,6.1c2.3,2.6,4.8,5.3,7.3,8.4h0.7L240,94v2.1l0.7,0.7
	c0.5,0.5,0.7,1.3,0.7,2.4l4.9,4.9v0.7c0,0.2,0.2,0.8,0.7,1.7l0.7,0.3v1l1.7,1.7l0.3,0.3c0,0.2,0.1,0.6,0.2,1s0.2,0.9,0.2,1.4
	l3.8,5.9c0.2,0,0.7,0.1,1.4,0.3c0.5,0.2,0.9,0.4,1.4,0.5c0.5,0.1,0.9,0.4,1.4,0.9l1.2,1.2l1.2,1.2l1.4,1.4h1l13.2,15.3v1.4
	c0.2,0.2,0.5,0.6,0.7,1l0.7,1.4l0.3,1.4c0,0.7,0.2,1.3,0.7,1.9c0.5,0.6,0.9,1.3,1.4,2.3l4.2,8.7c0.2,0.5,0.3,1,0.3,1.7
	c0,1.2-0.9,2.4-2.8,3.8c-1.9,1.9-3.3,2.7-4.4,2.4c-1-0.2-1.9-0.6-2.6-1c-0.5,0-1-0.3-1.7-0.9c-0.7-0.6-1.5-1.2-2.4-1.9
	c-0.9-0.9-2.1-1.7-3.5-2.4l-2.8-3.5h-3.8c-0.5-0.2-0.8-0.5-0.9-0.7c-0.1-0.2-0.3-0.5-0.5-0.7l-0.7-0.7l-9.1-12.5l-10.4,8.7
	c0.9,5.3,0.9,10.8,0,16.4c-0.7,4.6-2.4,9.8-5.2,15.5s-7.2,11.2-13.2,16.5l-0.3-1v1.7l4.2,4.9l1,0.7c0.2,0,0.3,0.1,0.3,0.3
	c0,0.5-0.1,0.8-0.3,1c0.5,0,0.7,0.3,0.7,1v0.7h1l2.4,3.1v1.7h-1.7c-0.2-0.2-0.5-0.6-0.9-1s-0.8-0.9-1.2-1.4l-1.4-1.4v-0.3l-0.3-0.7
	h-0.7c-0.5-0.5-0.8-0.9-1-1.2c-0.2-0.3-0.1-0.5,0.3-0.5l-4.9-5.6h-1c-0.5-0.2-0.7-0.5-0.7-0.7c0-0.2-0.1-0.5-0.3-0.7
	c-0.2-0.2-0.3-0.5-0.3-0.7v-1l-2.4,1l1.4,6.3l-0.7,1.4c0,0.2,0.1,1,0.2,2.4c0.1,1.4,0.4,2.9,0.9,4.5c0.2,1.9,0.6,3.9,1,6.3
	c0.2,0.5,0.6,0.9,1,1.4c0.2,0.5,0.5,0.8,0.7,1c0.2,0.2,0.3,0.6,0.3,1l3.8,5.6l2.4,3.5l-0.7,0.7h-1.7l-2.1-2.8
	c-0.7-0.7-1.3-1.5-1.7-2.4l-4.2,2.4v1l-0.7,1h-0.7l-5.9,2.8l-1.4-1l-1,1l1.7,2.4l0.7,1.7l0.3,0.3c0,0.2-0.1,0.3-0.3,0.3l-0.7,0.3
	v-0.3l-2.1-2.4l-3.5-4.2h-2.4c-0.2,0.2-0.6,0.2-1,0c-0.7,0-1.4-0.7-2.1-2.1c-0.5-1.9-0.7-3-0.7-3.5s0.2-0.9,0.7-1.4
	c0-0.5,0.1-0.7,0.3-0.7h0.7v-2.4l-5.9-5.9l-5.6,3.5l1.4,1h0.3l0.7,1.4v1.7h0.7l2.4,3.8c0.2,0,0.3,0.1,0.3,0.3c0,0.5-0.1,0.8-0.3,1
	h-1.4c0-0.2-0.5-0.8-1.4-1.7c-0.5-0.5-0.8-0.9-1-1.4l-0.3-1.4h-1c-0.7,0-1-0.2-1-0.7h-0.7v-1.4l-1.4-1.7l-3.5,1.4h-0.3
	c-0.5-0.2-0.9-0.5-1.4-0.9c-0.5-0.3-0.9-0.8-1.4-1.2c-0.7-0.5-1.3-0.9-1.7-1.4h-0.7c-0.5,0-2,0.2-4.7,0.5c-2.7,0.3-6.3,0.5-11,0.5
	c-2.3,0.2-5.6,0.2-9.8,0c-4.2-0.2-8.7-0.9-13.4-1.9s-9.6-2.4-14.5-4.2s-9.1-3.9-12.5-6.4c-0.7,0-1.7,0.1-3.1,0.3
	c-1.4,0.2-2.9,0.5-4.5,0.7c-1.9,0.5-3.7,0.8-5.6,1l4.2,7v1.4c0.2,0.5,0.6,0.9,1,1.4c0.9,0.9,1.4,2,1.4,3.1c0,0.2,0.5,0.8,1.4,1.7
	l1.4,1.4l2.8,8.7c0.2,0.5,0.5,1,0.7,1.7c0.5,1.4,0.2,2.4-0.7,3.1c-0.7,1.4-2,2.8-3.8,4.4c-1.9,1.5-3.7,1.3-5.6-0.5
	c-0.7-0.2-1.5-0.7-2.4-1.4c-0.9-0.7-1.9-1.5-2.8-2.4s-2.1-2-3.5-3.1l-1.7-2.8c-0.5,0.2-0.9,0.3-1.4,0.3c-0.9,0-1.9-0.7-2.8-2.1
	l-3.1-4.7l-5.2-7.8l-7-10.4l-0.7-1.4c-0.5-1.2-0.5-2.1,0-2.8l-4.2-5.6c-0.5,0.2-1,0.1-1.7-0.3c-1.2-0.5-2.4-2-3.8-4.5
	c0,0.2-0.3,0.3-1,0.2s-1.5-0.8-2.4-1.9c-0.5-0.5-0.9-1-1.2-1.6s-0.6-1.1-0.9-1.6c-0.5-0.5-0.7-0.9-0.7-1.4c-0.2,0.2-0.6,0.2-1,0
	c-1.2,0-2.2-0.7-3.1-2.1c-0.5-0.5-1-1.2-1.7-2.1l-2.1-2.8c-0.9-0.9-1.7-2.1-2.4-3.5v-2.1l-12.9-17.1c-0.2-0.2-0.5-0.6-0.7-1
	c-0.2-0.5-0.5-0.8-0.9-1c-0.3-0.2-0.6-0.6-0.9-1l-2.8-6.3c-0.2-0.7-0.5-1.5-0.7-2.4c-0.5-1.9-0.2-3.6,0.7-5.2l-4.2-4.9l-1-0.7v-1.4
	h1l-1-0.7l1-0.7h0.7l-0.7-0.7l0.7-1h0.7v-0.7l1-0.7v0.7l0.3-0.7v-0.7h2.1v-1h1.4v-1h0.7l1,1v-1h0.7l0.7,1h0.7l4.5,5.6
	c0.5,0,1.2,0.1,2.1,0.3c0.5,0.2,1.1,0.5,1.9,0.7c0.8,0.2,1.5,0.6,1.9,1c1.6,0.9,2.6,1.5,3,1.7s0.8,0.6,1.2,1l14.6,19.2l1,0.7l1,2.1
	l15.7-8.7L68.3,125L76,116c-0.9-4.2-1.7-7.9-2.4-11.1c-0.7-2.8-1.3-5.5-1.7-8s-0.7-4.1-0.7-4.5l11.5-4.5l1.7,2.8L116.7,78z"/>
</svg>
