<?xml version="1.0" encoding="utf-8"?>
<!-- Generator: Adobe Illustrator 21.0.2, SVG Export Plug-In . SVG Version: 6.00 Build 0)  -->
<svg version="1.1" id="Layer_1" xmlns="http://www.w3.org/2000/svg" xmlns:xlink="http://www.w3.org/1999/xlink" x="0px" y="0px"
	 width="300px" height="300px" viewBox="0 0 300 300" style="enable-background:new 0 0 300 300;" xml:space="preserve">
<path d="M138.8,226.8c-2.5-0.6-5-1-7.5-1.5c-2.5-0.4-5.2-0.9-8-1.5c-6.1,0.8-12.2,1.6-18.2,2.3c-6,0.7-12.2,1.5-18.7,2.3
	c-0.6,0-1.5,0.1-2.7,0.4s-2.6,0.5-4,0.6c-1.4,0.1-2.7,0.2-4,0.2s-2-0.3-2.3-0.8l-5-6.3c-3.4,0.6-6.8,1.2-10.3,1.9s-6.9,1.3-10.3,1.9
	l-17.6-23.9c-0.8-2.2-0.8-4.2,0-5.9c0.8-1.7,1.5-2.9,2.1-3.8c4.2-3.9,8.3-7.9,12.4-11.9c4.1-4.1,8.2-8,12.4-11.9l-0.8-0.8
	c-5-7.8-10.1-15.6-15.3-23.3c-5.2-7.7-10.3-15.4-15.3-23.3c-0.6-1.4-0.7-3.1-0.4-5.2c0.3-2.1,0.8-4.2,1.5-6.3
	c0.7-2.1,1.4-4.1,2.1-6.1c0.7-2,1.2-3.4,1.5-4.2c0.6-2.2,1-5.1,1.5-8.6c0.4-3.5,1.5-5.9,3.1-7.3c0.6-0.3,1.3-0.4,2.1-0.4
	s1.7-0.1,2.5-0.4c2.8,2.2,5.2,4.8,7.1,7.8s4.1,5.8,6.3,8.6c5.3,6.7,10.6,13.3,15.9,19.7l15.9,19.3c2.2,2.8,4.4,5.7,6.5,8.6
	c2.1,2.9,4.5,5.5,7.3,7.8c-0.3-1.1-0.4-2.2-0.4-3.1v-2.7l-3.8-3.8l-4.8-5.4l-4-5.9l-2.1-5c-0.6-2.5-0.3-5.1,0.6-7.8
	c1-2.7,2.5-5,4.6-6.9c2.1-2,4.5-3.4,7.3-4.4s5.4-1.2,8-0.6c2.5,0.6,4.6,1.7,6.3,3.4c1.7,1.7,3.2,3.5,4.6,5.4c1.4,2,2.7,4,4,6.1
	c1.3,2.1,2.7,3.8,4.4,5.2c2.8,0.8,5.9,2,9.2,3.4c2.8,1.4,5.4,3.1,7.8,5s4.8,3.8,7.3,5.4v-1.3c-2.8-3.6-5.4-7.2-8-10.7
	c-2.5-3.5-5-7.1-7.5-10.7c-0.8-2.2-1.6-4.5-2.3-6.9c-0.7-2.4-1.3-4.7-1.9-6.9c-4.2-5.6-8.3-11.2-12.4-16.8
	c-4.1-5.6-8-11.2-11.9-16.8c-0.3-2,0-3.2,0.8-3.8c2.2-1.4,4.7-1.5,7.3-0.4c2.7,1.1,5,2.1,6.9,2.9c5.6,2.2,11.2,4.5,17,6.9
	c5.7,2.4,11.5,4.7,17.4,6.9c4.8,2,8.7,5.2,11.9,9.6c3.2,4.5,6.4,8.7,9.4,12.6c2.8,3.1,5.6,6.2,8.4,9.4c2.8,3.2,5.6,6.4,8.4,9.4
	l7.5,8.8c9.8,2.2,19.5,4.3,29.1,6.3c9.6,2,19.4,4.1,29.1,6.3c1.7,2.5,3.4,5,5.2,7.5c1.8,2.5,3.6,4.9,5.2,7.1c1.4,2.2,3,4.4,4.8,6.5
	c1.8,2.1,2.7,5.1,2.7,9h-0.8c-3.1,0.6-6.2,1.3-9.4,2.1c-3.2,0.8-6.4,1.7-9.4,2.5c-0.8,1.7-1.6,3.3-2.3,4.8s-1.5,3-2.3,4.4
	c-4.8,0.8-9.4,2.2-13.8,4s-9.1,3.4-13.8,4.8l-7.5,2.5l-7.5,2.1l-4.2,4.2l-4.2,4.2c-0.6-0.6-1-0.8-1.3-0.8l-1.3-2.5
	c-0.3,0.3-0.6,0.4-0.8,0.4l-2.1,5.2l-3.4,4.4l-2.5,0.8c-1.1,1.7-2,3.1-2.5,4.2c-0.8,0.6-3.1,1.3-6.7,2.1c-3.6,0.8-7.7,1.6-12.2,2.3
	c-4.5,0.7-8.7,1.3-12.6,1.7c-3.9,0.4-6.6,0.3-8-0.2c-2.2-0.6-3.6-2-4-4.4c-0.4-2.4-1.5-4.3-3.1-5.7h-0.4V226.8z"/>
</svg>
