<svg xmlns="http://www.w3.org/2000/svg" viewBox="0 -250 1000 1000"><path fill="currentColor" d="M312 668q-9-2-18-3.5t-19-3.5q-22 3-43.5 5.5T187 672q-2 0-6.5 1t-9.5 1.5-9.5.5-5.5-2l-12-15q-12 2-24.5 4.5T95 667l-42-57q-3-8 0-14t5-9q15-14 29.5-28.5T117 530l-2-2q-18-28-36.5-55.5T42 417q-2-5-1-12.5t3.5-15 5-14.5 3.5-10q2-8 3.5-20.5T64 327q2-1 5-1t6-1q10 8 17 18.5t15 20.5q19 24 38 47l38 46q8 10 15.5 20.5T216 496q-1-4-1-7.5V482l-9-9-11.5-13-9.5-14-5-12q-2-9 1.5-18.5t11-16.5 17.5-10.5 19-1.5 15 8 11 13 9.5 14.5T275 435q10 3 22 8 10 5 18.5 12t17.5 13v-3q-10-13-19-25.5T296 414q-3-8-5.5-16.5T286 381q-15-20-29.5-40T228 301q-1-7 2-9 8-5 17.5-1t16.5 7q20 8 40.5 16.5T346 331q17 7 28.5 23t22.5 30q10 11 20 22.5t20 22.5l18 21q35 8 69.5 15t69.5 15q6 9 12.5 18t12.5 17q5 8 11.5 15.5T637 552h-2q-11 2-22.5 5t-22.5 6q-3 6-5.5 11.5T579 585q-17 3-33 9.5T513 606l-18 6-18 5-10 10-10 10q-2-2-3-2l-3-6q-1 1-2 1l-5 12.5-8 10.5-6 2q-4 6-6 10-3 2-16 5t-29 5.5-30 4-19-.5q-8-2-9.5-10.5T313 655h-1v13z"/></svg>