<?xml version="1.0" encoding="utf-8"?>
<!-- Generator: Adobe Illustrator 21.0.2, SVG Export Plug-In . SVG Version: 6.00 Build 0)  -->
<svg version="1.1" id="Layer_1" xmlns="http://www.w3.org/2000/svg" xmlns:xlink="http://www.w3.org/1999/xlink" x="0px" y="0px"
	 width="300px" height="300px" viewBox="0 0 300 300" style="enable-background:new 0 0 300 300;" xml:space="preserve">
<path d="M125.3,39.3c0-0.3,0.9,0,2.6,0.9c1.7,0.9,3.9,1.9,6.4,2.8c2.8,1.3,6,2.7,9.5,4.3l1.9,5.2l35.6-26.1c3.8,3.5,7.4,6.8,10.9,10
	c2.8,2.5,5.5,4.9,7.8,7.1c2.4,2.2,3.6,3.5,3.6,3.8c0,0.3-0.3,1.3-0.9,2.8l-1.9,4.7c-0.9,1.9-1.7,4.1-2.4,6.6l2.4,0.9l-3.8,9h-0.5
	l-0.9,1.9h0.9l-3.3,10h-1.9l-1.9,2.8l6.2,7.6l1.4-0.9l2.8,3.3l-1.4,0.9l2.4,2.4l2.4-0.9l3.8,5.2l-1.9,2.4l9,9.5l1.4-1.4l0.9,2.4
	l-1.9,0.9l1.9,1.9l2.8-1.9l10.4,12.8l-1.9,1.9l5.2,6.6l2.4-0.5l2.8,4.3l-0.9,1.4l28.9,35.6h0.9l0.9,1.4l-0.9,0.9l7.1,9
	c0.3,0.3,0.8,0.6,1.4,0.9c0.9,0.9,1.6,1.9,1.9,2.8l2.8,3.3l-2.8,17.1l-47.4-44.6l-0.5,1.4l4.3,4.7l-4.3,1.4l-5.2-4.3l-12.3,5.7
	l-48.8-61.2l-13.7-8.1l55.5,74.4l-3.3,6.2l-6.2,5.7l-6.2,3.3l-83.9-55l8.5,14.2l67.3,46.9l-4.3,11.4l7.1,5.7l-3.8,3.8l-5.2-5.2
	l-1.4,1.4l50.7,47.4l-18.5,2.8l-2.4-2.4c-0.6-0.6-1.5-1.2-2.6-1.7c-1.1-0.5-2-0.9-2.6-1.2l-11.9-8.1H186l-1.9-0.9v-1.4l-38.4-26.5
	l-1.9,0.9l-4.3-2.8l0.9-2.4l-7.6-4.7l-0.9,0.9l-8.5-5.2l-3.8-1.4v-1.4l-0.5-0.9v-2.4l-1.9-0.9l-1.4,0.9l-1.9-0.9V209l-9.5-7.6
	l-2.8,1.9l-3.3-4.3v-0.9l-3.8-1.9l-0.9,1.9l-4.3-3.3l2.4-2.8l-6.6-3.8l-5.7,2.8v0.5l-10,2.4V192l-1.9,1.9v0.9l-9.5,3.3v-1.4
	l-16.6,4.7l-21.8-20.4v-2.8L45.2,146l-3.8-0.9l-7.6-18v-1.4c0-0.9,0.2-1.9,0.5-2.8c0.6-0.6,1.8-1.9,3.6-3.8c1.7-1.9,3.6-4,5.5-6.2
	c2.2-2.5,4.6-5.4,7.1-8.5h2.8c0.6,0,1.8,0.4,3.6,1.2c1.7,0.8,3.6,1.5,5.5,2.1c2.2,0.9,4.6,1.9,7.1,2.8L58,93.8v-4.3l5.2-6.2
	c0-0.9,0.5-2.1,1.4-3.3c0.6-0.9,1.6-2.2,2.8-3.8s2.8-3.2,4.7-4.7c2.2-2.2,4-3.8,5.5-4.7l3.6-2.4c1.3-0.6,2.1-0.8,2.4-0.5l5.7-3.3
	l22.8,12.8l-6.2-11.9v-4.3c0-0.9-0.1-1.8-0.2-2.6s-0.1-1.3,0.2-1.7c0.6-0.9,3.1-3.1,7.3-6.4C117.5,43.3,121.6,40.9,125.3,39.3z"/>
</svg>
