<svg xmlns="http://www.w3.org/2000/svg" viewBox="0 -250 1000 1000"><path fill="currentColor" d="M606 589l-3 5q8 8 12.5 18.5T620 635q0 10-3 17l22 12q1 2 1 3 0 3-1 5-3 5-4 5-1 1-2 0l-21-10q-8 14-23 22.5t-33 8.5q-20 0-36-11.5T497 657l-8 1q1 5 1 8v6q0 27-18.5 46T427 737q-14 0-26-6t-21-16q-5 5-12 10.5l-14 11-12.5 10-8.5 7.5q-4 4-7.5 6t-5.5 4q-3 2-5 3l-4-2q-5-3-6-4-2-2-1-5t3-6q2-4 5-8l44-48v-13l-80-77q-20-10-32-21.5T226 561q-7-11-10-22l-8 3-79 65-10-10q-9-9-7-13 5-9 15-21t21-23q12-12 27-26l23-23-11-11-9.5-9.5-7.5-6.5q-2-2-2.5-6t-.5-7q0-4 1-7l-30-39-28-4-5-6-76-10-20-27v-6l9 8q34 5 61 9 23 3 42 5.5t21 .5q1-1 5.5-6t10.5-11 12-11 9-7q6-4 10-2 2 1 3 2l30 25h44l16 13q3-3 6.5-5.5t6.5-4.5l8-4 7 1 3-5q6-3 11.5-4.5t9.5-2.5 8-1l4 5 3-5 23-1q0-4 3-8 2-4 6-8t12-8q15-8 25-6 4 1 8 3l11-4 2-6q-4-2-7-5-3-2-5-4.5t-4-4.5q-3-3 3-7 3-1 7-2l14 10 6-1 7 7 102-46v-11l28 24-84 54-1 9 4 4 8 3q24 18 45.5 37t37.5 34l35 35v10l8 12q30 19 30 55 0 26-18.5 44T610 589h-4z"/></svg>