<?xml version="1.0" encoding="utf-8"?>
<!-- Generator: Adobe Illustrator 21.0.2, SVG Export Plug-In . SVG Version: 6.00 Build 0)  -->
<svg version="1.1" id="Layer_1" xmlns="http://www.w3.org/2000/svg" xmlns:xlink="http://www.w3.org/1999/xlink" x="0px" y="0px"
	 width="300px" height="300px" viewBox="0 0 300 300" style="enable-background:new 0 0 300 300;" xml:space="preserve">
<path d="M257.8,182.7l-1.2,2c2.2,2.2,3.9,4.7,5.1,7.5s1.8,5.9,1.8,9.1c0,2.7-0.4,5-1.2,6.9l8.9,4.9c0.3,0.5,0.4,0.9,0.4,1.2
	c0,0.8-0.1,1.5-0.4,2c-0.8,1.4-1.4,2-1.6,2c-0.3,0.3-0.5,0.3-0.8,0l-8.5-4.1c-2.2,3.8-5.3,6.8-9.4,9.1c-4.1,2.3-8.5,3.5-13.4,3.5
	c-5.4,0-10.3-1.6-14.6-4.7c-4.3-3.1-7.5-7.1-9.4-12l-3.3,0.4c0.3,1.4,0.4,2.4,0.4,3.3v2.4c0,7.3-2.5,13.6-7.5,18.7
	c-5,5.2-11,7.7-18.1,7.7c-3.8,0-7.3-0.8-10.6-2.4c-3.3-1.6-6.1-3.8-8.5-6.5c-1.4,1.4-3,2.8-4.9,4.3l-5.7,4.5l-5.1,4.1l-3.5,3
	c-1.1,1.1-2.1,1.9-3,2.4c-0.9,0.5-1.7,1.1-2.2,1.6c-0.8,0.5-1.5,0.9-2,1.2l-1.6-0.8c-1.4-0.8-2.2-1.4-2.4-1.6
	c-0.5-0.5-0.7-1.2-0.4-2c0.3-0.8,0.7-1.6,1.2-2.4c0.5-1.1,1.2-2.2,2-3.3l17.9-19.5v-5.3l-32.5-31.3c-5.4-2.7-9.8-5.6-13-8.7
	s-5.7-6-7.3-8.7c-1.9-3-3.3-6-4.1-8.9l-3.3,1.2l-32.1,26.4l-4.1-4.1c-2.4-2.4-3.4-4.2-2.8-5.3c1.4-2.4,3.4-5.3,6.1-8.5
	c2.7-3.3,5.6-6.4,8.5-9.4c3.3-3.3,6.9-6.8,11-10.6l9.4-9.4l-4.5-4.5l-3.9-3.9l-3-2.6c-0.5-0.5-0.9-1.4-1-2.4c-0.1-1.1-0.2-2-0.2-2.8
	c0-1.1,0.1-2,0.4-2.8l-12.2-15.9l-11.4-1.6l-2-2.4l-30.9-4.1l-8.1-11v-2.4l3.7,3.3c9.2,1.4,17.5,2.6,24.8,3.7
	c6.2,0.8,11.9,1.6,17.1,2.2c5.2,0.7,8,0.7,8.5,0.2c0.3-0.3,1-1.1,2.2-2.4c1.2-1.4,2.6-2.8,4.3-4.5s3.3-3.1,4.9-4.5
	c1.6-1.4,2.8-2.3,3.7-2.8c1.6-1.1,3-1.4,4.1-0.8c0.5,0.3,0.9,0.5,1.2,0.8l12.2,10.2h17.9l6.5,5.3c0.8-0.8,1.7-1.6,2.6-2.2
	c0.9-0.7,1.8-1.3,2.6-1.8l3.3-1.6l2.8,0.4l1.2-2c1.6-0.8,3.2-1.4,4.7-1.8c1.5-0.4,2.8-0.7,3.9-1s2.2-0.4,3.3-0.4l1.6,2l1.2-2
	l9.4-0.4c0-1.1,0.4-2.2,1.2-3.3c0.5-1.1,1.4-2.2,2.4-3.3s2.7-2.2,4.9-3.3c4.1-2.2,7.5-3,10.2-2.4c1.1,0.3,2.2,0.7,3.3,1.2l4.5-1.6
	l0.8-2.4c-1.1-0.5-2-1.2-2.8-2c-0.8-0.5-1.5-1.2-2-1.8c-0.5-0.7-1.1-1.3-1.6-1.8c-0.8-0.8-0.4-1.8,1.2-2.8c0.8-0.3,1.8-0.5,2.8-0.8
	l5.7,4.1l2.4-0.4l2.8,2.8l41.5-18.7v-4.5l11.4,9.8l-34.2,22l-0.4,3.7l1.6,1.6l3.3,1.2c6.5,4.9,12.7,9.9,18.5,15
	c5.8,5.2,10.9,9.8,15.2,13.8l14.2,14.2v4.1l3.3,4.9c8.1,5.2,12.2,12.6,12.2,22.4c0,7-2.5,13-7.5,17.9s-11,7.3-18.1,7.3H257.8z"/>
</svg>
