<svg xmlns="http://www.w3.org/2000/svg" viewBox="0 -250 1000 1000"><path fill="currentColor" d="M158 378l5-10q-3-1-7-3-8-4-7-10 2-8 12.5-7.5T176 350q5 1 10 4.5t4 7.5q-1 5-7 6.5t-11 .5l-1 11 39 7 2 3 5-2q26 4 49 8 20 4 39.5 8.5T335 413l13.5 1 35 3.5 48.5 7 55 11.5 51 13 43.5 12.5 40 16L662 500q5 1 18 8.5t27.5 19 27 25.5 16.5 28h-9q-4 0-7 1t-5 2l-2-2-7 1-4 5-14 4-12 4-10 5q-1 0-3-2l-2-2q0 2-1 4-3 3-14 1v-1q0-1-1-2l-5 1-2 7-4 1-1-3-4-2-3 2-2-1v-4l-5 2-1 5 19 7q1 0 1 1 0 2-2 3t-13 5-33 5.5-56-1.5-83-17h-4q-5 0-3 5l9 3v1q0 1-1 1-1 1-4 0-2-1-6-2.5t-9-3.5l-12-4h-1v-3l-14-4v-1q-1-1 0-2 0-1-15-6t-36.5-12-45.5-15.5-40-16.5h-18l4 3 1 2q-7-1-12-3t-9-4-5-4h5q-2-3-5-7-5-7-12-12l-27-10-8-8-22-8-15-20-3 4-21-4q-2 2-4 3-5 2-9 0-4-1-8-7-2-3-2-5l-18 2-10-3-1 2-10-3q-1 1-3 1t-3 .5-3-.5q-1 0-2 1.5T54 468q-10-4-9-12.5t3-10.5q0-3 1-6 2-7 6-9-4 0-18-3.5T19 415q-2-4 2.5-5t9.5-3l3-6q2-3 3.5-6l3.5-7 9-18q1-2 4-5 2-2 5.5-3.5t8.5-.5 11.5 2 12.5 2q7 2 14 3l4 2 3-1z"/></svg>