<?xml version="1.0" encoding="utf-8"?>
<!-- Generator: Adobe Illustrator 21.0.2, SVG Export Plug-In . SVG Version: 6.00 Build 0)  -->
<svg version="1.1" id="Layer_1" xmlns="http://www.w3.org/2000/svg" xmlns:xlink="http://www.w3.org/1999/xlink" x="0px" y="0px"
	 width="300px" height="300px" viewBox="0 0 300 300" style="enable-background:new 0 0 300 300;" xml:space="preserve">
<path d="M59.4,106l2-4c-0.8-0.3-1.7-0.7-2.8-1.2c-2.1-1.1-3.1-2.4-2.8-4c0.5-2.1,2.2-3.1,5-3c2.8,0.1,4.7,0.5,5.8,1
	c1.3,0.3,2.7,0.9,4,1.8c1.3,0.9,1.9,1.9,1.6,3c-0.3,1.3-1.2,2.2-2.8,2.6s-3.1,0.5-4.4,0.2l-0.4,4.4l15.6,2.8l0.8,1.2l2-0.8
	c6.9,1.1,13.5,2.1,19.6,3.2c5.3,1.1,10.6,2.2,15.8,3.4s9.1,2.3,11.8,3.4l5.4,0.4l14,1.4l19.4,2.8l22,4.6l20.4,5.2l17.4,5l16,6.4
	l16.2,9c1.3,0.3,3.7,1.4,7.2,3.4c3.5,2,7.1,4.5,11,7.6c3.9,3.1,7.5,6.5,10.8,10.2c3.3,3.7,5.5,7.5,6.6,11.2h-3.6
	c-1.1,0-2,0.1-2.8,0.4s-1.5,0.5-2,0.8l-0.8-0.8l-2.8,0.4l-1.6,2l-5.6,1.6l-4.8,1.6l-4,2c-0.3,0-0.7-0.3-1.2-0.8l-0.8-0.8
	c0,0.5-0.1,1.1-0.4,1.6c-0.8,0.8-2.7,0.9-5.6,0.4v-0.4c0-0.3-0.1-0.5-0.4-0.8l-2,0.4l-0.8,2.8l-1.6,0.4l-0.4-1.2l-1.6-0.8l-1.2,0.8
	l-0.8-0.4v-1.6l-2,0.8l-0.4,2l7.6,2.8c0.3,0,0.4,0.1,0.4,0.4c0,0.5-0.3,0.9-0.8,1.2c-0.5,0.3-2.3,0.9-5.2,2
	c-2.9,1.1-7.3,1.8-13.2,2.2c-5.9,0.4-13.3,0.2-22.4-0.6s-20.1-3.1-33.2-6.8h-1.6c-1.3,0-1.7,0.7-1.2,2l3.6,1.2v0.4
	c0,0.3-0.1,0.4-0.4,0.4c-0.3,0.3-0.8,0.3-1.6,0c-0.5-0.3-1.3-0.6-2.4-1c-1.1-0.4-2.3-0.9-3.6-1.4l-4.8-1.6h-0.4v-1.2l-5.6-1.6v-0.4
	c-0.3-0.3-0.3-0.5,0-0.8c0-0.3-2-1.1-6-2.4c-4-1.3-8.9-2.9-14.6-4.8c-5.7-1.9-11.8-3.9-18.2-6.2c-6.4-2.3-11.7-4.5-16-6.6h-7.2
	l1.6,1.2l0.4,0.8c-1.9-0.3-3.5-0.7-4.8-1.2s-2.5-1.1-3.6-1.6s-1.7-1.1-2-1.6h2c-0.5-0.8-1.2-1.7-2-2.8c-1.3-1.9-2.9-3.5-4.8-4.8
	l-10.8-4l-3.2-3.2l-8.8-3.2l-6-8l-1.2,1.6l-8.4-1.6c-0.5,0.5-1.1,0.9-1.6,1.2c-1.3,0.5-2.5,0.5-3.6,0c-1.1-0.3-2.1-1.2-3.2-2.8
	c-0.5-0.8-0.8-1.5-0.8-2l-7.2,0.8l-4-1.2l-0.4,0.8l-4-1.2c-0.3,0.3-0.7,0.4-1.2,0.4c-0.5,0-0.9,0.1-1.2,0.2s-0.7,0.1-1.2-0.2
	c-0.3,0-0.5,0.2-0.8,0.6c-0.3,0.4-1.6,0.1-4-1c-2.7-1.1-3.9-2.7-3.6-5c0.3-2.3,0.7-3.7,1.2-4.2c0-0.8,0.1-1.6,0.4-2.4
	c0.5-1.9,1.3-3.1,2.4-3.6c-1.1,0-3.5-0.5-7.2-1.4c-3.7-0.9-6.1-2.5-7.2-4.6c-0.5-1.1-0.2-1.7,1-2s2.5-0.7,3.8-1.2l1.2-2.4
	c0.5-0.8,1-1.6,1.4-2.4l1.4-2.8l3.6-7.2c0.3-0.5,0.8-1.2,1.6-2c0.5-0.5,1.3-1,2.2-1.4s2.1-0.5,3.4-0.2c1.3,0.3,2.9,0.5,4.6,0.8
	c1.7,0.3,3.4,0.5,5,0.8c1.9,0.5,3.7,0.9,5.6,1.2l1.6,0.8l1.2-0.4L59.4,106z"/>
</svg>
