<svg xmlns="http://www.w3.org/2000/svg" viewBox="0 -250 1000 1000"><path fill="currentColor" d="M331 549q2 0 3 1l12 15q2 4 1 6.5t1 4.5q3 1 5 4l4 6q0 2-2 6-5 1-9-2-1 4-7 4-4-2-5.5-6.5T330 579q-6 1-8-1t-4-7q-4 2-5.5 3.5T307 577q1 4 .5 9t-1 10.5-.5 10.5 2 8q1 1 2 1t2 2q4 7 4 18 9 2 19 3.5t22 .5q1 6 5 11 2 7-1.5 15.5T355 680q10-6 19-12t19-11q2 5 3.5 10.5T396 681q-6 9-12.5 18T371 716l-4 10-4 10q-2 3-8 8.5t-9 7.5q-2 0-2.5-.5t-2.5-.5q-1-8 1.5-18.5T341 714q-3 2-6.5 2.5T328 719q-5 8-9 17t-9 17q-15 0-24.5-8t-14-20.5-5.5-28-1-30.5q-5-2-10-3.5t-10-3.5q-2 45-29 75.5T149 771v-6q0-7 .5-13t1.5-13q-7-1-13.5-1.5T123 736q-2 3-8.5 9.5t-14 13.5-15 13-10.5 7q-5 2-4 .5t-4 3.5q-5-2-6.5-2.5T55 785h-2q-2-2-4-2 0-5-1-8.5t1-8.5q3-5 6-10.5t6-11.5q-3-7-9-18t-1-22q3-4 6-7.5t7-8.5q16 6 34 12t36 8q1 0 1-1 1-11 2-23t2-23q4 0 13-1.5t18-3.5 16-4.5 9-5.5q3-4 3.5-10.5t2.5-8.5q3-4 6.5-5t3.5-7q-4-8-9-13-2 6-8 4-4-2-4.5-6t-2.5-9q-14 0-21.5-3t-11-9-4-14-.5-18q2-1 3.5-1.5t3.5-1.5q-1-2-1.5-5.5T154 534l-15-6q-2-12-2.5-24.5T135 479q0-4-1-10t1-8q5-3 9.5-6t9.5-6q-1-2-1-5-25 0-48.5 1T58 446q-10-25-17-46 3-17 6.5-34.5T55 331q-5-21-10.5-42T34 246q4 0 6 1l-6-30 6-3q4 4 5.5 9.5T49 234q2 0 3-.5t3-.5q3 14 8 25.5T73 281q12 31 24.5 61.5T122 403l30 3q-1-18-1.5-36.5T150 333q1 1 2 1 11 5 21 16t18 21q23 29 39 66t18 88q6 0 10 3.5t7 5.5q2-2 2-6.5V521q3 0 4-1-1-27 3-57t12-57 19.5-48.5T332 325q4 18 7 35.5t6 34.5q10-2 15-4 3-31 5.5-61.5T371 268v-9l-.5-12.5-.5-11.5 1-7q1-1 2-1.5t2-2.5q2-4 .5-9t-.5-7q6-2 8 .5t2.5 7.5.5 11 2 10q1-1 4-1 2 12 2.5 24.5T397 286q0 8 .5 15.5t.5 15.5q3 13 7.5 24t8 23 4.5 25-2 31q-11 7-30.5 8t-34.5 3v6l9 4.5 7 5.5q1 2 2 10.5t1.5 19 1 19.5-.5 11q-2 3-8.5 7.5t-14 9T335 532t-7 8q5 1 3 9z"/></svg>