<?xml version="1.0" encoding="utf-8"?>
<!-- Generator: Adobe Illustrator 21.0.2, SVG Export Plug-In . SVG Version: 6.00 Build 0)  -->
<svg version="1.1" id="Layer_1" xmlns="http://www.w3.org/2000/svg" xmlns:xlink="http://www.w3.org/1999/xlink" x="0px" y="0px"
	 width="300px" height="300px" viewBox="0 0 300 300" style="enable-background:new 0 0 300 300;" xml:space="preserve">
<path d="M195.9,173.2c0.6,0,1,0.1,1.3,0.4l5.3,6.6c0.6,1.2,0.7,2.1,0.4,2.8c-0.3,0.7-0.1,1.4,0.4,2c0.9,0.3,1.6,0.9,2.2,1.8l1.8,2.6
	c0,0.6-0.3,1.5-0.9,2.6c-1.5,0.3-2.8,0-3.9-0.9c-0.3,1.2-1.3,1.8-3.1,1.8c-1.2-0.6-2-1.5-2.4-2.8c-0.4-1.3-0.9-2.6-1.5-3.7
	c-1.8,0.3-2.9,0.1-3.5-0.4s-1.2-1.6-1.8-3.1c-1.2,0.6-2,1.1-2.4,1.5c-0.4,0.4-1.2,0.8-2.4,1.1c0.3,1.2,0.4,2.5,0.2,3.9
	c-0.1,1.5-0.3,3-0.4,4.6s-0.2,3.1-0.2,4.6c0,1.5,0.3,2.6,0.9,3.5c0.3,0.3,0.6,0.4,0.9,0.4c0.3,0,0.6,0.3,0.9,0.9
	c1.2,2,1.8,4.7,1.8,7.9c2.6,0.6,5.4,1.1,8.3,1.5s6.1,0.5,9.6,0.2c0.3,1.8,1,3.4,2.2,4.8c0.6,2,0.4,4.3-0.7,6.8s-1.8,4.4-2.4,5.9
	c2.9-1.8,5.7-3.5,8.3-5.3c2.6-1.8,5.4-3.4,8.3-4.8c0.6,1.5,1.1,3,1.5,4.6c0.4,1.6,0.4,3.6-0.2,5.9c-1.8,2.6-3.6,5.3-5.5,7.9
	c-1.9,2.6-3.7,5.1-5.5,7.4l-1.8,4.4l-1.8,4.4c-0.6,0.9-1.8,2.1-3.5,3.7c-1.8,1.6-3.1,2.7-3.9,3.3c-0.6,0-0.9-0.1-1.1-0.2
	c-0.1-0.1-0.5-0.2-1.1-0.2c-0.3-2.3-0.1-5,0.7-8.1c0.7-3.1,0.5-5.8-0.7-8.1c-0.9,0.6-1.8,0.9-2.8,1.1s-2,0.5-2.8,1.1
	c-1.5,2.3-2.8,4.8-3.9,7.4c-1.2,2.6-2.5,5.1-3.9,7.4c-4.4,0-8-1.2-10.7-3.5c-2.8-2.3-4.8-5.3-6.1-9c-1.3-3.6-2.1-7.7-2.4-12.3
	c-0.3-4.5-0.4-9-0.4-13.3c-1.5-0.6-2.9-1.1-4.4-1.5s-2.9-0.9-4.4-1.5c-0.6,13.1-4.8,24.1-12.7,33c-7.9,8.9-17.7,14.2-29.3,16v-2.6
	c0-2,0.1-3.9,0.2-5.7s0.4-3.6,0.7-5.7c-2-0.3-4-0.5-5.9-0.7c-1.9-0.1-4-0.4-6.3-0.7c-0.6,0.9-1.8,2.3-3.7,4.2
	c-1.9,1.9-3.9,3.9-6.1,5.9c-2.2,2-4.4,3.9-6.6,5.7c-2.2,1.8-3.7,2.8-4.6,3.1c-1.5,0.6-2,0.7-1.8,0.2s-0.3,0.1-1.8,1.5
	c-1.5-0.6-2.4-0.9-2.8-1.1c-0.4-0.1-1.2,0.5-2.4,2h-0.9c-0.6-0.6-1.2-0.9-1.8-0.9c0-1.5-0.1-2.7-0.4-3.7c-0.3-1-0.1-2.3,0.4-3.7
	c0.9-1.5,1.8-3,2.6-4.6c0.9-1.6,1.8-3.3,2.6-5c-0.9-2-2.2-4.7-3.9-7.9s-1.9-6.4-0.4-9.6c0.9-1.2,1.8-2.3,2.6-3.3
	c0.9-1,1.9-2.3,3.1-3.7c4.7,1.8,9.6,3.5,14.9,5.3c5.3,1.8,10.5,2.9,15.8,3.5c0.3,0,0.4-0.1,0.4-0.4c0.3-3.2,0.6-6.6,0.9-10.1
	s0.6-6.9,0.9-10.1c1.2,0,3.1-0.2,5.7-0.7c2.6-0.4,5.3-0.9,7.9-1.5s5-1.2,7-2c2-0.7,3.4-1.5,3.9-2.4c0.9-1.2,1.4-2.7,1.5-4.6
	c0.1-1.9,0.5-3.1,1.1-3.7c0.9-1.2,1.8-1.9,2.8-2.2c1-0.3,1.5-1.3,1.5-3.1c-1.2-2.3-2.5-4.2-3.9-5.7c-0.6,1.8-1.8,2.3-3.5,1.8
	c-1.2-0.6-1.8-1.5-2-2.6c-0.1-1.2-0.5-2.5-1.1-3.9c-4.1,0-7.2-0.4-9.4-1.3c-2.2-0.9-3.8-2.2-4.8-3.9c-1-1.8-1.6-3.8-1.8-6.1
	c-0.1-2.3-0.2-5-0.2-7.9c0.6-0.3,1.1-0.5,1.5-0.7s0.9-0.4,1.5-0.7c-0.3-0.6-0.5-1.4-0.7-2.4c-0.1-1-0.4-1.7-0.7-2l-6.6-2.6
	c-0.6-3.5-0.9-7.1-1.1-10.7s-0.4-7.2-0.7-10.7c0-1.2-0.1-2.6-0.4-4.4c-0.3-1.8-0.1-2.9,0.4-3.5c1.5-0.9,2.8-1.8,4.2-2.6
	c1.3-0.9,2.7-1.8,4.2-2.6c-0.3-0.6-0.4-1.3-0.4-2.2c-7.3,0-14.4,0.1-21.2,0.4s-13.6,0.4-20.4,0.4c-2.9-7.3-5.4-14-7.4-20.1
	c0.9-5,1.8-10,2.8-15.1s2.1-10.1,3.3-15.1c-1.5-6.1-3-12.3-4.6-18.4S67.4,47,65.9,40.6c1.2,0,2,0.1,2.6,0.4l-2.6-13.1l2.6-1.3
	c1.2,1.2,2,2.6,2.4,4.2c0.4,1.6,0.9,3.1,1.5,4.6c0.6,0,1-0.1,1.3-0.2c0.3-0.1,0.7-0.2,1.3-0.2c0.9,4.1,2,7.8,3.5,11.2
	c1.5,3.4,2.9,6.6,4.4,9.8c3.5,9,7.1,18,10.7,26.9s7.2,17.7,10.7,26.5l13.1,1.3c-0.3-5.3-0.5-10.6-0.7-16s-0.2-10.7-0.2-16
	c0.3,0.3,0.6,0.4,0.9,0.4c3.2,1.5,6.3,3.8,9.2,7c2.9,3.2,5.5,6.3,7.9,9.2c6.7,8.5,12.4,18.1,17.1,28.9s7.3,23.6,7.9,38.5
	c1.8,0,3.2,0.5,4.4,1.5s2.2,1.8,3.1,2.4c0.6-0.6,0.9-1.5,0.9-2.8v-2.8c0.9,0,1.5-0.1,1.8-0.4c-0.3-7.9,0.1-16.2,1.3-24.9
	c1.2-8.8,2.9-17.1,5.3-24.9s5.2-15,8.5-21.2c3.4-6.3,7.2-11,11.6-14.2c1.2,5.3,2.2,10.4,3.1,15.5c0.9,5.1,1.8,10.1,2.6,15.1
	c2.9-0.6,5.1-1.2,6.6-1.8c0.9-9,1.7-18,2.4-26.9c0.7-8.9,1.5-17.9,2.4-26.9v-3.9l-0.2-5.5l-0.2-5l0.4-3.1c0.3-0.3,0.6-0.5,0.9-0.7
	s0.6-0.5,0.9-1.1c0.6-1.2,0.7-2.5,0.2-3.9c-0.4-1.5-0.5-2.5-0.2-3.1c1.8-0.6,2.9-0.5,3.5,0.2s0.9,1.8,1.1,3.3
	c0.1,1.5,0.2,3.1,0.2,4.8c0,1.8,0.3,3.2,0.9,4.4c0.3-0.3,0.9-0.4,1.8-0.4c0.6,3.5,0.9,7.1,1.1,10.7s0.5,7.4,1.1,11.2
	c0,2.3,0.1,4.6,0.2,6.8c0.1,2.2,0.2,4.4,0.2,6.8c0.9,3.8,2,7.3,3.3,10.5c1.3,3.2,2.5,6.6,3.5,10.1c1,3.5,1.7,7.1,2,10.9
	c0.3,3.8,0,8.3-0.9,13.6c-3.2,2-7.7,3.2-13.3,3.5c-5.7,0.3-10.7,0.7-15.1,1.3v2.6l3.9,2l3.1,2.4c0.3,0.6,0.6,2.1,0.9,4.6
	s0.5,5.3,0.7,8.3s0.3,5.9,0.4,8.5c0.1,2.6,0.1,4.2-0.2,4.8c-0.6,0.9-1.8,2-3.7,3.3c-1.9,1.3-3.9,2.6-6.1,3.9s-4.2,2.6-5.9,3.7
	c-1.8,1.2-2.8,2.3-3.1,3.5C196,169.5,196.5,170.8,195.9,173.2z"/>
</svg>
