<svg xmlns="http://www.w3.org/2000/svg" viewBox="0 -250 1000 1000"><path fill="currentColor" d="M198 380l104 18 24-6 12 5 12 6 16-27 10-9 10-4 14 6v14l-20 24 4 16h20l14-14 46 4 8 13 8 1 12-7 18-7 2-17 6-13 10-11 10-2 10 9 4 14-6 9-2 13 36 3 108-8 6-7 6-19 11-8 13 8 8 13-4 26-18 15-9 33 3 4-1 8-7-3-4 27-9-3 5-25-8 1 2-8 8-5 4-33-136 19-6 18 2 26 138 51 16-5 12 19-11 43-9 2-12 56 6 7-5 11-5-4-4 23h-8l5-24-9 3 3-13 7-4 10-57-8-2 4-33-110-30-2 8-30 1-18 13-28-1-16-10-12-13-2-20-12-3-14 19-66 81-4 10-48 52-52-5 14-35 48-85-10 2-14-6-8-11-20-13-74 7-28 33-20 5-49 47 2 8-6 7-4-5-4 2-3 4-12 12-6-4 16-20-8-2 7-6 11-2 48-57 2-18 22-24 158-31v-12l-42-2-4-10 10-19-132-42-16 6-12 10-6-1-40 32-1 7-6 4-1-5-18 15-4-3 18-17-7-2 5-4h9l41-34 2-9 46-40 26-2 4 12-10 9z"/></svg>