<?xml version="1.0" encoding="utf-8"?>
<!-- Generator: Adobe Illustrator 21.0.2, SVG Export Plug-In . SVG Version: 6.00 Build 0)  -->
<svg version="1.1" id="Layer_1" xmlns="http://www.w3.org/2000/svg" xmlns:xlink="http://www.w3.org/1999/xlink" x="0px" y="0px"
	 width="300px" height="300px" viewBox="0 0 300 300" style="enable-background:new 0 0 300 300;" xml:space="preserve">
<path d="M70.5,91.4l41.7,7.2l9.6-2.4l4.8,2l4.8,2.4l6.4-10.8l4-3.6l4-1.6l5.6,2.4v5.6l-8,9.6l1.6,6.4h8l5.6-5.6l18.5,1.6l3.2,5.2
	l3.2,0.4l4.8-2.8l7.2-2.8l0.8-6.8l2.4-5.2l4-4.4l4-0.8l4,3.6l1.6,5.6l-2.4,3.6l-0.8,5.2l14.4,1.2l43.3-3.2l2.4-2.8L272,93l4.4-3.2
	l5.2,3.2l3.2,5.2l-1.6,10.4l-7.2,6l-3.6,13.2l1.2,1.6l-0.4,3.2l-2.8-1.2l-1.6,10.8l-3.6-1.2l2-10l-3.2,0.4l0.8-3.2l3.2-2l1.6-13.2
	l-54.6,7.6l-2.4,7.2l0.8,10.4l55.4,20.5l6.4-2l4.8,7.6l-4.4,17.3l-3.6,0.8l-4.8,22.5l2.4,2.8l-2,4.4l-2-1.6l-1.6,9.2h-3.2l2-9.6
	l-3.6,1.2l1.2-5.2l2.8-1.6l4-22.9l-3.2-0.8l1.6-13.2l-44.1-12l-0.8,3.2l-12,0.4l-7.2,5.2l-11.2-0.4l-6.4-4l-4.8-5.2l-0.8-8l-4.8-1.2
	l-5.6,7.6l-26.5,32.5l-1.6,4l-19.3,20.9l-20.9-2l5.6-14l19.3-34.1l-4,0.8l-5.6-2.4l-3.2-4.4l-8-5.2L73.8,152l-11.2,13.2l-8,2
	l-19.7,18.9l0.8,3.2l-2.4,2.8l-1.6-2l-1.6,0.8l-1.2,1.6l-4.8,4.8l-2.4-1.6l6.4-8l-3.2-0.8l2.8-2.4l4.4-0.8l19.3-22.9l0.8-7.2
	l8.8-9.6l63.4-12.4v-4.8l-16.9-0.8l-1.6-4l4-7.6l-53-16.9l-6.4,2.4l-4.8,4l-2.4-0.4l-16.1,12.8l-0.4,2.8l-2.4,1.6l-0.4-2l-7.2,6
	l-1.6-1.2l7.2-6.8l-2.8-0.8l2-1.6h3.6l16.5-13.6l0.8-3.6L60.9,81l10.4-0.8L73,85l-4,3.6L70.5,91.4z"/>
</svg>
