<svg xmlns="http://www.w3.org/2000/svg" viewBox="0 -250 1000 1000"><path fill="currentColor" d="M683 480l-23 127-113 72-90-133-36 12-1 6q-3 8-16.5 17T381 595l3 13 1 2q0 7-7 7-5 0-7-6l-4-11q-5 1-14 2t-20 1l2 9v2q0 7-6 7-5 0-7-5l-6-14v-1q-10-2-19.5-6.5T279 585q-10-5-18-11v-8l-36-4q-14-2-26.5-3.5T183 556q-5 0-17-1.5t-18-2.5v1l-12 154-94-46-12-140 3-16v-42l21-29 32-89 55-64-14 83-30 55v18q31-11 60.5-17t52.5-9q26-4 50-4l6-19 57-4q2 1 6 2 3 1 7 1.5t10 .5q5 0 12.5 2.5T373 396l16 8q8 0 16 1 7 1 15 1.5t14 .5 13 1 13 2l14 2 7-68-29-73 135 70z"/></svg>