<?xml version="1.0" encoding="utf-8"?>
<!-- Generator: Adobe Illustrator 21.0.2, SVG Export Plug-In . SVG Version: 6.00 Build 0)  -->
<svg version="1.1" id="Layer_1" xmlns="http://www.w3.org/2000/svg" xmlns:xlink="http://www.w3.org/1999/xlink" x="0px" y="0px"
	 width="300px" height="300px" viewBox="0 0 300 300" style="enable-background:new 0 0 300 300;" xml:space="preserve">
<path d="M283.6,146.3l-9.4,52l-46.2,29.5l-36.8-54.4l-14.7,4.9l-0.4,2.5c-0.8,2.2-3.1,4.5-6.8,7s-6.8,4.4-9.2,5.7l1.2,5.3l0.4,0.8
	c0,1.9-1,2.9-2.9,2.9c-1.4,0-2.3-0.8-2.9-2.5l-1.6-4.5c-1.4,0.3-3.3,0.5-5.7,0.8c-2.5,0.3-5.2,0.4-8.2,0.4l0.8,3.7v0.8
	c0,1.9-0.8,2.9-2.5,2.9c-1.4,0-2.3-0.7-2.9-2l-2.5-5.7v-0.4c-2.7-0.5-5.4-1.4-8-2.7s-5-2.5-7.2-3.9c-2.7-1.4-5.2-2.9-7.4-4.5v-3.3
	l-14.7-1.6c-3.8-0.5-7.4-1-10.8-1.4c-3.4-0.4-5.5-0.8-6.3-1c-1.4,0-3.7-0.2-7-0.6s-5.7-0.8-7.4-1v0.4l-4.9,63l-38.5-18.8l-4.9-57.3
	l1.2-6.5v-17.2l8.6-11.9l13.1-36.4l22.5-26.2l-5.7,34l-12.3,22.5v7.4c8.5-3,16.7-5.3,24.8-7s15.2-2.9,21.5-3.7
	c7.1-1.1,13.9-1.6,20.5-1.6l2.5-7.8l23.3-1.6c0.5,0.3,1.4,0.5,2.5,0.8c0.8,0.3,1.8,0.5,2.9,0.6s2.5,0.2,4.1,0.2c1.4,0,3.1,0.3,5.1,1
	c2,0.7,4,1.4,5.9,2.3l6.5,3.3c2.2,0,4.4,0.1,6.5,0.4c1.9,0.3,4,0.5,6.1,0.6c2.2,0.1,4.1,0.2,5.7,0.2c1.6,0,3.4,0.1,5.3,0.4
	c1.9,0.3,3.7,0.5,5.3,0.8l5.7,0.8l2.9-27.8l-11.9-29.9l55.2,28.6L283.6,146.3z"/>
</svg>
