<?xml version="1.0" encoding="utf-8"?>
<!-- Generator: Adobe Illustrator 21.0.2, SVG Export Plug-In . SVG Version: 6.00 Build 0)  -->
<svg version="1.1" id="Layer_1" xmlns="http://www.w3.org/2000/svg" xmlns:xlink="http://www.w3.org/1999/xlink" x="0px" y="0px"
	 width="300px" height="300px" viewBox="0 0 300 300" style="enable-background:new 0 0 300 300;" xml:space="preserve">
<path d="M227.9,35.3l27.8,13.4c4.9,5.6,9.4,12,13.4,19.5c3.4,6.2,6.6,13.8,9.5,22.9c2.9,9.1,4.6,19.4,4.9,30.8l-1.4,0.9l-0.9,33.4
	l1.4,1.4c-0.6,6.8-2,14.1-4.2,21.8c-1.9,6.5-4.8,13.9-8.8,22.2s-9.7,16.7-17.1,25c-0.3,0.3-2.3-0.6-6-2.8c-3.7-2.2-7.7-4.6-12-7.2
	c-4.3-2.6-8.3-5-11.8-7.2l-5.3-3.2c0-5.9,0.2-11.7,0.5-17.6c0-5.3,0.1-10.7,0.2-16.2s-0.1-10.7-0.7-15.3l-11.6,5.1
	c-0.6,1.9-1.5,3.7-2.8,5.6c-0.9,1.5-2.1,3.3-3.5,5.3c-1.4,2-3,3.8-4.9,5.3c-0.6,0.9-0.4,2,0.7,3.2c1.1,1.2,0.8,2.5-0.7,3.7
	c-1.2,0.9-2.8,1.1-4.6,0.5c-0.9-0.3-1.7-0.6-2.3-0.9c-1.2,0.9-2.5,2-3.7,3.2c-1.5,0.9-3.2,1.8-5.1,2.5c-1.9,0.8-4,1.5-6.5,2.1
	l-0.5,0.5c-0.3,0.3-0.6,0.5-0.9,0.5l-4.6,0.9l-3.2-1.9c-1.5,0.3-3.2,0.5-5.1,0.5c-1.5,0-3.6-0.2-6-0.5c-2.5-0.3-5.4-1.1-8.8-2.3
	c-0.9-1.9-2.2-3.6-3.9-5.1s-3.3-2.9-4.9-4.2c-1.9-1.2-3.9-2.5-6-3.7l-38.9,0.9l-5.6,1.9v19l-1.9,0.5c0,7.7,0.6,15.3,1.9,22.7
	c0.6,6.2,1.8,12.7,3.5,19.7c1.7,7,4.1,13.1,7.2,18.3l-6.5,4.2c-4-2.8-8-5.7-12-8.8c-3.4-2.5-7-5.3-10.9-8.3c-3.9-3.1-7-6-9.5-8.8
	c-2.8-2.8-6.1-7.1-10-13s-7.6-12.3-11.4-19.2S27,192.4,24,185c-3.1-7.4-5.3-14.2-6.5-20.4l2.8-0.9l-3.2-2.3l1.9-2.3l-1.4-21.3
	l-0.9-3.2l0.9-1.9v-3.2L17,128c2.2-6.5,5.1-13.4,8.8-20.9c3.4-6.2,7.6-13.1,12.7-20.6S50.2,71.5,58.2,64l34.3,18.5
	c-1.5,6.5-2.9,12.7-4.2,18.5c-1.2,5.3-2.3,10.5-3.2,15.8c-0.9,5.3-1.4,9.7-1.4,13.4c0.6,0.3,1.9,0.8,3.7,1.4c1.9,0.6,3.9,1.4,6,2.3
	c2.5,1.2,5.3,2.3,8.3,3.2l10.2-2.3l1.9-10.2l2.8-0.9l4.6-7.4c0.3-0.3,1.1-0.6,2.3-0.9c1.9-0.6,5.4-1.1,10.7-1.4
	c0.3,0.3,1.7-0.9,4.2-3.7c2.5-2.8,6.6-4.9,12.5-6.5l0.5-1.4l4.6-0.9c2.5-0.3,5.1,0,7.9,0.9c0.9,0.3,2,0.5,3.2,0.5
	c0.9,0.3,2,0.5,3.2,0.5c1.2,0,2.5,0.2,3.7,0.5c3.1,0.6,5.1,0.9,6,0.9c0.9,0.3,1.7,0.5,2.3,0.5l0.5,0.5c0.6,0.6,1.1,1.2,1.4,1.9
	l1.4,1.4c0.3,0.3,0.6,0.8,0.9,1.4h1.4l5.1,2.8l17.1,0.5l0.9-21.3l2.3-0.9l3.7-17.6c0.9-5.3,1.6-10.9,2.1-16.9c0.5-6,0.4-12-0.2-17.8
	l7-3.7H227.9z"/>
</svg>
