<?xml version="1.0" encoding="utf-8"?>
<!-- Generator: Adobe Illustrator 21.0.2, SVG Export Plug-In . SVG Version: 6.00 Build 0)  -->
<svg version="1.1" id="Layer_1" xmlns="http://www.w3.org/2000/svg" xmlns:xlink="http://www.w3.org/1999/xlink" x="0px" y="0px"
	 width="300px" height="300px" viewBox="0 0 300 300" style="enable-background:new 0 0 300 300;" xml:space="preserve">
<path d="M271.5,146.7l-8.6,47.3l-42.1,26.8l-33.5-49.5l-13.4,4.5l-0.4,2.2c-0.7,2-2.8,4.1-6.1,6.3c-3.3,2.2-6.1,4-8.4,5.2l1.1,4.8
	l0.4,0.7c0,1.7-0.9,2.6-2.6,2.6c-1.2,0-2.1-0.7-2.6-2.2l-1.5-4.1c-1.2,0.2-3,0.5-5.2,0.7c-2.2,0.2-4.7,0.4-7.4,0.4l0.7,3.3v0.7
	c0,1.7-0.7,2.6-2.2,2.6c-1.2,0-2.1-0.6-2.6-1.9l-2.2-5.2v-0.4c-2.5-0.5-4.9-1.3-7.3-2.4c-2.4-1.1-4.5-2.3-6.5-3.5
	c-2.5-1.2-4.7-2.6-6.7-4.1v-3l-13.4-1.5c-3.5-0.5-6.8-0.9-9.9-1.3s-5-0.7-5.8-0.9c-1.2,0-3.3-0.2-6.3-0.6s-5.2-0.7-6.7-0.9v0.4
	l-4.5,57.3l-35-17.1l-4.5-52.1l1.1-6v-15.6l7.8-10.8l11.9-33.1l20.5-23.8l-5.2,30.9l-11.2,20.5v6.7c7.7-2.7,15.2-4.8,22.5-6.3
	c7.3-1.5,13.8-2.6,19.5-3.3c6.5-1,12.7-1.5,18.6-1.5l2.2-7.1l21.2-1.5c0.5,0.2,1.2,0.5,2.2,0.7c0.7,0.2,1.6,0.4,2.6,0.6
	c1,0.1,2.2,0.2,3.7,0.2c1.2,0,2.8,0.3,4.7,0.9c1.9,0.6,3.7,1.3,5.4,2l6,3c2,0,4,0.1,6,0.4c1.7,0.2,3.6,0.4,5.6,0.6
	c2,0.1,3.7,0.2,5.2,0.2c1.5,0,3.1,0.1,4.8,0.4c1.7,0.2,3.3,0.5,4.8,0.7l5.2,0.7l2.6-25.3l-10.8-27.2l50.2,26.1L271.5,146.7z"/>
</svg>
