<svg xmlns="http://www.w3.org/2000/svg" viewBox="0 -250 1000 1000"><path fill="currentColor" d="M500 227l60 29q16 18 29 42 11 20 20.5 49.5T620 414l-3 2-2 72 3 3q-2 22-9 47-6 21-19 48t-37 54q-1 1-13-6t-26-15.5-25.5-15.5l-11.5-7q0-19 1-38 0-17 .5-35t-1.5-33l-25 11q-2 6-6 12-3 5-7.5 11.5T428 536q-2 3 1.5 7t-1.5 8q-4 3-10 1-3-1-5-2-4 3-8 7-5 3-11 5.5t-14 4.5l-1 1q-1 1-2 1l-10 2-7-4q-5 1-11 1-5 0-13-1t-19-5q-3-6-8.5-11t-10.5-9q-6-4-13-8l-84 2-12 4v41l-4 1q0 25 4 49 2 20 7.5 42.5T212 713l-14 9q-13-9-26-19-11-8-23.5-18T128 666q-9-9-21.5-28T82 596.5 60 550t-14-44l6-2-7-5 4-5-3-46-2-7 2-4v-7l-1-3q7-21 19-45 11-20 27.5-44.5T134 289l74 40q-5 21-9 40-4 17-7 34t-3 29q2 1 8 3t13 5q8 4 18 7l22-5 4-22 6-2 10-16q1-1 5-2 6-2 23-3 1 1 9-8t27-14l1-3 10-2q8-1 17 2 3 1 7 1 3 1 7 1t8 1q10 2 13 2 3 1 5 1l1 1q2 2 3 4l3 3q1 1 2 3h3l11 6 37 1 2-46 5-2 8-38q3-17 4.5-36.5T481 235l15-8h4z"/></svg>