<?xml version="1.0" encoding="utf-8"?>
<!-- Generator: Adobe Illustrator 21.0.2, SVG Export Plug-In . SVG Version: 6.00 Build 0)  -->
<svg version="1.1" id="Layer_1" xmlns="http://www.w3.org/2000/svg" xmlns:xlink="http://www.w3.org/1999/xlink" x="0px" y="0px"
	 width="300px" height="300px" viewBox="0 0 300 300" style="enable-background:new 0 0 300 300;" xml:space="preserve">
<path d="M68.9,66.9c0.9,0,1.3,0.6,1.3,1.7c0,0.6-0.1,1.1-0.4,1.7l-32.2,51.5l-0.4,2.6l11.6,10.3l30-9.9v-1.3c0-0.9-0.1-1.4-0.4-1.7
	c-0.3-0.3-0.1-0.9,0.4-1.7c0.3-0.3,0.4-0.7,0.4-1.3l4.3-0.9l4.3-0.9c0.6-1.4,1.8-2.3,3.6-2.6c1.9-0.3,3.1-0.4,3.6-0.4
	c1.4,0,2.6,0.1,3.4,0.4c0.6,0,1.1-0.3,1.7-0.9c0.3-0.3,0.4-0.6,0.4-0.9h14.6c1.4,0,2.6,0.4,3.4,1.3c0.3,0.3,1.1,0.6,2.4,1.1
	c1.3,0.4,2.2,0.5,2.8,0.2c1.7-1.1,3.6-1.1,5.6,0c0.6,0.6,0.9,1,1.1,1.3c0.1,0.3,0.4,0.6,0.6,0.9c0.3,0.3,0.4,0.6,0.4,0.9l1.7,0.9
	v0.9c0,0.9,0.4,2.3,1.3,4.3c0.3,1.1,0.9,2,1.7,2.6s1.7,1,2.6,1.3c1.1,0.3,2.3,0.4,3.4,0.4l1.7-2.6h2.6c0.6,0,1.2,0.1,1.9,0.2
	c0.7,0.1,1.4,0.1,1.9-0.2c1.4-0.3,2.4-0.7,2.8-1.3l1.9-2.6c1.7-2.3,4.6-3.4,8.6-3.4c2.3,0,4.3-0.4,6-1.3c1.7-0.9,5.2-2,10.3-3.4
	c5.2-1.4,9.7-1.5,13.7-0.2s6.3,2.1,6.9,2.4c0.6,0.6,2,0.9,4.3,0.9h5.6c1.1,0.3,2.1,1,3,2.1s1.4,2,1.7,2.6c0,0.3,0.6,0.7,1.7,1.3
	c0.6,0.3,1,0.6,1.3,0.9c-3.1-7.4-6.2-14.2-9-20.2c-2.3-5.2-4.4-9.9-6.4-14.2s-3-6.7-3-7.3c-0.3-0.3,0-0.9,0.9-1.7
	c0.3-0.3,0.6-0.4,0.9-0.4c8-2,15.5-3.7,22.3-5.2c5.7-1.4,11-2.6,15.9-3.6s7.6-1.6,8.2-1.9c0.6-0.3,1.1-0.4,1.5-0.2
	c0.4,0.1,0.8,0.2,1.1,0.2c0.3,0.3,0.6,0.4,0.9,0.4l42.5,50.2l0.4,54.1c-6,7.2-11.6,13.7-16.7,19.7c-4.3,5.2-8.4,10.3-12.4,15.5
	c-4,5.2-6.7,8.7-8.2,10.7c-1.4,2-2.8,3.4-4.1,4.1c-1.3,0.7-2.4,1.2-3.2,1.5c-1.1,0.3-2.1,0.3-3,0c-7.4-2-14.2-3.6-20.2-4.7
	c-5.2-1.1-10.1-2.1-14.8-3c-4.7-0.9-7.7-1.4-8.8-1.7c-2-0.3-3-1-3-2.1c-0.3-0.6-0.3-1,0-1.3l18.5-40.8l-2.6,0.9l-3.4,8.6l-7.7,3
	h-4.3l-0.4-3.4h-5.6c-0.9,0.3-1.6,0.6-2.1,0.9l-2.6,0.9l-2.1-2.1c-0.6-0.6-1.1-1.3-1.7-2.1h-7.3l-7.3,8.2v1.3l3.4,1.7v1.3l3,0.4v3.9
	l-5.2,4.7v5.2c-1.7,1.4-3.6,2.4-5.6,2.8s-3.9,0.5-5.6,0.2c-2-0.3-4-0.7-6-1.3l-6.4-3.4v-3.9l-4.7-4.7v-5.2l3.4-0.4l0.9-2.6l4.7,0.4
	l2.1-3l-7.3-0.4l-2.1-1.7h-3.4l-2.1-2.1l-6.4,0.4l-1.3,1.7l-11.2,1.7c-1.1,0-2.1,0.1-3,0.4c-2,0.6-3.1,1-3.4,1.3
	c-3.7,0.9-7.7,1-11.8,0.4c-4.1-0.6-6.8-1-7.9-1.3c-1.4-0.3-2.8-0.7-4.1-1.3c-1.3-0.6-2.1-1.1-2.4-1.7c-1.7,0.3-3.2,0.3-4.5,0
	c-1.3-0.3-2.2-0.6-2.8-0.9c-0.9-0.3-1.4-0.6-1.7-0.9l-1.3-6.4l-29.6-9l-10.3,6.4v9c5.2,8.6,10,16.3,14.6,23.2
	c3.7,6,7.3,11.6,10.7,16.7c3.4,5.2,5.4,8.3,6,9.4c0.9,1.7,1,2.9,0.4,3.4c-0.3,0.3-0.7,0.4-1.3,0.4c-2.6-1.7-5.2-3.3-7.7-4.7
	c-2.3-1.4-4.4-2.7-6.4-3.9c-2-1.1-3.7-2-5.2-2.6c-3.1-0.9-5.2-1.7-6-2.6c-0.9-0.6-1.3-1-1.3-1.3l-32.2-40.8l-0.4-3.4l-2.6-2.6v-3
	l-0.9-2.6l-0.4-33.9l1.3-2.1l0.9-4.7l2.1-2.6l0.4-2.1l14.6-18c3.7-4.6,7.1-8.7,10.1-12.4s4.7-5.9,4.9-6.4s0.6-1,1.1-1.3
	c0.4-0.3,0.8-0.7,1.1-1.3l0.9-1.7L68.9,66.9z"/>
</svg>
