<svg xmlns="http://www.w3.org/2000/svg" viewBox="0 -250 1000 1000"><path fill="currentColor" d="M184 304q3 0 3 4 0 2-1 4l-75 120-1 6 27 24 70-23v-3q0-3-1-4t1-4q1-1 1-3l10-2 10-2q2-5 8.5-6t8.5-1q5 0 8 1 2 0 4-2 1-1 1-2h34q5 0 8 3 1 1 5.5 2.5t6.5.5q6-4 13 0 2 2 2.5 3t1.5 2 1 2l4 2v2q0 3 3 10 1 4 4 6t6 3q4 1 8 1l4-6h6q2 0 4.5.5t4.5-.5q5-1 6.5-3l4.5-6q6-8 20-8 8 0 14-3t24-8 32-.5 16 5.5q2 2 10 2h13q4 1 7 5t4 6q0 1 4 3 2 1 3 2-11-26-21-47-8-18-15-33t-7-17q-1-1 2-4 1-1 2-1 28-7 52-12 20-5 37-8.5t19-4.5 3.5-.5 2.5.5q1 1 2 1l99 117 1 126q-21 25-39 46-15 18-29 36t-19 25-9.5 9.5-7.5 3.5q-4 1-7 0-26-7-47-11-18-4-34.5-7t-20.5-4q-7-1-7-5-1-2 0-3l43-95-6 2-8 20-18 7h-10l-1-8h-13q-3 1-5 2l-6 2-5-5q-2-2-4-5h-17l-17 19v3l8 4v3l7 1v9l-12 11v12q-6 5-13 6.5t-13 .5q-7-1-14-3l-15-8v-9l-11-11v-12l8-1 2-6 11 1 5-7-17-1-5-4h-8l-5-5-15 1-3 4-26 4q-4 0-7 1-7 2-8 3-13 3-27.5 1t-18.5-3q-5-1-9.5-3t-5.5-4q-6 1-10.5 0t-6.5-2q-3-1-4-2l-3-15-69-21-24 15v21q18 30 34 54 13 21 25 39t14 22q3 6 1 8-1 1-3 1-9-6-18-11-8-5-15-9t-12-6q-11-3-14-6-3-2-3-3l-75-95-1-8-6-6v-7l-2-6-1-79 3-5 2-11 5-6 1-5 34-42q13-16 23.5-29t11.5-15 2.5-3 2.5-3l2-4 60-28z"/></svg>