<?xml version="1.0" encoding="utf-8"?>
<!-- Generator: Adobe Illustrator 21.0.2, SVG Export Plug-In . SVG Version: 6.00 Build 0)  -->
<svg version="1.1" id="Layer_1" xmlns="http://www.w3.org/2000/svg" xmlns:xlink="http://www.w3.org/1999/xlink" x="0px" y="0px"
	 width="300px" height="300px" viewBox="0 0 300 300" style="enable-background:new 0 0 300 300;" xml:space="preserve">
<path d="M124.4,176.3l-1.1-4.5l-4.9-4.5l1.5-1.5l2.7,1.9v-1.9L121,165l-1.5-12.1l-14-10.6v-1.9l-4.9-3.8l-8,13.3L124.4,176.3z
	 M109.3,120.6l6.8,0.4l-5.3-3.4L109.3,120.6z M278.6,169.5c0,0.5-0.1,0.9-0.4,1.3s-0.6,0.4-1.1,0.2c-0.5,0-1-0.1-1.5-0.4l-1.5-0.8
	l-1.1-0.8l-0.4-0.8l0.4-0.8c0.3,0-0.3-0.3-1.5-0.9c-1.3-0.6-2.8-1.5-4.5-2.5l-6.8-3.8c-0.3,0.3-0.5,0.4-0.8,0.4
	c-0.5,0.5-1,0.5-1.5,0c-1-0.5-1.4-0.8-1.1-0.8h-0.4l-0.4-1.5c0,0.3-0.1,0.4-0.4,0.4c-1,0-1.5-0.1-1.5-0.4c-1-0.5-1.5-1-1.5-1.5
	c-0.3-0.3-0.3-0.4,0-0.4h-0.8c-0.8,0-1.3-0.1-1.5-0.4c-0.8-0.3-1.1-0.8-1.1-1.5V154l-69.7-42l-4.2,2.7c0,0.5-0.1,1-0.4,1.5
	c-0.5,1-1.6,1.1-3.4,0.4l-1.5,0.8v0.8c0,0.8-0.3,1.1-0.8,1.1c-0.3,0.3-0.5,0.4-0.8,0.4s-0.4,0.1-0.4,0.4l0.8,1.5l-3,4.2l-0.8,4.2
	c1.8,0.8,3.4,1.8,4.9,3c1.3,1.3,2.6,2.8,4,4.5c1.4,1.8,2.5,4,3.2,6.8c0.3,0,0.5,0.1,0.8,0.4c0.8,0.8,1.1,1.3,1.1,1.5
	c0.3,0.3,0.3,0.7,0.2,1.3c-0.1,0.6-0.7,0.8-1.7,0.6c0,0.5,0.1,2.3,0.4,5.3s0.1,5.3-0.4,6.8c0.5,0.5,0.9,0.8,1.1,0.9
	c0.3,0.1,0.5,0.3,0.8,0.6c0.3,0.3,0.5,0.4,0.8,0.4l-0.4,1.5h0.4c0.8,0,1.4,0.3,1.9,0.8c0.3,0.8,0.8,1.5,1.5,2.3l0.8,0.8
	c0,0.5-0.1,0.9-0.4,1.1c-0.5,0.5-0.9,0.8-1.1,0.8c-1,0-2-0.3-3-0.8c-0.8-0.3-1.3-0.6-1.5-1.1c-0.3,0-0.4-0.1-0.4-0.4
	c-0.5-0.3-0.5-0.6,0-1.1c0-0.3-0.4-0.6-1.1-1.1c-0.5-0.3-0.9-0.4-1.1-0.4c-0.8,1.5-1.6,2.9-2.7,4.2c-0.8,1.3-1.6,2.4-2.5,3.4
	c-0.9,1-1.7,1.8-2.5,2.3l-2.3,1.5l-3.2,1.5l-5.3,1.3l-8.5,0.6l-1.1,1.1h-0.8c-0.8,0-1.3-0.5-1.5-1.5H143v0.4h-1.1
	c0.5,0.3,1.7,1,3.6,2.3s4,2.5,6.2,3.8c2.8,1.5,5.7,3.3,8.7,5.3l30.3,24.6l27.3,33l4.2,3c-0.3,0.3-0.4,0.5-0.4,0.8
	c0,0.3,0.3,0.4,0.8,0.4h1.5l3,3.4c0,0.5-0.1,0.9-0.4,1.1c-0.8,0.8-1.3,1.1-1.5,1.1l-4.2-2.3v-1.1c-0.5-0.3-1-0.6-1.5-1.1
	c-0.5-0.5-1.5-1.3-3-2.3c-1.3-1-2.8-2.1-4.5-3.4H210c-0.3-0.3-0.4-0.4-0.6-0.4c-0.1,0-0.3-0.1-0.6-0.4c-0.3,0-0.4-0.1-0.4-0.4v-1.5
	c0-0.3-0.2-0.3-0.6,0c-0.4,0.3-0.9,0-1.7-0.8c-0.8-0.3-1.1-0.8-1.1-1.5c0-0.3,0.1-0.4,0.4-0.4h-1.1c-0.8,0-1.4-0.4-1.9-1.1
	c-0.3-0.3-0.4-0.6-0.4-1.1v-0.8l-43.9-36.7l-2.3,0.8l0.4,0.8h1.9l3,3.8c0,0.5-0.1,0.9-0.4,1.1c-0.5,0.8-1,1.1-1.5,1.1
	c-0.5,0-1.3-0.5-2.3-1.5c-0.8-0.5-1.4-0.9-1.9-1.1l-0.4-1.5l-1.9,0.4l-1.9-1.5l-18.2,4.9l40.9,37.5c0.3-0.3,0.5-0.4,0.8-0.4
	s0.9,0.3,1.9,0.8c0.3,0.5,0.6,1,1.1,1.5c0.3,0.3,0.4,0.5,0.4,0.8h0.4c0.5,0,1,0.1,1.5,0.4c0.8,0.8,1.1,1.3,1.1,1.5v0.8
	c0.3-0.3,0.5-0.4,0.8-0.4c0.3,0,0.6,0.3,1.1,0.8c0.8,1.3,1.1,2.1,1.1,2.7c0,0.5,1.4,1.6,4.2,3.4c1,1,2.4,2,4.2,3l1.1,0.4l2.7,3.4
	v0.8c0,0.3-0.4,0.4-1.1,0.4c-1,0-2-0.3-3-0.8c-0.8-0.3-1.3-0.6-1.5-1.1v-1.1H190c-0.3,0-0.4-0.1-0.6-0.2c-0.1-0.1-0.4-0.2-0.9-0.2
	c-0.8,0-1.3-0.1-1.5-0.4c-0.3-0.3-0.4-0.5-0.4-0.8l-1.9-1.1l-84.1-11L69.5,218l10.6-24.6l-26.9-4.5l-31.8-33L51.3,118l14,11l17-33.3
	L68.4,85l9.5-39l2.7-0.8l36,21.6l30.7,47.7l2.3,0.8l11.4-5.3l2.3-0.4l1.9-0.8c-0.3-0.5-0.4-1.1-0.4-1.9c0-1.3,1-2,3-2.3l-11.4-6.8
	l1.1-1.9l11.4,4.5l-8.3-19.7l-16.3-9.1l25-38.6l3,0.4L212.3,51l49.6,83.3l4.2,2.7l0.4,1.5c0-0.3,0.1-0.4,0.4-0.4
	c0.3,0,0.6,0.3,1.1,0.8c0.5,0.5,1.3,1,2.3,1.5l1.1,1.1c0,0.5-0.1,0.9-0.4,1.1c-0.5,0.8-0.9,1.1-1.1,1.1l-4.5-1.5
	c-0.3,0-0.4-0.1-0.4-0.4v-1.1c-0.5-0.3-1.5-0.8-2.8-1.5c-1.4-0.8-3-1.6-4.7-2.7c-2-1-4.2-2.1-6.4-3.4c-0.3,0.3-0.5,0.4-0.8,0.4
	c-0.8,0.8-1.4,0.8-1.9,0c-0.5,0-0.8-0.1-0.8-0.4c0-0.3-0.1-0.5-0.4-0.8c-0.3-0.3-0.4-0.5-0.4-0.8H246c-0.8,0-1.4-0.1-1.9-0.4
	c-0.8-0.3-1.1-0.6-1.1-1.1v-0.8h-0.8c-1,0-1.6-0.1-1.9-0.4c-0.5-0.5-0.9-1-1.1-1.5c-0.3-0.3-0.4-0.6-0.4-1.1l-43.6-24.2l3.8,10.6
	l8.7,3.8l33.3,18.6l29.9,28.8l3,1.9h0.8c0.3,0,0.4,0.1,0.6,0.2c0.1,0.1,0.3,0.2,0.6,0.2c0.5,0.5,1,0.9,1.5,1.1
	c0.3,0.3,0.6,0.5,1.1,0.8V169.5z"/>
</svg>
