<svg xmlns="http://www.w3.org/2000/svg" viewBox="0 -250 1000 1000"><path fill="currentColor" d="M294 579l-3-12-13-12 4-4 7 5v-5l-4-2-4-32-37-28v-5l-13-10-21 35zm-40-147l18 1-14-9zm447 129q0 2-1 3.5t-3 .5q-2 0-4-1l-4-2-3-2-1-2 1-2q1 0-4-2.5t-12-6.5l-18-10q-1 1-2 1-2 2-4 0-4-2-3-2h-1l-1-4q0 1-1 1-4 0-4-1-4-2-4-4-1-1 0-1h-2q-3 0-4-1-3-1-3-4v-2L439 409l-11 7q0 2-1 4-2 4-9 1l-4 2v2q0 3-2 3-1 1-2 1t-1 1l2 4-8 11-2 11q7 3 13 8 5 5 10.5 12t8.5 18q1 0 2 1 3 3 3 4 1 1 .5 3.5T434 504q0 2 1 14t-1 18q2 2 3 2.5t2 1.5 2 1l-1 4h1q3 0 5 2 1 3 4 6l2 2q0 2-1 3-2 2-3 2-4 0-8-2-3-1-4-3-1 0-1-1-2-1 0-3 0-1-3-3-2-1-3-1-3 6-7 11-3 5-6.5 9t-6.5 6l-6 4-8.5 4-14 3.5L358 586l-3 3h-2q-3 0-4-4h-6v1h-3q2 1 9.5 6t16.5 10q11 6 23 14l80 65 72 87 11 8q-1 1-1 2t2 1h4l8 9q0 2-1 3-3 3-4 3l-11-6v-3q-2-1-4-3t-8-6q-5-4-12-9h-5q-1-1-1.5-1t-1.5-1q-1 0-1-1v-4q0-1-1.5 0t-4.5-2q-3-1-3-4 0-1 1-1h-3q-3 0-5-3-1-1-1-3v-2l-116-97-6 2 1 2h5l8 10q0 2-1 3-2 3-4 3t-6-4q-3-2-5-3l-1-4-5 1-5-4-48 13 108 99q1-1 2-1t5 2q1 2 3 4 1 1 1 2h1q2 0 4 1 3 3 3 4v2q1-1 2-1t3 2q3 5 3 7t11 9q4 4 11 8l3 1 7 9v2q0 1-3 1-4 0-8-2-3-1-4-3v-3h-1q-1 0-1.5-.5t-2.5-.5q-3 0-4-1t-1-2l-5-3-222-29-82-85 28-65-71-12-84-87 79-100 37 29 45-88-37-28 25-103 7-2 95 57 81 126 6 2 30-14 6-1 5-2q-1-2-1-5 0-5 8-6l-30-18 3-5 30 12-22-52-43-24 66-102 8 1 106 46 131 220 11 7 1 4q0-1 1-1t3 2 6 4l3 3q0 2-1 3-2 3-3 3l-12-4q-1 0-1-1v-3q-2-1-7.5-4t-12.5-7q-8-4-17-9-1 1-2 1-3 3-5 0-2 0-2-1t-1-2-1-2h-2q-3 0-5-1-3-1-3-3v-2h-2q-4 0-5-1-2-2-3-4-1-1-1-3l-115-64 10 28 23 10 88 49 79 76 8 5h2q1 0 1.5.5t1.5.5q2 2 4 3 1 1 3 2v4z"/></svg>