<?xml version="1.0" encoding="utf-8"?>
<!-- Generator: Adobe Illustrator 21.0.2, SVG Export Plug-In . SVG Version: 6.00 Build 0)  -->
<svg version="1.1" id="Layer_1" xmlns="http://www.w3.org/2000/svg" xmlns:xlink="http://www.w3.org/1999/xlink" x="0px" y="0px"
	 width="300px" height="300px" viewBox="0 0 300 300" style="enable-background:new 0 0 300 300;" xml:space="preserve">
<path d="M255,134.2l-10.8,97.9l-1.3,0.4l-59.8-21.2l-13-55.9c-0.3,0.6-0.7,1.3-1.3,2.2c-0.6,0.6-1,1.2-1.3,1.9
	c-0.3,0.7-0.7,1.2-1.3,1.5l-0.4,0.4h0.4l0.4,0.9h0.4c0.9,0.9,0.9,1.4,0,1.7h-0.9v0.4h-3c-0.3,0-0.5,0.1-0.6,0.2s-0.4,0.2-0.6,0.2
	c-0.3,0.6-1.7,1.8-4.1,3.7c-2.5,1.9-5.8,2.8-10.2,2.8s-8.7-0.6-13-1.7s-7.9-3.5-10.8-6.9c-0.3-0.3-0.4-0.6-0.4-0.9l-0.4-0.4h-5.2
	l-1.7-1.3h-2.2v4.3l1.3,107.8l-2.6,0.4l-41.6-32l-19.9-92.7L45,50.6l38.1-16h2.6l22.5,99.2l3.9-1.3l0.4-1.7l3.9-1.7l5.2-7.4
	c0.9-1.2,2-2.3,3.5-3.5c1.4-1.2,3.3-2.2,5.6-3.2c2.3-1,5.5-2.1,9.5-3.2c0.3,0,0.4-0.2,0.4-0.6s0.6-0.8,1.7-1.1
	c1.4,0,2.2,0.6,2.2,1.7c0.6,0,3,0.1,7.4,0.4c4.3,0.3,8.4,2.6,12.1,6.9l2.2-76.2l59.3-15.6h1.7l1.3,4.3L255,134.2z"/>
</svg>
