<?xml version="1.0" encoding="utf-8"?>
<!-- Generator: Adobe Illustrator 21.0.2, SVG Export Plug-In . SVG Version: 6.00 Build 0)  -->
<svg version="1.1" id="Layer_1" xmlns="http://www.w3.org/2000/svg" xmlns:xlink="http://www.w3.org/1999/xlink" x="0px" y="0px"
	 width="300px" height="300px" viewBox="0 0 300 300" style="enable-background:new 0 0 300 300;" xml:space="preserve">
<path d="M103.2,142.3l9-6.5v-24.8h4.5v22.4c1.1-1.4,2-2.6,2.8-3.7l4.1-4.5c5.7-5.2,12.7-7.7,21.2-7.7h1.2
	c11.1,0.5,19.4,3.7,24.8,9.4l8.1,8.5l0.4,0.4l16.7,8.1l16.3,0.4l-0.4-96.8l31.7-23.2l14.6,134.3l-12.6,117.2l-26.9-32.5l-7.3-84.2
	l-16.7,1.6l-15.9,8.1c-1.6,3.8-3.8,6.8-6.5,9c-8.4,7.1-16.4,10.6-24,10.6h-0.8c-8.7,0-17-3.5-24.8-10.6c-2.4-2.2-4.5-4.7-6.1-7.7
	l-13-8.1l-19.9-2l-0.4,76.5l-31.7,38.6l-9.8-133.4L52,25.9l30.5,22l0.8,95.6L103.2,142.3z"/>
</svg>
