<?xml version="1.0" encoding="utf-8"?>
<!-- Generator: Adobe Illustrator 21.0.2, SVG Export Plug-In . SVG Version: 6.00 Build 0)  -->
<svg version="1.1" id="Layer_1" xmlns="http://www.w3.org/2000/svg" xmlns:xlink="http://www.w3.org/1999/xlink" x="0px" y="0px"
	 width="300px" height="300px" viewBox="0 0 300 300" style="enable-background:new 0 0 300 300;" xml:space="preserve">
<path d="M168.5,64.5l31.5,9.6l0.9,4.6l86.6,61.1l5.5,4.6l-1.8,7.8l-21.9-5.9L267,147l-2.3-0.5l-2.7,0.9l-13.2-5.5v-1.4l-39.2-17.3
	l-6.4,0.9l-0.9,4.1l10,5.5l-5,5.9l-3.2,14.1l1.4,9.1l-4.6-0.9v3.6l-5.9-0.9l6.8,5.5l-0.9,2.7l74.8,33.3l-2.7,6.4l-6.4-0.9l-96.7-5
	l-1.8,1.4l-32.8-16.9l-0.5-16c-2.4,0.6-4.7,1.1-6.8,1.4c-1.8,0.6-3.9,1-6.2,1.1c-2.3,0.2-4.2,0.1-5.7-0.2c-3.6-0.6-8.6-2.3-14.8-5
	s-11-6.5-14.4-11.4c-0.9-1.5-1.7-2.7-2.3-3.6c-0.6-0.9-1.1-1.7-1.4-2.3l-0.9-0.9l-5-2.3l-6.4,0.5l-0.5,9.6c-0.9,0-1.8,0.2-2.7,0.5
	c-1.8,0.6-2.4,1.5-1.8,2.7c0.3,0.9,0.6,1.9,0.9,3c0.3,1.1,0.5,1.9,0.5,2.5v2.3c-0.6,0.3-1.2,0.8-1.8,1.4s-1.1,1.1-1.6,1.4
	c-0.5,0.3-0.5,0.8-0.2,1.4c0.3,0.6,4.4,3.3,12.3,8.2c7.9,4.9,16.6,10.3,26,16.4c10.9,7,23.4,14.7,37.4,23.3l1.4,7.8l2.7,6.8l-7.3,5
	l-11.9-8.7l-55.6-13.7l-1.8,0.9l-13.2-5.9l-2.7,0.5l-2.7-0.9L7,153l2.7-57.5l36.9-34.7l3.6-5.5l30.6,10.5l26.9,38.8
	c2.4-1.2,5.3-1.8,8.7-1.8c2.7,0,5.9,0.5,9.6,1.4c3.6,0.9,7.6,2.9,11.9,5.9c0.6,0.6,1,1.1,1.1,1.6c0.2,0.5,0.4,1,0.7,1.6l0.9,1.8
	l5,3.2l3.2-14.1L147,101l-1.4-11.4l2.7-2.7l16-20.5L168.5,64.5z"/>
</svg>
