<svg xmlns="http://www.w3.org/2000/svg" viewBox="0 -250 1000 1000"><path fill="currentColor" d="M396 309l69 21 2 10 190 134 12 10-4 17-48-13-5 2-5-1-6 2-29-12v-3l-86-38-14 2-2 9 22 12-11 13-7 31 3 20-10-2v8l-13-2 15 12-2 6 164 73-6 14-14-2-212-11-4 3-72-37-1-35q-8 2-15 3-6 2-13.5 2.5T281 557q-12-2-32.5-11T217 521q-3-5-5-8t-3-5l-2-2-11-5-14 1-1 21q-3 0-6 1-6 2-4 6 1 3 2 6.5t1 5.5v5q-2 1-4 3t-3.5 3-.5 3 27 18 57 36q36 23 82 51l3 17 6 15-16 11-26-19-122-30-4 2-29-13-6 1-6-2-90-140 6-126 81-76 8-12 67 23 59 85q8-4 19-4 9 0 21 3t26 13q2 2 2.5 3.5t1.5 3.5l2 4 11 7 7-31-4-7-3-25 6-6 35-45z"/></svg>