<svg xmlns="http://www.w3.org/2000/svg" viewBox="0 -250 1000 1000"><path fill="currentColor" d="M546 472h-1q-1 0-1 3 0 2 1 2h17l1-1q1-1 1-2t-.5-1-.5-1q-1 0-1-1zm0 51h-1q-1 0-1 2 0 3 1 3h17l1-1q1-1 1-2t-.5-1-.5-1q-1 0-1-1zm-284 32v1q0 1 .5 1.5t.5 1.5h14v-1h-5l-2-3h-8zm-132-28q-3 3-2 4 0 1 2 1h6v-5h-6zm1-51q-1 0-2 1-2 2 1 4h15q1 0 2-1t-1-4h-15zm25-128L84 456q0 1 .5 1.5t.5 1.5v3h3l1 1v9l8 9h3v-1l49-16q-5-5-7.5-10.5T137 444t-3-8l-2-2v-14 1q0-1 1-2t2-1v-6q0-1 .5-2.5t.5-3.5v-4q3-9 7-14 2-3 4-5l1 1h1v-3q8-8 17-11.5t16-5.5q8-2 15-1v2l2 1v-2q3 1 5 1t4 1 3 2v-2l6 2q2 1 5 2v3h1l1-1q10 5 14 9 3 3 4 5v3q2 2 4.5 4t4.5 4q3 3 6 5v16q6 13 7.5 22t.5 15q-1 7-4 12l2 2h13q4-13 10-21 3-4 5-6v2l1-1v-3q1-1 3-2t4-3 4-3v-4h6v1h1q1 0 2-1 1 0 3-1v2l2-1v-2q1 0 1.5-.5t1.5-.5h2v-3h5v1h10v1h5v-1h4l2 3 8 3h5v-2h6v4h2v3h3v6h5v4h3v3h2v5l9 12h3l2 3v-2h2l2 2h11v-2h3l2 2h14v-2h3l1 2h1q-8-9-13-20-3-5-5-11v-28q0-1 1-2v-7q3-6 6-10t5-7q3-4 5-6l1 1 1-1v-2q5-5 10.5-7t9.5-4 9-2l1 1h1v-1q14-1 24 2t17 8 12 13q0 1 2.5 3t4.5 5l6 8 2 4 2 4q1 3 2 5 0 1 1 2.5t2 3.5l2 6 6 8v12l-2 1v7q0 2-1 3h-1q0 1-.5 1.5t-.5 1.5v2l47 14v2l9-1v-6h-3v-7h3v-4h1v-6h-1v-3h1v-13l-1-1v-16h1v-15l-32-43 2-3-8-11 2-1-3-4h1l-8-10v-2l-13-17v-3l-14-20h11l2 3h3l10 13h2l37 48h2l6 9h4l49 63 10 24v20h-1v16h1v9q-1 0-1 1 0 3 1 5 0 2 .5 4t.5 4v5h-2v12h1v19l-3 5v37h-2v2l-2 3h2l-78 91h-4l-2 3h-11l-36-53 73-109v-3h-10v2l-51 17q2 7 5 11 2 4 4 6v13l-2 1v9h-2q0 2-1 5t-2 5q-2 3-3 5l1 2q-10 13-15 17-4 3-6 4v5q-5 4-11 5-4 1-7 2-1 0-1-2 0-1-1-3-3 1-7 1h-7q-4 0-7-1v4q-2 0-8-2-3-1-5-2v4l-9 10v9l-14 6h-10l-13-6q-1-1-1.5-2t-1.5-2l-2-2v-8q-1 0-5-6-2-3-4-5l-1-10h11v-4h3l5-10-2-2 2-2 2 1 6-11q-3-2-5.5-6.5T422 571q-3-4-4-9-1 0-5-2-2-1-4-3h-18l-1-2h-6l-2 4v6l-12-2q-8 2-14 2h-11q-6 0-11-1h-13l-1 1h-4v-4l-3-3q-1-1-1-2l-7 1-1 1h-15l-8 6h-16q1 14 0 19-1 4-2 5h-1l-2 6-2 5q-1 3-2 4v1l-6 9h3l2 3h8l5 6q-1 1-1 6 0 2-1 4l-9 10v9l-14 7h-9l-14-6-4-7v-7l-6-8h-10q-2 0-3-1v5q-7-2-11-3t-6-2q-3-1-3-2v-4l-1-1-1 2-3-2v-2q-2 0-4-2-1-1-1-2l-9-4q0-1-.5-2t-.5-3q-1-2-1-3v-5q-12-14-17-25-4-6-5-12l-2-3v-12q0-1 1-2 0-1 1-2v-3l-34-11v-1h-3l1 2-9 10v7h-4q-1 1-1.5 6t-.5 11v15l46 62-2 4 29 47h-11l-2-4h-4l-31-39h-4l-6-8h-4l-48-62-10-29-14-18V394h2v-2l3-3h-2l78-90h3l3-3h11z"/></svg>