<?xml version="1.0" encoding="utf-8"?>
<!-- Generator: Adobe Illustrator 21.0.2, SVG Export Plug-In . SVG Version: 6.00 Build 0)  -->
<svg version="1.1" id="Layer_1" xmlns="http://www.w3.org/2000/svg" xmlns:xlink="http://www.w3.org/1999/xlink" x="0px" y="0px"
	 width="300px" height="300px" viewBox="0 0 300 300" style="enable-background:new 0 0 300 300;" xml:space="preserve">
<path d="M37.1,145.1l-2.6-2.2l7.5-9.7l-3.5-3.1l1.3-3.1l-3.1-3.5l0.9-1.3l-1.8-2.6l7.9-21.5l8.3-4.8l2.6-7l5.3-1.8V74.3l3.5-0.9
	v-2.2c1.5-7,2.8-13.2,4-18.5c0.9-4.7,1.7-9.1,2.4-13.2c0.7-4.1,1.2-6.7,1.5-7.9c0.3-1.8,1-2.9,2.2-3.5c0.6-0.3,1.2-0.3,1.8,0
	l33.4,9.7c24.9,18.5,47.6,35,68.1,49.6c8.8,6.2,17.4,12.3,25.7,18.5c8.3,6.2,15.9,11.7,22.6,16.7c6.7,5,12.4,9.2,17.1,12.5
	c4.7,3.4,7.5,5.5,8.3,6.4c4.1,2.9,7.1,4.8,9,5.7c1.9,0.9,4.3,1.9,7.2,3.1c2.9,1.5,4.7,2.5,5.3,3.1l1.3,1.3c-0.6,0.3-1,0.6-1.3,0.9
	c-0.6,0.3-1,0.6-1.1,0.9s-0.5,0.3-1.1,0c-1.2,0-3.1-0.7-5.9-2.2c-2.8-1.5-4.8-2.5-5.9-3.1c-1.8-0.6-3.1-1.2-4-1.8
	c-0.9-0.3-1.6-0.7-2.2-1.3h-8.3l-15.8-7.5l-0.9-1.3L215,135l-1.3-2.6l-93.1-38.2l10.5,14.5c-0.3,0.3-0.4,0.9-0.4,1.8
	c-0.3,0.6-0.4,1.4-0.4,2.4s-0.3,2.1-0.9,3.3c2.3,1.5,4.9,3.1,7.7,4.8c2.8,1.8,5.3,3.5,7.7,5.3c2.6,2.1,5.1,4.2,7.5,6.6l6.2,3.1
	l18.5,8.8l83.9,48.8l12.7,7.5c2.1,0.9,4,1.8,5.7,2.6c1.5,0.6,2.9,1.2,4.2,2c1.3,0.7,2.3,1.2,2.9,1.5c0.9,0.6,1.1,1.3,0.7,2.2
	c-0.4,0.9-0.8,1.3-1.1,1.3h-2.2l-8.8-4.4c-0.6-0.3-1.2-0.7-1.8-1.3c-0.6-0.6-1.2-1-2-1.3c-0.7-0.3-1.5-0.7-2.4-1.3
	c-2.1-0.3-4-0.8-5.9-1.5c-1.9-0.7-3.7-1.5-5.5-2.4l-6.2-3.5l-2.2-1.8c-14.9-7-28.3-13.5-40-19.3c-5-2.6-10-5.2-15.2-7.7
	c-5.1-2.5-9.7-4.8-13.8-6.8c-4.1-2.1-7.6-3.7-10.5-5.1s-4.8-2.3-5.7-2.9c-1.2,5-3,8.9-5.5,11.6c-2.5,2.8-4.9,4.9-7.2,6.4
	c-3.2,1.8-6.4,2.9-9.7,3.5l-27.2-8.8l-10.5-4l-0.9,0.9c-0.9,0.9-1.6,1.3-2.2,1.3c-1.5-0.6-2.8-0.6-4,0c-0.6,0.3-1,0.6-1.3,0.9
	l10.1,5.7l3.5,2.6l-1.8,2.6l-4-2.2l-1.3-0.9l-11-6.6l-0.9,0.4l-2.6-1.8l-4.8,2.2l-1.3,0.4l-3.5,3.5l-0.9-0.4l-1.8,1.8l-0.9-0.4
	l-2.2,3.5l91.8,63.3l3.1-1.3l10.1,6.6l1.3-0.4l14.5,9.2l4,7.5l3.1,2.2l3.5,0.9l9.2,6.2c0,0.3,0.1,0.6,0.4,0.9
	c0.3,0.3,0.4,0.5,0.4,0.7s0.1,0.4,0.4,0.7c0.3,0.6,0.1,1.1-0.4,1.5c-0.6,0.4-1,0.7-1.3,0.7h-2.6l-9.7-6.6l-2.2-2.6L38.9,213.6
	l-25.9-22L37.1,145.1z"/>
</svg>
