<?xml version="1.0" encoding="utf-8"?>
<!-- Generator: Adobe Illustrator 21.0.2, SVG Export Plug-In . SVG Version: 6.00 Build 0)  -->
<svg version="1.1" id="Layer_1" xmlns="http://www.w3.org/2000/svg" xmlns:xlink="http://www.w3.org/1999/xlink" x="0px" y="0px"
	 width="300px" height="300px" viewBox="0 0 300 300" style="enable-background:new 0 0 300 300;" xml:space="preserve">
<path d="M241,141.2h-0.5c-0.3,0-0.5,0.5-0.5,1.4c0,0.6,0.2,0.9,0.5,0.9h7.7l0.5-0.5c0.3-0.3,0.5-0.6,0.5-0.9s-0.1-0.5-0.2-0.5
	s-0.2-0.2-0.2-0.5c-0.3,0-0.5-0.2-0.5-0.5L241,141.2z M241,164.2h-0.5c-0.3,0-0.5,0.3-0.5,0.9c0,0.9,0.2,1.4,0.5,1.4h7.7l0.5-0.5
	c0.3-0.3,0.5-0.6,0.5-0.9c0-0.3-0.1-0.5-0.2-0.5s-0.2-0.2-0.2-0.5c-0.3,0-0.5-0.2-0.5-0.5L241,164.2z M113.1,178.6v0.5
	c0,0.3,0.1,0.5,0.2,0.7c0.2,0.2,0.2,0.4,0.2,0.7h6.3V180h-2.3l-0.9-1.4H113.1z M53.6,166c-0.9,0.9-1.2,1.5-0.9,1.8
	c0,0.3,0.3,0.5,0.9,0.5h2.7V166H53.6z M54,143c-0.3,0-0.6,0.2-0.9,0.5c-0.6,0.6-0.5,1.2,0.5,1.8h6.8c0.3,0,0.6-0.2,0.9-0.5
	c0.3-0.3,0.2-0.9-0.5-1.8H54z M65.3,85.3L32.8,134c0,0.3,0.1,0.5,0.2,0.7c0.2,0.2,0.2,0.4,0.2,0.7v1.4h1.4l0.5,0.5v4.1l3.6,4.1h1.4
	v-0.5l22.1-7.2c-1.5-1.5-2.6-3.1-3.4-4.7c-0.8-1.7-1.4-3.1-2-4.3s-1.1-2.4-1.4-3.6l-0.9-0.9v-6.3v0.5c0-0.3,0.2-0.6,0.5-0.9
	c0.3-0.3,0.6-0.5,0.9-0.5v-2.7c0-0.3,0.1-0.7,0.2-1.1c0.2-0.5,0.2-1,0.2-1.6v-1.8c0.9-2.7,2-4.8,3.2-6.3c0.6-0.9,1.2-1.7,1.8-2.3
	l0.5,0.5h0.5v-1.4c2.4-2.4,5-4.1,7.7-5.2s5.1-1.9,7.2-2.5c2.4-0.6,4.7-0.8,6.8-0.5V93l0.9,0.5v-0.9c0.9,0.3,1.7,0.5,2.3,0.5
	s1.2,0.2,1.8,0.5c0.6,0.3,1.1,0.6,1.4,0.9v-0.9l2.7,0.9c0.6,0.3,1.4,0.6,2.3,0.9v1.4h0.5l0.5-0.5c3,1.5,5.1,2.9,6.3,4.1
	c0.9,0.9,1.5,1.7,1.8,2.3v1.4c0.6,0.6,1.3,1.2,2,1.8c0.8,0.6,1.4,1.2,2,1.8c0.9,0.9,1.8,1.7,2.7,2.3v7.2c1.8,3.9,2.9,7.2,3.4,9.9
	c0.5,2.7,0.5,5,0.2,6.8c-0.3,2.1-0.9,3.9-1.8,5.4l0.9,0.9h5.9c1.2-3.9,2.7-7.1,4.5-9.5c0.9-1.2,1.7-2.1,2.3-2.7v0.9l0.5-0.5v-1.4
	c0.3-0.3,0.8-0.6,1.4-0.9c0.6-0.3,1.2-0.8,1.8-1.4s1.2-1.1,1.8-1.4v-1.8h2.7v0.5h0.5c0.3,0,0.6-0.2,0.9-0.5c0.3,0,0.8-0.2,1.4-0.5
	v0.9l0.9-0.5v-0.9c0.3,0,0.5-0.1,0.7-0.2s0.4-0.2,0.7-0.2h0.9v-1.4h2.3v0.5h4.5v0.5h2.3v-0.5h1.8l0.9,1.4l3.6,1.4h2.3v-0.9h2.7v1.8
	h0.9v1.4h1.4v2.7h2.3v1.8h1.4v1.4h0.9v2.3l4.1,5.4h1.4l0.9,1.4v-0.9h0.9l0.9,0.9h5v-0.9h1.4l0.9,0.9h6.3v-0.9h1.4l0.5,0.9h0.5
	c-2.4-2.7-4.4-5.7-5.9-9c-0.9-1.5-1.7-3.2-2.3-5v-12.6c0-0.3,0.2-0.6,0.5-0.9v-3.2c0.9-1.8,1.8-3.3,2.7-4.5s1.7-2.3,2.3-3.2
	c0.9-1.2,1.7-2.1,2.3-2.7l0.5,0.5l0.5-0.5v-0.9c1.5-1.5,3.1-2.6,4.7-3.2c1.7-0.6,3.1-1.2,4.3-1.8c1.2-0.6,2.6-0.9,4.1-0.9l0.5,0.5
	h0.5v-0.5c4.2-0.3,7.8,0,10.8,0.9c3,0.9,5.6,2.1,7.7,3.6c2.1,1.5,3.9,3.5,5.4,5.9c0,0.3,0.4,0.8,1.1,1.4s1.4,1.4,2,2.3l2.7,3.6
	l0.9,1.8l0.9,1.8c0.3,0.9,0.6,1.7,0.9,2.3c0,0.3,0.2,0.7,0.5,1.1c0.3,0.5,0.6,1,0.9,1.6l0.9,2.7l2.7,3.6v5.4l-0.9,0.5v3.2
	c0,0.6-0.2,1.1-0.5,1.4H241c0,0.3-0.1,0.5-0.2,0.7s-0.2,0.4-0.2,0.7v0.9l21.2,6.3v0.9l4.1-0.5v-2.7h-1.4v-3.2h1.4v-1.8h0.5v-2.7
	h-0.5v-1.4h0.5v-5.9l-0.5-0.5v-7.2h0.5V111l-14.4-19.4l0.9-1.4l-3.6-5l0.9-0.5l-1.4-1.8h0.5l-3.6-4.5v-0.9l-5.9-7.7v-1.4l-6.3-9h5
	l0.9,1.4h1.4l4.5,5.9h0.9l16.7,21.6h0.9l2.7,4.1h1.8l22.1,28.4l4.5,10.8v9h-0.5v7.2h0.5v4.1c-0.3,0-0.5,0.2-0.5,0.5
	c0,0.9,0.2,1.7,0.5,2.3c0,0.6,0.1,1.2,0.2,1.8c0.2,0.6,0.2,1.2,0.2,1.8v2.3h-0.9v5.4h0.5v8.6l-1.4,2.3v16.7h-0.9v0.9l-0.9,1.4h0.9
	l-35.1,41h-1.8l-0.9,1.4h-5l-16.2-23.9l32.9-49.1v-1.4h-4.5v0.9l-23,7.7c0.6,2.1,1.4,3.8,2.3,5c0.6,1.2,1.2,2.1,1.8,2.7v5.9
	l-0.9,0.5v4.1H241c0,0.6-0.2,1.4-0.5,2.3s-0.6,1.7-0.9,2.3c-0.6,0.9-1.1,1.7-1.4,2.3l0.5,0.9c-3,3.9-5.3,6.5-6.8,7.7
	c-1.2,0.9-2.1,1.5-2.7,1.8v2.3c-1.5,1.2-3.2,2-5,2.3c-1.2,0.3-2.3,0.6-3.2,0.9c-0.3,0-0.5-0.3-0.5-0.9c0-0.3-0.2-0.8-0.5-1.4
	c-0.9,0.3-2,0.5-3.2,0.5H214c-1.2,0-2.3-0.2-3.2-0.5v1.8c-0.6,0-1.8-0.3-3.6-0.9c-0.9-0.3-1.7-0.6-2.3-0.9v1.8l-4.1,4.5v4.1
	l-6.3,2.7h-4.5l-5.9-2.7c-0.3-0.3-0.5-0.6-0.7-0.9c-0.2-0.3-0.4-0.6-0.7-0.9l-0.9-0.9v-3.6c-0.3,0-1.1-0.9-2.3-2.7
	c-0.6-0.9-1.2-1.7-1.8-2.3l-0.5-4.5h5v-1.8h1.4l2.3-4.5l-0.9-0.9l0.9-0.9l0.9,0.5l2.7-5c-0.9-0.6-1.7-1.6-2.5-2.9
	c-0.8-1.4-1.4-2.6-2-3.8c-0.9-1.2-1.5-2.6-1.8-4.1c-0.3,0-1.1-0.3-2.3-0.9c-0.6-0.3-1.2-0.8-1.8-1.4h-8.1l-0.5-0.9H168l-0.9,1.8v2.7
	l-5.4-0.9c-2.4,0.6-4.5,0.9-6.3,0.9h-5c-1.8,0-3.5-0.2-5-0.5h-5.9l-0.5,0.5h-1.8v-1.8L136,180c-0.3-0.3-0.5-0.6-0.5-0.9l-3.2,0.5
	L132,180h-6.8l-3.6,2.7h-7.2c0.3,4.2,0.3,7.1,0,8.6c-0.3,1.2-0.6,2-0.9,2.3h-0.5l-0.9,2.7l-0.9,2.3c-0.3,0.9-0.6,1.5-0.9,1.8v0.5
	l-2.7,4.1h1.4l0.9,1.4h3.6l2.3,2.7c-0.3,0.3-0.5,1.2-0.5,2.7c0,0.6-0.2,1.2-0.5,1.8l-4.1,4.5v4.1l-6.3,3.2h-4.1l-6.3-2.7l-1.8-3.2
	V216l-2.7-3.6h-4.5c-0.6,0-1.1-0.2-1.4-0.5v2.3c-2.1-0.6-3.8-1.1-5-1.4c-1.2-0.3-2.1-0.6-2.7-0.9c-0.9-0.3-1.4-0.6-1.4-0.9v-1.8
	l-0.5-0.5l-0.5,0.9l-1.4-0.9v-0.9c-0.6,0-1.2-0.3-1.8-0.9c-0.3-0.3-0.5-0.6-0.5-0.9l-4.1-1.8c0-0.3-0.1-0.6-0.2-0.9
	c-0.2-0.3-0.2-0.8-0.2-1.4c-0.3-0.6-0.5-1.1-0.5-1.4v-2.3c-3.6-4.2-6.2-8-7.7-11.3c-1.2-1.8-2-3.6-2.3-5.4l-0.9-1.4V175
	c0-0.3,0.2-0.6,0.5-0.9c0-0.3,0.2-0.6,0.5-0.9v-1.4l-15.3-5v-0.5h-1.4l0.5,0.9l-4.1,4.5v3.2h-1.8c-0.3,0.3-0.5,1.2-0.7,2.7
	c-0.2,1.5-0.2,3.2-0.2,5v6.8l20.7,27.9l-0.9,1.8l13.1,21.2h-5l-0.9-1.8h-1.8l-14-17.6h-1.8l-2.7-3.6h-1.8l-21.6-27.9l-4.5-13.1
	l-6.3-8.1v-62.2h0.9v-0.9l1.4-1.4H6.3l35.1-40.6h1.4l1.4-1.4h5L65.3,85.3z"/>
</svg>
