<svg xmlns="http://www.w3.org/2000/svg" viewBox="0 -250 1000 1000"><path fill="currentColor" d="M82 485l-6-5 17-22-8-7 3-7-7-8 2-3-4-6 18-49 19-11 6-16 12-4v-23l8-2v-5q5-24 9-42 3-16 5.5-30t3.5-18q1-6 5-8 2-1 4 0l76 22q85 63 155 113 30 21 58.5 42t51.5 38 39 28.5 19 14.5q14 10 20.5 13t16.5 7q10 5 12 7l3 3q-2 1-3 2-2 1-2.5 2t-2.5 0q-4 0-13.5-5t-13.5-7q-6-2-9-4-3-1-5-3h-19l-36-17-2-3-27-10-3-6-212-87 24 33q-1 1-1 4-1 2-1 5.5t-2 7.5q8 5 17.5 11t17.5 12q9 7 17 15l14 7 42 20 191 111 29 17q7 3 13 6 5 2 9.5 4.5t6.5 3.5q3 2 1.5 5t-2.5 3h-5l-20-10q-2-1-4-3t-4.5-3-5.5-3q-7-1-13.5-3.5T583 606l-14-8-5-4q-51-24-91-44-17-9-34.5-17.5T407 517t-24-11.5-13-6.5q-4 17-12.5 26.5T341 540q-11 6-22 8l-62-20-24-9-2 2q-3 3-5 3-5-2-9 0-2 1-3 2l23 13 8 6-4 6-9-5-3-2-25-15-2 1-6-4-11 5-3 1-8 8-2-1-4 4-2-1-5 8 209 144 7-3 23 15 3-1 33 21 9 17 7 5 8 2 21 14q0 1 1 2t1 1.5 1 1.5q1 2-1 3.5t-3 1.5h-6l-22-15-5-6L86 641l-59-50z"/></svg>