<?xml version="1.0" encoding="utf-8"?>
<!-- Generator: Adobe Illustrator 21.0.2, SVG Export Plug-In . SVG Version: 6.00 Build 0)  -->
<svg version="1.1" id="Layer_1" xmlns="http://www.w3.org/2000/svg" xmlns:xlink="http://www.w3.org/1999/xlink" x="0px" y="0px"
	 width="300px" height="300px" viewBox="0 0 300 300" style="enable-background:new 0 0 300 300;" xml:space="preserve">
<path d="M282,244.1l-2.1,1.3l-4.3-1.3l-115-142.7l-0.4,2.6l3,5.1c0.3,0.3,0.4,0.7,0.4,1.3c0,1.1-0.1,1.8-0.4,2.1
	c-0.6,0.6-1.1,0.9-1.7,0.9h-0.9c-0.6,2.3-1.4,4.7-2.6,7.2c-1.1,2.3-2.5,4.5-4,6.8c-1.6,2.3-3.9,4.4-7,6.4h-0.4l1.7,2.6
	c0.6,0.6,0.9,1.4,0.9,2.6s-0.3,2-0.9,2.6c-0.6,0.3-1.3,0.1-2.3-0.6c-1-0.7-1.6-1.3-1.9-1.9l-1.7-2.6c-1.4,0.6-2.7,1-3.8,1.3
	c-1.1,0.3-2.3,0.4-3.4,0.4c-1.1,0.3-2.3,0.3-3.4,0l83.5,127.3l-0.9,1.7h-3.4L39.7,172.6L18,124.4l40-75.8l6.4-6h2.1L81,66.5l1.3-6.8
	c1.1-2.3,2.4-4.3,3.8-6c1.4-1.4,3-2.9,4.7-4.5c1.7-1.6,3.8-2.9,6.4-4c4-0.9,7.5-1.1,10.6-0.6c3.1,0.4,5.8,1.1,8.1,1.9l-8.1-12.4
	l2.6-1.3l75,49.8l39.2,43L282,241.1V244.1z"/>
</svg>
