<?xml version="1.0" encoding="utf-8"?>
<!-- Generator: Adobe Illustrator 21.0.2, SVG Export Plug-In . SVG Version: 6.00 Build 0)  -->
<svg version="1.1" id="Layer_1" xmlns="http://www.w3.org/2000/svg" xmlns:xlink="http://www.w3.org/1999/xlink" x="0px" y="0px"
	 width="300px" height="300px" viewBox="0 0 300 300" style="enable-background:new 0 0 300 300;" xml:space="preserve">
<path d="M184.3,137.2h0.4l-1.7-3.9h-3c0-0.3-0.2-0.8-0.6-1.5c-0.4-0.7-0.9-1.5-1.5-2.4c-0.6-1.1-1.1-2.1-1.7-3h-2.6
	c0,0.6-0.4,1.2-1.3,1.9c-0.9,0.7-1.9,1.6-3,2.8c-1.1,1.1-2.6,2.4-4.3,3.9c3.4,2.9,5.6,6,6.4,9.4c0.6,1.7,0.9,3.6,0.9,5.6
	c0,1.7-0.3,3.4-0.9,5.1c-0.6,1.4-1.4,3.1-2.4,5.1s-2.4,3.9-4.1,5.6l8.6,6.4h2.6c0.6-0.9,1.1-1.9,1.7-3c0.6-0.6,1.1-1.2,1.5-1.9
	s0.6-1.2,0.6-1.5h3l1.7-3.9h-0.4l0.4-2.1H183c0.3-0.6,0.6-1.4,0.9-2.6c0.3-1.1,0.4-3.6,0.4-7.3v-4.7l-0.4-3.4
	c-0.3-1.1-0.6-2-0.9-2.6h1.7L184.3,137.2z M263,150v11.1l-8.1,119h-6l-23.1-34.3l-6.4-71.1h-11.6v-15h-0.9l-1.3,2.1l-2.1,1.7
	l-11.6,3l-3.4,3.9l-9.4,0.9c-0.6,0.3-1,0.7-1.3,1.3c-0.6,1.1-0.9,1.9-0.9,2.1h-2.6c-0.6,0.3-1,0.6-1.3,0.9c-0.6,0.3-1.1,0.7-1.7,1.3
	h0.9v1.7l-5.1,3.4c-1.4,0.9-3.2,1.7-5.4,2.6c-2.1,0.9-4.4,1.4-6.6,1.7h-0.9l-1.3,2.1h-1.3v2.6h3.4v-1.3h1.3l2.1,1.3v2.1h-1.3v2.1
	h-0.9v1.3l-1.3-1.3h-0.9v0.9c0,0.3-0.4,0.4-1.3,0.4h-0.9c-0.3,0-0.4-0.4-0.4-1.3h-3c0,0.9-0.3,1.3-0.9,1.3h-0.4
	c-0.9,0-1.3-0.1-1.3-0.4v-0.9h-1.3l-1.3,1.3v-1.3h-0.4v-2.1h-1.3v-2.1l1.3-1.3h0.4c0.9,0,1.3,0.3,1.3,0.9v0.4h3.9v-2.6h-2.6v-2.1
	h-2.6c-2-0.3-3.9-0.9-5.8-1.7c-1.9-0.9-3.5-1.7-4.9-2.6c-1.7-1.1-3.3-2.3-4.7-3.4V177h0.4c-0.6-0.6-1.1-1-1.7-1.3l-1.7-0.9H123
	l-3.4-3.4l-7.7-0.9l-4.3-3.9l-10.7-3h-1.7l-2.1-1.7l-0.4-2.1v15h-12l-6,71.1l-24,34.3h-6l-7.7-119V150L47.7,22.4l4.3-2.6l27.8,24
	l2.1,80.5h10.7v15v-1.7h0.4v-0.4l2.1-1.3l1.7-0.9l10.7-3l1.7-0.9v-3.4l-1.3-2.1V97.8h5.1v20.6h2.6V90.9h5.1v31.3l-2.1,3.4v2.1h0.9
	l3.4-3.4h2.1c1.1-2.3,3.1-4.1,5.8-5.4c2.7-1.3,5.4-2.2,7.9-2.8c3.1-0.9,6.4-1.4,9.8-1.7v-3h3v3c3.1,0.3,6.3,0.9,9.4,1.7
	c2.6,0.6,5.1,1.5,7.5,2.8s4.4,3.1,5.8,5.4h2.6c0.3,0.3,0.6,0.7,0.9,1.3c0.3,0.6,0.6,1,0.9,1.3c0.3,0.3,0.4,0.6,0.4,0.9l9.4,2.6
	l3.4,1.7l11.6,3v0.9l2.1,1.3l1.3,0.4l0.9,1.7v-15h10.7l2.1-80.5l27.4-24l4.7,2.6L263,150z"/>
</svg>
