<svg xmlns="http://www.w3.org/2000/svg" viewBox="0 -250 1000 1000"><path fill="currentColor" d="M388 474h1l-4-9h-7q0-1-1.5-3.5T373 456q-2-4-4-7h-6q0 2-3 4.5t-7 6.5-10 9q12 10 15 22 2 6 2 13 0 6-2 12-2 5-5.5 12t-9.5 13l20 15h6q2-3 4-7 2-2 3.5-4.5t1.5-3.5h7l4-9h-1l1-5h-4q1-2 2-6t1-17v-11l-1-8q-1-4-2-6h4zm184 30v26l-19 278h-14l-54-80-15-166h-27v-35h-2l-3 5-5 4-27 7-8 9-22 2q-2 1-3 3-2 4-2 5h-6q-2 1-3 2-2 1-4 3h2v4l-12 8q-5 3-12.5 6t-15.5 4h-2l-3 5h-3v6h8v-3h3l5 3v5h-3v5h-2v3l-3-3h-2v2q0 1-3 1h-2q-1 0-1-3h-7q0 3-2 3h-1q-3 0-3-1v-2h-3l-3 3v-3h-1v-5h-3v-5l3-3h1q3 0 3 2v1h9v-6h-6v-5h-6q-7-1-13.5-4t-11.5-6q-6-4-11-8v-4h1q-2-2-4-3l-4-2h-5l-8-8-18-2-10-9-25-7h-4l-5-4-1-5v35h-28l-14 166-56 80H62L44 530v-26l25-298 10-6 65 56 5 188h25v35-4h1v-1l5-3 4-2 25-7 4-2v-8l-3-5v-65h12v48h6v-64h12v73l-5 8v5h2l8-8h5q4-8 13.5-12.5T282 425q11-3 23-4v-7h7v7q11 1 22 4 9 2 17.5 6.5T365 444h6q1 1 2 3t2 3 1 2l22 6 8 4 27 7v2l5 3 3 1 2 4v-35h25l5-188 64-56 11 6z"/></svg>