<svg xmlns="http://www.w3.org/2000/svg" viewBox="0 -250 1000 1000"><path fill="currentColor" d="M711 237h-15l-16 36h-5l-87 180 5 7-115 226v6q7 7 8 9t2 3l-1 4 12 10q0 1 1 2 2 2 2 4 0 1-2 1-1 0-1-1l-14-13v5l14 13v4q0 1-1 0h-1l-13-15h-2q-3 0-3-1-3-2-5.5-3.5T469 711q-3-1-4-1l-1 3-22-3v-1l-31-2v1l5 10v11l-1 4q-1 0-1 .5t-1 .5h-2v4l-21 6-7-2-2 2-7 4-7-1-57-36-16 5q-4 2-7 3t-5 2q-3 1-6 1l-6-3h-2v5l24 24 2 5 8 10q7 9 8 9v3q0 2-.5 2.5t-.5 1.5v1q-1 1-1 0l-18-20h-8q-7-2-14.5-7.5T253 742q-8-6-17-13l-36-37h-5q-8-9-13-16-5-6-9-11t-4-6v-3l-11-13-2-10-59-114v-9L17 341l-5-1-2-18h9l43 44v11l101 172 4 2 45 66 4 2v3l19 9 6-2v-7q-2-2-4-5-2-2-3.5-4.5T231 608q0-3 .5-6.5t4.5-6.5q7-3 14-1 4 1 6 3 2 4 5.5 3.5t4.5-3.5q1-5 3-9t10-2q4 2 8 3.5t7 3.5q4 2 7 4l30 13-1-18-4-6q-2-2-2-5-1-3 2-8 2-1 6-1 2 0 3 1l6 8 183-236h9l117-152h9l3 5 43 30v4l9 4z"/></svg>