<?xml version="1.0" encoding="utf-8"?>
<!-- Generator: Adobe Illustrator 21.0.2, SVG Export Plug-In . SVG Version: 6.00 Build 0)  -->
<svg version="1.1" id="Layer_1" xmlns="http://www.w3.org/2000/svg" xmlns:xlink="http://www.w3.org/1999/xlink" x="0px" y="0px"
	 width="300px" height="300px" viewBox="0 0 300 300" style="enable-background:new 0 0 300 300;" xml:space="preserve">
<path d="M286.9,52h-5.9l-6.3,14.1h-2l-34.1,70.6l2,2.7l-45.1,88.7v2.4c1.8,1.8,2.9,3,3.1,3.5c0.3,0.5,0.5,0.9,0.8,1.2l-0.4,1.6
	l4.7,3.9c0,0.3,0.1,0.5,0.4,0.8c0.5,0.5,0.8,1,0.8,1.6c0,0.3-0.3,0.4-0.8,0.4c-0.3,0-0.4-0.1-0.4-0.4l-5.5-5.1v2l5.5,5.1v1.6
	c0,0.3-0.1,0.3-0.4,0H203l-5.1-5.9h-0.8c-0.8,0-1.2-0.1-1.2-0.4c-0.8-0.5-1.5-1-2.2-1.4s-1.2-0.7-1.8-1c-0.8-0.3-1.3-0.4-1.6-0.4
	l-0.4,1.2l-8.6-1.2v-0.4l-12.2-0.8v0.4l2,3.9v4.3l-0.4,1.6c-0.3,0-0.4,0.1-0.4,0.2c0,0.1-0.1,0.2-0.4,0.2h-0.8v1.6l-8.2,2.4
	l-2.7-0.8l-0.8,0.8l-2.7,1.6l-2.7-0.4L129.6,238l-6.3,2c-1,0.5-2,0.9-2.7,1.2c-0.8,0.3-1.4,0.5-2,0.8c-0.8,0.3-1.6,0.4-2.4,0.4
	l-2.4-1.2h-0.8v2l9.4,9.4l0.8,2l3.1,3.9c1.8,2.4,2.9,3.5,3.1,3.5v1.2c0,0.5-0.1,0.9-0.2,1s-0.2,0.3-0.2,0.6v0.4
	c-0.3,0.3-0.4,0.3-0.4,0l-7.1-7.8h-3.1c-1.8-0.5-3.7-1.5-5.7-2.9c-2-1.4-3.9-2.8-5.7-4.1c-2.1-1.6-4.3-3.3-6.7-5.1l-14.1-14.5h-2
	c-2.1-2.4-3.8-4.4-5.1-6.3c-1.3-1.6-2.5-3-3.5-4.3c-1-1.3-1.6-2.1-1.6-2.4v-1.2l-4.3-5.1l-0.8-3.9L46,162.7v-3.5L14.6,92.8l-2-0.4
	l-0.8-7.1h3.5l16.9,17.3v4.3l39.6,67.5l1.6,0.8l17.7,25.9l1.6,0.8v1.2l7.5,3.5l2.4-0.8v-2.7c-0.5-0.5-1-1.2-1.6-2
	c-0.5-0.5-1-1.1-1.4-1.8c-0.4-0.7-0.7-1.2-1-1.8c0-0.8,0.1-1.6,0.2-2.6c0.1-0.9,0.7-1.8,1.8-2.6c1.8-0.8,3.7-0.9,5.5-0.4
	c1,0.3,1.8,0.7,2.4,1.2c0.5,1,1.2,1.5,2.2,1.4c0.9-0.1,1.5-0.6,1.8-1.4c0.3-1.3,0.7-2.5,1.2-3.5c0.5-1,1.8-1.3,3.9-0.8
	c1,0.5,2.1,1,3.1,1.4c1,0.4,2,0.9,2.7,1.4c1,0.5,2,1,2.7,1.6l11.8,5.1l-0.4-7.1l-1.6-2.4c-0.5-0.5-0.8-1.2-0.8-2
	c-0.3-0.8,0-1.8,0.8-3.1c0.5-0.3,1.3-0.4,2.4-0.4c0.5,0,0.9,0.1,1.2,0.4l2.4,3.1l71.8-92.6h3.5L263,34.7h3.5l1.2,2l16.9,11.8V50
	l3.5,1.6L286.9,52z"/>
</svg>
