<?xml version="1.0" encoding="utf-8"?>
<!-- Generator: Adobe Illustrator 21.0.2, SVG Export Plug-In . SVG Version: 6.00 Build 0)  -->
<svg version="1.1" id="Layer_1" xmlns="http://www.w3.org/2000/svg" xmlns:xlink="http://www.w3.org/1999/xlink" x="0px" y="0px"
	 width="300px" height="300px" viewBox="0 0 300 300" style="enable-background:new 0 0 300 300;" xml:space="preserve">
<path d="M292.3,59.6l-65.6,79.9c1.2,2.5,2.1,5,2.6,7.5c0.5,2,0.4,4.2-0.2,6.6c-0.6,2.4-1.9,4.4-3.9,6.2c1,1.2,1.9,3,2.6,5.2
	c0.7,2.2,1.2,4.6,1.3,6.9c0.1,2.4-0.2,4.7-0.9,6.9c-0.7,2.2-2.2,3.9-4.5,4.9c-1.2,0.5-2.5,0.9-3.7,1.1c-1.2,0.2-2.6,0.3-4.1,0.2
	c-1.5-0.1-3.2-0.6-5.2-1.3l7.5,43.5l-0.7,1.9h-2.6v3.7c0,0.2-0.1,0.5-0.4,0.7s-0.7,0.4-1.5,0.4h-1.9c-0.7,0-2.4,0.2-4.9,0.7l1.9,5.2
	c0,1.5-0.6,2.2-1.9,2.2c-0.5,0.5-1,0.6-1.5,0.4c-0.5-0.2-0.9-0.6-1.1-1.1l-1.9-6.4c-2.7,0.2-6,0.5-9.7,0.7
	c-3.7,0.2-7.1,0.6-10.1,1.1l1.1,4.9c0.5,1.7-0.1,2.6-1.9,2.6c-0.5,0.2-1,0.2-1.5-0.2c-0.5-0.4-0.7-0.8-0.7-1.3l-1.5-5.6
	c-1.2,0.2-2.3,0.4-3.2,0.4h-5.1c-1,0-1.6-0.5-1.9-1.5c0-1.7-0.4-3-1.1-3.7h-0.4l-1.1,2.2l-3.7,0.7l-17.6-58.1l-1.5,0.7
	c1,3,1.5,5.7,1.5,8.2c-0.2,2-1,3.8-2.2,5.4c-1.2,1.6-3.6,2.4-7.1,2.4c-2.7,0-4.9-0.6-6.4-1.9c-1.5-1.2-2.6-2.6-3.4-4.1
	c-1-1.7-1.5-3.9-1.5-6.4h-2.2l-1.1-7.9l1.1-0.7l-1.1-8.6v-1.1c0-0.7,0.1-1.4,0.4-1.9l-0.7-7.9L7.7,85.8v-1.9l1.9-1.1l5.2-1.1
	L85,115.8c5,2.7,9.7,5.5,14.2,8.2l11.2,6.7l8.6,5.2l0.4-1.1l-0.7-4.5c-0.2-0.5-0.4-1-0.4-1.5c0-1.2,0.2-2.2,0.7-3l0.4-6.4
	c0-0.7,0.1-1.4,0.4-1.9c0.5-1,1-1.6,1.5-1.9h3.2l3.9,1.9c0.5,0.7,0.8,1.6,0.9,2.4c0.1,0.9,0.4,1.7,0.9,2.4c0.2,1,0.6,1.9,1.1,2.6
	l0.4,0.7l0.7,1.5l1.1,1.9l0.4,2.6l5.6,8.6v3.4l7.9,5.2v1.9l11.2-1.1l2.2-2.2l19.1-1.5l3,0.7l9.4-0.4l2.2-1.1l1.1-2.2
	c0.5-0.5,1.1-1.2,1.9-2.1c0.7-0.9,1.7-1.8,3-2.8l0.7-7.1l1.1-2.2l0.4-2.2l-1.9-3l-0.4-6l0.4-8.6c0.2,0,0.6-0.1,1.1-0.4
	c0.5,0,1-0.1,1.5-0.2c0.5-0.1,1.1-0.2,1.9-0.2c0.7,0,1.4,0.1,1.9,0.2c0.5,0.1,1,0.2,1.5,0.2h0.7c1.2,1.7,2.4,3.5,3.4,5.2
	c2,3.5,3.2,6.7,3.7,9.7c2.2-2.7,4.6-5.5,7.1-8.2c2-2.2,4.1-4.6,6.4-7.1s4.4-4.7,6.4-6.7l1.5-1.9l46.5-44.2h1.5l6,0.7V59.6z"/>
</svg>
