<svg xmlns="http://www.w3.org/2000/svg" viewBox="0 -250 1000 1000"><path fill="currentColor" d="M772 268L597 481q5 10 7 20 2 8-.5 17.5T593 535q4 5 7 14t3.5 18.5T601 586t-12 13q-5 2-10 3t-11 .5-14-3.5l20 116-2 5h-7v10q0 1-1 2t-4 1h-5q-3 0-13 2l5 14q0 6-5 6-2 2-4 1t-3-3l-5-17q-11 1-26 2t-27 3l3 13q2 7-5 7-2 1-4-.5t-2-3.5l-4-15q-5 1-8.5 1H443q-4 0-5-4 0-7-3-10h-1l-3 6-10 2-47-155-4 2q4 12 4 22-1 8-6 14.5t-19 6.5q-11 0-17-5t-9-11q-4-7-4-17h-6l-3-21 3-2-3-23v-3q0-3 1-5l-2-21L13 338v-5l5-3 14-3 187 91q20 11 38 22l30 18 23 14 1-3-2-12q-1-2-1-4 0-5 2-8l1-17q0-3 1-5 2-4 4-5h8.5l10.5 5q2 3 2.5 6.5t2.5 6.5q1 4 3 7l1 2 2 4 3 5 1 7 15 23v9l21 14v5l30-3 6-6 51-4 8 2 25-1 6-3 3-6q2-2 5-5.5t8-7.5l2-19 3-6 1-6-5-8-1-16 1-23q1 0 3-1 2 0 4-.5t5-.5 5 .5 4 .5h2q5 7 9 14 8 14 10 26 9-11 19-22 8-9 17-19t17-18l4-5 124-118h4l16 2v9z"/></svg>