<svg xmlns="http://www.w3.org/2000/svg" viewBox="0 -250 1000 1000"><path fill="currentColor" d="M580 445q3-1 7-1h7l9-1q10-1 22-3h2q2 0 3 1 2 4 5 7 2 2 3 4l17 7q2 0 4 3 2 2 3.5 7t3.5 13q2 17 .5 21.5T663 509q-1 1-5 3-2 1-3 2l-2 4-4 3q0 4-1 7-2 7-9 8-5 2-10 2h-3l-6 9-1 6-8 16q-2 2-3 4-1 1-1 1.5t-1 1.5l-1 1q-1 2-2 5l-2 6q-1 1-2 1l-1 1-4 8-17 36v3l-9 15-4 2-1 25-10 1-8-7-3 1-1 7-5 1-9-6-13 1v7l-7 1-4-4h-1v5l-9 2-11-9h-3l-5 68q0 3-1 5-2 5-6 6-4 2-6 2h-1v3l-64 8-3-2h-4q-4 0-7-4-2-2-4.5-8t-6.5-13-9-16q-1-1-1-3t-.5-3.5-.5-4.5-.5-4.5-.5-4.5v-6q0-1-.5-1t-.5-1l-2-2-1-1-15 2v7q-1 1-2 1t-2.5.5-2.5-1.5l-4-4-1 7-8 1h-1q-2 0-3-1t-3.5-4-5.5-7q-4-4-8-9-1 0-1-1-1 0-1-.5t-2-.5q-4 1-8-1-1 0-11-5l-22-11q-14-7-31-15-1 0-2-1t-2.5-1-2.5-1l-7-4q-1-1-1-2t-.5-1-.5-1q-1 0-7-2-3-1-6-3h-1q-3 0-4-1-6-1-7-2-3 0-3-3v-2l-6-3-3 1-12-6h-2q-2 0-3-1-2-1-4.5-2.5T142 616t-9-5h-1v-3l-8-3h-7q-2-1-4-3t-8-1l-47 5-6-12-17-7q-2 0-4-1-4-2-5-6-1-3-2.5-9t-2-13.5T21 543t3-11q1 0 3-2 1-1 2-1l12-8v-1q0-1 .5-1.5t.5-1.5q0-3 2-7l2-4 27-3 2-1q4-2 9-8 3-3 16-18t27-32q17-19 38-43v-7l34-38-9-13v-3l-5-8-8-3-16-29q-4-7-4-14 0-6 3.5-13.5T175 259q8-5 15-3.5t12 4.5q6 4 11 10l5 9 3 1 3-2 12-5-5-5-1-9h1l7 6 5-1-1-6 2-1 8 7 7-2h11q3-5 7-9 4-3 9.5-6t13.5-2q17 2 21.5 10t7.5 13q1 2 3 5.5t4 7.5q3 4 5 10l-1 5 4 7 2 1 7 12 3 1 19 32v2l4 13 31 23 120 46 25 6z"/></svg>