<?xml version="1.0" encoding="utf-8"?>
<!-- Generator: Adobe Illustrator 21.0.2, SVG Export Plug-In . SVG Version: 6.00 Build 0)  -->
<svg version="1.1" id="Layer_1" xmlns="http://www.w3.org/2000/svg" xmlns:xlink="http://www.w3.org/1999/xlink" x="0px" y="0px"
	 width="300px" height="300px" viewBox="0 0 300 300" style="enable-background:new 0 0 300 300;" xml:space="preserve">
<path d="M251.4,123c0.9-0.3,1.9-0.4,3-0.4h3l3.9-0.4c2.9-0.3,6-0.7,9.5-1.3h0.9c0.6,0,1,0.1,1.3,0.4c0.6,1.1,1.3,2.1,2.1,3
	c0.6,0.6,1,1.1,1.3,1.7l7.3,3c0.6,0,1.1,0.4,1.7,1.3c0.6,0.6,1.1,1.6,1.5,3s0.9,3.3,1.5,5.6c0.6,4.9,0.6,8,0.2,9.2
	c-0.4,1.3-0.9,2.1-1.5,2.4c-0.3,0.3-1,0.7-2.1,1.3c-0.6,0.3-1,0.6-1.3,0.9l-0.9,1.7l-1.7,1.3c0,1.1-0.1,2.1-0.4,3
	c-0.6,2-1.9,3.2-3.9,3.4c-1.4,0.6-2.9,0.9-4.3,0.9h-1.3l-2.6,3.9l-0.4,2.6l-3.4,6.9c-0.6,0.6-1,1.1-1.3,1.7
	c-0.3,0.3-0.4,0.5-0.4,0.6s-0.1,0.4-0.4,0.6l-0.4,0.4c-0.3,0.6-0.6,1.3-0.9,2.1l-0.9,2.6c-0.3,0.3-0.6,0.4-0.9,0.4l-0.4,0.4
	l-1.7,3.4l-7.3,15.5v1.3l-3.9,6.4l-1.7,0.9l-0.4,10.7l-4.3,0.4l-3.4-3l-1.3,0.4l-0.4,3l-2.1,0.4l-3.9-2.6l-5.6,0.4v3l-3,0.4
	l-1.7-1.7h-0.4v2.1l-3.9,0.9l-4.7-3.9H208l-2.1,29.2c0,0.9-0.1,1.6-0.4,2.1c-0.6,1.4-1.4,2.3-2.6,2.6c-1.1,0.6-2,0.9-2.6,0.9h-0.4
	v1.3l-27.5,3.4l-1.3-0.9h-1.7c-1.1,0-2.1-0.6-3-1.7c-0.6-0.6-1.2-1.7-1.9-3.4c-0.7-1.7-1.6-3.6-2.8-5.6c-1.1-2-2.4-4.3-3.9-6.9
	c-0.3-0.3-0.4-0.7-0.4-1.3s-0.1-1.1-0.2-1.5c-0.1-0.4-0.2-1.1-0.2-1.9c0-0.9-0.1-1.5-0.2-1.9c-0.1-0.4-0.2-1.1-0.2-1.9v-2.6
	c0-0.3-0.1-0.4-0.2-0.4s-0.2-0.1-0.2-0.4l-0.9-0.9l-0.4-0.4l-6.4,0.9v3c-0.3,0.3-0.6,0.4-0.9,0.4s-0.6,0.1-1.1,0.2s-0.8-0.1-1.1-0.6
	l-1.7-1.7l-0.4,3l-3.4,0.4h-0.4c-0.6,0-1-0.1-1.3-0.4c-0.3-0.3-0.8-0.9-1.5-1.7c-0.7-0.9-1.5-1.9-2.4-3c-1.1-1.1-2.3-2.4-3.4-3.9
	c-0.3,0-0.4-0.1-0.4-0.4c-0.3,0-0.4-0.1-0.4-0.2c0-0.1-0.3-0.2-0.9-0.2c-1.1,0.3-2.3,0.1-3.4-0.4c-0.3,0-1.9-0.7-4.7-2.1l-9.5-4.7
	c-4-2-8.5-4.2-13.3-6.4c-0.3,0-0.6-0.1-0.9-0.4c-0.3-0.3-0.6-0.4-1.1-0.4s-0.8-0.1-1.1-0.4l-3-1.7c-0.3-0.3-0.4-0.6-0.4-0.9
	c0-0.3-0.1-0.4-0.2-0.4c-0.1,0-0.2-0.1-0.2-0.4c-0.3,0-1.3-0.3-3-0.9c-0.9-0.3-1.7-0.7-2.6-1.3H85c-0.9,0-1.4-0.1-1.7-0.4
	c-1.7-0.3-2.7-0.6-3-0.9c-0.9,0-1.3-0.4-1.3-1.3v-0.9l-2.6-1.3l-1.3,0.4l-5.2-2.6h-0.9c-0.6,0-1-0.1-1.3-0.4
	c-0.6-0.3-1.2-0.6-1.9-1.1s-1.6-0.9-2.8-1.5s-2.4-1.3-3.9-2.1h-0.4V193l-3.4-1.3h-3c-0.6-0.3-1.1-0.7-1.7-1.3s-1.7-0.7-3.4-0.4
	L27,192.2l-2.6-5.2l-7.3-3c-0.6,0-1.1-0.1-1.7-0.4c-1.1-0.6-1.9-1.4-2.1-2.6c-0.3-0.9-0.6-2.1-1.1-3.9s-0.7-3.7-0.9-5.8
	c-0.1-2.1-0.2-4.2-0.2-6.2c0-2,0.4-3.6,1.3-4.7c0.3,0,0.7-0.3,1.3-0.9c0.3-0.3,0.6-0.4,0.9-0.4l5.2-3.4v-0.4c0-0.3,0.1-0.5,0.2-0.6
	s0.2-0.4,0.2-0.6c0-0.9,0.3-1.9,0.9-3l0.9-1.7l11.6-1.3l0.9-0.4c1.1-0.6,2.4-1.7,3.9-3.4c0.9-0.9,3.2-3.4,6.9-7.7s7.6-8.9,11.6-13.8
	C61.5,117.1,67,110.9,73,104v-3l14.6-16.3l-3.9-5.6v-1.3l-2.1-3.4l-3.4-1.3l-6.9-12.5c-1.1-2-1.7-4-1.7-6c0-1.7,0.5-3.7,1.5-5.8
	c1-2.1,3.1-4.1,6.2-5.8c2.3-1.4,4.4-1.9,6.4-1.5c2,0.4,3.7,1.1,5.2,1.9c1.7,1.1,3.3,2.6,4.7,4.3l2.1,3.9l1.3,0.4l1.3-0.9l5.2-2.1
	l-2.1-2.1L101,43h0.4l3,2.6l2.1-0.4l-0.4-2.6l0.9-0.4l3.4,3l3-0.9h4.7c0.9-1.4,1.9-2.7,3-3.9c1.1-0.9,2.5-1.7,4.1-2.6
	c1.6-0.9,3.5-1.1,5.8-0.9c4.9,0.6,8,2,9.2,4.3c1.3,2.3,2.4,4.2,3.2,5.6c0.3,0.6,0.7,1.4,1.3,2.4c0.6,1,1.1,2.1,1.7,3.2
	c0.9,1.1,1.6,2.6,2.1,4.3l-0.4,2.1l1.7,3l0.9,0.4l3,5.2l1.3,0.4l8.2,13.8v0.9l1.7,5.6l13.3,9.9l51.6,19.8l10.7,2.6L251.4,123z"/>
</svg>
