<svg xmlns="http://www.w3.org/2000/svg" viewBox="0 -250 1000 1000"><path fill="currentColor" d="M461 408l18 18q1 5 1 15 1 2 2 1.5t2 1.5q0 2 1 3 1 2 3 3t4 3l-1 2-1 1q2 1 5 4 2-2 7.5.5t8.5 6.5q6 4 9 7 0 1 .5 1.5t.5 2.5q5 5 11 9t11 9q17 14 33.5 28.5T610 553q11 20 21 39.5t21 39.5q-2 4-1.5 7t-3.5 4h-1q3 3 2.5 7.5T646 658q-3 0-8.5-4t-11-9.5-11-10.5-9.5-8q-32-27-63.5-54T479 518q-1 2-1.5 5.5t.5 5.5q-2 0-6 2h1q1 2 1.5 2.5t1.5 2.5q0 3-.5 6t-.5 5q-8 4-15 7t-14 7h-1l1-1q-1 1-2 1t-2 1q0 2-.5 3t-.5 2q-1 1-2 1 1 4 1 11v6l-1 6q-5 5-10.5 9.5T418 610q-2 2-12 2h-14q-6 1-12 1t-11 1q-2 0-3.5.5t-3.5.5q-10-5-20-9t-21-9q-1-2-4-5-6-5-12-11l-12-12q-2 0-3-1v1q5 5 8.5 12t6.5 12q2 2 3.5 5t3.5 5q7 11 14 21t13 21q2 4 4.5 7t4.5 6q-1 3-1 6.5v6.5q-2 0-3 1v1q0 1 2 3 0 3-.5 5.5t-.5 5.5q-2 1-2.5 1t-2.5 1q-49-23-97.5-46T145 597q-9-13-18-25.5T110 546q-8-11-15.5-22.5T79 501q-3-4-7.5-9t-2.5-9h2q-3-3-2-7 2-1 2.5-1t2.5-1q-1-1-1.5-2t-1.5-2q-2 2-6 3t-6 0q0-2-3-5-2 0-2.5.5T51 468q0 1-5.5 2.5T39 472l-3-6q-3-2-7-10-3-4-5-9 1-1 0-5t-1-6q-1-5-.5-12t2.5-12q17-8 33.5-18T92 374q8-4 16.5-8t16.5-9q1-1 .5-2.5t-.5-3.5q0-3 1.5-9.5t4.5-8.5h15q5 1 9.5 1t9.5 1v-9l15-12q12 1 24 1h23l1-1q4 2 9 0l2-4q5-1 10.5-1t10.5 3q1 1 1 4 10 0 19.5.5t19.5.5q2 1 2.5 2t2.5 2q3 2 7 4t6 4q3 5 8 7h8q8 6 17 12.5t18 12.5v6q2 1 3 2t3 1l2 1h1l-1 1q2 3 9 5.5t11 4.5q16 7 32 13.5t32 12.5z"/></svg>