<?xml version="1.0" encoding="utf-8"?>
<!-- Generator: Adobe Illustrator 21.0.2, SVG Export Plug-In . SVG Version: 6.00 Build 0)  -->
<svg version="1.1" id="Layer_1" xmlns="http://www.w3.org/2000/svg" xmlns:xlink="http://www.w3.org/1999/xlink" x="0px" y="0px"
	 width="300px" height="300px" viewBox="0 0 300 300" style="enable-background:new 0 0 300 300;" xml:space="preserve">
<path d="M205,109.6l8,8c0.3,1.5,0.4,3.7,0.4,6.7c0.3,0.6,0.6,0.8,0.9,0.7c0.3-0.1,0.6,0.1,0.9,0.7c0,0.6,0.1,1,0.4,1.3
	c0.3,0.6,0.7,1,1.3,1.3c0.6,0.3,1.2,0.7,1.8,1.3l-0.4,0.9l-0.4,0.4c0.6,0.3,1.3,0.9,2.2,1.8c0.6-0.6,1.7-0.5,3.3,0.2
	c1.6,0.7,2.9,1.7,3.8,2.9c1.8,1.2,3.1,2.2,4,3.1c0,0.3,0.1,0.5,0.2,0.7s0.2,0.5,0.2,1.1c1.5,1.5,3.1,2.8,4.9,4
	c1.8,1.2,3.4,2.5,4.9,4c5,4.1,10,8.4,14.9,12.7c4.9,4.3,9.8,8.5,14.9,12.7c3.3,5.9,6.4,11.8,9.3,17.5c3,5.8,6.1,11.6,9.3,17.5
	c-0.6,1.2-0.8,2.2-0.7,3.1c0.1,0.9-0.4,1.5-1.6,1.8h-0.4c0.9,0.9,1.3,2,1.1,3.3c-0.1,1.3-0.5,2.4-1.1,3.3c-0.9,0-2.1-0.6-3.8-1.8
	c-1.6-1.2-3.3-2.6-4.9-4.2c-1.6-1.6-3.3-3.2-4.9-4.7c-1.6-1.5-3-2.7-4.2-3.6c-9.5-8-18.9-16-28.2-24c-9.3-8-18.7-16-28.2-24
	c-0.3,0.6-0.5,1.4-0.7,2.4s-0.1,1.8,0.2,2.4c-0.6,0-1.5,0.3-2.7,0.9h0.4c0.3,0.6,0.5,1,0.7,1.1c0.1,0.1,0.4,0.5,0.7,1.1
	c0,0.9-0.1,1.8-0.2,2.7c-0.1,0.9-0.2,1.6-0.2,2.2c-2.4,1.2-4.6,2.2-6.7,3.1c-2.1,0.9-4.1,1.9-6.2,3.1h-0.4l0.4-0.4
	c-0.3,0.3-0.6,0.4-0.9,0.4c-0.3,0-0.6,0.1-0.9,0.4c0,0.6-0.1,1-0.2,1.3c-0.1,0.3-0.2,0.6-0.2,0.9c-0.3,0.3-0.6,0.4-0.9,0.4
	c0.3,1.2,0.4,2.8,0.4,4.9v2.7l-0.4,2.7c-1.5,1.5-3,2.9-4.7,4.2c-1.6,1.3-3.2,2.7-4.7,4.2c-0.6,0.6-2.4,0.9-5.3,0.9h-6.2
	c-1.8,0.3-3.6,0.4-5.3,0.4s-3.4,0.1-4.9,0.4c-0.6,0-1.1,0.1-1.6,0.2c-0.4,0.1-1,0.2-1.6,0.2c-3-1.5-5.9-2.8-8.9-4s-6.1-2.5-9.3-4
	c-0.3-0.6-0.9-1.3-1.8-2.2c-1.8-1.5-3.6-3.1-5.3-4.9l-5.3-5.3c-0.6,0-1-0.1-1.3-0.4v0.4c1.5,1.5,2.7,3.3,3.8,5.3
	c1,2.1,2,3.8,2.9,5.3c0.6,0.6,1.1,1.3,1.6,2.2c0.4,0.9,1,1.6,1.6,2.2c2.1,3.3,4.1,6.4,6.2,9.3c2.1,3,4,6.1,5.8,9.3
	c0.6,1.2,1.3,2.2,2,3.1c0.7,0.9,1.4,1.8,2,2.7c-0.3,0.9-0.4,1.8-0.4,2.9v2.9c-0.6,0-1,0.1-1.3,0.4v0.4c0,0.3,0.3,0.7,0.9,1.3
	c0,0.9-0.1,1.7-0.2,2.4s-0.2,1.6-0.2,2.4c-0.6,0.3-1,0.4-1.1,0.4c-0.1,0-0.5,0.1-1.1,0.4c-14.5-6.8-28.9-13.6-43.3-20.4
	c-14.4-6.8-28.8-13.6-43.3-20.4c-2.7-3.8-5.3-7.6-8-11.3s-5.2-7.5-7.5-11.3c-2.4-3.3-4.7-6.6-6.9-10c-2.2-3.4-4.5-6.7-6.9-10
	c-0.9-1.2-2-2.5-3.3-4c-1.3-1.5-1.7-2.8-1.1-4h0.9c-0.9-0.9-1.2-1.9-0.9-3.1c0.6-0.3,1-0.4,1.1-0.4s0.5-0.1,1.1-0.4
	c-0.3-0.3-0.5-0.6-0.7-0.9c-0.1-0.3-0.4-0.6-0.7-0.9c-0.6,0.6-1.5,1-2.7,1.3c-1.2,0.3-2.1,0.3-2.7,0c0-0.6-0.4-1.3-1.3-2.2
	c-0.6,0-1,0.1-1.1,0.2c-0.1,0.1-0.5,0.1-1.1-0.2c0,0.3-0.8,0.7-2.4,1.1s-2.6,0.7-2.9,0.7l-1.3-2.7c-0.9-0.6-1.9-2.1-3.1-4.4
	c-0.9-1.2-1.6-2.5-2.2-4c0.3-0.3,0.3-1,0-2.2c-0.3-1.2-0.4-2.1-0.4-2.7c-0.3-1.5-0.4-3.3-0.2-5.3c0.1-2.1,0.5-3.8,1.1-5.3
	c5-2.4,10-5,14.9-8s9.8-5.9,14.9-8.9c2.4-1.2,4.8-2.4,7.3-3.6c2.5-1.2,5-2.5,7.3-4c0.3-0.3,0.4-0.7,0.2-1.1c-0.1-0.4-0.2-1-0.2-1.6
	c0-0.9,0.2-2.3,0.7-4.2s1.1-3.2,2-3.8h6.7c1.5,0.3,2.9,0.4,4.2,0.4s2.7,0.1,4.2,0.4v-4l6.7-5.3c3.6,0.3,7.1,0.4,10.7,0.4h10.2
	l0.4-0.4c1.2,0.6,2.5,0.6,4,0l0.9-1.8c1.5-0.3,3-0.4,4.7-0.4s3.2,0.4,4.7,1.3c0.3,0.3,0.4,0.9,0.4,1.8c3,0,5.8,0.1,8.7,0.2
	s5.7,0.2,8.7,0.2c0.6,0.3,1,0.6,1.1,0.9s0.5,0.6,1.1,0.9c0.9,0.6,1.9,1.2,3.1,1.8s2.1,1.2,2.7,1.8c0.9,1.5,2.1,2.5,3.6,3.1h3.6
	c2.4,1.8,4.9,3.6,7.5,5.5s5.3,3.8,8,5.5v2.7c0.6,0.3,1,0.6,1.3,0.9c0.3,0.3,0.7,0.4,1.3,0.4l0.9,0.4h0.4l-0.4,0.4
	c0.6,0.9,1.9,1.7,4,2.4c2.1,0.7,3.7,1.4,4.9,2c4.7,2.1,9.5,4.1,14.2,6C195.5,106,200.2,107.8,205,109.6z"/>
</svg>
