<svg xmlns="http://www.w3.org/2000/svg" viewBox="0 -250 1000 1000"><path fill="currentColor" d="M369 361l76-35q-2-1-4-3t-4-3.5-3-3.5q-1 0-1-2v-3l3-3q4-4 12-4h31l2 1h3l3-1h12q1 0 2 1 3 3 3 6h43q2 0 2.5.5t2.5.5h46q1-2 3-3 5-2 8 0 1-2 4-4 4-3 10-1-1 0-1 2 0 1-1 1l-4 2q-5 2-3 6h32q2 0 2 3 0 1-1 1h-32q0 3 2 5 4 4 8 4-1 0-1 1t-2 2q-1 1-2 1-2 2-5 0-2-1-5-4-1-1-2-1v2q-3 0-6-1-5-2-5-7l-44-1q-1 1-2 1-1 1-6 1h-22q-9 0-19-1 0 2-1 4-3 5-8 5h-5l-107 63q-1 4-3 7-4 7-12 7l25 20 77 2 36 9v3l-5 1 2 3q3-1 7 0 7 2 8 7v3l43 11q1 1 2 1t1.5.5 1.5.5q-1 0 6.5 2t15.5 4q10 3 22 5 0-1 1-2t5-1l3 1q1-1 4-2 7-2 12 0-1 0-1 1v1h-5q-6 0-6 5 2 1 5 2 2 1 5.5 1.5t6.5 1.5l16 4q1 1 1 2 0 4-3 2-2 0-7.5-.5T636 492q-6-2-13-4-1 2 0 4 2 5 8 6 0 2-5 2-2 0-4-.5t-3-2.5q-1-1-1-3 0-1-1-2h-4q-4 0-5-5-1 1-8-1t-15-4l-22-6q-1 1-4 1-7 0-12-2t-10-3-10-3-11-4q-1 1-3 2-4 2-8 1l-5-1h1l-3-2-2 2q-2 0-4-1-4-2-5-3l-1-1q-1-1-3-1-4 0-6-1-3 0-13-4-4-2-9-4-2 0-3-1-2-2-2-4v-3l-32-1q26 13 49 24 20 10 38.5 20.5T532 503q0-1 4-2.5t6-.5 20 11 29 20q11 9 20.5 18t8.5 10-5.5 3-9.5 5q-6 4-15 8-10 1-21 1h-18.5l-15.5-2q-7-1-15-3l-16-4q-9-3-17-5l-1-1-2-6-169-65q-4 0-8 1-3 1-7 1.5t-7-.5q-4-1-5.5-1.5t-3.5-.5h-2l-3 1v13.5l-2 5.5q-3 5-9.5 11.5T248 526q-14-3-21-13-1 0-6.5-.5T209 512h-17l-99 56q1 1 2 3l3 6 2 4 2 4q1 3 2 5t1 5q0 7-3 9 0 1 1 4.5t3 8.5l4 12v2l11 26q2 0 4 1 3 2 5 7 0 2 .5 3t.5 2v2l-1 3 8 14-4 4v5q0 2-1 2.5t-2-1.5q-1-1-1-1.5t-1-1.5l-1-1h-1l-7-13-4-2q-4-2-4-6-3-9 0-12 0-1-1-4-1-2-2-4.5t-2-5.5q-3-6-5-14l-1-1q-2-2-2-4-1-2-2-4.5t-3-6.5-3-9q-2 0-4-1t-4-2.5-3-3.5q-2-2-3-5t-3-5-3-5v-2l-2-3h-3l-4-10q-2-4-3-10l2-2q0-1-.5-2t2.5-3q2-1 21.5-14.5T127 510q27-19 62-43l3 1q0-1 1-3 2-4 7-5 4 0 5 1t2 1l16-15q-2 0-3-1-2-1-5-4l-144 1-3 1 3 1-1 3-1 1q1 0 2 1t1.5 2 1.5 2q0 2 .5 5t-4.5 9l-1 1q1 1 1 2 0 3-1 3v1q0 1 .5 1.5t.5 1.5q0 2 1 4l-13 1-1-14-4-2q-4-2-4-6 0-8 4-10-1 0-1-1v-2q-1-1-1-2l-5-3H24l-1-2-1-9 4-2 2-3-4-8v-6q0-6 6-10 4-2 8-1.5t6 2.5q1 1 2.5 2t2.5 2q1 2 2 3l4 4q3 3 2 9l48-2q21-1 48-3v-1q-1 0-1-1t1-2 2-1l1 1 6-3v-1q0-1 2-1h3l2-1v-1q0-1 1-1t1 .5 1 .5h1l4-2 9-1 1-5-6-2-2 1-5-2q-2-4-2-8 0-3 2-7t7-8q6-2 10 0l1 1 8 2 6-1 4 4h4l1 2 2 2q3 0 6 1 6 2 9 2 2 0 8 2 3 1 5 1 5 0 9-1 3-1 6-1.5t4-1.5q2-1 4.5-2t4.5-1q1 0 1.5.5t1.5.5h2q1 1 2 1t1.5.5 1.5.5 3 .5 3 .5l2-1h2q0-1 1-3t8-4q-1 0-1-1v-1h-6l-1 1-12-2-2-1-4-1q-1-1-2-3-1-3 0-10 3-12 10-12 3 1 6 1h3l6 1h6l9 2h4l5 1v2l30 1 1 1h5q5 0 10 3z"/></svg>