<svg xmlns="http://www.w3.org/2000/svg" viewBox="0 -250 1000 1000"><path fill="currentColor" d="M61 369l33-22 48-24-3-8 7-2 6-4q4 0 7-1 2 0 4-.5t1-.5q3-1 8-1.5t10-1.5 9-1h4q2-2 5.5-2.5t8.5-1.5 12-1q11-4 17.5-5t11.5-1 9 1q9 0 16-1 6 0 12-.5t8-.5q9-2 23-3t20 0q3 1 8 1h23q6 0 17 .5t22 1.5q12 1 27 3l2-2 1-2-1-5v-2h8v2l-1 2 1 4 2 2v2q8 0 17.5 2.5T482 303q10 4 19 8l73-1 25 18v4q3 1 5 1 2 1 5 1 13 11 15 21 1 6 0 12 3 1 7 2 2 1 5 1h2q11 11 14 20.5t3 17.5q0 9-3 17l16 16 1 13-7 3v7l-4 2v27q3 3 3 5v3l-2 4 7 66 5-1-3 20 3 62h-6l-2 20-58 6-8-14q-3-5-5.5-10l-3.5-7-4-4-7-5-10-6-36-57v-5h3v-7l-15-26-20 2 16 33-12 9-69 7 30 43-4 7 6 3 10 24v19l-4 4 3 4-3 10-7 3q-1 2-1 3l-2 3q-2 0-3-3-1-1-1-3l-36 4q-1 2-2 3l-2 2q-1 0-3-2-1-1-2-3l-5 1-174-133q-1 0-3-1-3 0-7-2-2-1-3-3t-1-4v-4q-2-2-5-4-6-4-7-4l-2 2q-1 1-1 2l-12-9-2-9q-4-3-7-6-7-5-7-6-5 0-7.5-.5T165 527q-3-1-4-3h-7l-3-3-10-3v-5l-9-7-10 12q-5 5-10.5 11.5T101 541q-13 8-22.5 8T63 546q-8-4-13-10l-12-16q-5-6-9-11.5t-5-7.5q-4-9 0-23 1-7 4-15l4-11q0-7 1-11 0-4 .5-7t.5-2q2-8 6.5-13.5T50 410q5-4 12-4l-2-34z"/></svg>