<?xml version="1.0" encoding="utf-8"?>
<!-- Generator: Adobe Illustrator 21.0.2, SVG Export Plug-In . SVG Version: 6.00 Build 0)  -->
<svg version="1.1" id="Layer_1" xmlns="http://www.w3.org/2000/svg" xmlns:xlink="http://www.w3.org/1999/xlink" x="0px" y="0px"
	 width="300px" height="300px" viewBox="0 0 300 300" style="enable-background:new 0 0 300 300;" xml:space="preserve">
<path d="M99.7,160.9c0.9,0.9,1.4,1.7,1.4,2.3c2.5-1.2,5-2.3,7.4-3.3c2.5-0.9,5-2,7.4-3.3v-2.3l32.5-16.7l-7-9.3l-1.4,0.5l-1.4-1.4
	l-30.2,15.3l-51.1,21.4l2.3,4.2c0.3,0.6,0.6,1.4,0.9,2.3c0.6,1.9,0.8,3.6,0.5,5.1l0.9,0.9c0.6,0.6,1.1,0.9,1.4,0.9
	c0.9,0.9,1.4,0.8,1.4-0.5c-0.3-0.3-0.3-0.5,0-0.5s0.5-0.2,0.5-0.5c3.7-1.5,7.4-3.1,10.9-4.6c3.6-1.5,7.2-3.1,10.9-4.6
	c1.2-0.6,2.2-0.6,2.8,0h0.5v-1.9l-0.5-3.3l4.2-0.9l1.4,0.9L99.7,160.9z M194.4,199.5c-0.3,0.3-0.8,0.5-1.4,0.5
	c-3.1,0.6-6,1.2-8.8,1.6c-2.8,0.5-5.7,1-8.8,1.6c-3.1,0.6-6.1,1.2-9.1,1.6c-2.9,0.5-6,1-9.1,1.6l-10.2,1.9l-10.2,1.9
	c-3.7,0.6-7.4,1.3-10.9,2.1c-3.6,0.8-7.2,1.5-10.9,2.1c-2.5,0.6-5,1.1-7.4,1.4c-2.5,0.3-5,0.8-7.4,1.4c-1.2,0-3.1,0.3-5.6,0.9
	c0,0.3,0.1,0.5,0.2,0.7s0.2,0.4,0.2,0.7c0.6,1.5,1.3,3,2.1,4.4c0.8,1.4,1.5,2.9,2.1,4.4c0.3,0.3,0.5,0.6,0.5,0.9
	c0.6,1.2,0.5,2.2-0.5,2.8c-0.3,0.3-0.5,0.6-0.7,0.9c-0.2,0.3-0.4,0.6-0.7,0.9c-0.6,0.6-1.1,1.2-1.4,1.9l-0.9,1.9
	c-1.2,3.1-3.6,5.6-7,7.4c-0.3,0.6-1.1,1.2-2.3,1.9v1.4c-0.6,0.3-1.2,0.6-1.6,0.9s-1,0.6-1.6,0.9l-0.9-0.9c-1.2,0-3.1,0.3-5.6,0.9
	c-1.2,0-2.4-0.1-3.5-0.2s-2.2-0.7-3.5-1.6c-0.3-0.3-0.6-0.5-0.9-0.5h-5.1l-0.9-0.9l-7-11.1c-0.3-0.6-0.6-1-0.9-1.2
	c-0.3-0.2-0.6-0.4-0.9-0.7l-4.2-4.2c-1.9-1.9-2.8-4.2-2.8-7c0-0.3-0.1-0.5-0.2-0.7c-0.2-0.2-0.2-0.4-0.2-0.7
	c-1.2-1.9-1.9-3.4-1.9-4.6c0-0.6-0.1-1.1-0.2-1.4s-0.2-0.8-0.2-1.4c0-0.3-0.1-0.5-0.2-0.7s-0.2-0.4-0.2-0.7c-0.6-2.5-0.2-4.5,1.4-6
	c-0.3,0-0.5-0.3-0.5-0.9c-0.6-0.9-1.5-2.6-2.8-5.1c-0.3-0.3-0.5-0.6-0.5-0.9c-1.2-1.9-1.9-3.3-1.9-4.2v-7c-1.2-0.6-2-0.9-2.3-0.9
	c-1.9-1.2-3.1-2.5-3.7-3.7c-0.9-1.5-1.7-2.6-2.3-3.3c-0.3-0.3-0.5-0.5-0.5-0.7s-0.2-0.4-0.5-0.7h-0.5c-1.2,0-2-0.5-2.3-1.4
	c-0.6-0.9-1.1-1.8-1.4-2.6c-0.3-0.8-0.8-1.6-1.4-2.6c-0.6-0.9-1.2-1.2-1.9-0.9h-2.3l-0.5-0.9L8.7,149.8v-0.9c-0.9-0.9-0.9-2.2,0-3.7
	c0.3-0.3,0.5-0.6,0.7-0.9c0.2-0.3,0.4-0.6,0.7-0.9c0-0.9,0.2-1.7,0.7-2.3c0.5-0.6,0.7-1.4,0.7-2.3l0.5-0.5l1.4-1.4
	c2.2-2.2,4.5-4,7-5.6c0.3,0,0.5-0.1,0.5-0.2s0.2-0.2,0.5-0.2c0-0.6-0.1-1-0.2-1.2c-0.2-0.2-0.2-0.5-0.2-1.2c0.6-0.6,1.2-0.9,1.9-0.9
	c0.6,0,1.2-0.3,1.9-0.9c0.6,1.2,0.9,2,0.9,2.3c1.2-0.3,2.3-0.5,3.3-0.7c0.9-0.2,1.9-0.2,2.8-0.2c0.9-0.3,1.8-0.4,2.6-0.2
	c0.8,0.2,1.6,0.2,2.6,0.2h1.9c0.6,0,1.1,0.2,1.4,0.5l1.4,1.4c0.9,0.9,1.7,1.5,2.3,1.9c1.2,0.9,2.5,2.6,3.7,5.1l0.9,1.9
	c0.6-0.6,1.2-0.9,1.6-0.9c0.5,0,1-0.2,1.6-0.5l7-2.8c1.9,1.9,3.4,3.3,4.6,4.2c0.6-0.3,1.2-0.5,1.6-0.7c0.5-0.2,1-0.4,1.6-0.7
	c0.6-0.3,1.4-0.3,2.3,0c0.9,0,2-0.3,3.3-0.9c0.6-0.3,1.2-0.5,1.9-0.7c0.6-0.2,1.2-0.4,1.9-0.7c0.3-0.3,0.5-0.5,0.7-0.5
	s0.4-0.3,0.7-0.9c0-0.6,0.3-0.9,0.9-0.9c0.9-0.6,1.9-1,2.8-1.2s1.9-0.5,2.8-1.2c0.6-0.3,1.3-0.6,2.1-0.9s1.5-0.6,2.1-0.9
	c0.6-0.3,1.4-0.3,2.3,0c0.9,0,1.5-0.2,1.9-0.5c0.6-0.3,1.3-0.6,2.1-0.9c0.8-0.3,1.5-0.6,2.1-0.9c0.9,0,1.4-0.3,1.4-0.9
	c0.6-1.2,1.2-1.9,1.9-1.9c0.9-0.3,2-0.8,3.3-1.4c0.9,0,1.7-0.2,2.3-0.5c1.2-0.9,2.4-1.8,3.5-2.6c1.1-0.8,2.2-1.6,3.5-2.6
	c0.6-0.9,1.3-1.5,2.1-1.6s1.5-0.5,2.1-1.2c3.4-0.9,6.5-2.3,9.3-4.2c-0.6-0.9-0.9-2-0.9-3.3s-0.2-2.5-0.5-3.7
	c-0.3-0.6-0.5-1.1-0.5-1.4s-0.3-0.8-0.9-1.4c-0.6-0.6-0.9-1.4-0.9-2.3V95l0.5-1.4c-0.6-0.6-0.9-1.4-0.9-2.3s-0.2-1.9-0.5-2.8
	l0.5-0.9c0.9-0.6,1.4-1.9,1.4-3.7c-0.3-0.9-0.5-2.3-0.5-4.2c0-0.6,0.2-1.2,0.5-1.9c0.6-1.2,1.2-2.2,1.9-2.8c0.6-0.6,1.1-0.9,1.4-0.9
	c1.5-0.6,3.3-1.3,5.1-2.1c1.9-0.8,3.7-1.5,5.6-2.1c0.6,0,0.9-0.2,0.9-0.5c0.3-0.6,0.7-0.9,1.2-0.9s1-0.2,1.6-0.5l1.9-0.9h1.4
	c0.6,0,1.1-0.2,1.4-0.5l0.9-0.5c1.5-0.6,2.9-1.1,4.2-1.4s2.5-0.8,3.7-1.4c0.3,0,0.5-0.1,0.7-0.2s0.4-0.2,0.7-0.2
	c1.5-1.5,4-2.6,7.4-3.3c1.2,0,2.3-0.2,3.3-0.5c0.6-0.3,1.4-0.6,2.3-0.9l2.8-0.9c1.5-0.6,2.3-1.1,2.3-1.4c0-0.3,0.3-0.5,0.9-0.5
	c1.2-0.6,2.2-0.9,2.8-0.9c0.6-0.6,1.2-0.8,1.9-0.5c0.3,0,0.6-0.2,0.9-0.5c1.5-0.6,3.2-1.2,4.9-1.6s3.3-1,4.9-1.6
	c0.3,0,0.6-0.2,0.9-0.5c0.9,0.6,1.9,1.4,2.8,2.3l2.3,2.3c0.9,0.9,1.9,1.4,2.8,1.4c2.5-0.3,4.9-0.5,7.2-0.5h7.2
	c3.1,0.6,6.1,1.1,9.1,1.4c2.9,0.3,5.8,0.9,8.6,1.9c1.2,0.3,2.4,0.6,3.5,0.9c1.1,0.3,2.4,0.6,3.9,0.9c0,0.3,0.3,0.5,0.9,0.5
	c1.5-1.5,3-3.1,4.4-4.6s3-2.9,4.9-4.2c1.9,0,3.6,0.5,5.1,1.4c0.6,0.6,1.2,0.9,1.9,0.9s1.2,0.3,1.9,0.9l3.3,1.6l3.3,1.6
	c2.5,1.2,4.7,2.6,6.7,4.2s3.9,3.1,5.8,4.6c1.2,0.6,2.8,1.9,4.6,3.7c0.3,0.3,0.5,0.8,0.5,1.4c0,5-0.5,10.2-1.4,15.8
	c-0.3,0.3-0.2,0.8,0.5,1.4c1.5,1.9,2.9,3.8,3.9,5.8s2.2,4.3,3.5,6.7c0.3,0.6,0.5,1.2,0.7,1.9c0.2,0.6,0.4,1.2,0.7,1.9
	c0.6,1.2,1.2,3.4,1.9,6.5c1.5,5.9,1.9,11.5,0.9,16.7c-0.6,2.5-0.9,4.5-0.9,6c-0.3,0.9-0.5,1.9-0.7,3c-0.2,1.1-0.4,2.1-0.7,3
	c-1.2,6.2-3.9,12.2-7.9,18.1c-0.9,1.5-1.9,2.9-3,4.2s-2.2,2.6-3.5,4.2c-1.9,2.2-3.9,4.2-6,6c-2.2,1.9-4.5,3.6-7,5.1
	c-8.4,5.9-17.6,10.2-27.9,13c-5.9,1.9-12.2,3.3-19,4.2c-1.9,0.3-3.6,0.5-5.3,0.7s-3.5,0.5-5.3,1.2c-1.5,0.3-3,0.5-4.4,0.7
	c-1.4,0.2-2.9,0.4-4.4,0.7H194.4z"/>
</svg>
