<svg xmlns="http://www.w3.org/2000/svg" viewBox="0 -250 1000 1000"><path fill="currentColor" d="M225 524q3 3 3 5 8-4 16-7t16-7v-5l70-36-15-20-3 1-3-3-65 33-110 46 5 9q1 2 2 5 2 6 1 11l2 2q2 2 3 2 3 3 3-1-1-1 0-1t1-1q12-5 23.5-10t23.5-10q4-2 6 0h1v-4l-1-7 9-2 3 2zm204 83q-1 1-3 1-10 2-19 3.5t-19 3.5-19.5 3.5T349 622l-22 4-22 4q-12 2-23.5 4.5T258 639q-8 2-16 3t-16 3q-4 0-12 2 0 1 .5 1.5t.5 1.5q2 5 4.5 9.5t4.5 9.5q1 1 1 2 2 4-1 6-1 1-1.5 2t-1.5 2q-2 2-3 4l-2 4q-4 10-15 16-1 2-5 4v3q-2 1-3.5 2t-3.5 2l-2-2q-4 0-12 2-4 0-7.5-.5T160 712q-1-1-2-1h-11l-2-2-15-24q-1-2-2-2.5t-2-1.5l-9-9q-6-6-6-15 0-1-.5-1.5t-.5-1.5q-4-6-4-10 0-2-.5-3t-.5-3q0-1-.5-1.5t-.5-1.5q-2-8 3-13-1 0-1-2-2-3-6-11-1-1-1-2-4-6-4-9v-15q-4-2-5-2-6-4-8-8-3-5-5-7-1-1-1-1.5t-1-1.5h-1q-4 0-5-3-2-3-3-5.5t-3-5.5-4-2h-5l-1-2-24-45v-2q-3-3 0-8 1-1 1.5-2t1.5-2q0-3 1.5-5t1.5-5l1-1 3-3q7-7 15-12 1 0 1-.5t1-.5q0-2-.5-2.5T55 454q2-2 4-2t4-2q2 4 2 5 4-1 7-1.5t6-.5q3-1 5.5-.5t5.5.5h4q2 0 3 1l3 3q3 3 5 4 4 3 8 11l2 4q2-2 3.5-2t3.5-1l15-6q6 6 10 9 2-1 3.5-1.5t3.5-1.5 5 0q3 0 7-2 2-1 4-1.5t4-1.5q1-1 1.5-1t1.5-2q0-2 2-2 3-2 6-2.5t6-2.5q2-1 4.5-2t4.5-2 5 0q3 0 4-1 2-1 4.5-2t4.5-2q3 0 3-2 2-4 4-4 3-1 7-3 3 0 5-1 4-3 7.5-5.5t7.5-5.5q2-3 4.5-3.5t4.5-2.5q11-3 20-9-2-3-2-7t-1-8q-1-2-1-3t-2-3-2-5v-5l1-3q-2-2-2-5t-1-6l1-2q3-2 3-8-1-3-1-9 0-2 1-4 2-4 4-6t3-2q5-2 11-4.5t12-4.5q2 0 2-1 1-2 2.5-2t3.5-1l4-2h3q2 0 3-1l2-1q5-2 9-3t8-3q1 0 1.5-.5t1.5-.5q5-5 16-7 4 0 7-1 2-1 5-2l6-2q5-2 5-3t2-1q4-2 6-2 2-2 4-1 1 0 2-1 5-2 10.5-3.5T418 286q1 0 2-1 3 2 6 5l5 5q3 3 6 3 8-1 15.5-1H468q10 2 19.5 3t18.5 4q4 1 7.5 2t8.5 2q0 1 2 1 5-5 9.5-10t10.5-9q6 0 11 3 2 2 4 2t4 2l7 3.5 7 3.5q8 4 14.5 9t12.5 10q4 2 10 8 1 1 1 3 0 16-3 34-1 1 1 3 5 6 8.5 12.5T629 398q1 2 1.5 4t1.5 4q2 4 4 14 5 19 2 36-2 8-2 13-1 3-1.5 6.5T633 482q-4 20-17 39-3 5-6.5 9t-7.5 9q-6 7-13 13t-15 11q-27 19-60 28-19 6-41 9-6 1-11.5 1.5T450 604q-5 1-9.5 1.5T431 607h-2z"/></svg>