<?xml version="1.0" encoding="utf-8"?>
<!-- Generator: Adobe Illustrator 21.0.2, SVG Export Plug-In . SVG Version: 6.00 Build 0)  -->
<svg version="1.1" id="Layer_1" xmlns="http://www.w3.org/2000/svg" xmlns:xlink="http://www.w3.org/1999/xlink" x="0px" y="0px"
	 width="300px" height="300px" viewBox="0 0 300 300" style="enable-background:new 0 0 300 300;" xml:space="preserve">
<path d="M273.4,224.4c-0.6,0-1.1-0.1-1.4-0.2c-0.3-0.2-0.6-0.2-0.9-0.2v-2.8c-0.6,0-0.9-0.2-0.9-0.5s-0.3-0.6-0.9-0.9
	c-0.3,0.6-0.5,0.9-0.7,0.9s-0.4,0.3-0.7,0.9c-1.2,1.5-2.4,2.8-3.5,3.7c-1.1,0.9-2.2,2-3.5,3.2H260c-0.9,0.6-1.8,1.6-2.8,3
	s-1.7,2.4-2.3,3c-0.6,0.6-1.2,1.1-1.6,1.4c-0.5,0.3-0.5,0.8-0.2,1.4v0.9c0,0.3,0.2,0.5,0.5,0.5l-11.5,11.1l-10.1-6.4
	c0-0.3-0.2-0.6-0.5-0.9l-0.5,0.5l-11.1-7.4c0.3,0,0.3-0.2,0-0.5c-0.6,0.6-1.2,0.5-1.8-0.5l-0.9-0.9l-17.5-11.1
	c0-0.3,0.2-0.5,0.5-0.5h-1.8l-11.5-7.8l2.3-5.1l-82.9-69.1l3.7-2.8l-6.9-5.5c-0.3,0-0.5-0.2-0.5-0.5c-0.3,0-0.5-0.1-0.5-0.2
	c0-0.2-0.2-0.2-0.5-0.2c-0.3-0.3-0.9,0-1.8,0.9c-0.6-0.6-1.5-0.9-2.5-0.9c-1.1,0-2.1,0.2-3,0.5c-1.2,0.6-2.8,1.4-4.8,2.3
	c-2,0.9-3.8,1.2-5.3,0.9c-1.5,0-2.5-0.2-2.8-0.5c-0.3,0-0.5-0.2-0.5-0.5l-0.5-0.5L23.4,141c-0.9,0.3-1.7,0.5-2.3,0.5h-2.8
	c-1.5-0.6-2.9-1.8-4.1-3.5c-1.2-1.7-2.6-2.5-4.1-2.5v-0.9c-0.6-0.3-1.4-0.9-2.3-1.8h0.5c0.6-0.6,1.5-1.1,2.5-1.4
	c1.1-0.3,2.1-0.8,3-1.4c0.9-0.6,1.9-1.2,3-1.6s2.2-1,3.5-1.6l9.7-4.1c0.3-0.3,0.4-0.6,0.2-0.9c-0.2-0.3-0.1-0.6,0.2-0.9l0.5-0.5
	c0.3-0.3,0.5-0.5,0.7-0.5c0.2,0,0.4-0.2,0.7-0.5l1.8-0.9c0.6,0,1,0.2,1.2,0.5c0.2,0.3,0.5,0.5,1.2,0.5c0.9-0.6,2.1-1.2,3.5-1.6
	c1.4-0.5,2.7-1,3.9-1.6l18-8.3l5.5-2.8c1.8-0.6,2.9-1.2,3.2-1.8c-1.2-0.6-2.9-2.2-5.1-4.8s-3.5-4.2-4.1-4.8
	c-3.1-3.4-5.7-6.9-7.8-10.6c-0.9-1.8-1.5-3.8-1.6-5.8c-0.2-2,0.5-3.8,2.1-5.3c1.5-1.5,3.8-2.9,6.7-4.1s6.1-1.2,9.4,0
	c3.7,1.5,7.1,3.5,10.1,6l9.2,7.4c0.6,0.6,1.9,1.7,3.9,3.2s3.1,2.6,3.5,3.2c0.3,0.6,0.6,2.3,0.9,5.1s0.6,4.8,0.9,6
	c0.3,0,0.5,0.1,0.5,0.2c0,0.2,0.3,0.2,0.9,0.2c0.6-0.6,1.4-1.1,2.3-1.4s1.4-1.2,1.4-2.8c0.6-1.2,0.9-2.3,0.9-3.2
	c-0.3,0-0.8-0.3-1.4-0.9l-0.9-0.9l15.7-27.2L115,60l2.8-1.8l0.9,0.9c0.6,0.6,1.1,0.9,1.4,0.9c0.3-0.9,0.7-1.7,1.2-2.3
	c0.5-0.6,1-1.2,1.6-1.8c0.3-0.6,0.5-1.6,0.5-3s0.3-2.2,0.9-2.5c0.6,0.6,1.5,1.2,2.8,1.8c0.6,0.6,1.8,1.5,3.5,2.8
	c1.7,1.2,2.7,2,3,2.3c0.6,0.6,1.5,2.2,2.5,4.8c1.1,2.6,1.9,4.4,2.5,5.3c0,4,0.1,7.8,0.2,11.5c0.2,3.7,0.4,7.5,0.7,11.5v4.1
	c0.3,0.9,0.5,2.1,0.5,3.5v3.9l-0.5,4.1v4.6c0,1.5-0.2,3-0.5,4.4c-0.3,1.4-0.6,2.4-0.9,3h-0.9c-0.3,0-1.1-0.6-2.3-1.8
	c-0.6-0.6-1.4-1.1-2.3-1.4c-0.3,0.3-0.5,0.7-0.5,1.2s-0.2,0.8-0.5,1.2s-1.1,0.8-2.3,1.4c0.3,0.3,0.5,0.5,0.7,0.5
	c0.2,0,0.4,0.2,0.7,0.5c0,0.6,0.3,1.1,0.9,1.4c-0.3,0.3-0.5,0.6-0.5,0.9h0.5l0.9-0.5l0.5,0.9c0,0.6-0.2,1.1-0.5,1.4h0.5l0.9-0.9
	c0.3,0.3,0.6,0.8,0.9,1.4c-0.3,0-0.5,0.2-0.5,0.5h0.9c0.6,0,0.9,0.3,0.9,0.9l-0.5,0.5h0.5c0.3-0.3,0.6-0.5,0.9-0.5
	c0.6,0.3,1,0.6,1.2,0.9c0.2,0.3,0.5,0.6,1.2,0.9c0.3-0.6,0.6-0.9,0.9-0.9s0.6-0.3,0.9-0.9c0-0.6-0.3-0.9-0.9-0.9
	c0-1.5,0.2-2.6,0.5-3.2c0-0.3,0.5-0.8,1.4-1.6c0.9-0.8,1.2-1.2,0.9-1.2c-0.3-0.6-0.5-1.1-0.5-1.4c0.3-0.3,0.5-0.7,0.5-1.2
	s0.3-0.8,0.9-1.2c1.5-1.5,3.1-2.8,4.8-3.9c1.7-1.1,3.5-2.4,5.3-3.9c0.6-0.3,1.2-0.8,1.8-1.4c0.6-0.6,1.4-1.1,2.3-1.4
	c0,0.3,0.2,0.5,0.5,0.5c0.3-0.3,1.5-1.2,3.5-2.8s3.3-2.3,3.9-2.3v1.8h0.5c0,0.3-0.2,0.9-0.5,1.8c1.2,0.3,2.3,0.8,3.2,1.6
	c0.9,0.8,1.8,1.5,2.8,2.1l5.5,3.7l6,4.1c3.7,2.5,7.4,4.9,11.3,7.4s7.6,5.1,11.3,7.8c0.6,0.6,1.4,1.5,2.3,2.8
	c0.9,1.2,1.7,2.3,2.3,3.2c0.3,0.6,0.6,1.4,0.9,2.3s0.6,1.7,0.9,2.3c0,0.3,0.3,0.5,0.9,0.5c0.3,0,0.6,0.2,0.9,0.5l26.2,18
	c0.6,0.6,1.2,1,1.6,1.2c0.5,0.2,1,0.5,1.6,1.2c0.6,0,1.2-0.3,1.8-0.9c0.3-0.3,0.6-0.5,0.9-0.5l45.6,31.3l-2.3,13.8
	c0,0.3,0.2,0.5,0.5,0.5l0.9,0.9l-0.9,0.9h-1.8L273.9,223c-0.3,0-0.5,0.2-0.5,0.5V224.4z"/>
</svg>
