<svg xmlns="http://www.w3.org/2000/svg" viewBox="0 -250 1000 1000"><path fill="currentColor" d="M605 653q-2 0-3-.5t-2-.5v-6q-2 0-2-1t-2-2q-1 2-1.5 2t-1.5 2q-4 5-7.5 8t-7.5 7h-2q-3 2-6 6.5t-5 6.5-3.5 3-.5 3v2q0 1 1 1l-25 24-22-14q0-1-1-2l-1 1-24-16q1 0 0-1-2 2-4-1l-2-2-38-24q0-1 1-1h-4l-25-17 5-11-180-150 8-6-15-12q-1 0-1-1-1 0-1-.5t-1-.5q-1-1-4 2-2-2-5.5-2t-6.5 1q-4 2-10.5 5t-11.5 2q-5 0-6-1-1 0-1-1l-1-1-124 17q-3 1-5 1h-6q-5-2-9-7.5t-9-5.5v-2q-2-1-5-4h1q2-2 5.5-3t6.5-3 6.5-3.5T55 441l21-9q1-1 .5-2t.5-2l1-1q1-1 1.5-1t1.5-1l4-2q2 0 2.5 1t2.5 1q3-2 7.5-3.5t8.5-3.5l39-18 12-6q6-2 7-4-4-2-11-10.5t-9-10.5q-10-11-17-23-3-6-3.5-12.5T128 322t14.5-9 20.5 0q12 5 22 13l20 16q2 2 8.5 7t7.5 7 2 11 2 13q1 0 1 .5t2 .5q2-2 5-3t3-6q2-4 2-7-1 0-3-2l-2-2 34-59-6-6 6-4 2 2q2 2 3 2 1-3 2.5-5t3.5-4q1-2 1-6.5t2-5.5q2 2 6 4 2 2 7.5 6t6.5 5q2 2 5.5 10.5T312 312q0 13 .5 25t1.5 25v9q1 3 1 7.5v8.5l-1 9v10q0 5-1 9.5t-2 6.5h-2q-1 0-5-4-2-2-5-3-1 1-1 2.5t-1 2.5-5 3q1 1 1.5 1t1.5 1q0 2 2 3-1 1-1 2h1l2-1 1 2q0 2-1 3h1l2-2q1 1 2 3-1 0-1 1h2q2 0 2 2l-1 1h1q1-1 2-1 2 1 2.5 2t2.5 2q1-2 2-2t2-2q0-2-2-2 0-5 1-7 0-1 3-3.5t2-2.5q-1-2-1-3 1-1 1-2.5t2-2.5q5-5 10.5-8.5T346 398q2-1 4-3t5-3q0 1 1 1 1-1 7.5-6t8.5-5v4h1q0 1-1 4 4 1 7 3.5t6 4.5l12 8 13 9q12 8 24.5 16t24.5 17q2 2 5 6t5 7q1 2 2 5t2 5q0 1 2 1 1 0 2 1l57 39q2 2 3.5 2.5t3.5 2.5q2 0 4-2 1-1 2-1l99 68-5 30q0 1 1 1l2 2-2 2h-4l-32 33q-1 0-1 1v2z"/></svg>