<svg xmlns="http://www.w3.org/2000/svg" viewBox="0 -250 1000 1000"><path fill="currentColor" d="M630 712l-4 3-13-15-1 1-8-9-1 1-13-14q-11 6-24.5 13.5T541 706l10 11-2 2 7 8-1 2 13 15-3 3-14-15-1 1-7-9-2 1-12-14q-3 2-5.5 3t-4.5 2q-10 3-20.5-3.5T468 692q-10-7-35.5-27T380 623.5t-48.5-39T307 565q-10-8-7-16l3.5-7 4.5-10 6-12 6-6-30-30h-2q-3 0-5 1-4 2-7.5-1t-5.5-1q-2 1-5.5-1.5T259 479l-2-2q-1-1-2-3l-2-4q-1-1-3-2t-3.5-1.5-2.5-1.5q-3-1-3-4v-1l-3-4-77 36 4 8h3l3 4h1l4 6-1 2 2 2v4q0 4 3 7 2 4 3 9l2 10 1 11q0 1 1 2 0 1 1 2t1 3l1 1q0 1 1 2 1 3 0 6-1 2-2 3-2 2-4 3-2 2-3 2.5t-2 1.5-9.5 7-25.5 9q-18 0-29.5-7.5T97 573q-8-11-13-23l-6-5-4-7 1-2-9-17-2-1-1-2 1-9-1-6 3-3-28-77q-9-7-10.5-15.5T27 392l-4-6h-2q-1 0-2-1l4-10h5v-1l4-1v1q3-4 12-9.5t25-4.5q-2-2 5-4 3-2 10 2 1 1 1 5-1 2-1 3l2 3q5 2 10 7.5t4 16.5l1 1q4 8 8 15 3 6 6 11t4 7q1 3 5 3h3l8 14v-1l72-27-1-6v-2q1-2 .5-2.5t-.5-1.5q-2-2-2-9 0-3 1-4 0-1 1-1l28-19 9-4q-1 0-2-1-1 0-3-2-2-3 5-6t12-4q3 0 7 2l2 2 5-3 25-1 12 9 4-1 1 1q2 2 3 2l38-15-34-28-3 1h-2q-2 0-3-1-2-1-1-2.5t2-1.5q1-1 1-3-12-10-12-27 0-5 2-13h-1l-1-2v-1l1-2q1 0 1-1t1-2 1-2v-2l2 1 3 1q10-12 26-12 2 0 3 .5t3 .5q7-2 9-4 3 0 4 1l2 2 2 1 1 4 58 27h2q19 10 35 18 14 7 25.5 12.5T493 323q0-1 .5-3t2.5-1 9.5 4 7.5 4v2q0 1 1 2l6 4q2 2 5 3t5 3l6-1q0 2 2 6l2 4q0 1 1 2 0 1 .5 2.5t.5 3.5q0 4 2.5 8t4.5 9 4 16-5 22q-4 6-16.5 12.5t-33.5.5q-11-3-16.5-5.5T472 416l-6-3h-5l-11-4-3-6-30-19-49 20 1 1 2 3q1 1 3 2t2.5 2 2.5 2q2 2 4 5.5t4 3.5 3.5 2 4.5 4q2 1 2.5 3t.5 3q-3 2-3 5 0 1 1 1l1 1q1 1 1 1.5t1 1.5q1 4 2 4 1 1 1 2t-1 2l7 5q7 0 11 6h1l14-4q6-2 11.5-3.5t8.5-1.5q5 0 10.5 1t19.5 4q7 2 11.5 4.5t10 8.5 13.5 16.5 22 28.5 29 41.5 28 45.5q15 26 30 51l-16 10q-3 2-11 6l11 13-1 2 7 8-1 2z"/></svg>