<?xml version="1.0" encoding="utf-8"?>
<!-- Generator: Adobe Illustrator 21.0.2, SVG Export Plug-In . SVG Version: 6.00 Build 0)  -->
<svg version="1.1" id="Layer_1" xmlns="http://www.w3.org/2000/svg" xmlns:xlink="http://www.w3.org/1999/xlink" x="0px" y="0px"
	 width="300px" height="300px" viewBox="0 0 300 300" style="enable-background:new 0 0 300 300;" xml:space="preserve">
<path d="M259.2,226.3l-1.4,1.1l-4.6-5.4l-0.4,0.4l-2.9-3.2l-0.4,0.4l-4.6-5c-2.6,1.4-5.5,3-8.8,4.8c-3.2,1.8-6.1,3.4-8.8,4.8
	l3.6,3.9l-0.7,0.7l2.5,2.9l-0.4,0.7l4.6,5.4l-1.1,1.1l-5-5.4l-0.4,0.4l-2.5-3.2l-0.7,0.4l-4.3-5c-0.7,0.5-1.4,0.8-2,1.1
	c-0.6,0.2-1.1,0.5-1.6,0.7c-2.4,0.7-4.8,0.3-7.3-1.3c-2.5-1.5-6.1-4-10.9-7.3c-2.4-1.7-6.6-4.9-12.7-9.7
	c-6.1-4.8-12.3-9.7-18.8-14.8c-6.4-5.1-12.2-9.8-17.3-13.9c-5.1-4.2-8-6.5-8.8-7c-2.4-1.9-3.2-3.8-2.5-5.7l1.3-2.5l1.6-3.6l2.1-4.3
	l2.1-2.1l-10.7-10.7H137c-0.7,0-1.3,0.1-1.8,0.4c-1,0.5-1.8,0.4-2.7-0.4s-1.5-0.8-2-0.4c-0.5,0.2-1.1,0.1-2-0.5
	c-0.8-0.6-1.5-0.9-2-0.9l-0.7-0.7c-0.2-0.2-0.5-0.6-0.7-1.1l-0.7-1.4c-0.2-0.2-0.6-0.5-1.1-0.7c-0.5-0.2-0.9-0.4-1.3-0.5
	s-0.7-0.3-0.9-0.5c-0.7-0.2-1.1-0.7-1.1-1.4v-0.4l-1.1-1.4l-27.5,12.9l1.4,2.9H94l1.1,1.4h0.4l1.4,2.1l-0.4,0.7l0.7,0.7v1.4
	c0,1,0.4,1.8,1.1,2.5c0.5,1,0.8,2,1.1,3.2l0.7,3.6l0.4,3.9c0,0.2,0.1,0.5,0.4,0.7c0,0.2,0.1,0.5,0.4,0.7s0.4,0.6,0.4,1.1l0.4,0.4
	c0,0.2,0.1,0.5,0.4,0.7c0.2,0.7,0.2,1.4,0,2.1c-0.2,0.5-0.5,0.8-0.7,1.1c-0.5,0.5-1,0.8-1.4,1.1c-0.5,0.5-0.8,0.8-1.1,0.9
	c-0.2,0.1-0.5,0.3-0.7,0.5c-0.2,0.2-1.4,1.1-3.4,2.5c-2,1.4-5.1,2.5-9.1,3.2c-4.3,0-7.8-0.9-10.5-2.7c-2.7-1.8-4.9-3.8-6.6-5.9
	c-1.9-2.6-3.5-5.4-4.6-8.2l-2.1-1.8l-1.4-2.5l0.4-0.7l-3.2-6.1l-0.7-0.4l-0.4-0.7l0.4-3.2l-0.4-2.1l1.1-1.1l-10-27.5
	c-2.1-1.7-3.4-3.5-3.8-5.5c-0.4-2-0.4-3.6-0.2-4.8l-1.4-2.1h-0.7c-0.2,0-0.5-0.1-0.7-0.4l1.4-3.6H44v-0.4l1.4-0.4v0.4
	c0.7-1,2.1-2.1,4.3-3.4s5.1-1.8,8.9-1.6c-0.5-0.5,0.1-1,1.8-1.4c0.7-0.5,1.9-0.2,3.6,0.7c0.2,0.2,0.4,0.8,0.4,1.8
	c-0.2,0.5-0.4,0.8-0.4,1.1l0.7,1.1c1.2,0.5,2.4,1.4,3.6,2.7c1.2,1.3,1.7,3.3,1.4,5.9l0.4,0.4c1,1.9,1.9,3.7,2.9,5.4
	c0.7,1.4,1.4,2.7,2.1,3.9c0.7,1.2,1.2,2,1.4,2.5c0.2,0.7,0.8,1.1,1.8,1.1h1.1l2.9,5v-0.4l25.7-9.7l-0.4-2.1v-0.7
	c0.2-0.5,0.3-0.8,0.2-0.9s-0.2-0.3-0.2-0.5c-0.5-0.5-0.7-1.5-0.7-3.2c0-0.7,0.1-1.2,0.4-1.4c0-0.2,0.1-0.4,0.4-0.4l10-6.8l3.2-1.4
	c-0.2,0-0.5-0.1-0.7-0.4c-0.2,0-0.6-0.2-1.1-0.7c-0.5-0.7,0.1-1.4,1.8-2.1c1.7-0.7,3.1-1.2,4.3-1.4c0.7,0,1.5,0.2,2.5,0.7l0.7,0.7
	l1.8-1.1l8.9-0.4l4.3,3.2l1.4-0.4l0.4,0.4c0.5,0.5,0.8,0.7,1.1,0.7l13.6-5.4l-12.2-10l-1.1,0.4h-0.7c-0.5,0-0.8-0.1-1.1-0.4
	c-0.5-0.2-0.6-0.5-0.4-0.9c0.2-0.4,0.5-0.5,0.7-0.5c0.2-0.2,0.4-0.6,0.4-1.1c-2.9-2.4-4.3-5.6-4.3-9.7c0-1.2,0.2-2.7,0.7-4.6h-0.4
	l-0.4-0.7V69l0.4-0.7c0.2,0,0.4-0.1,0.4-0.4c0-0.2,0.1-0.5,0.4-0.7c0.2-0.2,0.4-0.5,0.4-0.7v-0.7l0.7,0.4l1.1,0.4
	c2.4-2.9,5.5-4.3,9.3-4.3c0.5,0,0.8,0.1,1.1,0.2c0.2,0.1,0.6,0.2,1.1,0.2c1.7-0.5,2.7-1,3.2-1.4c0.7,0,1.2,0.1,1.4,0.4l0.7,0.7
	l0.7,0.4l0.4,1.4l20.7,9.7h0.7c4.5,2.4,8.7,4.5,12.5,6.4c3.3,1.7,6.4,3.2,9.1,4.5c2.7,1.3,4.3,2.2,4.8,2.7c0-0.2,0.1-0.6,0.2-1.1
	c0.1-0.5,0.4-0.6,0.9-0.4s1.6,0.7,3.4,1.4c1.8,0.7,2.7,1.2,2.7,1.4v0.7c0,0.2,0.1,0.5,0.4,0.7l2.1,1.4c0.5,0.5,1.1,0.8,1.8,1.1
	c0.7,0.2,1.3,0.6,1.8,1.1l2.1-0.4c0,0.5,0.2,1.2,0.7,2.1l0.7,1.4c0,0.2,0.1,0.5,0.4,0.7c0,0.2,0.1,0.5,0.2,0.9
	c0.1,0.4,0.2,0.8,0.2,1.3c0,1,0.3,1.9,0.9,2.9c0.6,1,1.1,2,1.6,3.2c0.5,1.2,1,3.1,1.4,5.7c0.5,2.6-0.1,5.2-1.8,7.9
	c-1,1.4-2.9,2.9-5.9,4.5c-3,1.5-7,1.6-12,0.2c-2.6-0.7-4.6-1.4-5.9-2c-1.3-0.6-2.4-1.1-3.4-1.6l-2.1-1.1h-1.8l-3.9-1.4l-1.1-2.1
	l-10.7-6.8l-17.5,7.2l0.4,0.4l0.7,1.1c0.2,0.2,0.6,0.5,1.1,0.7c0.5,0.2,0.8,0.5,0.9,0.7c0.1,0.2,0.4,0.5,0.9,0.7
	c0.5,0.5,1,1.1,1.4,2c0.5,0.8,1,1.3,1.4,1.3s0.9,0.2,1.3,0.7s0.9,1,1.6,1.4c0.5,0.2,0.8,0.6,0.9,1.1c0.1,0.5,0.2,0.8,0.2,1.1
	c-0.7,0.5-1.1,1.1-1.1,1.8c0,0.2,0.1,0.4,0.4,0.4l0.4,0.4c0.2,0.2,0.4,0.4,0.4,0.5c0,0.1,0.1,0.3,0.4,0.5c0.2,1,0.5,1.4,0.7,1.4
	c0.2,0.2,0.4,0.5,0.4,0.7c0,0.2-0.1,0.5-0.4,0.7l2.5,1.8c1.7,0,3,0.7,3.9,2.1h0.4l5-1.4c1.4-0.5,2.8-0.9,4.1-1.3
	c1.3-0.4,2.3-0.5,3-0.5c1.2,0,2.4,0.1,3.8,0.4c1.3,0.2,3.6,0.7,7,1.4c1.7,0.5,3,1,4.1,1.6s2.3,1.6,3.6,3c1.3,1.4,2.9,3.4,4.8,5.9
	c1.9,2.5,4.5,5.9,7.9,10.2c3.3,4.3,6.8,9.2,10.4,14.8c3.6,5.6,6.9,11,10,16.3c3.6,6.2,7.2,12.3,10.7,18.2l-5.7,3.6
	c-0.7,0.5-2,1.2-3.9,2.1l3.9,4.6l-0.4,0.7l2.5,2.9l-0.4,0.7L259.2,226.3z"/>
</svg>
