<?xml version="1.0" encoding="utf-8"?>
<!-- Generator: Adobe Illustrator 21.0.2, SVG Export Plug-In . SVG Version: 6.00 Build 0)  -->
<svg version="1.1" id="Layer_1" xmlns="http://www.w3.org/2000/svg" xmlns:xlink="http://www.w3.org/1999/xlink" x="0px" y="0px"
	 width="300px" height="300px" viewBox="0 0 300 300" style="enable-background:new 0 0 300 300;" xml:space="preserve">
<path d="M282.1,43.1c-0.3,1.7-1.5,3-3.4,3.9c-1.9,0.9-3.9,1-6,0.3c-1.4-0.7-2.6-2.1-3.7-4.2c-0.7,0-1.7-0.1-3.1-0.3
	s-2.4-0.1-3.1,0.3c-0.3,0-0.6,0.2-0.8,0.5c-0.2,0.3-0.4,0.5-0.8,0.5c-0.7,0.3-2.4,0.3-5.2,0s-4.4-0.7-4.7-1c-1.7,0-2.9,0.3-3.4,1
	c-0.5,0.7-1.3,1.4-2.3,2.1c-1.7,0.7-3.4,0.6-5-0.3c-1.6-0.9-3-1.7-4.4-2.3c-1.7,0-2.8-0.3-3.1-1c-0.7,0-1.6,0.4-2.6,1.3
	c-1,0.9-2.1,1.7-3.1,2.3c-1.4,1-2.6,2.1-3.7,3.1l1,12L197,87.5l-12-2.6l-3.1,1.6l-6.3,13.1c0,0.3,0.3,0.7,1,1
	c0.7,0.7,1.7,1.4,3.1,2.1s3,1.7,4.7,3.1c0.3,0.7,0.7,1.5,1,2.3s0.7,1.7,1,2.3c0.3,0.7,0.5,1.5,0.5,2.3v2.3c-0.3,0.7-0.4,1.3-0.3,1.8
	s0.1,1.1-0.3,1.8c-0.7,2.8-1.8,4.9-3.4,6.3s-3.2,2.6-5,3.7c0,1.4,0.3,2.2,0.8,2.3s1.1,0.6,1.8,1.3s2.9,2.4,6.5,5.2
	c3.7,2.8,7.7,5.9,12,9.4c4.4,3.5,8.4,6.7,12,9.7c3.7,3,5.8,4.8,6.5,5.5h3.7c2.8,0.7,5.2,2.3,7.3,4.7c2.1,2.4,3.8,4.5,5.2,6.3
	l2.6,2.6c0.7,1,2.2,2.9,4.4,5.5c2.3,2.6,4.6,5.4,7,8.4c2.4,3,4.6,5.6,6.5,7.8s3,3.4,3.4,3.4l-2.1,2.3l-4.7,5l-5,5l-2.9,2.3l-4.7-1
	l-9.7-2.6l-10.4-2.9l-7-1.8c-1.7-0.7-3.2-1.1-4.4-1.3s-2.3-0.6-3.4-1.3c-0.7-0.7-2-1.6-3.9-2.6c-1.9-1-3.2-1.9-3.9-2.6s-1-1.6-1-2.6
	s-0.3-1.9-1-2.6l-3.4-1.8l-7.3-3.9l-7.3-3.9l-3.9-1.8h-2.1c-0.3,0-2-0.8-5-2.3c-3-1.6-6.1-3.2-9.4-5c-3.3-1.7-6.4-3.4-9.1-5
	l-4.2-2.3c-0.3,0-0.4-0.2-0.3-0.5c0.2-0.3-0.1-0.7-0.8-1c-0.7-0.7-1.8-1.5-3.4-2.3s-2.5-1.3-2.9-1.3h-2.1c-1.7,0-3.5-0.9-5.2-2.6
	c-0.7,0-1,0.1-1,0.3s-0.3,0.3-1,0.3l0.8,3.1l0.8,2.6c1,4.2,0.5,7.7-1.6,10.4c-1.7,2.8-4.5,4.9-8.4,6.3s-7.7,1-11.5-1
	c-2.8-2.1-4.9-4.4-6.3-6.8c-1.4-1.4-2.4-2.8-3.1-4.2l-9.9,2.1l-6.3,6.3l-0.5,12l-29.2,26.1l-12.5-2.6l-7.3,5.7c0,0.3,0.2,0.7,0.5,1
	c0.3,0.3,0.6,0.8,0.8,1.3s0.6,1,1.3,1.3l1,2.1l0.5,2.1c1,2.4,0.7,4.5-1,6.3c0,0.3-0.2,0.6-0.5,0.8c-0.3,0.2-0.3,0.6,0,1.3
	c0.3,1,1.2,2.4,2.6,4.2c1.4,1.7,1.2,3.3-0.5,4.7c0,1.7,0.4,2.6,1.3,2.6c0.9,0,1.8,0.2,2.9,0.5c1,0.3,2.3,1.6,3.7,3.7
	c0.7,2.4,0.5,4.3-0.5,5.5s-0.7,2.7,1,4.4c0,0.7-0.1,1.1-0.3,1.3S43,264.3,43,265c0.7,0.7,1.2,1.6,1.6,2.6s1,1.9,2.1,2.6v0.5
	c-0.3,0-0.6,0.1-0.8,0.3s-0.4,0.3-0.8,0.3c-0.7-0.7-1.4-1.6-2.1-2.6s-1.2-2.1-1.6-3.1c-1,0.7-2.1,0.5-3.1-0.5
	c-0.3-0.3-0.5-0.8-0.5-1.3s-0.3-1.1-1-1.8c-1.4,0-2.3-0.2-2.6-0.5c-0.7-0.3-1.8-1.2-3.4-2.6c-1.6-1.4-2-2.6-1.3-3.7
	c0-2.1-0.9-3.7-2.6-4.7c0-1,0.5-1.9,1.6-2.6c0-1-0.4-2.6-1.3-4.7c-0.9-2.1-1.7-3.3-2.3-3.7c-0.3,0-0.6-0.1-0.8-0.3s-0.6-0.3-1.3-0.3
	c-2.4-0.7-4-2.1-4.7-4.2c-1-1.7-1.2-4-0.5-6.8c0-0.3,0.2-0.8,0.5-1.3s0.3-1.1,0-1.8l-1.6-4.7c-0.7-1-1.9-2.6-3.7-4.7
	c-1.7-2.1-1.9-4-0.5-5.7v-1.6c0-0.3-0.3-0.9-1-1.6c-0.3-0.3-0.5-0.7-0.5-1s-0.2-0.9-0.5-1.6c0-3.1,1.4-4.6,4.2-4.4s4.9,1.1,6.3,2.9
	c0.7,0,3.4-2.2,8.1-6.5s9.8-9.3,15.4-14.9c5.6-5.6,10.8-10.7,15.7-15.4c4.9-4.7,7.7-7.4,8.4-8.1c0-1.4-0.3-3.1-1-5.2
	c0-0.7,0.3-1.9,1-3.7s1.2-2.8,1.6-3.1c0-1-0.3-1.7-0.8-2.1s-1-0.9-1.3-1.6c-1-1.4-2.3-3.4-3.7-6c-1.4-2.6-1.7-5-1-7
	c1.7-5.2,4.7-8.9,8.9-11c3.5-1.4,7.1-1.1,11,0.8c3.8,1.9,6.4,3.7,7.8,5.5c1,0,1.7-0.2,2.1-0.5s0.5-0.7,0.5-1l-1-2.6v-1
	c0-0.3,0.1-0.5,0.3-0.5s0.3-0.2,0.3-0.5c0.3-0.7,0.3-1.8-0.3-3.4s-1-2.7-1.3-3.4c-1-5.2-0.3-9.7,2.1-13.6c1-1.7,2.2-2.9,3.4-3.4
	c1.2-0.5,2.9-1.7,5-3.4c2.1-1.7,4.9-2.4,8.4-2.1c3.5,0.3,6.1,1.2,7.8,2.6c0.3,0,0.9-0.3,1.6-1c0.3-0.3,0.5-0.7,0.5-1
	c-0.3-0.3-0.7-0.9-1-1.6c-0.7-1.4-1-2.6-1-3.7c-0.7-2.4-0.7-4.7,0-6.8c0.7-2.1,1.6-3.8,2.6-5.2c0.7-1,2.3-2,5-2.9c2.6-0.9,5-1,7-0.3
	c4.9,1,9.7,2.6,14.6,4.7c0.7,0.3,1.3,0.7,1.8,1s1.1,0.5,1.8,0.5c0.7,0.3,1.2,0.3,1.6,0s0.7-0.5,1-0.5c0.7,0.3,1.6,0.7,2.6,1
	c1,0.3,1.7,0.7,2.1,1c0.7,0,3.5-1.8,8.4-5.5c4.9-3.7,10.1-7.7,15.7-12.3c5.6-4.5,10.8-8.7,15.7-12.5c4.9-3.8,7.7-6.1,8.4-6.8
	c0-1.4-0.5-2.4-1.6-3.1c-1-0.7-1.2-1.9-0.5-3.7c0.7-3.8,3-4.7,6.8-2.6c1,0,1.7,0.2,2.1,0.5c1,0,1.9-0.2,2.6-0.5l2.1-1
	c1-0.3,3-0.3,6,0s4.8,0.7,5.5,1c0.7,0,1.2,0.2,1.6,0.5s0.9,0.7,1.6,1c0.7,0,1.3-0.2,1.8-0.5c0.5-0.3,1.1-0.5,1.8-0.5h3.1
	c0.3-0.3,0.8-0.6,1.3-0.8c0.5-0.2,1.1-0.4,1.8-0.8c1.4-0.3,2.9-0.1,4.4,0.8c1.6,0.9,2.7,1.7,3.4,2.3c0.3,0.7,0.5,1.2,0.5,1.6
	s0.2,0.7,0.5,1c1.7,0,3.6,0.1,5.5,0.3c1.9,0.2,3.7,0.4,5.5,0.8c0.7,0.3,1.1,0.8,1.3,1.3s0.6,0.8,1.3,0.8c0.7,0.3,1.3,0.4,1.8,0.3
	c0.5-0.2,1.1-0.1,1.8,0.3c1,0.3,1.7,0.3,1.8-0.3c0.2-0.5,0.6-1,1.3-1.3c0-0.3-0.1-0.6-0.3-0.8s-0.3-0.4-0.3-0.8v-0.5
	c0-1,0.2-1.9,0.5-2.6c0.7-1.4,1.9-2.3,3.7-2.6c0.7,0,1,0.7,0.8,2.1c-0.2,1.4-0.1,2.4,0.3,3.1s0.8,1,1.3,0.8c0.5-0.2,1.1-0.1,1.8,0.3
	l2.3,2.3l1.3,2.9c0.3,0.3,0.7,0.5,1,0.5h6.3v1.6H282.1z"/>
</svg>
