<svg xmlns="http://www.w3.org/2000/svg" viewBox="0 -250 1000 1000"><path fill="currentColor" d="M549 296q-1 5-6.5 7.5t-11.5.5q-4-2-7-8-2 0-6-.5t-6 .5q-1 0-1.5 1t-1.5 1q-2 1-10 0t-9-2q-5 0-6.5 2t-4.5 4q-5 2-9.5-.5T461 297q-5 0-6-2-2 0-5 2.5t-6 4.5q-4 3-7 6l2 23-53 50-23-5-6 3-12 25q0 1 2 2 2 2 6 4t9 6q1 2 2 4.5t2 4.5 1 4.5v4.5q-1 2-.5 3.5t-.5 3.5q-2 8-6.5 12t-9.5 7q0 4 1.5 4.5t3.5 2.5 12.5 10 23 18 23 18.5T426 524h7q8 2 14 9t10 12l5 5q2 3 8.5 10.5t13.5 16 12.5 15 6.5 6.5l-4 4.5-9 9.5-9.5 9.5-5.5 4.5-9-2-18.5-5-20-5.5L414 610q-5-2-8.5-2.5T399 605q-2-2-7.5-5t-7.5-5-2-5-2-5l-6.5-3.5-14-7.5-14-7.5-7.5-3.5h-4q-1 0-9.5-4.5t-18-9.5-17.5-9.5l-8-4.5q-1 0-.5-1t-1.5-2q-2-2-6.5-4.5T267 525h-4q-5 0-10-5-2 0-2 .5t-2 .5l1.5 6 1.5 5q3 12-3 20-5 8-16 12t-22-2q-8-6-12-13-4-4-6-8l-19 4-12 12-1 23-56 50-24-5-14 11q0 1 1 2t1.5 2.5T72 643l2 4 1 4q3 7-2 12 0 1-1 1.5t0 2.5q1 3 5 8t-1 9q0 5 2.5 5t5.5 1 7 7q2 7-1 10.5t2 8.5q0 2-.5 2.5T91 721q2 2 3 5t4 5v1q-1 0-1.5.5t-1.5.5q-2-2-4-5t-3-6q-3 2-6-1-1-1-1-2.5t-2-3.5q-4 0-5-1-2-1-6.5-5t-2.5-7q0-6-5-9 0-3 3-5 0-3-2.5-9t-4.5-7q-1 0-1.5-.5T52 671q-7-2-9-8-3-5-1-13 0-1 1-2.5t0-3.5l-3-9q-2-3-7-9t-1-11v-3q0-1-2-3-1-1-1-2t-1-3q0-9 8-8.5t12 5.5q2 0 15.5-12.5T93 560t30-29.5 16-15.5q0-4-2-10 0-2 2-7t3-6q0-3-1.5-4t-2.5-3q-3-4-7-11.5t-2-13.5q5-15 17-21 10-4 21 1.5t15 10.5q3 0 4-1t1-2l-2-5v-2q0-1 .5-1t.5-1q1-2-.5-6.5T183 426q-3-15 4-26 3-5 6.5-6.5t9.5-6.5 16-4 15 5q1 0 3-2 1-1 1-2-1-1-2-3-2-4-2-7-2-7 0-13t5-10q2-3 9.5-5.5t13.5-.5q14 3 28 9 2 1 3.5 2t3.5 1q2 1 3 0t2-1q2 1 5 2t4 2q2 0 16-10.5t30-23.5 30-24 16-13q0-4-3-6t-1-7q2-11 13-5 3 0 4 1 3 0 5-1l4-2q3-1 11.5 0t10.5 2q2 0 3 1t3 2q2 0 3.5-1t3.5-1h6q1-1 2.5-1.5t3.5-1.5q4-1 8.5 1.5t6.5 4.5q1 2 1 3t1 2q5 0 10.5.5T510 282q2 1 2.5 2.5t2.5 1.5q2 1 3.5.5t3.5.5q3 1 3.5-.5t2.5-2.5q0-1-.5-1.5t-.5-1.5v-1q0-3 1-5 2-4 7-5 2 0 1.5 4t.5 6 2.5 1.5 3.5.5l4.5 4.5 2.5 5.5q1 1 2 1h12v3h-15z"/></svg>